<svg id="eT1w4UWenqA1" xmlns="http://www.w3.org/2000/svg" xmlns:xlink="http://www.w3.org/1999/xlink" viewBox="0 0 512.001 512.001" shape-rendering="geometricPrecision" text-rendering="geometricPrecision" style="background-color:#00caff"><rect width="504.293806" height="505.745442" rx="0" ry="0" fill="#2cc7fd" stroke-width="0"/><path d="M0,503.234997l29.305529-18.966528l16.658785,5.261434L83.79657,478.77288l55.962089,24.462116L0,503.234997Z" transform="translate(.000002 0.000003)" fill="rgba(80,76,67,0.15)" stroke-width="1.024002"/><path d="M269.63458,505.74544l29.30553-60.18914l16.65879,16.69685l37.83226-34.13677l55.96209,77.62906h-139.75867Z" fill="rgba(80,76,67,0.15)" stroke-width="1.024002"/><g transform="matrix(.323974 0 0 0.216043 336.784065 394.514814)"><path d="M172.617,225.519c37.283,16.97,72.509,20.359,73.303,20.43-8.812,15.381-3.109,25.482-16.397,40.909-46.75-7.012-87.574-41.447-102.242-67.791h-.012c-3.775-6.785-6.783-13.183-9.14-18.802-1.959-4.669,3.814-8.701,7.522-5.253c14.281,13.276,30.812,23.166,46.966,30.507Z" fill="#b27214"/><path d="M162.487,242.081c-3.551,0-6.428-2.873-6.428-6.422c0-.06,0-.132.002-.192l1.695-60.412c.099-3.548,3.046-6.344,6.606-6.246c3.548.099,6.345,3.057,6.246,6.606l-1.694,60.391c-.085,3.477-2.93,6.275-6.427,6.275Z" fill="#b27214"/><path d="M113.529,229.957c-3.104,0-5.836-2.253-6.339-5.417-.56-3.506,1.829-6.801,5.335-7.36l23.083-3.682c.335-.054.673-.081,1.012-.081c3.551,0,6.434,2.877,6.434,6.428c0,3.268-2.434,5.966-5.59,6.374l-22.914,3.655c-.345.057-.685.083-1.021.083Z" fill="#b27214"/><path d="M304.157,390.006l21.632-9.649c4.421-1.973,6.407-7.155,4.435-11.576-1.973-4.421-7.154-6.406-11.575-4.434l-15.106,6.738c-.174-23.985,1.83-49.723,5.827-76.785c4.254-28.891,10.764-59.279,19.249-90.613c12.283-45.347,2.536-78.902-13.031-102.616-13.592-20.722-31.638-33.94-43.29-40.941-6.825-4.114-11.465-6.089-11.746-6.206.795,2.186,1.566,4.383,2.302,6.58c11.021,32.748,15.848,66.735,11.664,101.423-3.331,27.664-12.389,55.761-28.599,84.021-8.812,15.381-19.752,30.808-33.04,46.235-70.347,81.695-47.65,211.051-47.65,211.051h177.006c-23.23-27.45-35.302-66.459-38.078-113.228Z" fill="#b27214"/><path d="M267.32,71.73c-.809-.064-1.619-.284-2.389-.674-.896-.453-22.106-11.338-34.55-30.628-7.188-11.144-10.057-22.857-8.527-34.812.45-3.523,3.671-6.021,7.191-5.561c3.521.45,6.011,3.67,5.561,7.191-1.134,8.867,1.079,17.687,6.579,26.213c10.576,16.393,29.363,26.03,29.552,26.125c3.167,1.602,4.437,5.471,2.833,8.638-1.214,2.4-3.727,3.709-6.25,3.508Z" fill="#b27214"/><path d="M235.265,43.352c-1.081-.086-2.154-.448-3.112-1.103-2.93-2.006-3.679-6.005-1.675-8.935L251.026,3.287c2.004-2.931,6.006-3.679,8.935-1.675c2.93,2.006,3.679,6.005,1.675,8.935L241.088,40.574c-1.349,1.971-3.602,2.956-5.823,2.778Z" fill="#b27214"/></g><g transform="matrix(.323974 0 0 0.216043-26.05856 395.004372)"><path d="M172.617,225.519c37.283,16.97,72.509,20.359,73.303,20.43-8.812,15.381-3.109,25.482-16.397,40.909-46.75-7.012-87.574-41.447-102.242-67.791h-.012c-3.775-6.785-6.783-13.183-9.14-18.802-1.959-4.669,3.814-8.701,7.522-5.253c14.281,13.276,30.812,23.166,46.966,30.507Z" fill="#b27214"/><path d="M162.487,242.081c-3.551,0-6.428-2.873-6.428-6.422c0-.06,0-.132.002-.192l1.695-60.412c.099-3.548,3.046-6.344,6.606-6.246c3.548.099,6.345,3.057,6.246,6.606l-1.694,60.391c-.085,3.477-2.93,6.275-6.427,6.275Z" fill="#b27214"/><path d="M113.529,229.957c-3.104,0-5.836-2.253-6.339-5.417-.56-3.506,1.829-6.801,5.335-7.36l23.083-3.682c.335-.054.673-.081,1.012-.081c3.551,0,6.434,2.877,6.434,6.428c0,3.268-2.434,5.966-5.59,6.374l-22.914,3.655c-.345.057-.685.083-1.021.083Z" fill="#b27214"/><path d="M304.157,390.006l21.632-9.649c4.421-1.973,6.407-7.155,4.435-11.576-1.973-4.421-7.154-6.406-11.575-4.434l-15.106,6.738c-.174-23.985,1.83-49.723,5.827-76.785c4.254-28.891,10.764-59.279,19.249-90.613c12.283-45.347,2.536-78.902-13.031-102.616-13.592-20.722-31.638-33.94-43.29-40.941-6.825-4.114-11.465-6.089-11.746-6.206.795,2.186,1.566,4.383,2.302,6.58c11.021,32.748,15.848,66.735,11.664,101.423-3.331,27.664-12.389,55.761-28.599,84.021-8.812,15.381-19.752,30.808-33.04,46.235-70.347,81.695-47.65,211.051-47.65,211.051h177.006c-23.23-27.45-35.302-66.459-38.078-113.228Z" fill="#b27214"/><path d="M267.32,71.73c-.809-.064-1.619-.284-2.389-.674-.896-.453-22.106-11.338-34.55-30.628-7.188-11.144-10.057-22.857-8.527-34.812.45-3.523,3.671-6.021,7.191-5.561c3.521.45,6.011,3.67,5.561,7.191-1.134,8.867,1.079,17.687,6.579,26.213c10.576,16.393,29.363,26.03,29.552,26.125c3.167,1.602,4.437,5.471,2.833,8.638-1.214,2.4-3.727,3.709-6.25,3.508Z" fill="#b27214"/><path d="M235.265,43.352c-1.081-.086-2.154-.448-3.112-1.103-2.93-2.006-3.679-6.005-1.675-8.935L251.026,3.287c2.004-2.931,6.006-3.679,8.935-1.675c2.93,2.006,3.679,6.005,1.675,8.935L241.088,40.574c-1.349,1.971-3.602,2.956-5.823,2.778Z" fill="#b27214"/></g><path d="M231.334,344.52c-5.294,23.725-7.749,50.957-4.967,83.659c1.882,22.276,6.194,47.089,13.674,75.057h-74.811c0,0-22.697-129.356,47.65-211.051c13.289-15.427,24.228-30.855,33.04-46.235c16.21-28.26,25.268-56.357,28.599-84.021c3.808-31.571.152-62.562-8.845-92.565-1.348-4.495,1.935-9.046,6.624-9.232v0c0,0,33.192,58.04,15.661,137.514-10.6,48.069-43.009,85.854-56.625,146.874Z" transform="matrix(.323974 0 0 0.216043 335.525542 397.024827)" fill="#995c0d"/><path d="M231.334,344.52c-5.294,23.725-7.749,50.957-4.967,83.659c1.882,22.276,6.194,47.089,13.674,75.057h-74.811c0,0-22.697-129.356,47.65-211.051c13.289-15.427,24.228-30.855,33.04-46.235c16.21-28.26,25.268-56.357,28.599-84.021c3.808-31.571.152-62.562-8.845-92.565-1.348-4.495,1.935-9.046,6.624-9.232v0c0,0,33.192,58.04,15.661,137.514-10.6,48.069-43.009,85.854-56.625,146.874Z" transform="matrix(.323974 0 0 0.216043-27.317084 394.514385)" fill="#995c0d"/><path d="M423.363,150.795c.082,4.343-.709,8.506-2.216,12.31-4.583,11.567-15.767,19.838-28.986,20.089-.327-17.558,13.641-32.067,31.202-32.399Z" transform="translate(24.928605 216.058744)" fill="#f7b239"/><path d="M423.363,150.795c.082,4.343-.709,8.506-2.216,12.31-4.583,11.567-15.767,19.838-28.986,20.089-.327-17.558,13.641-32.067,31.202-32.399Z" transform="translate(-337.914021 213.548302)" fill="#f7b239"/><g transform="matrix(.323974 0 0 0.216043 342.277338 412.178554)"><path d="M406.612,244.906l-30.441-3.45c10.748-15.576,18.847-32.747,24.126-51.247c1.329-4.655-1.369-9.505-6.024-10.834-4.65-1.324-9.507,1.369-10.834,6.025-6.111,21.42-16.402,40.864-30.587,57.794-.028.033-.06.061-.088.095-25.664,30.626-55.668,42.737-55.969,42.855-4.498,1.769-6.716,6.846-4.953,11.35c1.353,3.459,4.661,5.575,8.165,5.575c1.061,0,2.142-.195,3.191-.605c1.345-.526,32.313-12.89,60.326-44.797l41.113,4.659c.335.039.667.056.998.056c4.399,0,8.192-3.304,8.698-7.779.546-4.81-2.912-9.152-7.721-9.697Z" fill="#b27214"/><path d="M388.591,77.212l-24.608-3.52c3.338-4.931,6.339-10.325,8.776-16.243c1.842-4.476-.292-9.599-4.768-11.442-4.477-1.843-9.6.292-11.443,4.768-14.123,34.305-52.715,48.853-53.303,49.071-4.545,1.653-6.893,6.672-5.248,11.221c1.29,3.567,4.656,5.785,8.243,5.785.991,0,1.999-.169,2.984-.526c1.295-.469,22.677-8.401,41.506-26.821l35.38,5.062c.421.061.839.09,1.253.09c4.29,0,8.041-3.154,8.666-7.526.683-4.792-2.646-9.233-7.438-9.919Z" fill="#b27214"/></g><g transform="matrix(.323974 0 0 0.216043-20.565288 412.668112)"><path d="M406.612,244.906l-30.441-3.45c10.748-15.576,18.847-32.747,24.126-51.247c1.329-4.655-1.369-9.505-6.024-10.834-4.65-1.324-9.507,1.369-10.834,6.025-6.111,21.42-16.402,40.864-30.587,57.794-.028.033-.06.061-.088.095-25.664,30.626-55.668,42.737-55.969,42.855-4.498,1.769-6.716,6.846-4.953,11.35c1.353,3.459,4.661,5.575,8.165,5.575c1.061,0,2.142-.195,3.191-.605c1.345-.526,32.313-12.89,60.326-44.797l41.113,4.659c.335.039.667.056.998.056c4.399,0,8.192-3.304,8.698-7.779.546-4.81-2.912-9.152-7.721-9.697Z" fill="#b27214"/><path d="M388.591,77.212l-24.608-3.52c3.338-4.931,6.339-10.325,8.776-16.243c1.842-4.476-.292-9.599-4.768-11.442-4.477-1.843-9.6.292-11.443,4.768-14.123,34.305-52.715,48.853-53.303,49.071-4.545,1.653-6.893,6.672-5.248,11.221c1.29,3.567,4.656,5.785,8.243,5.785.991,0,1.999-.169,2.984-.526c1.295-.469,22.677-8.401,41.506-26.821l35.38,5.062c.421.061.839.09,1.253.09c4.29,0,8.041-3.154,8.666-7.526.683-4.792-2.646-9.233-7.438-9.919Z" fill="#b27214"/></g><path d="M414.85,512.001h-317.699c-4.841,0-8.766-3.925-8.766-8.766s3.925-8.766,8.766-8.766h317.699c4.842,0,8.766,3.925,8.766,8.766s-3.924,8.766-8.766,8.766Z" transform="matrix(3.521808 0 0 1-638.825386 8.766)" fill="#995c0d"/><g transform="matrix(.323974 0 0 0.216043 328.211428 372.61503)"><path d="M293.518,177.169c-.629,0-1.267-.068-1.907-.21-.361-.081-8.985-2.022-20.543-6.975-12.815-5.488-24.082-12.393-33.487-20.523-8.274-7.148-15.021-15.233-20.051-24.031-2.403-4.203-.944-9.558,3.258-11.961s9.557-.944,11.961,3.258c4.043,7.07,9.525,13.619,16.295,19.469c8.039,6.949,17.771,12.895,28.925,17.673c9.952,4.264,17.382,5.962,17.456,5.979c4.717,1.064,7.689,5.747,6.634,10.466-.914,4.081-4.528,6.855-8.541,6.855Z" fill="#b27214"/><path d="M218.133,163.157c-3.32,0-6.497-1.897-7.972-5.112-2.02-4.4-.09-9.604,4.31-11.623l25.186-11.559c4.4-2.018,9.604-.09,11.623,4.31c2.02,4.4.09,9.604-4.31,11.623l-25.186,11.559c-1.185.545-2.428.802-3.651.802Z" fill="#b27214"/></g><g transform="matrix(.323974 0 0 0.216043-34.631197 373.104588)"><path d="M293.518,177.169c-.629,0-1.267-.068-1.907-.21-.361-.081-8.985-2.022-20.543-6.975-12.815-5.488-24.082-12.393-33.487-20.523-8.274-7.148-15.021-15.233-20.051-24.031-2.403-4.203-.944-9.558,3.258-11.961s9.557-.944,11.961,3.258c4.043,7.07,9.525,13.619,16.295,19.469c8.039,6.949,17.771,12.895,28.925,17.673c9.952,4.264,17.382,5.962,17.456,5.979c4.717,1.064,7.689,5.747,6.634,10.466-.914,4.081-4.528,6.855-8.541,6.855Z" fill="#b27214"/><path d="M218.133,163.157c-3.32,0-6.497-1.897-7.972-5.112-2.02-4.4-.09-9.604,4.31-11.623l25.186-11.559c4.4-2.018,9.604-.09,11.623,4.31c2.02,4.4.09,9.604-4.31,11.623l-25.186,11.559c-1.185.545-2.428.802-3.651.802Z" fill="#b27214"/></g><rect width="171.862418" height="42.699997" rx="21.35" ry="21.35" transform="matrix(.634124 0 0 0.610984 67.253601 30.78367)" fill="#fff" stroke-width="0"/><rect width="171.862418" height="42.699997" rx="21.35" ry="21.35" transform="matrix(.634124 0 0 0.610984 29.305529 50.891068)" fill="#fff" stroke-width="0"/><rect width="171.862418" height="42.699997" rx="21.35" ry="21.35" transform="matrix(.267908 0 0 0.293543 354.941761 235.032352)" fill="#fff" stroke-width="0"/><rect width="171.862418" height="42.699997" rx="21.35" ry="21.35" transform="matrix(.267907 0 0 0.395028 400.985077 214.752458)" fill="#fff" stroke-width="0"/><rect width="171.862418" height="42.699997" rx="21.35" ry="21.35" transform="matrix(.424491 0 0 0.395028 364.508052 224.4318)" fill="#fff" stroke-width="0"/><rect width="171.862418" height="42.699997" rx="21.35" ry="21.35" transform="matrix(.424491 0 0 0.395028 103.281635 178.065484)" fill="#fff" stroke-width="0"/><rect width="171.862418" height="42.699997" rx="21.35" ry="21.35" transform="matrix(.424491 0 0 0.395028 123.110668 186.499331)" fill="#fff" stroke-width="0"/><rect width="171.862418" height="42.699997" rx="21.35" ry="21.35" transform="matrix(.424491 0 0 0.395028 109.348204 197.884764)" fill="#fff" stroke-width="0"/><ellipse rx="46.276336" ry="46.15562" transform="matrix(.447149 0 0 0.442017 119.066266 85.665081)" fill="#fff" stroke-width="0"/><ellipse rx="46.276336" ry="46.15562" transform="matrix(.762154 0 0 0.753408 153.527926 76.980083)" fill="#fff" stroke-width="0"/><ellipse rx="46.276336" ry="46.15562" transform="matrix(.762154 0 0 0.753408 377.963419 206.525475)" fill="#fff" stroke-width="0"/><ellipse rx="46.276336" ry="46.15562" transform="matrix(.555433 0 0 0.549062 120.121825 189.410161)" fill="#fff" stroke-width="0"/><rect width="171.862418" height="42.699997" rx="21.35" ry="21.35" transform="matrix(.35505 0 0 0.688571-261.683845 313.40876)" fill="#fff" stroke-width="0"/></svg>
