<?xml version="1.0" encoding="UTF-8"?>
<!DOCTYPE svg PUBLIC "-//W3C//DTD SVG 1.1//EN" "http://www.w3.org/Graphics/SVG/1.1/DTD/svg11.dtd">
<svg xmlns="http://www.w3.org/2000/svg" version="1.1" width="300px" height="300px" style="shape-rendering:geometricPrecision; text-rendering:geometricPrecision; image-rendering:optimizeQuality; fill-rule:evenodd; clip-rule:evenodd" xmlns:xlink="http://www.w3.org/1999/xlink">
<g><path style="opacity:0.127" fill="#010101" d="M 145.5,-0.5 C 157.5,-0.5 169.5,-0.5 181.5,-0.5C 200.355,3.28805 218.355,9.78805 235.5,19C 245.871,24.3701 253.038,32.5367 257,43.5C 258.184,47.4489 258.518,51.4489 258,55.5C 256.539,60.4191 254.539,65.0858 252,69.5C 250.561,78.4497 249.561,87.4497 249,96.5C 247.549,125.153 247.216,153.82 248,182.5C 248.608,193.758 250.608,204.758 254,215.5C 259.746,231.738 266.079,247.738 273,263.5C 278.069,279.13 273.569,291.13 259.5,299.5C 251.833,299.5 244.167,299.5 236.5,299.5C 226.283,291.625 216.616,282.959 207.5,273.5C 185.747,285.893 162.747,294.56 138.5,299.5C 133.167,299.5 127.833,299.5 122.5,299.5C 61.9372,296.437 26.1038,265.103 15,205.5C 10.0183,176.09 10.3517,146.757 16,117.5C 30.7841,65.7139 62.9508,29.2139 112.5,8C 123.429,4.35205 134.429,1.51871 145.5,-0.5 Z M 157.5,57.5 C 169.442,56.0698 180.442,58.5698 190.5,65C 186.677,82.2496 185.01,99.7496 185.5,117.5C 186.071,150.355 188.738,183.022 193.5,215.5C 171.677,237.713 145.344,245.88 114.5,240C 95.4596,233.954 83.6262,221.121 79,201.5C 65.6646,151.972 77.8313,110.139 115.5,76C 128.009,66.2412 142.009,60.0745 157.5,57.5 Z"/></g>
<g><path style="opacity:0.999" fill="#fdfdfd" d="M 156.5,3.5 C 186.165,3.33431 213.498,11.1676 238.5,27C 246.937,33.0368 251.937,41.2035 253.5,51.5C 253.158,53.8668 252.658,56.2001 252,58.5C 249.848,61.6343 248.182,64.9677 247,68.5C 242.82,106.386 241.486,144.386 243,182.5C 243.644,192.673 245.31,202.673 248,212.5C 254.02,230.894 261.02,248.894 269,266.5C 272.277,284.418 264.777,294.751 246.5,297.5C 239.993,295.824 234.326,292.657 229.5,288C 222.302,281.136 215.468,273.97 209,266.5C 189.168,278.498 168.002,287.332 145.5,293C 118.202,296.386 92.2025,292.053 67.5,280C 43.062,264.85 27.8953,243.016 22,214.5C 14.0219,178.633 14.6886,142.966 24,107.5C 39.6037,65.228 67.7704,34.3946 108.5,15C 124.032,8.61555 140.032,4.78222 156.5,3.5 Z M 157.5,57.5 C 142.009,60.0745 128.009,66.2412 115.5,76C 77.8313,110.139 65.6646,151.972 79,201.5C 83.6262,221.121 95.4596,233.954 114.5,240C 145.344,245.88 171.677,237.713 193.5,215.5C 188.738,183.022 186.071,150.355 185.5,117.5C 185.01,99.7496 186.677,82.2496 190.5,65C 180.442,58.5698 169.442,56.0698 157.5,57.5 Z"/></g>
<g><path style="opacity:0.128" fill="#010101" d="M 157.5,52.5 C 170.744,51.3019 183.077,54.1352 194.5,61C 195.059,61.7247 195.392,62.5581 195.5,63.5C 190.25,93.654 189.083,123.987 192,154.5C 193.872,175.888 195.872,197.221 198,218.5C 174.572,241.974 146.405,250.807 113.5,245C 94.7873,239.288 82.2873,227.122 76,208.5C 68.743,183.409 67.743,158.075 73,132.5C 82.6692,98.8394 103.169,74.3394 134.5,59C 142.071,56.0278 149.738,53.8611 157.5,52.5 Z M 157.5,57.5 C 142.009,60.0745 128.009,66.2412 115.5,76C 77.8313,110.139 65.6646,151.972 79,201.5C 83.6262,221.121 95.4596,233.954 114.5,240C 145.344,245.88 171.677,237.713 193.5,215.5C 188.738,183.022 186.071,150.355 185.5,117.5C 185.01,99.7496 186.677,82.2496 190.5,65C 180.442,58.5698 169.442,56.0698 157.5,57.5 Z"/></g>
</svg>
