<?xml version="1.0" encoding="UTF-8"?>
<!DOCTYPE svg PUBLIC "-//W3C//DTD SVG 1.1//EN" "http://www.w3.org/Graphics/SVG/1.1/DTD/svg11.dtd">
<svg xmlns="http://www.w3.org/2000/svg" version="1.1" width="500px" height="500px" style="shape-rendering:geometricPrecision; text-rendering:geometricPrecision; image-rendering:optimizeQuality; fill-rule:evenodd; clip-rule:evenodd" xmlns:xlink="http://www.w3.org/1999/xlink">
<g><path style="opacity:1" fill="#f7f8f7" d="M -0.5,-0.5 C 166.167,-0.5 332.833,-0.5 499.5,-0.5C 499.5,166.167 499.5,332.833 499.5,499.5C 332.833,499.5 166.167,499.5 -0.5,499.5C -0.5,332.833 -0.5,166.167 -0.5,-0.5 Z M 214.5,132.5 C 238.701,130.618 259.201,138.285 276,155.5C 278.75,159.332 281.25,163.332 283.5,167.5C 284.325,168.386 285.325,168.719 286.5,168.5C 286.179,157.252 286.513,146.085 287.5,135C 302.83,134.5 318.163,134.333 333.5,134.5C 333.5,196.833 333.5,259.167 333.5,321.5C 317.833,321.5 302.167,321.5 286.5,321.5C 286.5,310.167 286.5,298.833 286.5,287.5C 285.325,287.281 284.325,287.614 283.5,288.5C 272.337,308.477 255.337,319.977 232.5,323C 182.551,325.064 152.384,301.564 142,252.5C 137.721,227.843 140.055,203.843 149,180.5C 162.007,152.31 183.84,136.31 214.5,132.5 Z M 309.5,143.5 C 317.1,143.213 318.767,146.046 314.5,152C 315.448,152.483 316.448,152.649 317.5,152.5C 317.5,153.5 317.5,154.5 317.5,155.5C 314.5,155.5 311.5,155.5 308.5,155.5C 308.351,154.448 308.517,153.448 309,152.5C 311.295,150.92 312.628,148.92 313,146.5C 311.89,148.037 310.39,148.703 308.5,148.5C 308.629,146.784 308.962,145.117 309.5,143.5 Z M 283.5,178.5 C 285.167,178.5 286.833,178.5 288.5,178.5C 288.5,182.5 288.5,186.5 288.5,190.5C 287.167,190.5 285.833,190.5 284.5,190.5C 284.665,187.482 284.498,184.482 284,181.5C 282.272,180.648 282.105,179.648 283.5,178.5 Z"/></g>
<g><path style="opacity:0.926" fill="#a5a6a5" d="M 213.5,131.5 C 238.424,129.193 259.591,136.86 277,154.5C 280.063,158.569 282.73,162.902 285,167.5C 285.178,156.257 285.678,145.09 286.5,134C 302.497,133.5 318.497,133.333 334.5,133.5C 334.5,196.5 334.5,259.5 334.5,322.5C 318.167,322.5 301.833,322.5 285.5,322.5C 285.667,311.162 285.5,299.828 285,288.5C 273.979,309.105 256.813,320.938 233.5,324C 182.758,326.705 151.925,303.205 141,253.5C 136.61,228.175 138.943,203.509 148,179.5C 161.007,151.31 182.84,135.31 213.5,131.5 Z M 214.5,132.5 C 183.84,136.31 162.007,152.31 149,180.5C 140.055,203.843 137.721,227.843 142,252.5C 152.384,301.564 182.551,325.064 232.5,323C 255.337,319.977 272.337,308.477 283.5,288.5C 284.325,287.614 285.325,287.281 286.5,287.5C 286.5,298.833 286.5,310.167 286.5,321.5C 302.167,321.5 317.833,321.5 333.5,321.5C 333.5,259.167 333.5,196.833 333.5,134.5C 318.163,134.333 302.83,134.5 287.5,135C 286.513,146.085 286.179,157.252 286.5,168.5C 285.325,168.719 284.325,168.386 283.5,167.5C 281.25,163.332 278.75,159.332 276,155.5C 259.201,138.285 238.701,130.618 214.5,132.5 Z M 309.5,143.5 C 308.962,145.117 308.629,146.784 308.5,148.5C 310.39,148.703 311.89,148.037 313,146.5C 312.628,148.92 311.295,150.92 309,152.5C 308.517,153.448 308.351,154.448 308.5,155.5C 311.5,155.5 314.5,155.5 317.5,155.5C 317.5,154.5 317.5,153.5 317.5,152.5C 316.448,152.649 315.448,152.483 314.5,152C 318.767,146.046 317.1,143.213 309.5,143.5 Z M 283.5,178.5 C 282.105,179.648 282.272,180.648 284,181.5C 284.498,184.482 284.665,187.482 284.5,190.5C 285.833,190.5 287.167,190.5 288.5,190.5C 288.5,186.5 288.5,182.5 288.5,178.5C 286.833,178.5 285.167,178.5 283.5,178.5 Z"/></g>
<g><path style="opacity:0.89" fill="#ed3a5f" d="M 307.5,138.5 C 319.99,136.823 325.157,142.156 323,154.5C 322.215,156.286 321.049,157.786 319.5,159C 306.074,163.238 300.241,158.404 302,144.5C 303.36,141.977 305.193,139.977 307.5,138.5 Z M 309.5,143.5 C 308.962,145.117 308.629,146.784 308.5,148.5C 310.39,148.703 311.89,148.037 313,146.5C 312.628,148.92 311.295,150.92 309,152.5C 308.517,153.448 308.351,154.448 308.5,155.5C 311.5,155.5 314.5,155.5 317.5,155.5C 317.5,154.5 317.5,153.5 317.5,152.5C 316.448,152.649 315.448,152.483 314.5,152C 318.767,146.046 317.1,143.213 309.5,143.5 Z"/></g>
<g><path style="opacity:0.799" fill="#ed3a5f" d="M 231.5,155.5 C 236.006,154.527 238.172,156.194 238,160.5C 231.645,164.201 229.478,162.534 231.5,155.5 Z"/></g>
<g><path style="opacity:0.799" fill="#ed3a5f" d="M 217.5,156.5 C 222.006,155.527 224.172,157.194 224,161.5C 217.645,165.201 215.478,163.534 217.5,156.5 Z"/></g>
<g><path style="opacity:0.781" fill="#ed3a5f" d="M 247.5,156.5 C 251.396,157.78 252.396,160.28 250.5,164C 246.872,165.316 244.539,164.149 243.5,160.5C 244.368,158.603 245.701,157.27 247.5,156.5 Z"/></g>
<g><path style="opacity:0.71" fill="#ed3a5f" d="M 203.5,159.5 C 210.004,159.138 211.671,161.638 208.5,167C 202.785,167.401 201.119,164.901 203.5,159.5 Z"/></g>
<g><path style="opacity:0.724" fill="#ed3a5f" d="M 259.5,162.5 C 264.266,163.158 265.6,165.658 263.5,170C 258.338,171.424 256.171,169.59 257,164.5C 257.995,163.934 258.828,163.267 259.5,162.5 Z"/></g>
<g><path style="opacity:0.737" fill="#ed3a5f" d="M 191.5,165.5 C 197.704,165.314 199.037,167.814 195.5,173C 189.812,172.79 188.479,170.29 191.5,165.5 Z"/></g>
<g><path style="opacity:0.851" fill="#ed3a5f" d="M 309.5,167.5 C 315.158,166.679 316.825,168.846 314.5,174C 308.741,175.139 307.074,172.972 309.5,167.5 Z"/></g>
<g><path style="opacity:0.737" fill="#ed3a5f" d="M 276.5,176.5 C 271.353,179.93 268.853,178.597 269,172.5C 273.836,169.179 276.336,170.512 276.5,176.5 Z"/></g>
<g><path style="opacity:0.899" fill="#ed3a5f" d="M 276.5,176.5 C 281.569,172.256 287.236,171.423 293.5,174C 297.776,178.892 298.61,184.392 296,190.5C 291.108,194.776 285.608,195.61 279.5,193C 277.951,191.786 276.785,190.286 276,188.5C 275.306,184.446 275.473,180.446 276.5,176.5 Z M 283.5,178.5 C 282.105,179.648 282.272,180.648 284,181.5C 284.498,184.482 284.665,187.482 284.5,190.5C 285.833,190.5 287.167,190.5 288.5,190.5C 288.5,186.5 288.5,182.5 288.5,178.5C 286.833,178.5 285.167,178.5 283.5,178.5 Z"/></g>
<g><path style="opacity:0.752" fill="#ed3a5f" d="M 182.5,173.5 C 186.396,174.78 187.396,177.28 185.5,181C 180.098,182.421 178.098,180.588 179.5,175.5C 180.602,174.824 181.602,174.158 182.5,173.5 Z"/></g>
<g><path style="opacity:0.885" fill="#a5a6a5" d="M 229.5,173.5 C 260.867,171.58 279.7,185.914 286,216.5C 288.881,233.907 285.547,249.907 276,264.5C 257.791,283.01 236.625,287.177 212.5,277C 197.598,267.715 189.431,254.215 188,236.5C 185.004,214.815 191.504,196.648 207.5,182C 214.435,177.86 221.768,175.026 229.5,173.5 Z"/></g>
<g><path style="opacity:1" fill="#f8f8f8" d="M 230.5,174.5 C 260.92,173.43 279.087,187.763 285,217.5C 288.822,240.724 281.655,259.557 263.5,274C 241.471,285.514 220.971,283.347 202,267.5C 189.167,250.044 185.501,230.711 191,209.5C 197.222,189.766 210.389,178.1 230.5,174.5 Z"/></g>
<g><path style="opacity:0.851" fill="#ed3a5f" d="M 309.5,181.5 C 315.158,180.679 316.825,182.846 314.5,188C 308.741,189.139 307.074,186.972 309.5,181.5 Z"/></g>
<g><path style="opacity:0.767" fill="#ed3a5f" d="M 171.5,185.5 C 176.914,184.565 178.914,186.565 177.5,191.5C 171.129,193.796 169.129,191.796 171.5,185.5 Z"/></g>
<g><path style="opacity:0.851" fill="#ed3a5f" d="M 309.5,195.5 C 315.158,194.679 316.825,196.846 314.5,202C 308.741,203.139 307.074,200.972 309.5,195.5 Z"/></g>
<g><path style="opacity:0.722" fill="#ed3a5f" d="M 166.5,197.5 C 172.488,197.664 173.821,200.164 170.5,205C 167.402,206.067 165.402,205.067 164.5,202C 164.519,200.167 165.185,198.667 166.5,197.5 Z"/></g>
<g><path style="opacity:0.851" fill="#ed3a5f" d="M 309.5,209.5 C 315.158,208.679 316.825,210.846 314.5,216C 308.741,217.139 307.074,214.972 309.5,209.5 Z"/></g>
<g><path style="opacity:0.738" fill="#ed3a5f" d="M 161.5,211.5 C 167.113,210.079 169.28,212.079 168,217.5C 164.414,220.3 161.914,219.467 160.5,215C 160.989,213.862 161.322,212.695 161.5,211.5 Z"/></g>
<g><path style="opacity:0.85" fill="#ed3a5f" d="M 309.5,223.5 C 315.158,222.679 316.825,224.846 314.5,230C 308.741,231.139 307.074,228.972 309.5,223.5 Z"/></g>
<g><path style="opacity:0.853" fill="#ed3a5f" d="M 160.5,225.5 C 166.158,224.679 167.825,226.846 165.5,232C 159.741,233.139 158.074,230.972 160.5,225.5 Z"/></g>
<g><path style="opacity:0.85" fill="#ed3a5f" d="M 309.5,237.5 C 315.158,236.679 316.825,238.846 314.5,244C 308.741,245.139 307.074,242.972 309.5,237.5 Z"/></g>
<g><path style="opacity:0.738" fill="#ed3a5f" d="M 160.5,239.5 C 166.113,238.079 168.28,240.079 167,245.5C 160.423,248.088 158.256,246.088 160.5,239.5 Z"/></g>
<g><path style="opacity:0.85" fill="#ed3a5f" d="M 309.5,251.5 C 315.158,250.679 316.825,252.846 314.5,258C 308.741,259.139 307.074,256.972 309.5,251.5 Z"/></g>
<g><path style="opacity:0.738" fill="#ed3a5f" d="M 164.5,252.5 C 170.488,252.664 171.821,255.164 168.5,260C 162.403,260.147 161.07,257.647 164.5,252.5 Z"/></g>
<g><path style="opacity:0.71" fill="#ed3a5f" d="M 169.5,265.5 C 176.145,264.977 177.811,267.477 174.5,273C 168.788,273.433 167.122,270.933 169.5,265.5 Z"/></g>
<g><path style="opacity:0.851" fill="#ed3a5f" d="M 309.5,265.5 C 315.158,264.679 316.825,266.846 314.5,272C 308.741,273.139 307.074,270.972 309.5,265.5 Z"/></g>
<g><path style="opacity:0.767" fill="#ed3a5f" d="M 280.5,271.5 C 281.93,271.421 283.264,271.754 284.5,272.5C 286.89,278.608 285.056,280.608 279,278.5C 278.185,275.802 278.685,273.468 280.5,271.5 Z"/></g>
<g><path style="opacity:0.738" fill="#ed3a5f" d="M 178.5,276.5 C 184.729,276.027 186.395,278.36 183.5,283.5C 177.805,284.446 176.138,282.112 178.5,276.5 Z"/></g>
<g><path style="opacity:0.85" fill="#ed3a5f" d="M 309.5,279.5 C 315.158,278.679 316.825,280.846 314.5,286C 308.741,287.139 307.074,284.972 309.5,279.5 Z"/></g>
<g><path style="opacity:0.738" fill="#ed3a5f" d="M 268.5,281.5 C 274.113,280.079 276.28,282.079 275,287.5C 268.423,290.088 266.256,288.088 268.5,281.5 Z"/></g>
<g><path style="opacity:0.816" fill="#ed3a5f" d="M 189.5,285.5 C 195.465,284.928 197.131,287.095 194.5,292C 188.741,293.139 187.074,290.972 189.5,285.5 Z"/></g>
<g><path style="opacity:0.724" fill="#ed3a5f" d="M 256.5,288.5 C 261.672,287.565 263.839,289.565 263,294.5C 260.952,296.787 258.785,296.954 256.5,295C 255.232,292.837 255.232,290.67 256.5,288.5 Z"/></g>
<g><path style="opacity:0.737" fill="#ed3a5f" d="M 201.5,291.5 C 207.113,290.079 209.28,292.079 208,297.5C 204.414,300.3 201.914,299.467 200.5,295C 200.989,293.862 201.322,292.695 201.5,291.5 Z"/></g>
<g><path style="opacity:0.738" fill="#ed3a5f" d="M 244.5,292.5 C 250.02,293.044 251.354,295.544 248.5,300C 242.202,300.495 240.868,297.995 244.5,292.5 Z"/></g>
<g><path style="opacity:0.85" fill="#ed3a5f" d="M 309.5,293.5 C 315.158,292.679 316.825,294.846 314.5,300C 308.741,301.139 307.074,298.972 309.5,293.5 Z"/></g>
<g><path style="opacity:0.708" fill="#ed3a5f" d="M 215.5,294.5 C 222.004,294.138 223.671,296.638 220.5,302C 214.785,302.401 213.119,299.901 215.5,294.5 Z"/></g>
<g><path style="opacity:0.767" fill="#ed3a5f" d="M 229.5,295.5 C 234.914,294.565 236.914,296.565 235.5,301.5C 229.129,303.796 227.129,301.796 229.5,295.5 Z"/></g>
<g><path style="opacity:0.85" fill="#ed3a5f" d="M 309.5,307.5 C 315.158,306.679 316.825,308.846 314.5,314C 308.741,315.139 307.074,312.972 309.5,307.5 Z"/></g>
</svg>
