<?xml version="1.0" encoding="UTF-8"?>
<!DOCTYPE svg PUBLIC "-//W3C//DTD SVG 1.1//EN" "http://www.w3.org/Graphics/SVG/1.1/DTD/svg11.dtd">
<svg xmlns="http://www.w3.org/2000/svg" version="1.1" width="500px" height="500px" style="shape-rendering:geometricPrecision; text-rendering:geometricPrecision; image-rendering:optimizeQuality; fill-rule:evenodd; clip-rule:evenodd" xmlns:xlink="http://www.w3.org/1999/xlink">
<g><path style="opacity:1" fill="#f7f8f7" d="M -0.5,-0.5 C 166.167,-0.5 332.833,-0.5 499.5,-0.5C 499.5,166.167 499.5,332.833 499.5,499.5C 332.833,499.5 166.167,499.5 -0.5,499.5C -0.5,332.833 -0.5,166.167 -0.5,-0.5 Z M 330.5,58.5 C 340.756,56.9635 350.089,59.1301 358.5,65C 366.874,73.9143 368.707,84.081 364,95.5C 357.779,104.612 349.112,109.279 338,109.5C 321.107,108.77 311.274,100.104 308.5,83.5C 310.232,70.1079 317.566,61.7746 330.5,58.5 Z M 337.5,74.5 C 339.167,74.5 340.833,74.5 342.5,74.5C 342.172,78.354 342.838,82.0207 344.5,85.5C 343.453,87.0564 342.786,88.7231 342.5,90.5C 341.167,90.5 339.833,90.5 338.5,90.5C 338.5,89.5 338.5,88.5 338.5,87.5C 336.167,87.5 333.833,87.5 331.5,87.5C 331.343,86.1266 331.51,84.7932 332,83.5C 333.856,80.4443 335.689,77.4443 337.5,74.5 Z M 149.5,135.5 C 175.294,132.373 197.128,140.04 215,158.5C 217.75,162.332 220.25,166.332 222.5,170.5C 223.325,171.386 224.325,171.719 225.5,171.5C 225.5,160.167 225.5,148.833 225.5,137.5C 240.833,137.5 256.167,137.5 271.5,137.5C 271.5,199.5 271.5,261.5 271.5,323.5C 256.167,323.5 240.833,323.5 225.5,323.5C 225.5,311.833 225.5,300.167 225.5,288.5C 224.325,288.281 223.325,288.614 222.5,289.5C 206.746,316.71 183.079,328.544 151.5,325C 120.411,320.902 98.9112,304.402 87,275.5C 75.4182,243.574 76.0848,211.907 89,180.5C 101.38,154.943 121.547,139.943 149.5,135.5 Z M 314.5,137.5 C 330.167,137.5 345.833,137.5 361.5,137.5C 361.5,199.5 361.5,261.5 361.5,323.5C 345.833,323.5 330.167,323.5 314.5,323.5C 314.5,261.5 314.5,199.5 314.5,137.5 Z M 246.5,144.5 C 254.1,144.213 255.767,147.046 251.5,153C 252.448,153.483 253.448,153.649 254.5,153.5C 254.5,154.5 254.5,155.5 254.5,156.5C 251.5,156.5 248.5,156.5 245.5,156.5C 245.351,155.448 245.517,154.448 246,153.5C 248.295,151.92 249.628,149.92 250,147.5C 248.89,149.037 247.39,149.703 245.5,149.5C 245.629,147.784 245.962,146.117 246.5,144.5 Z M 334.5,145.5 C 337.119,145.232 339.619,145.565 342,146.5C 341.333,149.5 341.333,152.5 342,155.5C 338.411,158.395 335.578,157.729 333.5,153.5C 334.325,152.614 335.325,152.281 336.5,152.5C 336.5,151.5 336.5,150.5 336.5,149.5C 335.325,149.719 334.325,149.386 333.5,148.5C 334.127,147.583 334.461,146.583 334.5,145.5 Z M 224.5,184.5 C 226.167,184.5 227.833,184.5 229.5,184.5C 229.5,188.5 229.5,192.5 229.5,196.5C 228.167,196.5 226.833,196.5 225.5,196.5C 225.665,193.482 225.498,190.482 225,187.5C 223.272,186.648 223.105,185.648 224.5,184.5 Z"/></g>
<g><path style="opacity:0.889" fill="#a5a6a5" d="M 329.5,57.5 C 340.405,55.8843 350.405,58.051 359.5,64C 366.85,71.3922 369.35,80.2255 367,90.5C 365.474,97.3618 361.641,102.528 355.5,106C 343.034,111.854 330.7,111.52 318.5,105C 304.396,91.2801 304.063,77.2801 317.5,63C 321.284,60.4713 325.284,58.638 329.5,57.5 Z M 330.5,58.5 C 317.566,61.7746 310.232,70.1079 308.5,83.5C 311.274,100.104 321.107,108.77 338,109.5C 349.112,109.279 357.779,104.612 364,95.5C 368.707,84.081 366.874,73.9143 358.5,65C 350.089,59.1301 340.756,56.9635 330.5,58.5 Z M 337.5,74.5 C 335.689,77.4443 333.856,80.4443 332,83.5C 331.51,84.7932 331.343,86.1266 331.5,87.5C 333.833,87.5 336.167,87.5 338.5,87.5C 338.5,88.5 338.5,89.5 338.5,90.5C 339.833,90.5 341.167,90.5 342.5,90.5C 342.786,88.7231 343.453,87.0564 344.5,85.5C 342.838,82.0207 342.172,78.354 342.5,74.5C 340.833,74.5 339.167,74.5 337.5,74.5 Z"/></g>
<g><path style="opacity:0.87" fill="#ed3a5f" d="M 333.5,71.5 C 345.99,69.8227 351.157,75.156 349,87.5C 348.215,89.286 347.049,90.786 345.5,92C 332.074,96.2377 326.241,91.4043 328,77.5C 329.36,74.9774 331.193,72.9774 333.5,71.5 Z M 337.5,74.5 C 335.689,77.4443 333.856,80.4443 332,83.5C 331.51,84.7932 331.343,86.1266 331.5,87.5C 333.833,87.5 336.167,87.5 338.5,87.5C 338.5,88.5 338.5,89.5 338.5,90.5C 339.833,90.5 341.167,90.5 342.5,90.5C 342.786,88.7231 343.453,87.0564 344.5,85.5C 342.838,82.0207 342.172,78.354 342.5,74.5C 340.833,74.5 339.167,74.5 337.5,74.5 Z"/></g>
<g><path style="opacity:0.927" fill="#a5a6a5" d="M 148.5,134.5 C 175.014,130.948 197.514,138.614 216,157.5C 218.917,161.666 221.584,165.999 224,170.5C 224.5,159.172 224.667,147.838 224.5,136.5C 240.5,136.5 256.5,136.5 272.5,136.5C 272.5,199.167 272.5,261.833 272.5,324.5C 256.5,324.5 240.5,324.5 224.5,324.5C 224.667,312.829 224.5,301.162 224,289.5C 213.098,311.057 195.598,323.223 171.5,326C 120.977,328.476 90.4773,304.976 80,255.5C 75.5461,229.391 78.2128,204.058 88,179.5C 100.38,153.943 120.547,138.943 148.5,134.5 Z M 149.5,135.5 C 121.547,139.943 101.38,154.943 89,180.5C 76.0848,211.907 75.4182,243.574 87,275.5C 98.9112,304.402 120.411,320.902 151.5,325C 183.079,328.544 206.746,316.71 222.5,289.5C 223.325,288.614 224.325,288.281 225.5,288.5C 225.5,300.167 225.5,311.833 225.5,323.5C 240.833,323.5 256.167,323.5 271.5,323.5C 271.5,261.5 271.5,199.5 271.5,137.5C 256.167,137.5 240.833,137.5 225.5,137.5C 225.5,148.833 225.5,160.167 225.5,171.5C 224.325,171.719 223.325,171.386 222.5,170.5C 220.25,166.332 217.75,162.332 215,158.5C 197.128,140.04 175.294,132.373 149.5,135.5 Z M 246.5,144.5 C 245.962,146.117 245.629,147.784 245.5,149.5C 247.39,149.703 248.89,149.037 250,147.5C 249.628,149.92 248.295,151.92 246,153.5C 245.517,154.448 245.351,155.448 245.5,156.5C 248.5,156.5 251.5,156.5 254.5,156.5C 254.5,155.5 254.5,154.5 254.5,153.5C 253.448,153.649 252.448,153.483 251.5,153C 255.767,147.046 254.1,144.213 246.5,144.5 Z M 224.5,184.5 C 223.105,185.648 223.272,186.648 225,187.5C 225.498,190.482 225.665,193.482 225.5,196.5C 226.833,196.5 228.167,196.5 229.5,196.5C 229.5,192.5 229.5,188.5 229.5,184.5C 227.833,184.5 226.167,184.5 224.5,184.5 Z"/></g>
<g><path style="opacity:1" fill="#a5a6a5" d="M 313.5,136.5 C 329.833,136.5 346.167,136.5 362.5,136.5C 362.5,199.167 362.5,261.833 362.5,324.5C 346.167,324.5 329.833,324.5 313.5,324.5C 313.5,261.833 313.5,199.167 313.5,136.5 Z M 314.5,137.5 C 314.5,199.5 314.5,261.5 314.5,323.5C 330.167,323.5 345.833,323.5 361.5,323.5C 361.5,261.5 361.5,199.5 361.5,137.5C 345.833,137.5 330.167,137.5 314.5,137.5 Z M 334.5,145.5 C 334.461,146.583 334.127,147.583 333.5,148.5C 334.325,149.386 335.325,149.719 336.5,149.5C 336.5,150.5 336.5,151.5 336.5,152.5C 335.325,152.281 334.325,152.614 333.5,153.5C 335.578,157.729 338.411,158.395 342,155.5C 341.333,152.5 341.333,149.5 342,146.5C 339.619,145.565 337.119,145.232 334.5,145.5 Z"/></g>
<g><path style="opacity:0.89" fill="#ed3a5f" d="M 244.5,139.5 C 256.99,137.823 262.157,143.156 260,155.5C 259.215,157.286 258.049,158.786 256.5,160C 243.074,164.238 237.241,159.404 239,145.5C 240.36,142.977 242.193,140.977 244.5,139.5 Z M 246.5,144.5 C 245.962,146.117 245.629,147.784 245.5,149.5C 247.39,149.703 248.89,149.037 250,147.5C 249.628,149.92 248.295,151.92 246,153.5C 245.517,154.448 245.351,155.448 245.5,156.5C 248.5,156.5 251.5,156.5 254.5,156.5C 254.5,155.5 254.5,154.5 254.5,153.5C 253.448,153.649 252.448,153.483 251.5,153C 255.767,147.046 254.1,144.213 246.5,144.5 Z"/></g>
<g><path style="opacity:0.888" fill="#ed3a5f" d="M 333.5,140.5 C 345.99,138.823 351.157,144.156 349,156.5C 348.215,158.286 347.049,159.786 345.5,161C 332.074,165.238 326.241,160.404 328,146.5C 329.36,143.977 331.193,141.977 333.5,140.5 Z M 334.5,145.5 C 334.461,146.583 334.127,147.583 333.5,148.5C 334.325,149.386 335.325,149.719 336.5,149.5C 336.5,150.5 336.5,151.5 336.5,152.5C 335.325,152.281 334.325,152.614 333.5,153.5C 335.578,157.729 338.411,158.395 342,155.5C 341.333,152.5 341.333,149.5 342,146.5C 339.619,145.565 337.119,145.232 334.5,145.5 Z"/></g>
<g><path style="opacity:0.736" fill="#ed3a5f" d="M 159.5,151.5 C 165.113,150.079 167.28,152.079 166,157.5C 159.423,160.088 157.256,158.088 159.5,151.5 Z"/></g>
<g><path style="opacity:0.736" fill="#ed3a5f" d="M 174.5,151.5 C 180.488,151.664 181.821,154.164 178.5,159C 172.403,159.147 171.07,156.647 174.5,151.5 Z"/></g>
<g><path style="opacity:0.751" fill="#ed3a5f" d="M 148.5,152.5 C 152.396,153.78 153.396,156.28 151.5,160C 146.098,161.421 144.098,159.588 145.5,154.5C 146.602,153.824 147.602,153.158 148.5,152.5 Z"/></g>
<g><path style="opacity:0.736" fill="#ed3a5f" d="M 187.5,156.5 C 193.488,156.664 194.821,159.164 191.5,164C 185.403,164.147 184.07,161.647 187.5,156.5 Z"/></g>
<g><path style="opacity:0.735" fill="#ed3a5f" d="M 133.5,157.5 C 139.488,157.664 140.821,160.164 137.5,165C 131.403,165.147 130.07,162.647 133.5,157.5 Z"/></g>
<g><path style="opacity:0.721" fill="#ed3a5f" d="M 199.5,163.5 C 205.362,163.662 206.695,166.162 203.5,171C 197.403,171.147 196.07,168.647 199.5,163.5 Z"/></g>
<g><path style="opacity:0.723" fill="#ed3a5f" d="M 121.5,164.5 C 127.488,164.664 128.821,167.164 125.5,172C 119.413,172.205 118.079,169.705 121.5,164.5 Z"/></g>
<g><path style="opacity:0.851" fill="#ed3a5f" d="M 246.5,169.5 C 252.158,168.679 253.825,170.846 251.5,176C 245.741,177.139 244.074,174.972 246.5,169.5 Z"/></g>
<g><path style="opacity:0.851" fill="#ed3a5f" d="M 336.5,170.5 C 342.158,169.679 343.825,171.846 341.5,177C 335.741,178.139 334.074,175.972 336.5,170.5 Z"/></g>
<g><path style="opacity:0.737" fill="#ed3a5f" d="M 210.5,172.5 C 216.488,172.664 217.821,175.164 214.5,180C 208.403,180.147 207.07,177.647 210.5,172.5 Z"/></g>
<g><path style="opacity:0.737" fill="#ed3a5f" d="M 111.5,174.5 C 117.488,174.664 118.821,177.164 115.5,182C 109.403,182.147 108.07,179.647 111.5,174.5 Z"/></g>
<g><path style="opacity:0.885" fill="#a5a6a5" d="M 172.5,175.5 C 202.405,176.182 219.905,191.182 225,220.5C 226.964,235.719 224.297,250.052 217,263.5C 200.76,283.685 180.26,289.518 155.5,281C 138.717,273.2 129.217,260.033 127,241.5C 124.334,224.137 127.667,208.137 137,193.5C 146.439,182.531 158.272,176.531 172.5,175.5 Z"/></g>
<g><path style="opacity:1" fill="#f7f8f7" d="M 173.5,176.5 C 206.619,178.874 223.619,196.708 224.5,230C 223.889,262.438 207.556,280.271 175.5,283.5C 143.513,280.506 127.513,262.839 127.5,230.5C 127.534,199.152 142.867,181.152 173.5,176.5 Z"/></g>
<g><path style="opacity:0.899" fill="#ed3a5f" d="M 222.5,178.5 C 234.99,176.823 240.157,182.156 238,194.5C 237.215,196.286 236.049,197.786 234.5,199C 221.074,203.238 215.241,198.404 217,184.5C 218.36,181.977 220.193,179.977 222.5,178.5 Z M 224.5,184.5 C 223.105,185.648 223.272,186.648 225,187.5C 225.498,190.482 225.665,193.482 225.5,196.5C 226.833,196.5 228.167,196.5 229.5,196.5C 229.5,192.5 229.5,188.5 229.5,184.5C 227.833,184.5 226.167,184.5 224.5,184.5 Z"/></g>
<g><path style="opacity:0.851" fill="#ed3a5f" d="M 246.5,183.5 C 252.158,182.679 253.825,184.846 251.5,190C 245.741,191.139 244.074,188.972 246.5,183.5 Z"/></g>
<g><path style="opacity:0.851" fill="#ed3a5f" d="M 336.5,184.5 C 342.158,183.679 343.825,185.846 341.5,191C 335.741,192.139 334.074,189.972 336.5,184.5 Z"/></g>
<g><path style="opacity:0.721" fill="#ed3a5f" d="M 103.5,186.5 C 109.62,186.259 111.287,188.759 108.5,194C 102.98,194.37 101.313,191.87 103.5,186.5 Z"/></g>
<g><path style="opacity:0.851" fill="#ed3a5f" d="M 246.5,197.5 C 252.158,196.679 253.825,198.846 251.5,204C 245.741,205.139 244.074,202.972 246.5,197.5 Z"/></g>
<g><path style="opacity:0.851" fill="#ed3a5f" d="M 336.5,198.5 C 342.158,197.679 343.825,199.846 341.5,205C 335.741,206.139 334.074,203.972 336.5,198.5 Z"/></g>
<g><path style="opacity:0.721" fill="#ed3a5f" d="M 98.5,199.5 C 104.62,199.259 106.287,201.759 103.5,207C 97.9802,207.37 96.3135,204.87 98.5,199.5 Z"/></g>
<g><path style="opacity:0.851" fill="#ed3a5f" d="M 246.5,211.5 C 252.158,210.679 253.825,212.846 251.5,218C 245.741,219.139 244.074,216.972 246.5,211.5 Z"/></g>
<g><path style="opacity:0.851" fill="#ed3a5f" d="M 336.5,212.5 C 342.158,211.679 343.825,213.846 341.5,219C 335.741,220.139 334.074,217.972 336.5,212.5 Z"/></g>
<g><path style="opacity:0.735" fill="#ed3a5f" d="M 95.5,213.5 C 101.729,213.027 103.395,215.36 100.5,220.5C 94.8045,221.446 93.1378,219.112 95.5,213.5 Z"/></g>
<g><path style="opacity:0.85" fill="#ed3a5f" d="M 246.5,225.5 C 252.158,224.679 253.825,226.846 251.5,232C 245.741,233.139 244.074,230.972 246.5,225.5 Z"/></g>
<g><path style="opacity:0.85" fill="#ed3a5f" d="M 336.5,226.5 C 342.158,225.679 343.825,227.846 341.5,233C 335.741,234.139 334.074,231.972 336.5,226.5 Z"/></g>
<g><path style="opacity:0.832" fill="#ed3a5f" d="M 94.5,227.5 C 99.6752,226.507 101.509,228.507 100,233.5C 98,236.167 96,236.167 94,233.5C 93.3224,231.402 93.4891,229.402 94.5,227.5 Z"/></g>
<g><path style="opacity:0.85" fill="#ed3a5f" d="M 246.5,239.5 C 252.158,238.679 253.825,240.846 251.5,246C 245.741,247.139 244.074,244.972 246.5,239.5 Z"/></g>
<g><path style="opacity:0.85" fill="#ed3a5f" d="M 336.5,240.5 C 342.158,239.679 343.825,241.846 341.5,247C 335.741,248.139 334.074,245.972 336.5,240.5 Z"/></g>
<g><path style="opacity:0.782" fill="#ed3a5f" d="M 95.5,241.5 C 100.675,240.507 102.509,242.507 101,247.5C 97.913,249.87 95.413,249.203 93.5,245.5C 94.1799,244.14 94.8466,242.807 95.5,241.5 Z"/></g>
<g><path style="opacity:0.85" fill="#ed3a5f" d="M 246.5,253.5 C 252.158,252.679 253.825,254.846 251.5,260C 245.741,261.139 244.074,258.972 246.5,253.5 Z"/></g>
<g><path style="opacity:0.709" fill="#ed3a5f" d="M 99.5,254.5 C 105.488,254.664 106.821,257.164 103.5,262C 97.2016,262.495 95.8682,259.995 99.5,254.5 Z"/></g>
<g><path style="opacity:0.85" fill="#ed3a5f" d="M 336.5,254.5 C 342.158,253.679 343.825,255.846 341.5,261C 335.741,262.139 334.074,259.972 336.5,254.5 Z"/></g>
<g><path style="opacity:0.709" fill="#ed3a5f" d="M 104.5,267.5 C 111.004,267.138 112.671,269.638 109.5,275C 103.785,275.401 102.119,272.901 104.5,267.5 Z"/></g>
<g><path style="opacity:0.851" fill="#ed3a5f" d="M 246.5,267.5 C 252.158,266.679 253.825,268.846 251.5,274C 245.741,275.139 244.074,272.972 246.5,267.5 Z"/></g>
<g><path style="opacity:0.851" fill="#ed3a5f" d="M 336.5,268.5 C 342.158,267.679 343.825,269.846 341.5,275C 335.741,276.139 334.074,273.972 336.5,268.5 Z"/></g>
<g><path style="opacity:0.766" fill="#ed3a5f" d="M 214.5,272.5 C 215.93,272.421 217.264,272.754 218.5,273.5C 220.89,279.608 219.056,281.608 213,279.5C 212.185,276.802 212.685,274.468 214.5,272.5 Z"/></g>
<g><path style="opacity:0.751" fill="#ed3a5f" d="M 113.5,278.5 C 119.235,277.821 120.902,280.155 118.5,285.5C 114.904,287.035 112.57,285.869 111.5,282C 112.305,280.887 112.972,279.721 113.5,278.5 Z"/></g>
<g><path style="opacity:0.85" fill="#ed3a5f" d="M 246.5,281.5 C 252.158,280.679 253.825,282.846 251.5,288C 245.741,289.139 244.074,286.972 246.5,281.5 Z"/></g>
<g><path style="opacity:0.721" fill="#ed3a5f" d="M 203.5,282.5 C 209.704,282.314 211.037,284.814 207.5,290C 201.392,290.078 200.059,287.578 203.5,282.5 Z"/></g>
<g><path style="opacity:0.85" fill="#ed3a5f" d="M 336.5,282.5 C 342.158,281.679 343.825,283.846 341.5,289C 335.741,290.139 334.074,287.972 336.5,282.5 Z"/></g>
<g><path style="opacity:0.765" fill="#ed3a5f" d="M 123.5,287.5 C 129.113,286.079 131.28,288.079 130,293.5C 123.854,295.636 121.687,293.636 123.5,287.5 Z"/></g>
<g><path style="opacity:0.722" fill="#ed3a5f" d="M 191.5,289.5 C 196.984,289.481 198.65,291.981 196.5,297C 189.798,297.802 188.132,295.302 191.5,289.5 Z"/></g>
<g><path style="opacity:0.709" fill="#ed3a5f" d="M 136.5,293.5 C 141.672,292.565 143.839,294.565 143,299.5C 136.684,302.356 134.518,300.356 136.5,293.5 Z"/></g>
<g><path style="opacity:0.709" fill="#ed3a5f" d="M 178.5,294.5 C 183.984,294.481 185.65,296.981 183.5,302C 176.745,302.756 175.078,300.256 178.5,294.5 Z"/></g>
<g><path style="opacity:0.85" fill="#ed3a5f" d="M 246.5,295.5 C 252.158,294.679 253.825,296.846 251.5,302C 245.741,303.139 244.074,300.972 246.5,295.5 Z"/></g>
<g><path style="opacity:0.71" fill="#ed3a5f" d="M 150.5,296.5 C 156.313,296.062 157.98,298.562 155.5,304C 149.206,304.578 147.539,302.078 150.5,296.5 Z"/></g>
<g><path style="opacity:0.85" fill="#ed3a5f" d="M 336.5,296.5 C 342.158,295.679 343.825,297.846 341.5,303C 335.741,304.139 334.074,301.972 336.5,296.5 Z"/></g>
<g><path style="opacity:0.833" fill="#ed3a5f" d="M 164.5,297.5 C 170.158,296.679 171.825,298.846 169.5,304C 163.508,304.811 161.841,302.644 164.5,297.5 Z"/></g>
<g><path style="opacity:0.85" fill="#ed3a5f" d="M 246.5,309.5 C 252.158,308.679 253.825,310.846 251.5,316C 245.741,317.139 244.074,314.972 246.5,309.5 Z"/></g>
<g><path style="opacity:0.85" fill="#ed3a5f" d="M 336.5,310.5 C 342.158,309.679 343.825,311.846 341.5,317C 335.741,318.139 334.074,315.972 336.5,310.5 Z"/></g>
</svg>
