<?xml version="1.0" encoding="UTF-8"?>
<!DOCTYPE svg PUBLIC "-//W3C//DTD SVG 1.1//EN" "http://www.w3.org/Graphics/SVG/1.1/DTD/svg11.dtd">
<svg xmlns="http://www.w3.org/2000/svg" version="1.1" width="500px" height="500px" style="shape-rendering:geometricPrecision; text-rendering:geometricPrecision; image-rendering:optimizeQuality; fill-rule:evenodd; clip-rule:evenodd" xmlns:xlink="http://www.w3.org/1999/xlink">
<g><path style="opacity:1" fill="#f7f8f7" d="M -0.5,-0.5 C 166.167,-0.5 332.833,-0.5 499.5,-0.5C 499.5,166.167 499.5,332.833 499.5,499.5C 332.833,499.5 166.167,499.5 -0.5,499.5C -0.5,332.833 -0.5,166.167 -0.5,-0.5 Z M 149.5,73.5 C 165.167,73.5 180.833,73.5 196.5,73.5C 196.5,105.5 196.5,137.5 196.5,169.5C 220.688,134.517 253.022,124.683 293.5,140C 321.27,154.319 337.103,177.152 341,208.5C 345.005,235.136 341.005,260.469 329,284.5C 307.695,316.884 277.862,329.051 239.5,321C 221.701,315.608 208.367,304.775 199.5,288.5C 198.675,287.614 197.675,287.281 196.5,287.5C 196.5,298.833 196.5,310.167 196.5,321.5C 180.833,321.5 165.167,321.5 149.5,321.5C 149.5,238.833 149.5,156.167 149.5,73.5 Z M 168.5,85.5 C 170.167,85.5 171.833,85.5 173.5,85.5C 173.5,89.5 173.5,93.5 173.5,97.5C 172.167,97.5 170.833,97.5 169.5,97.5C 169.665,94.4816 169.498,91.4816 169,88.5C 167.272,87.6477 167.105,86.6477 168.5,85.5 Z M 189.5,181.5 C 197.1,181.213 198.767,184.046 194.5,190C 195.448,190.483 196.448,190.649 197.5,190.5C 197.5,191.5 197.5,192.5 197.5,193.5C 194.5,193.5 191.5,193.5 188.5,193.5C 188.351,192.448 188.517,191.448 189,190.5C 191.295,188.92 192.628,186.92 193,184.5C 191.89,186.037 190.39,186.703 188.5,186.5C 188.629,184.784 188.962,183.117 189.5,181.5 Z"/></g>
<g><path style="opacity:0.936" fill="#a5a6a5" d="M 148.5,72.5 C 164.833,72.5 181.167,72.5 197.5,72.5C 197.333,104.502 197.5,136.502 198,168.5C 208.336,148.176 224.836,136.343 247.5,133C 296.092,129.201 326.925,150.701 340,197.5C 346.034,224.792 344.034,251.458 334,277.5C 316.439,311.871 288.273,327.371 249.5,324C 226.192,320.94 209.026,309.107 198,288.5C 197.5,299.828 197.333,311.162 197.5,322.5C 181.167,322.5 164.833,322.5 148.5,322.5C 148.5,239.167 148.5,155.833 148.5,72.5 Z M 149.5,73.5 C 149.5,156.167 149.5,238.833 149.5,321.5C 165.167,321.5 180.833,321.5 196.5,321.5C 196.5,310.167 196.5,298.833 196.5,287.5C 197.675,287.281 198.675,287.614 199.5,288.5C 208.367,304.775 221.701,315.608 239.5,321C 277.862,329.051 307.695,316.884 329,284.5C 341.005,260.469 345.005,235.136 341,208.5C 337.103,177.152 321.27,154.319 293.5,140C 253.022,124.683 220.688,134.517 196.5,169.5C 196.5,137.5 196.5,105.5 196.5,73.5C 180.833,73.5 165.167,73.5 149.5,73.5 Z M 168.5,85.5 C 167.105,86.6477 167.272,87.6477 169,88.5C 169.498,91.4816 169.665,94.4816 169.5,97.5C 170.833,97.5 172.167,97.5 173.5,97.5C 173.5,93.5 173.5,89.5 173.5,85.5C 171.833,85.5 170.167,85.5 168.5,85.5 Z M 189.5,181.5 C 188.962,183.117 188.629,184.784 188.5,186.5C 190.39,186.703 191.89,186.037 193,184.5C 192.628,186.92 191.295,188.92 189,190.5C 188.517,191.448 188.351,192.448 188.5,193.5C 191.5,193.5 194.5,193.5 197.5,193.5C 197.5,192.5 197.5,191.5 197.5,190.5C 196.448,190.649 195.448,190.483 194.5,190C 198.767,184.046 197.1,181.213 189.5,181.5 Z"/></g>
<g><path style="opacity:0.899" fill="#ed3a5f" d="M 166.5,79.5 C 178.99,77.8227 184.157,83.156 182,95.5C 181.215,97.286 180.049,98.786 178.5,100C 165.074,104.238 159.241,99.4043 161,85.5C 162.36,82.9774 164.193,80.9774 166.5,79.5 Z M 168.5,85.5 C 167.105,86.6477 167.272,87.6477 169,88.5C 169.498,91.4816 169.665,94.4816 169.5,97.5C 170.833,97.5 172.167,97.5 173.5,97.5C 173.5,93.5 173.5,89.5 173.5,85.5C 171.833,85.5 170.167,85.5 168.5,85.5 Z"/></g>
<g><path style="opacity:0.851" fill="#ed3a5f" d="M 169.5,109.5 C 175.158,108.679 176.825,110.846 174.5,116C 168.741,117.139 167.074,114.972 169.5,109.5 Z"/></g>
<g><path style="opacity:0.851" fill="#ed3a5f" d="M 169.5,123.5 C 175.158,122.679 176.825,124.846 174.5,130C 168.741,131.139 167.074,128.972 169.5,123.5 Z"/></g>
<g><path style="opacity:0.851" fill="#ed3a5f" d="M 169.5,137.5 C 175.158,136.679 176.825,138.846 174.5,144C 168.741,145.139 167.074,142.972 169.5,137.5 Z"/></g>
<g><path style="opacity:0.851" fill="#ed3a5f" d="M 169.5,151.5 C 175.158,150.679 176.825,152.846 174.5,158C 168.741,159.139 167.074,156.972 169.5,151.5 Z"/></g>
<g><path style="opacity:0.735" fill="#ed3a5f" d="M 241.5,151.5 C 247.488,151.664 248.821,154.164 245.5,159C 239.403,159.147 238.07,156.647 241.5,151.5 Z"/></g>
<g><path style="opacity:0.737" fill="#ed3a5f" d="M 254.5,151.5 C 260.113,150.079 262.28,152.079 261,157.5C 254.423,160.088 252.256,158.088 254.5,151.5 Z"/></g>
<g><path style="opacity:0.751" fill="#ed3a5f" d="M 270.5,152.5 C 274.718,153.275 276.052,155.609 274.5,159.5C 268.976,161.914 266.809,160.248 268,154.5C 268.995,153.934 269.828,153.267 270.5,152.5 Z"/></g>
<g><path style="opacity:0.736" fill="#ed3a5f" d="M 228.5,156.5 C 234.488,156.664 235.821,159.164 232.5,164C 226.403,164.147 225.07,161.647 228.5,156.5 Z"/></g>
<g><path style="opacity:0.735" fill="#ed3a5f" d="M 282.5,157.5 C 288.488,157.664 289.821,160.164 286.5,165C 280.403,165.147 279.07,162.647 282.5,157.5 Z"/></g>
<g><path style="opacity:0.721" fill="#ed3a5f" d="M 216.5,163.5 C 222.488,163.664 223.821,166.164 220.5,171C 214.412,171.084 213.079,168.584 216.5,163.5 Z"/></g>
<g><path style="opacity:0.723" fill="#ed3a5f" d="M 294.5,164.5 C 299.708,164.369 301.375,166.702 299.5,171.5C 292.789,172.788 291.123,170.455 294.5,164.5 Z"/></g>
<g><path style="opacity:0.917" fill="#ed3a5f" d="M 169.5,165.5 C 175.158,164.679 176.825,166.846 174.5,172C 168.741,173.139 167.074,170.972 169.5,165.5 Z"/></g>
<g><path style="opacity:0.737" fill="#ed3a5f" d="M 205.5,172.5 C 211.488,172.664 212.821,175.164 209.5,180C 203.403,180.147 202.07,177.647 205.5,172.5 Z"/></g>
<g><path style="opacity:0.885" fill="#a5a6a5" d="M 242.5,173.5 C 271.053,173.677 288.22,187.677 294,215.5C 296.463,231.627 294.13,246.96 287,261.5C 271.811,280.672 252.311,286.839 228.5,280C 208.034,271.847 197.201,256.68 196,234.5C 193.399,212.274 200.899,194.441 218.5,181C 226.063,176.668 234.063,174.168 242.5,173.5 Z"/></g>
<g><path style="opacity:1" fill="#f7f8f7" d="M 243.5,174.5 C 276.992,176.768 293.658,194.768 293.5,228.5C 293.502,260.825 277.502,278.492 245.5,281.5C 213.69,278.351 197.357,260.684 196.5,228.5C 197.406,197.281 213.072,179.281 243.5,174.5 Z"/></g>
<g><path style="opacity:0.737" fill="#ed3a5f" d="M 304.5,174.5 C 310.488,174.664 311.821,177.164 308.5,182C 302.403,182.147 301.07,179.647 304.5,174.5 Z"/></g>
<g><path style="opacity:0.89" fill="#ed3a5f" d="M 187.5,176.5 C 199.99,174.823 205.157,180.156 203,192.5C 202.215,194.286 201.049,195.786 199.5,197C 186.074,201.238 180.241,196.404 182,182.5C 183.36,179.977 185.193,177.977 187.5,176.5 Z M 189.5,181.5 C 188.962,183.117 188.629,184.784 188.5,186.5C 190.39,186.703 191.89,186.037 193,184.5C 192.628,186.92 191.295,188.92 189,190.5C 188.517,191.448 188.351,192.448 188.5,193.5C 191.5,193.5 194.5,193.5 197.5,193.5C 197.5,192.5 197.5,191.5 197.5,190.5C 196.448,190.649 195.448,190.483 194.5,190C 198.767,184.046 197.1,181.213 189.5,181.5 Z"/></g>
<g><path style="opacity:0.917" fill="#ed3a5f" d="M 169.5,179.5 C 175.158,178.679 176.825,180.846 174.5,186C 168.741,187.139 167.074,184.972 169.5,179.5 Z"/></g>
<g><path style="opacity:0.721" fill="#ed3a5f" d="M 311.5,186.5 C 317.235,185.821 318.902,188.155 316.5,193.5C 312.934,195.359 310.6,194.359 309.5,190.5C 310.18,189.14 310.847,187.807 311.5,186.5 Z"/></g>
<g><path style="opacity:0.917" fill="#ed3a5f" d="M 169.5,193.5 C 175.158,192.679 176.825,194.846 174.5,200C 168.741,201.139 167.074,198.972 169.5,193.5 Z"/></g>
<g><path style="opacity:0.721" fill="#ed3a5f" d="M 316.5,199.5 C 322.235,198.821 323.902,201.155 321.5,206.5C 317.934,208.359 315.6,207.359 314.5,203.5C 315.18,202.14 315.847,200.807 316.5,199.5 Z"/></g>
<g><path style="opacity:0.917" fill="#ed3a5f" d="M 169.5,207.5 C 175.158,206.679 176.825,208.846 174.5,214C 168.741,215.139 167.074,212.972 169.5,207.5 Z"/></g>
<g><path style="opacity:0.735" fill="#ed3a5f" d="M 319.5,213.5 C 325.704,213.314 327.037,215.814 323.5,221C 317.812,220.79 316.479,218.29 319.5,213.5 Z"/></g>
<g><path style="opacity:0.917" fill="#ed3a5f" d="M 169.5,221.5 C 175.158,220.679 176.825,222.846 174.5,228C 168.741,229.139 167.074,226.972 169.5,221.5 Z"/></g>
<g><path style="opacity:0.833" fill="#ed3a5f" d="M 320.5,227.5 C 325.675,226.507 327.509,228.507 326,233.5C 324,236.167 322,236.167 320,233.5C 319.322,231.402 319.489,229.402 320.5,227.5 Z"/></g>
<g><path style="opacity:0.917" fill="#ed3a5f" d="M 169.5,235.5 C 175.158,234.679 176.825,236.846 174.5,242C 168.741,243.139 167.074,240.972 169.5,235.5 Z"/></g>
<g><path style="opacity:0.798" fill="#ed3a5f" d="M 319.5,241.5 C 325.068,241.015 327.068,243.348 325.5,248.5C 319.323,249.984 317.323,247.65 319.5,241.5 Z"/></g>
<g><path style="opacity:0.916" fill="#ed3a5f" d="M 169.5,249.5 C 175.158,248.679 176.825,250.846 174.5,256C 168.741,257.139 167.074,254.972 169.5,249.5 Z"/></g>
<g><path style="opacity:0.709" fill="#ed3a5f" d="M 316.5,254.5 C 321.984,254.481 323.65,256.981 321.5,262C 314.745,262.756 313.078,260.256 316.5,254.5 Z"/></g>
<g><path style="opacity:0.851" fill="#ed3a5f" d="M 169.5,263.5 C 175.158,262.679 176.825,264.846 174.5,270C 168.741,271.139 167.074,268.972 169.5,263.5 Z"/></g>
<g><path style="opacity:0.71" fill="#ed3a5f" d="M 310.5,267.5 C 316.704,267.314 318.037,269.814 314.5,275C 308.403,275.147 307.07,272.647 310.5,267.5 Z"/></g>
<g><path style="opacity:0.766" fill="#ed3a5f" d="M 202.5,272.5 C 203.93,272.421 205.264,272.754 206.5,273.5C 208.89,279.608 207.056,281.608 201,279.5C 200.185,276.802 200.685,274.468 202.5,272.5 Z"/></g>
<g><path style="opacity:0.85" fill="#ed3a5f" d="M 169.5,277.5 C 175.158,276.679 176.825,278.846 174.5,284C 168.741,285.139 167.074,282.972 169.5,277.5 Z"/></g>
<g><path style="opacity:0.751" fill="#ed3a5f" d="M 301.5,278.5 C 307.476,278.157 309.142,280.49 306.5,285.5C 304.833,286.833 303.167,286.833 301.5,285.5C 300.286,283.141 300.286,280.808 301.5,278.5 Z"/></g>
<g><path style="opacity:0.721" fill="#ed3a5f" d="M 211.5,282.5 C 216.501,281.671 218.668,283.671 218,288.5C 211.684,291.356 209.518,289.356 211.5,282.5 Z"/></g>
<g><path style="opacity:0.765" fill="#ed3a5f" d="M 290.5,287.5 C 295.914,286.565 297.914,288.565 296.5,293.5C 290.129,295.796 288.129,293.796 290.5,287.5 Z"/></g>
<g><path style="opacity:0.722" fill="#ed3a5f" d="M 224.5,289.5 C 228.06,288.891 230.06,290.391 230.5,294C 228.927,297.452 226.427,298.286 223,296.5C 222.167,293.829 222.667,291.496 224.5,289.5 Z"/></g>
<g><path style="opacity:0.85" fill="#ed3a5f" d="M 169.5,291.5 C 175.158,290.679 176.825,292.846 174.5,298C 168.741,299.139 167.074,296.972 169.5,291.5 Z"/></g>
<g><path style="opacity:0.709" fill="#ed3a5f" d="M 277.5,293.5 C 284.536,292.603 286.203,295.103 282.5,301C 276.779,301.365 275.113,298.865 277.5,293.5 Z"/></g>
<g><path style="opacity:0.709" fill="#ed3a5f" d="M 237.5,294.5 C 243.488,294.664 244.821,297.164 241.5,302C 235.202,302.495 233.868,299.995 237.5,294.5 Z"/></g>
<g><path style="opacity:0.709" fill="#ed3a5f" d="M 264.5,296.5 C 270.62,296.259 272.287,298.759 269.5,304C 263.593,304.746 261.927,302.246 264.5,296.5 Z"/></g>
<g><path style="opacity:0.833" fill="#ed3a5f" d="M 250.5,297.5 C 256.317,297.03 257.984,299.196 255.5,304C 249.741,305.139 248.074,302.972 250.5,297.5 Z"/></g>
<g><path style="opacity:0.85" fill="#ed3a5f" d="M 169.5,305.5 C 175.158,304.679 176.825,306.846 174.5,312C 168.741,313.139 167.074,310.972 169.5,305.5 Z"/></g>
</svg>
