<?xml version="1.0" encoding="UTF-8"?>
<!DOCTYPE svg PUBLIC "-//W3C//DTD SVG 1.1//EN" "http://www.w3.org/Graphics/SVG/1.1/DTD/svg11.dtd">
<svg xmlns="http://www.w3.org/2000/svg" version="1.1" width="500px" height="500px" style="shape-rendering:geometricPrecision; text-rendering:geometricPrecision; image-rendering:optimizeQuality; fill-rule:evenodd; clip-rule:evenodd" xmlns:xlink="http://www.w3.org/1999/xlink">
<g><path style="opacity:1" fill="#f7f8f7" d="M -0.5,-0.5 C 166.167,-0.5 332.833,-0.5 499.5,-0.5C 499.5,166.167 499.5,332.833 499.5,499.5C 332.833,499.5 166.167,499.5 -0.5,499.5C -0.5,332.833 -0.5,166.167 -0.5,-0.5 Z M 334.5,187.5 C 334.658,184.098 334.324,180.764 333.5,177.5C 328.431,173.256 322.764,172.423 316.5,175C 312.695,179.091 311.528,183.924 313,189.5C 315.071,193.953 318.571,195.953 323.5,195.5C 325.883,195.363 328.217,195.029 330.5,194.5C 327.975,199.91 326.141,205.577 325,211.5C 324.5,248.832 324.333,286.165 324.5,323.5C 308.833,323.5 293.167,323.5 277.5,323.5C 277.5,240.833 277.5,158.167 277.5,75.5C 293.167,75.5 308.833,75.5 324.5,75.5C 324.5,106.833 324.5,138.167 324.5,169.5C 325.675,169.719 326.675,169.386 327.5,168.5C 341.282,146.183 361.449,134.85 388,134.5C 427.747,137.2 450.747,158.2 457,197.5C 458.442,239.477 458.942,281.477 458.5,323.5C 442.833,323.5 427.167,323.5 411.5,323.5C 411.667,285.499 411.5,247.499 411,209.5C 406.872,186.041 392.872,174.041 369,173.5C 355.381,173.2 343.881,177.867 334.5,187.5 Z M 298.5,84.5 C 306.1,84.213 307.767,87.0463 303.5,93C 304.448,93.4828 305.448,93.6495 306.5,93.5C 306.5,94.5 306.5,95.5 306.5,96.5C 303.5,96.5 300.5,96.5 297.5,96.5C 297.351,95.448 297.517,94.448 298,93.5C 300.295,91.92 301.628,89.92 302,87.5C 300.89,89.0368 299.39,89.7035 297.5,89.5C 297.629,87.7839 297.962,86.1172 298.5,84.5 Z M 141.5,135.5 C 173.66,131.733 201.16,141.066 224,163.5C 234.56,175.989 241.393,190.322 244.5,206.5C 228.177,207.666 211.844,207.833 195.5,207C 187.846,182.492 171.179,172.158 145.5,176C 123.933,181.911 112.099,196.077 110,218.5C 107.32,236.767 110.653,253.767 120,269.5C 133.826,284.739 150.659,289.239 170.5,283C 184.251,277.757 192.251,267.924 194.5,253.5C 211.18,253.167 227.847,253.501 244.5,254.5C 236.164,293.334 212.498,316.5 173.5,324C 137.361,330.176 106.861,320.009 82,293.5C 68.25,274.863 61.4167,253.863 61.5,230.5C 61.4248,201.199 71.7582,176.365 92.5,156C 107.028,144.733 123.361,137.899 141.5,135.5 Z M 319.5,178.5 C 322.119,178.232 324.619,178.565 327,179.5C 326.333,182.5 326.333,185.5 327,188.5C 323.411,191.395 320.578,190.729 318.5,186.5C 319.325,185.614 320.325,185.281 321.5,185.5C 321.5,184.5 321.5,183.5 321.5,182.5C 320.325,182.719 319.325,182.386 318.5,181.5C 319.127,180.583 319.461,179.583 319.5,178.5 Z M 212.5,186.5 C 214.167,186.5 215.833,186.5 217.5,186.5C 217.5,190.5 217.5,194.5 217.5,198.5C 216.167,198.5 214.833,198.5 213.5,198.5C 213.665,195.482 213.498,192.482 213,189.5C 211.272,188.648 211.105,187.648 212.5,186.5 Z"/></g>
<g><path style="opacity:0.96" fill="#a6a5a5" d="M 276.5,74.5 C 292.833,74.5 309.167,74.5 325.5,74.5C 325.333,105.835 325.5,137.168 326,168.5C 339.883,145.216 360.549,133.549 388,133.5C 421.927,134.271 444.261,150.604 455,182.5C 457.198,190.354 458.531,198.354 459,206.5C 459.5,245.832 459.667,285.165 459.5,324.5C 443.167,324.5 426.833,324.5 410.5,324.5C 410.667,286.499 410.5,248.499 410,210.5C 406.014,187.516 392.348,175.516 369,174.5C 347.038,175.471 333.038,186.471 327,207.5C 325.53,246.46 325.03,285.46 325.5,324.5C 309.167,324.5 292.833,324.5 276.5,324.5C 276.5,241.167 276.5,157.833 276.5,74.5 Z M 334.5,187.5 C 334.658,184.098 334.324,180.764 333.5,177.5C 328.431,173.256 322.764,172.423 316.5,175C 312.695,179.091 311.528,183.924 313,189.5C 315.071,193.953 318.571,195.953 323.5,195.5C 325.883,195.363 328.217,195.029 330.5,194.5C 327.975,199.91 326.141,205.577 325,211.5C 324.5,248.832 324.333,286.165 324.5,323.5C 308.833,323.5 293.167,323.5 277.5,323.5C 277.5,240.833 277.5,158.167 277.5,75.5C 293.167,75.5 308.833,75.5 324.5,75.5C 324.5,106.833 324.5,138.167 324.5,169.5C 325.675,169.719 326.675,169.386 327.5,168.5C 341.282,146.183 361.449,134.85 388,134.5C 427.747,137.2 450.747,158.2 457,197.5C 458.442,239.477 458.942,281.477 458.5,323.5C 442.833,323.5 427.167,323.5 411.5,323.5C 411.667,285.499 411.5,247.499 411,209.5C 406.872,186.041 392.872,174.041 369,173.5C 355.381,173.2 343.881,177.867 334.5,187.5 Z M 298.5,84.5 C 297.962,86.1172 297.629,87.7839 297.5,89.5C 299.39,89.7035 300.89,89.0368 302,87.5C 301.628,89.92 300.295,91.92 298,93.5C 297.517,94.448 297.351,95.448 297.5,96.5C 300.5,96.5 303.5,96.5 306.5,96.5C 306.5,95.5 306.5,94.5 306.5,93.5C 305.448,93.6495 304.448,93.4828 303.5,93C 307.767,87.0463 306.1,84.213 298.5,84.5 Z M 319.5,178.5 C 319.461,179.583 319.127,180.583 318.5,181.5C 319.325,182.386 320.325,182.719 321.5,182.5C 321.5,183.5 321.5,184.5 321.5,185.5C 320.325,185.281 319.325,185.614 318.5,186.5C 320.578,190.729 323.411,191.395 327,188.5C 326.333,185.5 326.333,182.5 327,179.5C 324.619,178.565 322.119,178.232 319.5,178.5 Z"/></g>
<g><path style="opacity:0.89" fill="#ed3a5f" d="M 296.5,79.5 C 308.99,77.8227 314.157,83.156 312,95.5C 311.215,97.286 310.049,98.786 308.5,100C 295.074,104.238 289.241,99.4043 291,85.5C 292.36,82.9774 294.193,80.9774 296.5,79.5 Z M 298.5,84.5 C 297.962,86.1172 297.629,87.7839 297.5,89.5C 299.39,89.7035 300.89,89.0368 302,87.5C 301.628,89.92 300.295,91.92 298,93.5C 297.517,94.448 297.351,95.448 297.5,96.5C 300.5,96.5 303.5,96.5 306.5,96.5C 306.5,95.5 306.5,94.5 306.5,93.5C 305.448,93.6495 304.448,93.4828 303.5,93C 307.767,87.0463 306.1,84.213 298.5,84.5 Z"/></g>
<g><path style="opacity:0.851" fill="#ed3a5f" d="M 299.5,110.5 C 305.158,109.679 306.825,111.846 304.5,117C 298.741,118.139 297.074,115.972 299.5,110.5 Z"/></g>
<g><path style="opacity:0.851" fill="#ed3a5f" d="M 299.5,124.5 C 305.158,123.679 306.825,125.846 304.5,131C 298.741,132.139 297.074,129.972 299.5,124.5 Z"/></g>
<g><path style="opacity:0.893" fill="#a5a6a5" d="M 140.5,134.5 C 173.349,130.405 201.516,139.739 225,162.5C 236.175,175.842 243.008,191.176 245.5,208.5C 228.497,208.667 211.497,208.5 194.5,208C 185.989,182.236 168.322,172.236 141.5,178C 122.702,185.41 112.535,199.243 111,219.5C 108.51,237.097 111.843,253.431 121,268.5C 137.335,285.965 156.168,289.131 177.5,278C 186.728,271.94 192.061,263.44 193.5,252.5C 210.833,252.5 228.167,252.5 245.5,252.5C 235.057,301.25 204.724,325.917 154.5,326.5C 102.274,325.102 71.441,298.768 62,247.5C 57.7097,218.946 63.3763,192.613 79,168.5C 94.8768,148.787 115.377,137.453 140.5,134.5 Z M 141.5,135.5 C 123.361,137.899 107.028,144.733 92.5,156C 71.7582,176.365 61.4248,201.199 61.5,230.5C 61.4167,253.863 68.25,274.863 82,293.5C 106.861,320.009 137.361,330.176 173.5,324C 212.498,316.5 236.164,293.334 244.5,254.5C 227.847,253.501 211.18,253.167 194.5,253.5C 192.251,267.924 184.251,277.757 170.5,283C 150.659,289.239 133.826,284.739 120,269.5C 110.653,253.767 107.32,236.767 110,218.5C 112.099,196.077 123.933,181.911 145.5,176C 171.179,172.158 187.846,182.492 195.5,207C 211.844,207.833 228.177,207.666 244.5,206.5C 241.393,190.322 234.56,175.989 224,163.5C 201.16,141.066 173.66,131.733 141.5,135.5 Z M 212.5,186.5 C 211.105,187.648 211.272,188.648 213,189.5C 213.498,192.482 213.665,195.482 213.5,198.5C 214.833,198.5 216.167,198.5 217.5,198.5C 217.5,194.5 217.5,190.5 217.5,186.5C 215.833,186.5 214.167,186.5 212.5,186.5 Z"/></g>
<g><path style="opacity:0.851" fill="#ed3a5f" d="M 299.5,138.5 C 305.158,137.679 306.825,139.846 304.5,145C 298.741,146.139 297.074,143.972 299.5,138.5 Z"/></g>
<g><path style="opacity:0.731" fill="#ed3a5f" d="M 369.5,151.5 C 375.113,150.079 377.28,152.079 376,157.5C 369.423,160.088 367.256,158.088 369.5,151.5 Z"/></g>
<g><path style="opacity:0.728" fill="#ed3a5f" d="M 384.5,151.5 C 390.488,151.664 391.821,154.164 388.5,159C 382.403,159.147 381.07,156.647 384.5,151.5 Z"/></g>
<g><path style="opacity:0.851" fill="#ed3a5f" d="M 299.5,152.5 C 305.158,151.679 306.825,153.846 304.5,159C 298.741,160.139 297.074,157.972 299.5,152.5 Z"/></g>
<g><path style="opacity:0.736" fill="#ed3a5f" d="M 144.5,153.5 C 150.113,152.079 152.28,154.079 151,159.5C 144.423,162.088 142.256,160.088 144.5,153.5 Z"/></g>
<g><path style="opacity:0.736" fill="#ed3a5f" d="M 159.5,153.5 C 165.488,153.664 166.821,156.164 163.5,161C 157.403,161.147 156.07,158.647 159.5,153.5 Z"/></g>
<g><path style="opacity:0.751" fill="#ed3a5f" d="M 133.5,154.5 C 137.396,155.78 138.396,158.28 136.5,162C 131.098,163.421 129.098,161.588 130.5,156.5C 131.602,155.824 132.602,155.158 133.5,154.5 Z"/></g>
<g><path style="opacity:0.745" fill="#ed3a5f" d="M 356.5,154.5 C 362.476,154.157 364.142,156.49 361.5,161.5C 359.833,162.833 358.167,162.833 356.5,161.5C 355.286,159.141 355.286,156.808 356.5,154.5 Z"/></g>
<g><path style="opacity:0.76" fill="#ed3a5f" d="M 398.5,154.5 C 399.93,154.421 401.264,154.754 402.5,155.5C 404.89,161.608 403.056,163.608 397,161.5C 396.185,158.802 396.685,156.468 398.5,154.5 Z"/></g>
<g><path style="opacity:0.736" fill="#ed3a5f" d="M 172.5,158.5 C 178.488,158.664 179.821,161.164 176.5,166C 170.403,166.147 169.07,163.647 172.5,158.5 Z"/></g>
<g><path style="opacity:0.735" fill="#ed3a5f" d="M 118.5,159.5 C 124.488,159.664 125.821,162.164 122.5,167C 116.403,167.147 115.07,164.647 118.5,159.5 Z"/></g>
<g><path style="opacity:0.745" fill="#ed3a5f" d="M 344.5,161.5 C 350.704,161.314 352.037,163.814 348.5,169C 342.834,168.835 341.501,166.335 344.5,161.5 Z"/></g>
<g><path style="opacity:0.731" fill="#ed3a5f" d="M 409.5,161.5 C 415.966,160.799 417.633,163.132 414.5,168.5C 408.77,169.41 407.103,167.077 409.5,161.5 Z"/></g>
<g><path style="opacity:0.721" fill="#ed3a5f" d="M 184.5,165.5 C 190.362,165.662 191.695,168.162 188.5,173C 182.403,173.147 181.07,170.647 184.5,165.5 Z"/></g>
<g><path style="opacity:0.723" fill="#ed3a5f" d="M 106.5,166.5 C 112.488,166.664 113.821,169.164 110.5,174C 104.413,174.205 103.079,171.705 106.5,166.5 Z"/></g>
<g><path style="opacity:0.917" fill="#ed3a5f" d="M 299.5,166.5 C 305.158,165.679 306.825,167.846 304.5,173C 298.741,174.139 297.074,171.972 299.5,166.5 Z"/></g>
<g><path style="opacity:0.843" fill="#ed3a5f" d="M 333.5,177.5 C 332.679,171.842 334.846,170.175 340,172.5C 341.139,178.259 338.972,179.926 333.5,177.5 Z"/></g>
<g><path style="opacity:0.704" fill="#ed3a5f" d="M 419.5,171.5 C 425.704,171.314 427.037,173.814 423.5,179C 417.403,179.147 416.07,176.647 419.5,171.5 Z"/></g>
<g><path style="opacity:0.89" fill="#ed3a5f" d="M 333.5,177.5 C 334.324,180.764 334.658,184.098 334.5,187.5C 333.431,189.969 332.098,192.302 330.5,194.5C 328.217,195.029 325.883,195.363 323.5,195.5C 318.571,195.953 315.071,193.953 313,189.5C 311.528,183.924 312.695,179.091 316.5,175C 322.764,172.423 328.431,173.256 333.5,177.5 Z M 319.5,178.5 C 319.461,179.583 319.127,180.583 318.5,181.5C 319.325,182.386 320.325,182.719 321.5,182.5C 321.5,183.5 321.5,184.5 321.5,185.5C 320.325,185.281 319.325,185.614 318.5,186.5C 320.578,190.729 323.411,191.395 327,188.5C 326.333,185.5 326.333,182.5 327,179.5C 324.619,178.565 322.119,178.232 319.5,178.5 Z"/></g>
<g><path style="opacity:0.737" fill="#ed3a5f" d="M 195.5,174.5 C 201.488,174.664 202.821,177.164 199.5,182C 193.403,182.147 192.07,179.647 195.5,174.5 Z"/></g>
<g><path style="opacity:0.737" fill="#ed3a5f" d="M 96.5,176.5 C 102.488,176.664 103.821,179.164 100.5,184C 94.4034,184.147 93.0701,181.647 96.5,176.5 Z"/></g>
<g><path style="opacity:0.899" fill="#ed3a5f" d="M 210.5,180.5 C 222.99,178.823 228.157,184.156 226,196.5C 225.215,198.286 224.049,199.786 222.5,201C 209.074,205.238 203.241,200.404 205,186.5C 206.36,183.977 208.193,181.977 210.5,180.5 Z M 212.5,186.5 C 211.105,187.648 211.272,188.648 213,189.5C 213.498,192.482 213.665,195.482 213.5,198.5C 214.833,198.5 216.167,198.5 217.5,198.5C 217.5,194.5 217.5,190.5 217.5,186.5C 215.833,186.5 214.167,186.5 212.5,186.5 Z"/></g>
<g><path style="opacity:0.917" fill="#ed3a5f" d="M 299.5,180.5 C 305.158,179.679 306.825,181.846 304.5,187C 298.741,188.139 297.074,185.972 299.5,180.5 Z"/></g>
<g><path style="opacity:0.732" fill="#ed3a5f" d="M 426.5,183.5 C 432.488,183.664 433.821,186.164 430.5,191C 424.403,191.147 423.07,188.647 426.5,183.5 Z"/></g>
<g><path style="opacity:0.721" fill="#ed3a5f" d="M 88.5,188.5 C 94.62,188.259 96.2867,190.759 93.5,196C 87.9802,196.37 86.3135,193.87 88.5,188.5 Z"/></g>
<g><path style="opacity:0.917" fill="#ed3a5f" d="M 299.5,194.5 C 305.158,193.679 306.825,195.846 304.5,201C 298.741,202.139 297.074,199.972 299.5,194.5 Z"/></g>
<g><path style="opacity:0.704" fill="#ed3a5f" d="M 431.5,196.5 C 437.488,196.664 438.821,199.164 435.5,204C 429.202,204.495 427.868,201.995 431.5,196.5 Z"/></g>
<g><path style="opacity:0.721" fill="#ed3a5f" d="M 83.5,201.5 C 89.62,201.259 91.2867,203.759 88.5,209C 82.9802,209.37 81.3135,206.87 83.5,201.5 Z"/></g>
<g><path style="opacity:0.917" fill="#ed3a5f" d="M 299.5,208.5 C 305.158,207.679 306.825,209.846 304.5,215C 298.741,216.139 297.074,213.972 299.5,208.5 Z"/></g>
<g><path style="opacity:0.731" fill="#ed3a5f" d="M 433.5,210.5 C 439.488,210.664 440.821,213.164 437.5,218C 431.403,218.147 430.07,215.647 433.5,210.5 Z"/></g>
<g><path style="opacity:0.735" fill="#ed3a5f" d="M 80.5,215.5 C 86.7286,215.027 88.3953,217.36 85.5,222.5C 79.8045,223.446 78.1378,221.112 80.5,215.5 Z"/></g>
<g><path style="opacity:0.917" fill="#ed3a5f" d="M 299.5,222.5 C 305.158,221.679 306.825,223.846 304.5,229C 298.741,230.139 297.074,227.972 299.5,222.5 Z"/></g>
<g><path style="opacity:0.704" fill="#ed3a5f" d="M 434.5,224.5 C 440.704,224.314 442.037,226.814 438.5,232C 432.403,232.147 431.07,229.647 434.5,224.5 Z"/></g>
<g><path style="opacity:0.832" fill="#ed3a5f" d="M 79.5,229.5 C 84.6752,228.507 86.5086,230.507 85,235.5C 83,238.167 81,238.167 79,235.5C 78.3224,233.402 78.4891,231.402 79.5,229.5 Z"/></g>
<g><path style="opacity:0.917" fill="#ed3a5f" d="M 299.5,236.5 C 305.158,235.679 306.825,237.846 304.5,243C 298.741,244.139 297.074,241.972 299.5,236.5 Z"/></g>
<g><path style="opacity:0.717" fill="#ed3a5f" d="M 434.5,238.5 C 439.501,237.671 441.668,239.671 441,244.5C 434.684,247.356 432.518,245.356 434.5,238.5 Z"/></g>
<g><path style="opacity:0.782" fill="#ed3a5f" d="M 80.5,243.5 C 85.6752,242.507 87.5086,244.507 86,249.5C 82.913,251.87 80.413,251.203 78.5,247.5C 79.1799,246.14 79.8466,244.807 80.5,243.5 Z"/></g>
<g><path style="opacity:0.916" fill="#ed3a5f" d="M 299.5,250.5 C 305.158,249.679 306.825,251.846 304.5,257C 298.741,258.139 297.074,255.972 299.5,250.5 Z"/></g>
<g><path style="opacity:0.731" fill="#ed3a5f" d="M 435.5,252.5 C 441.704,252.314 443.037,254.814 439.5,260C 433.812,259.79 432.479,257.29 435.5,252.5 Z"/></g>
<g><path style="opacity:0.709" fill="#ed3a5f" d="M 84.5,256.5 C 90.4877,256.664 91.821,259.164 88.5,264C 82.2016,264.495 80.8682,261.995 84.5,256.5 Z"/></g>
<g><path style="opacity:0.851" fill="#ed3a5f" d="M 299.5,264.5 C 305.158,263.679 306.825,265.846 304.5,271C 298.741,272.139 297.074,269.972 299.5,264.5 Z"/></g>
<g><path style="opacity:0.826" fill="#ed3a5f" d="M 435.5,266.5 C 440.675,265.507 442.509,267.507 441,272.5C 439,275.167 437,275.167 435,272.5C 434.322,270.402 434.489,268.402 435.5,266.5 Z"/></g>
<g><path style="opacity:0.709" fill="#ed3a5f" d="M 89.5,269.5 C 96.004,269.138 97.6707,271.638 94.5,277C 88.7853,277.401 87.1187,274.901 89.5,269.5 Z"/></g>
<g><path style="opacity:0.766" fill="#ed3a5f" d="M 199.5,274.5 C 200.93,274.421 202.264,274.754 203.5,275.5C 205.89,281.608 204.056,283.608 198,281.5C 197.185,278.802 197.685,276.468 199.5,274.5 Z"/></g>
<g><path style="opacity:0.85" fill="#ed3a5f" d="M 299.5,278.5 C 305.158,277.679 306.825,279.846 304.5,285C 298.741,286.139 297.074,283.972 299.5,278.5 Z"/></g>
<g><path style="opacity:0.751" fill="#ed3a5f" d="M 98.5,280.5 C 104.235,279.821 105.902,282.155 103.5,287.5C 99.9036,289.035 97.5702,287.869 96.5,284C 97.305,282.887 97.9717,281.721 98.5,280.5 Z"/></g>
<g><path style="opacity:0.825" fill="#ed3a5f" d="M 435.5,280.5 C 440.675,279.507 442.509,281.507 441,286.5C 439,289.167 437,289.167 435,286.5C 434.322,284.402 434.489,282.402 435.5,280.5 Z"/></g>
<g><path style="opacity:0.721" fill="#ed3a5f" d="M 188.5,284.5 C 194.704,284.314 196.037,286.814 192.5,292C 186.392,292.078 185.059,289.578 188.5,284.5 Z"/></g>
<g><path style="opacity:0.765" fill="#ed3a5f" d="M 108.5,289.5 C 114.113,288.079 116.28,290.079 115,295.5C 108.854,297.636 106.687,295.636 108.5,289.5 Z"/></g>
<g><path style="opacity:0.722" fill="#ed3a5f" d="M 176.5,291.5 C 181.984,291.481 183.65,293.981 181.5,299C 174.798,299.802 173.132,297.302 176.5,291.5 Z"/></g>
<g><path style="opacity:0.85" fill="#ed3a5f" d="M 299.5,292.5 C 305.158,291.679 306.825,293.846 304.5,299C 298.741,300.139 297.074,297.972 299.5,292.5 Z"/></g>
<g><path style="opacity:0.828" fill="#ed3a5f" d="M 435.5,294.5 C 441.158,293.679 442.825,295.846 440.5,301C 434.508,301.811 432.841,299.644 435.5,294.5 Z"/></g>
<g><path style="opacity:0.709" fill="#ed3a5f" d="M 121.5,295.5 C 126.672,294.565 128.839,296.565 128,301.5C 121.684,304.356 119.518,302.356 121.5,295.5 Z"/></g>
<g><path style="opacity:0.709" fill="#ed3a5f" d="M 163.5,296.5 C 168.984,296.481 170.65,298.981 168.5,304C 161.745,304.756 160.078,302.256 163.5,296.5 Z"/></g>
<g><path style="opacity:0.71" fill="#ed3a5f" d="M 135.5,298.5 C 141.313,298.062 142.98,300.562 140.5,306C 134.206,306.578 132.539,304.078 135.5,298.5 Z"/></g>
<g><path style="opacity:0.833" fill="#ed3a5f" d="M 149.5,299.5 C 155.158,298.679 156.825,300.846 154.5,306C 148.508,306.811 146.841,304.644 149.5,299.5 Z"/></g>
<g><path style="opacity:0.85" fill="#ed3a5f" d="M 299.5,306.5 C 305.158,305.679 306.825,307.846 304.5,313C 298.741,314.139 297.074,311.972 299.5,306.5 Z"/></g>
</svg>
