<?xml version="1.0" encoding="UTF-8"?>
<!DOCTYPE svg PUBLIC "-//W3C//DTD SVG 1.1//EN" "http://www.w3.org/Graphics/SVG/1.1/DTD/svg11.dtd">
<svg xmlns="http://www.w3.org/2000/svg" version="1.1" width="500px" height="500px" style="shape-rendering:geometricPrecision; text-rendering:geometricPrecision; image-rendering:optimizeQuality; fill-rule:evenodd; clip-rule:evenodd" xmlns:xlink="http://www.w3.org/1999/xlink">
<g><path style="opacity:1" fill="#f7f8f7" d="M -0.5,-0.5 C 166.167,-0.5 332.833,-0.5 499.5,-0.5C 499.5,166.167 499.5,332.833 499.5,499.5C 332.833,499.5 166.167,499.5 -0.5,499.5C -0.5,332.833 -0.5,166.167 -0.5,-0.5 Z M 277.5,75.5 C 293.167,75.5 308.833,75.5 324.5,75.5C 324.5,121.167 324.5,166.833 324.5,212.5C 327.044,211.532 329.211,209.865 331,207.5C 348.805,184.061 366.971,160.895 385.5,138C 403.833,137.333 422.167,137.333 440.5,138C 414.444,168.386 388.777,199.052 363.5,230C 389.82,260.989 416.153,291.989 442.5,323C 423.833,323.667 405.167,323.667 386.5,323C 366.642,297.309 346.975,271.475 327.5,245.5C 326.675,244.614 325.675,244.281 324.5,244.5C 324.5,270.833 324.5,297.167 324.5,323.5C 308.833,323.5 293.167,323.5 277.5,323.5C 277.5,240.833 277.5,158.167 277.5,75.5 Z M 298.5,84.5 C 306.1,84.213 307.767,87.0463 303.5,93C 304.448,93.4828 305.448,93.6495 306.5,93.5C 306.5,94.5 306.5,95.5 306.5,96.5C 303.5,96.5 300.5,96.5 297.5,96.5C 297.351,95.448 297.517,94.448 298,93.5C 300.295,91.92 301.628,89.92 302,87.5C 300.89,89.0368 299.39,89.7035 297.5,89.5C 297.629,87.7839 297.962,86.1172 298.5,84.5 Z M 141.5,135.5 C 173.66,131.733 201.16,141.066 224,163.5C 234.56,175.989 241.393,190.322 244.5,206.5C 228.177,207.666 211.844,207.833 195.5,207C 187.846,182.492 171.179,172.158 145.5,176C 123.933,181.911 112.099,196.077 110,218.5C 107.32,236.767 110.653,253.767 120,269.5C 133.826,284.739 150.659,289.239 170.5,283C 184.251,277.757 192.251,267.924 194.5,253.5C 211.18,253.167 227.847,253.501 244.5,254.5C 236.164,293.334 212.498,316.5 173.5,324C 137.361,330.176 106.861,320.009 82,293.5C 68.25,274.863 61.4167,253.863 61.5,230.5C 61.4248,201.199 71.7582,176.365 92.5,156C 107.028,144.733 123.361,137.899 141.5,135.5 Z M 395.5,150.5 C 398.119,150.232 400.619,150.565 403,151.5C 402.333,154.5 402.333,157.5 403,160.5C 399.411,163.395 396.578,162.729 394.5,158.5C 395.325,157.614 396.325,157.281 397.5,157.5C 397.5,156.5 397.5,155.5 397.5,154.5C 396.325,154.719 395.325,154.386 394.5,153.5C 395.127,152.583 395.461,151.583 395.5,150.5 Z M 212.5,186.5 C 214.167,186.5 215.833,186.5 217.5,186.5C 217.5,190.5 217.5,194.5 217.5,198.5C 216.167,198.5 214.833,198.5 213.5,198.5C 213.665,195.482 213.498,192.482 213,189.5C 211.272,188.648 211.105,187.648 212.5,186.5 Z M 345.5,234.5 C 346.833,234.5 348.167,234.5 349.5,234.5C 350.005,238.6 350.005,242.6 349.5,246.5C 348.5,246.5 347.5,246.5 346.5,246.5C 346.5,245.5 346.5,244.5 346.5,243.5C 344.396,243.799 342.396,243.466 340.5,242.5C 342.193,239.816 343.86,237.149 345.5,234.5 Z"/></g>
<g><path style="opacity:0.911" fill="#a5a6a5" d="M 276.5,74.5 C 292.833,74.5 309.167,74.5 325.5,74.5C 325.333,120.168 325.5,165.835 326,211.5C 345.5,186.667 365,161.833 384.5,137C 403.842,136.167 423.175,136.334 442.5,137.5C 416.688,168.48 390.688,199.313 364.5,230C 391.285,261.074 417.952,292.24 444.5,323.5C 424.842,324.666 405.175,324.833 385.5,324C 365.283,298.117 345.449,271.95 326,245.5C 325.5,271.831 325.333,298.165 325.5,324.5C 309.167,324.5 292.833,324.5 276.5,324.5C 276.5,241.167 276.5,157.833 276.5,74.5 Z M 277.5,75.5 C 277.5,158.167 277.5,240.833 277.5,323.5C 293.167,323.5 308.833,323.5 324.5,323.5C 324.5,297.167 324.5,270.833 324.5,244.5C 325.675,244.281 326.675,244.614 327.5,245.5C 346.975,271.475 366.642,297.309 386.5,323C 405.167,323.667 423.833,323.667 442.5,323C 416.153,291.989 389.82,260.989 363.5,230C 388.777,199.052 414.444,168.386 440.5,138C 422.167,137.333 403.833,137.333 385.5,138C 366.971,160.895 348.805,184.061 331,207.5C 329.211,209.865 327.044,211.532 324.5,212.5C 324.5,166.833 324.5,121.167 324.5,75.5C 308.833,75.5 293.167,75.5 277.5,75.5 Z M 298.5,84.5 C 297.962,86.1172 297.629,87.7839 297.5,89.5C 299.39,89.7035 300.89,89.0368 302,87.5C 301.628,89.92 300.295,91.92 298,93.5C 297.517,94.448 297.351,95.448 297.5,96.5C 300.5,96.5 303.5,96.5 306.5,96.5C 306.5,95.5 306.5,94.5 306.5,93.5C 305.448,93.6495 304.448,93.4828 303.5,93C 307.767,87.0463 306.1,84.213 298.5,84.5 Z M 395.5,150.5 C 395.461,151.583 395.127,152.583 394.5,153.5C 395.325,154.386 396.325,154.719 397.5,154.5C 397.5,155.5 397.5,156.5 397.5,157.5C 396.325,157.281 395.325,157.614 394.5,158.5C 396.578,162.729 399.411,163.395 403,160.5C 402.333,157.5 402.333,154.5 403,151.5C 400.619,150.565 398.119,150.232 395.5,150.5 Z M 345.5,234.5 C 343.86,237.149 342.193,239.816 340.5,242.5C 342.396,243.466 344.396,243.799 346.5,243.5C 346.5,244.5 346.5,245.5 346.5,246.5C 347.5,246.5 348.5,246.5 349.5,246.5C 350.005,242.6 350.005,238.6 349.5,234.5C 348.167,234.5 346.833,234.5 345.5,234.5 Z"/></g>
<g><path style="opacity:0.89" fill="#ed3a5f" d="M 296.5,79.5 C 308.99,77.8227 314.157,83.156 312,95.5C 311.215,97.286 310.049,98.786 308.5,100C 295.074,104.238 289.241,99.4043 291,85.5C 292.36,82.9774 294.193,80.9774 296.5,79.5 Z M 298.5,84.5 C 297.962,86.1172 297.629,87.7839 297.5,89.5C 299.39,89.7035 300.89,89.0368 302,87.5C 301.628,89.92 300.295,91.92 298,93.5C 297.517,94.448 297.351,95.448 297.5,96.5C 300.5,96.5 303.5,96.5 306.5,96.5C 306.5,95.5 306.5,94.5 306.5,93.5C 305.448,93.6495 304.448,93.4828 303.5,93C 307.767,87.0463 306.1,84.213 298.5,84.5 Z"/></g>
<g><path style="opacity:0.851" fill="#ed3a5f" d="M 299.5,110.5 C 305.158,109.679 306.825,111.846 304.5,117C 298.741,118.139 297.074,115.972 299.5,110.5 Z"/></g>
<g><path style="opacity:0.851" fill="#ed3a5f" d="M 299.5,124.5 C 305.158,123.679 306.825,125.846 304.5,131C 298.741,132.139 297.074,129.972 299.5,124.5 Z"/></g>
<g><path style="opacity:0.893" fill="#a5a6a5" d="M 140.5,134.5 C 173.349,130.405 201.516,139.739 225,162.5C 236.175,175.842 243.008,191.176 245.5,208.5C 228.497,208.667 211.497,208.5 194.5,208C 185.989,182.236 168.322,172.236 141.5,178C 122.702,185.41 112.535,199.243 111,219.5C 108.51,237.097 111.843,253.431 121,268.5C 137.335,285.965 156.168,289.131 177.5,278C 186.728,271.94 192.061,263.44 193.5,252.5C 210.833,252.5 228.167,252.5 245.5,252.5C 235.057,301.25 204.724,325.917 154.5,326.5C 102.274,325.102 71.441,298.768 62,247.5C 57.7097,218.946 63.3763,192.613 79,168.5C 94.8768,148.787 115.377,137.453 140.5,134.5 Z M 141.5,135.5 C 123.361,137.899 107.028,144.733 92.5,156C 71.7582,176.365 61.4248,201.199 61.5,230.5C 61.4167,253.863 68.25,274.863 82,293.5C 106.861,320.009 137.361,330.176 173.5,324C 212.498,316.5 236.164,293.334 244.5,254.5C 227.847,253.501 211.18,253.167 194.5,253.5C 192.251,267.924 184.251,277.757 170.5,283C 150.659,289.239 133.826,284.739 120,269.5C 110.653,253.767 107.32,236.767 110,218.5C 112.099,196.077 123.933,181.911 145.5,176C 171.179,172.158 187.846,182.492 195.5,207C 211.844,207.833 228.177,207.666 244.5,206.5C 241.393,190.322 234.56,175.989 224,163.5C 201.16,141.066 173.66,131.733 141.5,135.5 Z M 212.5,186.5 C 211.105,187.648 211.272,188.648 213,189.5C 213.498,192.482 213.665,195.482 213.5,198.5C 214.833,198.5 216.167,198.5 217.5,198.5C 217.5,194.5 217.5,190.5 217.5,186.5C 215.833,186.5 214.167,186.5 212.5,186.5 Z"/></g>
<g><path style="opacity:0.851" fill="#ed3a5f" d="M 299.5,138.5 C 305.158,137.679 306.825,139.846 304.5,145C 298.741,146.139 297.074,143.972 299.5,138.5 Z"/></g>
<g><path style="opacity:0.888" fill="#ed3a5f" d="M 394.5,145.5 C 406.99,143.823 412.157,149.156 410,161.5C 409.215,163.286 408.049,164.786 406.5,166C 393.074,170.238 387.241,165.404 389,151.5C 390.36,148.977 392.193,146.977 394.5,145.5 Z M 395.5,150.5 C 395.461,151.583 395.127,152.583 394.5,153.5C 395.325,154.386 396.325,154.719 397.5,154.5C 397.5,155.5 397.5,156.5 397.5,157.5C 396.325,157.281 395.325,157.614 394.5,158.5C 396.578,162.729 399.411,163.395 403,160.5C 402.333,157.5 402.333,154.5 403,151.5C 400.619,150.565 398.119,150.232 395.5,150.5 Z"/></g>
<g><path style="opacity:0.851" fill="#ed3a5f" d="M 299.5,152.5 C 305.158,151.679 306.825,153.846 304.5,159C 298.741,160.139 297.074,157.972 299.5,152.5 Z"/></g>
<g><path style="opacity:0.736" fill="#ed3a5f" d="M 144.5,153.5 C 150.113,152.079 152.28,154.079 151,159.5C 144.423,162.088 142.256,160.088 144.5,153.5 Z"/></g>
<g><path style="opacity:0.736" fill="#ed3a5f" d="M 159.5,153.5 C 165.488,153.664 166.821,156.164 163.5,161C 157.403,161.147 156.07,158.647 159.5,153.5 Z"/></g>
<g><path style="opacity:0.751" fill="#ed3a5f" d="M 133.5,154.5 C 137.396,155.78 138.396,158.28 136.5,162C 131.098,163.421 129.098,161.588 130.5,156.5C 131.602,155.824 132.602,155.158 133.5,154.5 Z"/></g>
<g><path style="opacity:0.736" fill="#ed3a5f" d="M 172.5,158.5 C 178.488,158.664 179.821,161.164 176.5,166C 170.403,166.147 169.07,163.647 172.5,158.5 Z"/></g>
<g><path style="opacity:0.735" fill="#ed3a5f" d="M 118.5,159.5 C 124.488,159.664 125.821,162.164 122.5,167C 116.403,167.147 115.07,164.647 118.5,159.5 Z"/></g>
<g><path style="opacity:0.721" fill="#ed3a5f" d="M 184.5,165.5 C 190.362,165.662 191.695,168.162 188.5,173C 182.403,173.147 181.07,170.647 184.5,165.5 Z"/></g>
<g><path style="opacity:0.723" fill="#ed3a5f" d="M 106.5,166.5 C 112.488,166.664 113.821,169.164 110.5,174C 104.413,174.205 103.079,171.705 106.5,166.5 Z"/></g>
<g><path style="opacity:0.917" fill="#ed3a5f" d="M 299.5,166.5 C 305.158,165.679 306.825,167.846 304.5,173C 298.741,174.139 297.074,171.972 299.5,166.5 Z"/></g>
<g><path style="opacity:0.85" fill="#ed3a5f" d="M 385.5,166.5 C 391.158,165.679 392.825,167.846 390.5,173C 384.741,174.139 383.074,171.972 385.5,166.5 Z"/></g>
<g><path style="opacity:0.737" fill="#ed3a5f" d="M 195.5,174.5 C 201.488,174.664 202.821,177.164 199.5,182C 193.403,182.147 192.07,179.647 195.5,174.5 Z"/></g>
<g><path style="opacity:0.737" fill="#ed3a5f" d="M 96.5,176.5 C 102.488,176.664 103.821,179.164 100.5,184C 94.4034,184.147 93.0701,181.647 96.5,176.5 Z"/></g>
<g><path style="opacity:0.709" fill="#ed3a5f" d="M 375.5,176.5 C 380.672,175.565 382.839,177.565 382,182.5C 375.684,185.356 373.518,183.356 375.5,176.5 Z"/></g>
<g><path style="opacity:0.899" fill="#ed3a5f" d="M 210.5,180.5 C 222.99,178.823 228.157,184.156 226,196.5C 225.215,198.286 224.049,199.786 222.5,201C 209.074,205.238 203.241,200.404 205,186.5C 206.36,183.977 208.193,181.977 210.5,180.5 Z M 212.5,186.5 C 211.105,187.648 211.272,188.648 213,189.5C 213.498,192.482 213.665,195.482 213.5,198.5C 214.833,198.5 216.167,198.5 217.5,198.5C 217.5,194.5 217.5,190.5 217.5,186.5C 215.833,186.5 214.167,186.5 212.5,186.5 Z"/></g>
<g><path style="opacity:0.917" fill="#ed3a5f" d="M 299.5,180.5 C 305.158,179.679 306.825,181.846 304.5,187C 298.741,188.139 297.074,185.972 299.5,180.5 Z"/></g>
<g><path style="opacity:0.709" fill="#ed3a5f" d="M 366.5,186.5 C 372.235,185.821 373.902,188.155 371.5,193.5C 367.624,195.446 365.291,194.28 364.5,190C 364.978,188.697 365.645,187.531 366.5,186.5 Z"/></g>
<g><path style="opacity:0.721" fill="#ed3a5f" d="M 88.5,188.5 C 94.62,188.259 96.2867,190.759 93.5,196C 87.9802,196.37 86.3135,193.87 88.5,188.5 Z"/></g>
<g><path style="opacity:0.917" fill="#ed3a5f" d="M 299.5,194.5 C 305.158,193.679 306.825,195.846 304.5,201C 298.741,202.139 297.074,199.972 299.5,194.5 Z"/></g>
<g><path style="opacity:0.709" fill="#ed3a5f" d="M 357.5,196.5 C 361.06,195.891 363.06,197.391 363.5,201C 361.927,204.452 359.427,205.286 356,203.5C 355.185,200.802 355.685,198.468 357.5,196.5 Z"/></g>
<g><path style="opacity:0.721" fill="#ed3a5f" d="M 83.5,201.5 C 89.62,201.259 91.2867,203.759 88.5,209C 82.9802,209.37 81.3135,206.87 83.5,201.5 Z"/></g>
<g><path style="opacity:0.709" fill="#ed3a5f" d="M 348.5,206.5 C 353.262,207.092 354.596,209.592 352.5,214C 347.338,215.424 345.171,213.59 346,208.5C 346.995,207.934 347.828,207.267 348.5,206.5 Z"/></g>
<g><path style="opacity:0.917" fill="#ed3a5f" d="M 299.5,208.5 C 305.158,207.679 306.825,209.846 304.5,215C 298.741,216.139 297.074,213.972 299.5,208.5 Z"/></g>
<g><path style="opacity:0.735" fill="#ed3a5f" d="M 80.5,215.5 C 86.7286,215.027 88.3953,217.36 85.5,222.5C 79.8045,223.446 78.1378,221.112 80.5,215.5 Z"/></g>
<g><path style="opacity:0.85" fill="#ed3a5f" d="M 337.5,217.5 C 343.158,216.679 344.825,218.846 342.5,224C 336.741,225.139 335.074,222.972 337.5,217.5 Z"/></g>
<g><path style="opacity:0.917" fill="#ed3a5f" d="M 299.5,222.5 C 305.158,221.679 306.825,223.846 304.5,229C 298.741,230.139 297.074,227.972 299.5,222.5 Z"/></g>
<g><path style="opacity:0.832" fill="#ed3a5f" d="M 79.5,229.5 C 84.6752,228.507 86.5086,230.507 85,235.5C 83,238.167 81,238.167 79,235.5C 78.3224,233.402 78.4891,231.402 79.5,229.5 Z"/></g>
<g><path style="opacity:0.893" fill="#ed3a5f" d="M 341.5,229.5 C 353.99,227.823 359.157,233.156 357,245.5C 356.215,247.286 355.049,248.786 353.5,250C 340.074,254.238 334.241,249.404 336,235.5C 337.36,232.977 339.193,230.977 341.5,229.5 Z M 345.5,234.5 C 343.86,237.149 342.193,239.816 340.5,242.5C 342.396,243.466 344.396,243.799 346.5,243.5C 346.5,244.5 346.5,245.5 346.5,246.5C 347.5,246.5 348.5,246.5 349.5,246.5C 350.005,242.6 350.005,238.6 349.5,234.5C 348.167,234.5 346.833,234.5 345.5,234.5 Z"/></g>
<g><path style="opacity:0.917" fill="#ed3a5f" d="M 299.5,236.5 C 305.158,235.679 306.825,237.846 304.5,243C 298.741,244.139 297.074,241.972 299.5,236.5 Z"/></g>
<g><path style="opacity:0.782" fill="#ed3a5f" d="M 80.5,243.5 C 85.6752,242.507 87.5086,244.507 86,249.5C 82.913,251.87 80.413,251.203 78.5,247.5C 79.1799,246.14 79.8466,244.807 80.5,243.5 Z"/></g>
<g><path style="opacity:0.916" fill="#ed3a5f" d="M 299.5,250.5 C 305.158,249.679 306.825,251.846 304.5,257C 298.741,258.139 297.074,255.972 299.5,250.5 Z"/></g>
<g><path style="opacity:0.835" fill="#ed3a5f" d="M 356.5,252.5 C 361.675,251.507 363.509,253.507 362,258.5C 360,261.167 358,261.167 356,258.5C 355.322,256.402 355.489,254.402 356.5,252.5 Z"/></g>
<g><path style="opacity:0.709" fill="#ed3a5f" d="M 84.5,256.5 C 90.4877,256.664 91.821,259.164 88.5,264C 82.2016,264.495 80.8682,261.995 84.5,256.5 Z"/></g>
<g><path style="opacity:0.768" fill="#ed3a5f" d="M 366.5,262.5 C 367.93,262.421 369.264,262.754 370.5,263.5C 372.89,269.608 371.056,271.608 365,269.5C 364.185,266.802 364.685,264.468 366.5,262.5 Z"/></g>
<g><path style="opacity:0.851" fill="#ed3a5f" d="M 299.5,264.5 C 305.158,263.679 306.825,265.846 304.5,271C 298.741,272.139 297.074,269.972 299.5,264.5 Z"/></g>
<g><path style="opacity:0.709" fill="#ed3a5f" d="M 89.5,269.5 C 96.004,269.138 97.6707,271.638 94.5,277C 88.7853,277.401 87.1187,274.901 89.5,269.5 Z"/></g>
<g><path style="opacity:0.739" fill="#ed3a5f" d="M 374.5,273.5 C 380.313,273.062 381.98,275.562 379.5,281C 373.593,281.746 371.927,279.246 374.5,273.5 Z"/></g>
<g><path style="opacity:0.766" fill="#ed3a5f" d="M 199.5,274.5 C 200.93,274.421 202.264,274.754 203.5,275.5C 205.89,281.608 204.056,283.608 198,281.5C 197.185,278.802 197.685,276.468 199.5,274.5 Z"/></g>
<g><path style="opacity:0.85" fill="#ed3a5f" d="M 299.5,278.5 C 305.158,277.679 306.825,279.846 304.5,285C 298.741,286.139 297.074,283.972 299.5,278.5 Z"/></g>
<g><path style="opacity:0.751" fill="#ed3a5f" d="M 98.5,280.5 C 104.235,279.821 105.902,282.155 103.5,287.5C 99.9036,289.035 97.5702,287.869 96.5,284C 97.305,282.887 97.9717,281.721 98.5,280.5 Z"/></g>
<g><path style="opacity:0.721" fill="#ed3a5f" d="M 188.5,284.5 C 194.704,284.314 196.037,286.814 192.5,292C 186.392,292.078 185.059,289.578 188.5,284.5 Z"/></g>
<g><path style="opacity:0.739" fill="#ed3a5f" d="M 383.5,284.5 C 389.313,284.062 390.98,286.562 388.5,292C 382.593,292.746 380.927,290.246 383.5,284.5 Z"/></g>
<g><path style="opacity:0.765" fill="#ed3a5f" d="M 108.5,289.5 C 114.113,288.079 116.28,290.079 115,295.5C 108.854,297.636 106.687,295.636 108.5,289.5 Z"/></g>
<g><path style="opacity:0.722" fill="#ed3a5f" d="M 176.5,291.5 C 181.984,291.481 183.65,293.981 181.5,299C 174.798,299.802 173.132,297.302 176.5,291.5 Z"/></g>
<g><path style="opacity:0.85" fill="#ed3a5f" d="M 299.5,292.5 C 305.158,291.679 306.825,293.846 304.5,299C 298.741,300.139 297.074,297.972 299.5,292.5 Z"/></g>
<g><path style="opacity:0.709" fill="#ed3a5f" d="M 121.5,295.5 C 126.672,294.565 128.839,296.565 128,301.5C 121.684,304.356 119.518,302.356 121.5,295.5 Z"/></g>
<g><path style="opacity:0.768" fill="#ed3a5f" d="M 392.5,295.5 C 398.235,294.821 399.902,297.155 397.5,302.5C 395.833,303.833 394.167,303.833 392.5,302.5C 391.286,300.141 391.286,297.808 392.5,295.5 Z"/></g>
<g><path style="opacity:0.709" fill="#ed3a5f" d="M 163.5,296.5 C 168.984,296.481 170.65,298.981 168.5,304C 161.745,304.756 160.078,302.256 163.5,296.5 Z"/></g>
<g><path style="opacity:0.71" fill="#ed3a5f" d="M 135.5,298.5 C 141.313,298.062 142.98,300.562 140.5,306C 134.206,306.578 132.539,304.078 135.5,298.5 Z"/></g>
<g><path style="opacity:0.833" fill="#ed3a5f" d="M 149.5,299.5 C 155.158,298.679 156.825,300.846 154.5,306C 148.508,306.811 146.841,304.644 149.5,299.5 Z"/></g>
<g><path style="opacity:0.834" fill="#ed3a5f" d="M 403.5,305.5 C 407.396,306.78 408.396,309.28 406.5,313C 401.333,314.5 399.5,312.667 401,307.5C 401.995,306.934 402.828,306.267 403.5,305.5 Z"/></g>
<g><path style="opacity:0.85" fill="#ed3a5f" d="M 299.5,306.5 C 305.158,305.679 306.825,307.846 304.5,313C 298.741,314.139 297.074,311.972 299.5,306.5 Z"/></g>
</svg>
