<?xml version="1.0" encoding="UTF-8"?>
<!DOCTYPE svg PUBLIC "-//W3C//DTD SVG 1.1//EN" "http://www.w3.org/Graphics/SVG/1.1/DTD/svg11.dtd">
<svg xmlns="http://www.w3.org/2000/svg" version="1.1" width="500px" height="500px" style="shape-rendering:geometricPrecision; text-rendering:geometricPrecision; image-rendering:optimizeQuality; fill-rule:evenodd; clip-rule:evenodd" xmlns:xlink="http://www.w3.org/1999/xlink">
<g><path style="opacity:1" fill="#f7f8f7" d="M -0.5,-0.5 C 166.167,-0.5 332.833,-0.5 499.5,-0.5C 499.5,166.167 499.5,332.833 499.5,499.5C 332.833,499.5 166.167,499.5 -0.5,499.5C -0.5,332.833 -0.5,166.167 -0.5,-0.5 Z M 248.5,176.5 C 237.672,175.663 233.006,180.663 234.5,191.5C 214.122,176.618 193.122,175.785 171.5,189C 155.276,204.349 149.109,223.182 153,245.5C 160.235,279.389 181.068,293.223 215.5,287C 236.666,280.192 248.499,265.692 251,243.5C 253.189,227.281 250.023,212.281 241.5,198.5C 253.489,199.677 258.322,194.344 256,182.5C 254.64,179.977 252.807,177.977 250.5,176.5C 251.498,144.338 251.832,112.004 251.5,79.5C 266.833,79.5 282.167,79.5 297.5,79.5C 297.5,162.167 297.5,244.833 297.5,327.5C 282.167,327.5 266.833,327.5 251.5,327.5C 251.5,315.833 251.5,304.167 251.5,292.5C 250.325,292.281 249.325,292.614 248.5,293.5C 232.746,320.71 209.079,332.544 177.5,329C 152.646,326.104 133.479,314.27 120,293.5C 105.248,265.662 101.248,236.329 108,205.5C 119.953,158.599 150.119,136.766 198.5,140C 221.97,143.201 238.636,155.368 248.5,176.5 Z M 271.5,90.5 C 273.167,90.5 274.833,90.5 276.5,90.5C 276.5,94.5 276.5,98.5 276.5,102.5C 275.167,102.5 273.833,102.5 272.5,102.5C 272.665,99.4816 272.498,96.4816 272,93.5C 270.272,92.6477 270.105,91.6477 271.5,90.5 Z M 242.5,181.5 C 250.1,181.213 251.767,184.046 247.5,190C 248.448,190.483 249.448,190.649 250.5,190.5C 250.5,191.5 250.5,192.5 250.5,193.5C 247.5,193.5 244.5,193.5 241.5,193.5C 241.351,192.448 241.517,191.448 242,190.5C 244.295,188.92 245.628,186.92 246,184.5C 245.311,185.357 244.478,186.023 243.5,186.5C 242.548,184.955 242.215,183.288 242.5,181.5 Z"/></g>
<g><path style="opacity:0.936" fill="#a5a6a5" d="M 250.5,78.5 C 266.5,78.5 282.5,78.5 298.5,78.5C 298.5,161.833 298.5,245.167 298.5,328.5C 282.5,328.5 266.5,328.5 250.5,328.5C 250.667,316.829 250.5,305.162 250,293.5C 236.7,318.659 215.7,330.993 187,330.5C 151.21,329.787 126.21,313.12 112,280.5C 99.9884,246.284 101.322,212.617 116,179.5C 134.829,148.005 162.662,134.505 199.5,139C 222.912,142.27 239.745,154.437 250,175.5C 250.5,143.168 250.667,110.835 250.5,78.5 Z M 248.5,176.5 C 237.672,175.663 233.006,180.663 234.5,191.5C 214.122,176.618 193.122,175.785 171.5,189C 155.276,204.349 149.109,223.182 153,245.5C 160.235,279.389 181.068,293.223 215.5,287C 236.666,280.192 248.499,265.692 251,243.5C 253.189,227.281 250.023,212.281 241.5,198.5C 253.489,199.677 258.322,194.344 256,182.5C 254.64,179.977 252.807,177.977 250.5,176.5C 251.498,144.338 251.832,112.004 251.5,79.5C 266.833,79.5 282.167,79.5 297.5,79.5C 297.5,162.167 297.5,244.833 297.5,327.5C 282.167,327.5 266.833,327.5 251.5,327.5C 251.5,315.833 251.5,304.167 251.5,292.5C 250.325,292.281 249.325,292.614 248.5,293.5C 232.746,320.71 209.079,332.544 177.5,329C 152.646,326.104 133.479,314.27 120,293.5C 105.248,265.662 101.248,236.329 108,205.5C 119.953,158.599 150.119,136.766 198.5,140C 221.97,143.201 238.636,155.368 248.5,176.5 Z M 271.5,90.5 C 270.105,91.6477 270.272,92.6477 272,93.5C 272.498,96.4816 272.665,99.4816 272.5,102.5C 273.833,102.5 275.167,102.5 276.5,102.5C 276.5,98.5 276.5,94.5 276.5,90.5C 274.833,90.5 273.167,90.5 271.5,90.5 Z M 242.5,181.5 C 242.215,183.288 242.548,184.955 243.5,186.5C 244.478,186.023 245.311,185.357 246,184.5C 245.628,186.92 244.295,188.92 242,190.5C 241.517,191.448 241.351,192.448 241.5,193.5C 244.5,193.5 247.5,193.5 250.5,193.5C 250.5,192.5 250.5,191.5 250.5,190.5C 249.448,190.649 248.448,190.483 247.5,190C 251.767,184.046 250.1,181.213 242.5,181.5 Z"/></g>
<g><path style="opacity:0.899" fill="#ed3a5f" d="M 269.5,84.5 C 281.99,82.8227 287.157,88.156 285,100.5C 284.215,102.286 283.049,103.786 281.5,105C 268.074,109.238 262.241,104.404 264,90.5C 265.36,87.9774 267.193,85.9774 269.5,84.5 Z M 271.5,90.5 C 270.105,91.6477 270.272,92.6477 272,93.5C 272.498,96.4816 272.665,99.4816 272.5,102.5C 273.833,102.5 275.167,102.5 276.5,102.5C 276.5,98.5 276.5,94.5 276.5,90.5C 274.833,90.5 273.167,90.5 271.5,90.5 Z"/></g>
<g><path style="opacity:0.851" fill="#ed3a5f" d="M 272.5,122.5 C 278.158,121.679 279.825,123.846 277.5,129C 271.741,130.139 270.074,127.972 272.5,122.5 Z"/></g>
<g><path style="opacity:0.851" fill="#ed3a5f" d="M 272.5,136.5 C 278.158,135.679 279.825,137.846 277.5,143C 271.741,144.139 270.074,141.972 272.5,136.5 Z"/></g>
<g><path style="opacity:0.851" fill="#ed3a5f" d="M 272.5,150.5 C 278.158,149.679 279.825,151.846 277.5,157C 271.741,158.139 270.074,155.972 272.5,150.5 Z"/></g>
<g><path style="opacity:0.736" fill="#ed3a5f" d="M 185.5,159.5 C 191.113,158.079 193.28,160.079 192,165.5C 185.423,168.088 183.256,166.088 185.5,159.5 Z"/></g>
<g><path style="opacity:0.736" fill="#ed3a5f" d="M 200.5,159.5 C 206.488,159.664 207.821,162.164 204.5,167C 198.403,167.147 197.07,164.647 200.5,159.5 Z"/></g>
<g><path style="opacity:0.751" fill="#ed3a5f" d="M 174.5,160.5 C 178.396,161.78 179.396,164.28 177.5,168C 172.098,169.421 170.098,167.588 171.5,162.5C 172.602,161.824 173.602,161.158 174.5,160.5 Z"/></g>
<g><path style="opacity:0.736" fill="#ed3a5f" d="M 213.5,164.5 C 219.488,164.664 220.821,167.164 217.5,172C 211.403,172.147 210.07,169.647 213.5,164.5 Z"/></g>
<g><path style="opacity:0.917" fill="#ed3a5f" d="M 272.5,164.5 C 278.158,163.679 279.825,165.846 277.5,171C 271.741,172.139 270.074,169.972 272.5,164.5 Z"/></g>
<g><path style="opacity:0.735" fill="#ed3a5f" d="M 159.5,165.5 C 165.488,165.664 166.821,168.164 163.5,173C 157.403,173.147 156.07,170.647 159.5,165.5 Z"/></g>
<g><path style="opacity:0.721" fill="#ed3a5f" d="M 225.5,171.5 C 231.362,171.662 232.695,174.162 229.5,179C 223.403,179.147 222.07,176.647 225.5,171.5 Z"/></g>
<g><path style="opacity:0.723" fill="#ed3a5f" d="M 147.5,172.5 C 153.488,172.664 154.821,175.164 151.5,180C 145.413,180.205 144.079,177.705 147.5,172.5 Z"/></g>
<g><path style="opacity:0.901" fill="#ed3a60" d="M 248.5,176.5 C 249.167,176.5 249.833,176.5 250.5,176.5C 252.807,177.977 254.64,179.977 256,182.5C 258.322,194.344 253.489,199.677 241.5,198.5C 240.167,197.5 238.833,196.5 237.5,195.5C 237.167,194.5 236.5,193.833 235.5,193.5C 235.672,192.508 235.338,191.842 234.5,191.5C 233.006,180.663 237.672,175.663 248.5,176.5 Z M 242.5,181.5 C 242.215,183.288 242.548,184.955 243.5,186.5C 244.478,186.023 245.311,185.357 246,184.5C 245.628,186.92 244.295,188.92 242,190.5C 241.517,191.448 241.351,192.448 241.5,193.5C 244.5,193.5 247.5,193.5 250.5,193.5C 250.5,192.5 250.5,191.5 250.5,190.5C 249.448,190.649 248.448,190.483 247.5,190C 251.767,184.046 250.1,181.213 242.5,181.5 Z"/></g>
<g><path style="opacity:0.917" fill="#ed3a5f" d="M 272.5,178.5 C 278.158,177.679 279.825,179.846 277.5,185C 271.741,186.139 270.074,183.972 272.5,178.5 Z"/></g>
<g><path style="opacity:0.887" fill="#a6a5a5" d="M 234.5,191.5 C 235.338,191.842 235.672,192.508 235.5,193.5C 215.29,178.015 194.29,176.848 172.5,190C 156.605,204.701 150.438,222.868 154,244.5C 158.288,271.622 174.121,285.956 201.5,287.5C 233.556,284.271 249.889,266.438 250.5,234C 250.624,219.537 246.291,206.704 237.5,195.5C 238.833,196.5 240.167,197.5 241.5,198.5C 250.023,212.281 253.189,227.281 251,243.5C 248.499,265.692 236.666,280.192 215.5,287C 181.068,293.223 160.235,279.389 153,245.5C 149.109,223.182 155.276,204.349 171.5,189C 193.122,175.785 214.122,176.618 234.5,191.5 Z"/></g>
<g><path style="opacity:1" fill="#f7f7f7" d="M 235.5,193.5 C 236.5,193.833 237.167,194.5 237.5,195.5C 246.291,206.704 250.624,219.537 250.5,234C 249.889,266.438 233.556,284.271 201.5,287.5C 174.121,285.956 158.288,271.622 154,244.5C 150.438,222.868 156.605,204.701 172.5,190C 194.29,176.848 215.29,178.015 235.5,193.5 Z"/></g>
<g><path style="opacity:0.737" fill="#ed3a5f" d="M 137.5,182.5 C 143.488,182.664 144.821,185.164 141.5,190C 135.403,190.147 134.07,187.647 137.5,182.5 Z"/></g>
<g><path style="opacity:0.917" fill="#ed3a5f" d="M 272.5,192.5 C 278.158,191.679 279.825,193.846 277.5,199C 271.741,200.139 270.074,197.972 272.5,192.5 Z"/></g>
<g><path style="opacity:0.721" fill="#ed3a5f" d="M 129.5,194.5 C 135.62,194.259 137.287,196.759 134.5,202C 128.98,202.37 127.313,199.87 129.5,194.5 Z"/></g>
<g><path style="opacity:0.917" fill="#ed3a5f" d="M 272.5,206.5 C 278.158,205.679 279.825,207.846 277.5,213C 271.741,214.139 270.074,211.972 272.5,206.5 Z"/></g>
<g><path style="opacity:0.721" fill="#ed3a5f" d="M 124.5,207.5 C 130.62,207.259 132.287,209.759 129.5,215C 123.98,215.37 122.313,212.87 124.5,207.5 Z"/></g>
<g><path style="opacity:0.917" fill="#ed3a5f" d="M 272.5,220.5 C 278.158,219.679 279.825,221.846 277.5,227C 271.741,228.139 270.074,225.972 272.5,220.5 Z"/></g>
<g><path style="opacity:0.735" fill="#ed3a5f" d="M 121.5,221.5 C 127.729,221.027 129.395,223.36 126.5,228.5C 120.805,229.446 119.138,227.112 121.5,221.5 Z"/></g>
<g><path style="opacity:0.917" fill="#ed3a5f" d="M 272.5,234.5 C 278.158,233.679 279.825,235.846 277.5,241C 271.741,242.139 270.074,239.972 272.5,234.5 Z"/></g>
<g><path style="opacity:0.832" fill="#ed3a5f" d="M 120.5,235.5 C 125.675,234.507 127.509,236.507 126,241.5C 124,244.167 122,244.167 120,241.5C 119.322,239.402 119.489,237.402 120.5,235.5 Z"/></g>
<g><path style="opacity:0.917" fill="#ed3a5f" d="M 272.5,248.5 C 278.158,247.679 279.825,249.846 277.5,255C 271.741,256.139 270.074,253.972 272.5,248.5 Z"/></g>
<g><path style="opacity:0.782" fill="#ed3a5f" d="M 121.5,249.5 C 126.675,248.507 128.509,250.507 127,255.5C 123.913,257.87 121.413,257.203 119.5,253.5C 120.18,252.14 120.847,250.807 121.5,249.5 Z"/></g>
<g><path style="opacity:0.709" fill="#ed3a5f" d="M 125.5,262.5 C 131.488,262.664 132.821,265.164 129.5,270C 123.202,270.495 121.868,267.995 125.5,262.5 Z"/></g>
<g><path style="opacity:0.917" fill="#ed3a5f" d="M 272.5,262.5 C 278.158,261.679 279.825,263.846 277.5,269C 271.741,270.139 270.074,267.972 272.5,262.5 Z"/></g>
<g><path style="opacity:0.709" fill="#ed3a5f" d="M 130.5,275.5 C 137.004,275.138 138.671,277.638 135.5,283C 129.785,283.401 128.119,280.901 130.5,275.5 Z"/></g>
<g><path style="opacity:0.85" fill="#ed3a5f" d="M 272.5,276.5 C 278.158,275.679 279.825,277.846 277.5,283C 271.741,284.139 270.074,281.972 272.5,276.5 Z"/></g>
<g><path style="opacity:0.766" fill="#ed3a5f" d="M 240.5,280.5 C 241.93,280.421 243.264,280.754 244.5,281.5C 246.89,287.608 245.056,289.608 239,287.5C 238.185,284.802 238.685,282.468 240.5,280.5 Z"/></g>
<g><path style="opacity:0.751" fill="#ed3a5f" d="M 139.5,286.5 C 145.235,285.821 146.902,288.155 144.5,293.5C 140.904,295.035 138.57,293.869 137.5,290C 138.305,288.887 138.972,287.721 139.5,286.5 Z"/></g>
<g><path style="opacity:0.721" fill="#ed3a5f" d="M 229.5,290.5 C 235.704,290.314 237.037,292.814 233.5,298C 227.392,298.078 226.059,295.578 229.5,290.5 Z"/></g>
<g><path style="opacity:0.85" fill="#ed3a5f" d="M 272.5,290.5 C 278.158,289.679 279.825,291.846 277.5,297C 271.741,298.139 270.074,295.972 272.5,290.5 Z"/></g>
<g><path style="opacity:0.765" fill="#ed3a5f" d="M 149.5,295.5 C 155.113,294.079 157.28,296.079 156,301.5C 149.854,303.636 147.687,301.636 149.5,295.5 Z"/></g>
<g><path style="opacity:0.722" fill="#ed3a5f" d="M 217.5,297.5 C 222.984,297.481 224.65,299.981 222.5,305C 215.798,305.802 214.132,303.302 217.5,297.5 Z"/></g>
<g><path style="opacity:0.709" fill="#ed3a5f" d="M 162.5,301.5 C 167.672,300.565 169.839,302.565 169,307.5C 162.684,310.356 160.518,308.356 162.5,301.5 Z"/></g>
<g><path style="opacity:0.709" fill="#ed3a5f" d="M 204.5,302.5 C 209.984,302.481 211.65,304.981 209.5,310C 202.745,310.756 201.078,308.256 204.5,302.5 Z"/></g>
<g><path style="opacity:0.71" fill="#ed3a5f" d="M 176.5,304.5 C 182.313,304.062 183.98,306.562 181.5,312C 175.206,312.578 173.539,310.078 176.5,304.5 Z"/></g>
<g><path style="opacity:0.85" fill="#ed3a5f" d="M 272.5,304.5 C 278.158,303.679 279.825,305.846 277.5,311C 271.741,312.139 270.074,309.972 272.5,304.5 Z"/></g>
<g><path style="opacity:0.833" fill="#ed3a5f" d="M 190.5,305.5 C 196.158,304.679 197.825,306.846 195.5,312C 189.508,312.811 187.841,310.644 190.5,305.5 Z"/></g>
</svg>
