<?xml version="1.0" encoding="UTF-8"?>
<!DOCTYPE svg PUBLIC "-//W3C//DTD SVG 1.1//EN" "http://www.w3.org/Graphics/SVG/1.1/DTD/svg11.dtd">
<svg xmlns="http://www.w3.org/2000/svg" version="1.1" width="500px" height="500px" style="shape-rendering:geometricPrecision; text-rendering:geometricPrecision; image-rendering:optimizeQuality; fill-rule:evenodd; clip-rule:evenodd" xmlns:xlink="http://www.w3.org/1999/xlink">
<g><path style="opacity:1" fill="#f7f8f7" d="M -0.5,-0.5 C 166.167,-0.5 332.833,-0.5 499.5,-0.5C 499.5,166.167 499.5,332.833 499.5,499.5C 332.833,499.5 166.167,499.5 -0.5,499.5C -0.5,332.833 -0.5,166.167 -0.5,-0.5 Z M 222.5,140.5 C 256.391,136.515 284.891,146.848 308,171.5C 324.027,193.28 329.861,217.613 325.5,244.5C 279.833,244.5 234.167,244.5 188.5,244.5C 189.368,277.204 206.034,293.371 238.5,293C 257.657,291.66 269.657,281.827 274.5,263.5C 291.17,263.333 307.837,263.5 324.5,264C 313.271,303.214 287.271,325.214 246.5,330C 213.236,333.473 185.403,322.973 163,298.5C 149.25,279.863 142.417,258.863 142.5,235.5C 142.425,206.199 152.758,181.365 173.5,161C 188.028,149.733 204.361,142.899 222.5,140.5 Z M 298.5,206.5 C 306.1,206.213 307.767,209.046 303.5,215C 304.448,215.483 305.448,215.649 306.5,215.5C 306.5,216.5 306.5,217.5 306.5,218.5C 303.5,218.5 300.5,218.5 297.5,218.5C 297.351,217.448 297.517,216.448 298,215.5C 300.295,213.92 301.628,211.92 302,209.5C 300.89,211.037 299.39,211.703 297.5,211.5C 297.629,209.784 297.962,208.117 298.5,206.5 Z M 157.5,229.5 C 159.167,229.5 160.833,229.5 162.5,229.5C 162.5,233.5 162.5,237.5 162.5,241.5C 161.167,241.5 159.833,241.5 158.5,241.5C 158.665,238.482 158.498,235.482 158,232.5C 156.272,231.648 156.105,230.648 157.5,229.5 Z"/></g>
<g><path style="opacity:0.905" fill="#a5a6a5" d="M 221.5,139.5 C 256.109,135.092 285.276,145.426 309,170.5C 325.353,192.92 331.187,217.92 326.5,245.5C 280.833,245.5 235.167,245.5 189.5,245.5C 190.551,274.382 205.385,290.048 234,292.5C 247.791,292.27 259.124,286.937 268,276.5C 270.917,272.249 272.75,267.582 273.5,262.5C 290.833,262.5 308.167,262.5 325.5,262.5C 317.874,298.293 296.207,320.46 260.5,329C 232.574,334.964 206.24,330.964 181.5,317C 154.206,296.91 140.873,269.743 141.5,235.5C 141.215,205.83 151.548,180.663 172.5,160C 187.028,148.733 203.361,141.899 221.5,139.5 Z M 222.5,140.5 C 204.361,142.899 188.028,149.733 173.5,161C 152.758,181.365 142.425,206.199 142.5,235.5C 142.417,258.863 149.25,279.863 163,298.5C 185.403,322.973 213.236,333.473 246.5,330C 287.271,325.214 313.271,303.214 324.5,264C 307.837,263.5 291.17,263.333 274.5,263.5C 269.657,281.827 257.657,291.66 238.5,293C 206.034,293.371 189.368,277.204 188.5,244.5C 234.167,244.5 279.833,244.5 325.5,244.5C 329.861,217.613 324.027,193.28 308,171.5C 284.891,146.848 256.391,136.515 222.5,140.5 Z M 298.5,206.5 C 297.962,208.117 297.629,209.784 297.5,211.5C 299.39,211.703 300.89,211.037 302,209.5C 301.628,211.92 300.295,213.92 298,215.5C 297.517,216.448 297.351,217.448 297.5,218.5C 300.5,218.5 303.5,218.5 306.5,218.5C 306.5,217.5 306.5,216.5 306.5,215.5C 305.448,215.649 304.448,215.483 303.5,215C 307.767,209.046 306.1,206.213 298.5,206.5 Z M 157.5,229.5 C 156.105,230.648 156.272,231.648 158,232.5C 158.498,235.482 158.665,238.482 158.5,241.5C 159.833,241.5 161.167,241.5 162.5,241.5C 162.5,237.5 162.5,233.5 162.5,229.5C 160.833,229.5 159.167,229.5 157.5,229.5 Z"/></g>
<g><path style="opacity:0.74" fill="#ed3a5f" d="M 231.5,159.5 C 237.113,158.079 239.28,160.079 238,165.5C 231.423,168.088 229.256,166.088 231.5,159.5 Z"/></g>
<g><path style="opacity:0.701" fill="#ed3a5f" d="M 217.5,160.5 C 224.145,159.977 225.811,162.477 222.5,168C 216.785,168.401 215.119,165.901 217.5,160.5 Z"/></g>
<g><path style="opacity:0.714" fill="#ed3a5f" d="M 246.5,160.5 C 252.488,160.664 253.821,163.164 250.5,168C 244.202,168.495 242.868,165.995 246.5,160.5 Z"/></g>
<g><path style="opacity:0.757" fill="#ed3a5f" d="M 204.5,164.5 C 210.476,164.157 212.142,166.49 209.5,171.5C 207.833,172.833 206.167,172.833 204.5,171.5C 203.286,169.141 203.286,166.808 204.5,164.5 Z"/></g>
<g><path style="opacity:0.726" fill="#ed3a5f" d="M 260.5,164.5 C 265.262,165.092 266.596,167.592 264.5,172C 257.186,172.537 255.853,170.037 260.5,164.5 Z"/></g>
<g><path style="opacity:0.727" fill="#ed3a5f" d="M 192.5,170.5 C 197.708,170.369 199.375,172.702 197.5,177.5C 190.789,178.788 189.123,176.455 192.5,170.5 Z"/></g>
<g><path style="opacity:0.741" fill="#ed3a5f" d="M 271.5,171.5 C 277.729,171.027 279.395,173.36 276.5,178.5C 270.805,179.446 269.138,177.112 271.5,171.5 Z"/></g>
<g><path style="opacity:0.92" fill="#a5a6a5" d="M 232.5,176.5 C 263.958,176.624 279.624,192.291 279.5,223.5C 249.167,223.5 218.833,223.5 188.5,223.5C 190.204,195.469 204.87,179.802 232.5,176.5 Z"/></g>
<g><path style="opacity:1" fill="#f7f8f7" d="M 233.5,177.5 C 262.952,178.285 277.952,193.285 278.5,222.5C 248.826,222.833 219.159,222.5 189.5,221.5C 192.6,195.067 207.267,180.4 233.5,177.5 Z"/></g>
<g><path style="opacity:0.74" fill="#ed3a5f" d="M 181.5,178.5 C 187.02,179.044 188.354,181.544 185.5,186C 179.202,186.495 177.868,183.995 181.5,178.5 Z"/></g>
<g><path style="opacity:0.714" fill="#ed3a5f" d="M 283.5,179.5 C 289.704,179.314 291.037,181.814 287.5,187C 281.403,187.147 280.07,184.647 283.5,179.5 Z"/></g>
<g><path style="opacity:0.819" fill="#ed3a5f" d="M 295.5,188.5 C 299.392,189.742 300.392,192.242 298.5,196C 293.333,197.5 291.5,195.667 293,190.5C 293.995,189.934 294.828,189.267 295.5,188.5 Z"/></g>
<g><path style="opacity:0.714" fill="#ed3a5f" d="M 170.5,189.5 C 176.113,188.079 178.28,190.079 177,195.5C 174.952,197.787 172.785,197.954 170.5,196C 169.232,193.837 169.232,191.67 170.5,189.5 Z"/></g>
<g><path style="opacity:0.838" fill="#ed3a5f" d="M 165.5,200.5 C 169.396,201.78 170.396,204.28 168.5,208C 163.333,209.5 161.5,207.667 163,202.5C 163.995,201.934 164.828,201.267 165.5,200.5 Z"/></g>
<g><path style="opacity:0.89" fill="#ed3a5f" d="M 296.5,201.5 C 308.99,199.823 314.157,205.156 312,217.5C 311.215,219.286 310.049,220.786 308.5,222C 295.074,226.238 289.241,221.404 291,207.5C 292.36,204.977 294.193,202.977 296.5,201.5 Z M 298.5,206.5 C 297.962,208.117 297.629,209.784 297.5,211.5C 299.39,211.703 300.89,211.037 302,209.5C 301.628,211.92 300.295,213.92 298,215.5C 297.517,216.448 297.351,217.448 297.5,218.5C 300.5,218.5 303.5,218.5 306.5,218.5C 306.5,217.5 306.5,216.5 306.5,215.5C 305.448,215.649 304.448,215.483 303.5,215C 307.767,209.046 306.1,206.213 298.5,206.5 Z"/></g>
<g><path style="opacity:0.899" fill="#ed3a5f" d="M 155.5,223.5 C 167.99,221.823 173.157,227.156 171,239.5C 170.215,241.286 169.049,242.786 167.5,244C 154.074,248.238 148.241,243.404 150,229.5C 151.36,226.977 153.193,224.977 155.5,223.5 Z M 157.5,229.5 C 156.105,230.648 156.272,231.648 158,232.5C 158.498,235.482 158.665,238.482 158.5,241.5C 159.833,241.5 161.167,241.5 162.5,241.5C 162.5,237.5 162.5,233.5 162.5,229.5C 160.833,229.5 159.167,229.5 157.5,229.5 Z"/></g>
<g><path style="opacity:0.851" fill="#ed3a5f" d="M 175.5,231.5 C 181.158,230.679 182.825,232.846 180.5,238C 174.741,239.139 173.074,236.972 175.5,231.5 Z"/></g>
<g><path style="opacity:0.851" fill="#ed3a5f" d="M 189.5,231.5 C 195.158,230.679 196.825,232.846 194.5,238C 188.741,239.139 187.074,236.972 189.5,231.5 Z"/></g>
<g><path style="opacity:0.851" fill="#ed3a5f" d="M 203.5,231.5 C 209.158,230.679 210.825,232.846 208.5,238C 202.741,239.139 201.074,236.972 203.5,231.5 Z"/></g>
<g><path style="opacity:0.851" fill="#ed3a5f" d="M 217.5,231.5 C 223.158,230.679 224.825,232.846 222.5,238C 216.741,239.139 215.074,236.972 217.5,231.5 Z"/></g>
<g><path style="opacity:0.851" fill="#ed3a5f" d="M 231.5,231.5 C 237.158,230.679 238.825,232.846 236.5,238C 230.741,239.139 229.074,236.972 231.5,231.5 Z"/></g>
<g><path style="opacity:0.851" fill="#ed3a5f" d="M 245.5,231.5 C 251.158,230.679 252.825,232.846 250.5,238C 244.741,239.139 243.074,236.972 245.5,231.5 Z"/></g>
<g><path style="opacity:0.851" fill="#ed3a5f" d="M 259.5,231.5 C 265.158,230.679 266.825,232.846 264.5,238C 258.741,239.139 257.074,236.972 259.5,231.5 Z"/></g>
<g><path style="opacity:0.85" fill="#ed3a5f" d="M 273.5,231.5 C 279.158,230.679 280.825,232.846 278.5,238C 272.741,239.139 271.074,236.972 273.5,231.5 Z"/></g>
<g><path style="opacity:0.85" fill="#ed3a5f" d="M 287.5,231.5 C 293.158,230.679 294.825,232.846 292.5,238C 286.741,239.139 285.074,236.972 287.5,231.5 Z"/></g>
<g><path style="opacity:0.85" fill="#ed3a5f" d="M 301.5,231.5 C 307.158,230.679 308.825,232.846 306.5,238C 300.741,239.139 299.074,236.972 301.5,231.5 Z"/></g>
<g><path style="opacity:0.848" fill="#ed3a5f" d="M 161.5,253.5 C 167.158,252.679 168.825,254.846 166.5,260C 160.741,261.139 159.074,258.972 161.5,253.5 Z"/></g>
<g><path style="opacity:0.749" fill="#ed3a5f" d="M 168.5,265.5 C 173.914,264.565 175.914,266.565 174.5,271.5C 168.432,274.096 166.432,272.096 168.5,265.5 Z"/></g>
<g><path style="opacity:0.778" fill="#ed3a5f" d="M 295.5,274.5 C 301.235,273.821 302.902,276.155 300.5,281.5C 294.805,282.446 293.138,280.112 295.5,274.5 Z"/></g>
<g><path style="opacity:0.735" fill="#ed3a5f" d="M 177.5,276.5 C 183.704,276.314 185.037,278.814 181.5,284C 175.812,283.79 174.479,281.29 177.5,276.5 Z"/></g>
<g><path style="opacity:0.75" fill="#ed3a5f" d="M 186.5,286.5 C 192.113,285.079 194.28,287.079 193,292.5C 190.911,294.959 188.745,294.959 186.5,292.5C 185.377,290.518 185.377,288.518 186.5,286.5 Z"/></g>
<g><path style="opacity:0.733" fill="#ed3a5f" d="M 290.5,286.5 C 291.93,286.421 293.264,286.754 294.5,287.5C 296.89,293.608 295.056,295.608 289,293.5C 287.074,290.675 287.574,288.341 290.5,286.5 Z"/></g>
<g><path style="opacity:0.708" fill="#ed3a5f" d="M 198.5,294.5 C 204.313,294.062 205.98,296.562 203.5,302C 197.206,302.578 195.539,300.078 198.5,294.5 Z"/></g>
<g><path style="opacity:0.708" fill="#ed3a5f" d="M 277.5,294.5 C 284.004,294.138 285.671,296.638 282.5,302C 276.785,302.401 275.119,299.901 277.5,294.5 Z"/></g>
<g><path style="opacity:0.735" fill="#ed3a5f" d="M 212.5,300.5 C 216.708,301.253 218.041,303.586 216.5,307.5C 210.976,309.914 208.809,308.248 210,302.5C 210.995,301.934 211.828,301.267 212.5,300.5 Z"/></g>
<g><path style="opacity:0.708" fill="#ed3a5f" d="M 265.5,300.5 C 271.704,300.314 273.037,302.814 269.5,308C 263.403,308.147 262.07,305.647 265.5,300.5 Z"/></g>
<g><path style="opacity:0.721" fill="#ed3a5f" d="M 225.5,304.5 C 230.266,305.158 231.6,307.658 229.5,312C 224.338,313.424 222.171,311.59 223,306.5C 223.995,305.934 224.828,305.267 225.5,304.5 Z"/></g>
<g><path style="opacity:0.708" fill="#ed3a5f" d="M 251.5,304.5 C 258.004,304.138 259.671,306.638 256.5,312C 250.785,312.401 249.119,309.901 251.5,304.5 Z"/></g>
<g><path style="opacity:0.735" fill="#ed3a5f" d="M 237.5,306.5 C 243.113,305.079 245.28,307.079 244,312.5C 237.423,315.088 235.256,313.088 237.5,306.5 Z"/></g>
</svg>
