<?xml version="1.0" encoding="UTF-8"?>
<!DOCTYPE svg PUBLIC "-//W3C//DTD SVG 1.1//EN" "http://www.w3.org/Graphics/SVG/1.1/DTD/svg11.dtd">
<svg xmlns="http://www.w3.org/2000/svg" version="1.1" width="500px" height="500px" style="shape-rendering:geometricPrecision; text-rendering:geometricPrecision; image-rendering:optimizeQuality; fill-rule:evenodd; clip-rule:evenodd" xmlns:xlink="http://www.w3.org/1999/xlink">
<g><path style="opacity:1" fill="#f7f8f7" d="M -0.5,-0.5 C 166.167,-0.5 332.833,-0.5 499.5,-0.5C 499.5,166.167 499.5,332.833 499.5,499.5C 332.833,499.5 166.167,499.5 -0.5,499.5C -0.5,332.833 -0.5,166.167 -0.5,-0.5 Z M 134.5,139.5 C 168.391,135.515 196.891,145.848 220,170.5C 236.027,192.28 241.861,216.613 237.5,243.5C 191.833,243.5 146.167,243.5 100.5,243.5C 101.368,276.204 118.034,292.371 150.5,292C 169.657,290.66 181.657,280.827 186.5,262.5C 203.17,262.333 219.837,262.5 236.5,263C 225.271,302.214 199.271,324.214 158.5,329C 125.236,332.473 97.4025,321.973 75,297.5C 61.25,278.863 54.4167,257.863 54.5,234.5C 54.4248,205.199 64.7582,180.365 85.5,160C 100.028,148.733 116.361,141.899 134.5,139.5 Z M 341.5,139.5 C 375.391,135.515 403.891,145.848 427,170.5C 443.027,192.28 448.861,216.613 444.5,243.5C 398.833,243.5 353.167,243.5 307.5,243.5C 308.368,276.204 325.034,292.371 357.5,292C 376.657,290.66 388.657,280.827 393.5,262.5C 410.17,262.333 426.837,262.5 443.5,263C 432.271,302.214 406.271,324.214 365.5,329C 332.236,332.473 304.403,321.973 282,297.5C 268.25,278.863 261.417,257.863 261.5,234.5C 261.425,205.199 271.758,180.365 292.5,160C 307.028,148.733 323.361,141.899 341.5,139.5 Z M 209.5,205.5 C 217.1,205.213 218.767,208.046 214.5,214C 215.448,214.483 216.448,214.649 217.5,214.5C 217.5,215.5 217.5,216.5 217.5,217.5C 214.5,217.5 211.5,217.5 208.5,217.5C 208.351,216.448 208.517,215.448 209,214.5C 211.295,212.92 212.628,210.92 213,208.5C 211.89,210.037 210.39,210.703 208.5,210.5C 208.629,208.784 208.962,207.117 209.5,205.5 Z M 419.5,205.5 C 420.833,205.5 422.167,205.5 423.5,205.5C 423.11,208.466 423.777,211.132 425.5,213.5C 424.147,214.524 423.48,215.857 423.5,217.5C 422.5,217.5 421.5,217.5 420.5,217.5C 420.5,216.5 420.5,215.5 420.5,214.5C 418.833,214.5 417.167,214.5 415.5,214.5C 416.038,211.095 417.371,208.095 419.5,205.5 Z M 277.5,227.5 C 282.028,227.841 283.361,230.008 281.5,234C 283.922,235.888 283.922,237.888 281.5,240C 275.539,241.061 273.873,239.061 276.5,234C 273.794,231.301 274.127,229.134 277.5,227.5 Z M 68.5,228.5 C 70.1667,228.5 71.8333,228.5 73.5,228.5C 73.5,232.5 73.5,236.5 73.5,240.5C 72.1667,240.5 70.8333,240.5 69.5,240.5C 69.6646,237.482 69.498,234.482 69,231.5C 67.2716,230.648 67.105,229.648 68.5,228.5 Z"/></g>
<g><path style="opacity:0.905" fill="#a5a6a5" d="M 133.5,138.5 C 168.109,134.092 197.276,144.426 221,169.5C 237.353,191.92 243.187,216.92 238.5,244.5C 192.833,244.5 147.167,244.5 101.5,244.5C 102.551,273.382 117.385,289.048 146,291.5C 159.791,291.27 171.124,285.937 180,275.5C 182.917,271.249 184.75,266.582 185.5,261.5C 202.833,261.5 220.167,261.5 237.5,261.5C 229.874,297.293 208.207,319.46 172.5,328C 144.574,333.964 118.24,329.964 93.5,316C 66.2061,295.91 52.8727,268.743 53.5,234.5C 53.2146,204.83 63.5479,179.663 84.5,159C 99.0278,147.733 115.361,140.899 133.5,138.5 Z M 134.5,139.5 C 116.361,141.899 100.028,148.733 85.5,160C 64.7582,180.365 54.4248,205.199 54.5,234.5C 54.4167,257.863 61.25,278.863 75,297.5C 97.4025,321.973 125.236,332.473 158.5,329C 199.271,324.214 225.271,302.214 236.5,263C 219.837,262.5 203.17,262.333 186.5,262.5C 181.657,280.827 169.657,290.66 150.5,292C 118.034,292.371 101.368,276.204 100.5,243.5C 146.167,243.5 191.833,243.5 237.5,243.5C 241.861,216.613 236.027,192.28 220,170.5C 196.891,145.848 168.391,135.515 134.5,139.5 Z M 209.5,205.5 C 208.962,207.117 208.629,208.784 208.5,210.5C 210.39,210.703 211.89,210.037 213,208.5C 212.628,210.92 211.295,212.92 209,214.5C 208.517,215.448 208.351,216.448 208.5,217.5C 211.5,217.5 214.5,217.5 217.5,217.5C 217.5,216.5 217.5,215.5 217.5,214.5C 216.448,214.649 215.448,214.483 214.5,214C 218.767,208.046 217.1,205.213 209.5,205.5 Z M 68.5,228.5 C 67.105,229.648 67.2716,230.648 69,231.5C 69.498,234.482 69.6646,237.482 69.5,240.5C 70.8333,240.5 72.1667,240.5 73.5,240.5C 73.5,236.5 73.5,232.5 73.5,228.5C 71.8333,228.5 70.1667,228.5 68.5,228.5 Z"/></g>
<g><path style="opacity:0.905" fill="#a5a6a5" d="M 340.5,138.5 C 375.109,134.092 404.276,144.426 428,169.5C 444.353,191.92 450.187,216.92 445.5,244.5C 399.833,244.5 354.167,244.5 308.5,244.5C 309.551,273.382 324.385,289.048 353,291.5C 366.791,291.27 378.124,285.937 387,275.5C 389.917,271.249 391.75,266.582 392.5,261.5C 409.833,261.5 427.167,261.5 444.5,261.5C 436.874,297.293 415.207,319.46 379.5,328C 351.574,333.964 325.24,329.964 300.5,316C 273.206,295.91 259.873,268.743 260.5,234.5C 260.215,204.83 270.548,179.663 291.5,159C 306.028,147.733 322.361,140.899 340.5,138.5 Z M 341.5,139.5 C 323.361,141.899 307.028,148.733 292.5,160C 271.758,180.365 261.425,205.199 261.5,234.5C 261.417,257.863 268.25,278.863 282,297.5C 304.403,321.973 332.236,332.473 365.5,329C 406.271,324.214 432.271,302.214 443.5,263C 426.837,262.5 410.17,262.333 393.5,262.5C 388.657,280.827 376.657,290.66 357.5,292C 325.034,292.371 308.368,276.204 307.5,243.5C 353.167,243.5 398.833,243.5 444.5,243.5C 448.861,216.613 443.027,192.28 427,170.5C 403.891,145.848 375.391,135.515 341.5,139.5 Z M 419.5,205.5 C 417.371,208.095 416.038,211.095 415.5,214.5C 417.167,214.5 418.833,214.5 420.5,214.5C 420.5,215.5 420.5,216.5 420.5,217.5C 421.5,217.5 422.5,217.5 423.5,217.5C 423.48,215.857 424.147,214.524 425.5,213.5C 423.777,211.132 423.11,208.466 423.5,205.5C 422.167,205.5 420.833,205.5 419.5,205.5 Z M 277.5,227.5 C 274.127,229.134 273.794,231.301 276.5,234C 273.873,239.061 275.539,241.061 281.5,240C 283.922,237.888 283.922,235.888 281.5,234C 283.361,230.008 282.028,227.841 277.5,227.5 Z"/></g>
<g><path style="opacity:0.74" fill="#ed3a5f" d="M 142.5,158.5 C 148.113,157.079 150.28,159.079 149,164.5C 142.423,167.088 140.256,165.088 142.5,158.5 Z"/></g>
<g><path style="opacity:0.74" fill="#ed3a5f" d="M 350.5,158.5 C 356.113,157.079 358.28,159.079 357,164.5C 350.423,167.088 348.256,165.088 350.5,158.5 Z"/></g>
<g><path style="opacity:0.701" fill="#ed3a5f" d="M 128.5,159.5 C 135.145,158.977 136.811,161.477 133.5,167C 127.785,167.401 126.119,164.901 128.5,159.5 Z"/></g>
<g><path style="opacity:0.714" fill="#ed3a5f" d="M 157.5,159.5 C 163.488,159.664 164.821,162.164 161.5,167C 155.202,167.495 153.868,164.995 157.5,159.5 Z"/></g>
<g><path style="opacity:0.701" fill="#ed3a5f" d="M 336.5,159.5 C 343.145,158.977 344.811,161.477 341.5,167C 335.785,167.401 334.119,164.901 336.5,159.5 Z"/></g>
<g><path style="opacity:0.714" fill="#ed3a5f" d="M 365.5,159.5 C 371.488,159.664 372.821,162.164 369.5,167C 363.202,167.495 361.868,164.995 365.5,159.5 Z"/></g>
<g><path style="opacity:0.757" fill="#ed3a5f" d="M 115.5,163.5 C 121.476,163.157 123.142,165.49 120.5,170.5C 118.833,171.833 117.167,171.833 115.5,170.5C 114.286,168.141 114.286,165.808 115.5,163.5 Z"/></g>
<g><path style="opacity:0.726" fill="#ed3a5f" d="M 171.5,163.5 C 176.262,164.092 177.596,166.592 175.5,171C 168.186,171.537 166.853,169.037 171.5,163.5 Z"/></g>
<g><path style="opacity:0.757" fill="#ed3a5f" d="M 323.5,163.5 C 329.476,163.157 331.142,165.49 328.5,170.5C 326.833,171.833 325.167,171.833 323.5,170.5C 322.286,168.141 322.286,165.808 323.5,163.5 Z"/></g>
<g><path style="opacity:0.726" fill="#ed3a5f" d="M 379.5,163.5 C 384.262,164.092 385.596,166.592 383.5,171C 376.186,171.537 374.853,169.037 379.5,163.5 Z"/></g>
<g><path style="opacity:0.727" fill="#ed3a5f" d="M 103.5,169.5 C 108.708,169.369 110.375,171.702 108.5,176.5C 101.789,177.788 100.123,175.455 103.5,169.5 Z"/></g>
<g><path style="opacity:0.727" fill="#ed3a5f" d="M 311.5,169.5 C 316.708,169.369 318.375,171.702 316.5,176.5C 309.789,177.788 308.123,175.455 311.5,169.5 Z"/></g>
<g><path style="opacity:0.741" fill="#ed3a5f" d="M 182.5,170.5 C 188.729,170.027 190.395,172.36 187.5,177.5C 181.805,178.446 180.138,176.112 182.5,170.5 Z"/></g>
<g><path style="opacity:0.741" fill="#ed3a5f" d="M 390.5,170.5 C 396.729,170.027 398.395,172.36 395.5,177.5C 389.805,178.446 388.138,176.112 390.5,170.5 Z"/></g>
<g><path style="opacity:0.92" fill="#a5a6a5" d="M 144.5,175.5 C 175.958,175.624 191.624,191.291 191.5,222.5C 161.167,222.5 130.833,222.5 100.5,222.5C 102.204,194.469 116.87,178.802 144.5,175.5 Z"/></g>
<g><path style="opacity:0.92" fill="#a5a6a5" d="M 351.5,175.5 C 382.958,175.624 398.624,191.291 398.5,222.5C 368.167,222.5 337.833,222.5 307.5,222.5C 309.204,194.469 323.87,178.802 351.5,175.5 Z"/></g>
<g><path style="opacity:1" fill="#f7f8f7" d="M 145.5,176.5 C 174.952,177.285 189.952,192.285 190.5,221.5C 160.826,221.833 131.159,221.5 101.5,220.5C 104.6,194.067 119.267,179.4 145.5,176.5 Z"/></g>
<g><path style="opacity:1" fill="#f7f8f7" d="M 352.5,176.5 C 381.952,177.285 396.952,192.285 397.5,221.5C 367.826,221.833 338.159,221.5 308.5,220.5C 311.6,194.067 326.267,179.4 352.5,176.5 Z"/></g>
<g><path style="opacity:0.74" fill="#ed3a5f" d="M 92.5,177.5 C 98.0204,178.044 99.3538,180.544 96.5,185C 90.2016,185.495 88.8682,182.995 92.5,177.5 Z"/></g>
<g><path style="opacity:0.74" fill="#ed3a5f" d="M 300.5,177.5 C 306.02,178.044 307.354,180.544 304.5,185C 298.202,185.495 296.868,182.995 300.5,177.5 Z"/></g>
<g><path style="opacity:0.714" fill="#ed3a5f" d="M 194.5,178.5 C 200.704,178.314 202.037,180.814 198.5,186C 192.403,186.147 191.07,183.647 194.5,178.5 Z"/></g>
<g><path style="opacity:0.714" fill="#ed3a5f" d="M 402.5,178.5 C 408.704,178.314 410.037,180.814 406.5,186C 400.403,186.147 399.07,183.647 402.5,178.5 Z"/></g>
<g><path style="opacity:0.82" fill="#ed3a5f" d="M 206.5,187.5 C 210.392,188.742 211.392,191.242 209.5,195C 204.333,196.5 202.5,194.667 204,189.5C 204.995,188.934 205.828,188.267 206.5,187.5 Z"/></g>
<g><path style="opacity:0.819" fill="#ed3a5f" d="M 414.5,187.5 C 418.392,188.742 419.392,191.242 417.5,195C 412.333,196.5 410.5,194.667 412,189.5C 412.995,188.934 413.828,188.267 414.5,187.5 Z"/></g>
<g><path style="opacity:0.714" fill="#ed3a5f" d="M 81.5,188.5 C 87.1132,187.079 89.2799,189.079 88,194.5C 85.9517,196.787 83.7851,196.954 81.5,195C 80.232,192.837 80.232,190.67 81.5,188.5 Z"/></g>
<g><path style="opacity:0.714" fill="#ed3a5f" d="M 289.5,188.5 C 295.113,187.079 297.28,189.079 296,194.5C 293.952,196.787 291.785,196.954 289.5,195C 288.232,192.837 288.232,190.67 289.5,188.5 Z"/></g>
<g><path style="opacity:0.838" fill="#ed3a5f" d="M 76.5,199.5 C 80.3958,200.78 81.3958,203.28 79.5,207C 74.3333,208.5 72.5,206.667 74,201.5C 74.9947,200.934 75.828,200.267 76.5,199.5 Z"/></g>
<g><path style="opacity:0.838" fill="#ed3a5f" d="M 284.5,199.5 C 288.396,200.78 289.396,203.28 287.5,207C 282.333,208.5 280.5,206.667 282,201.5C 282.995,200.934 283.828,200.267 284.5,199.5 Z"/></g>
<g><path style="opacity:0.89" fill="#ed3a5f" d="M 207.5,200.5 C 219.99,198.823 225.157,204.156 223,216.5C 222.215,218.286 221.049,219.786 219.5,221C 206.074,225.238 200.241,220.404 202,206.5C 203.36,203.977 205.193,201.977 207.5,200.5 Z M 209.5,205.5 C 208.962,207.117 208.629,208.784 208.5,210.5C 210.39,210.703 211.89,210.037 213,208.5C 212.628,210.92 211.295,212.92 209,214.5C 208.517,215.448 208.351,216.448 208.5,217.5C 211.5,217.5 214.5,217.5 217.5,217.5C 217.5,216.5 217.5,215.5 217.5,214.5C 216.448,214.649 215.448,214.483 214.5,214C 218.767,208.046 217.1,205.213 209.5,205.5 Z"/></g>
<g><path style="opacity:0.893" fill="#ed3a5f" d="M 415.5,200.5 C 427.99,198.823 433.157,204.156 431,216.5C 430.215,218.286 429.049,219.786 427.5,221C 414.074,225.238 408.241,220.404 410,206.5C 411.36,203.977 413.193,201.977 415.5,200.5 Z M 419.5,205.5 C 417.371,208.095 416.038,211.095 415.5,214.5C 417.167,214.5 418.833,214.5 420.5,214.5C 420.5,215.5 420.5,216.5 420.5,217.5C 421.5,217.5 422.5,217.5 423.5,217.5C 423.48,215.857 424.147,214.524 425.5,213.5C 423.777,211.132 423.11,208.466 423.5,205.5C 422.167,205.5 420.833,205.5 419.5,205.5 Z"/></g>
<g><path style="opacity:0.899" fill="#ed3a5f" d="M 66.5,222.5 C 78.9901,220.823 84.1568,226.156 82,238.5C 81.2155,240.286 80.0488,241.786 78.5,243C 65.0744,247.238 59.2411,242.404 61,228.5C 62.3597,225.977 64.193,223.977 66.5,222.5 Z M 68.5,228.5 C 67.105,229.648 67.2716,230.648 69,231.5C 69.498,234.482 69.6646,237.482 69.5,240.5C 70.8333,240.5 72.1667,240.5 73.5,240.5C 73.5,236.5 73.5,232.5 73.5,228.5C 71.8333,228.5 70.1667,228.5 68.5,228.5 Z"/></g>
<g><path style="opacity:0.888" fill="#ed3a5f" d="M 274.5,222.5 C 286.99,220.823 292.157,226.156 290,238.5C 289.215,240.286 288.049,241.786 286.5,243C 273.074,247.238 267.241,242.404 269,228.5C 270.36,225.977 272.193,223.977 274.5,222.5 Z M 277.5,227.5 C 274.127,229.134 273.794,231.301 276.5,234C 273.873,239.061 275.539,241.061 281.5,240C 283.922,237.888 283.922,235.888 281.5,234C 283.361,230.008 282.028,227.841 277.5,227.5 Z"/></g>
<g><path style="opacity:0.851" fill="#ed3a5f" d="M 86.5,230.5 C 92.1581,229.679 93.8248,231.846 91.5,237C 85.741,238.139 84.0744,235.972 86.5,230.5 Z"/></g>
<g><path style="opacity:0.851" fill="#ed3a5f" d="M 100.5,230.5 C 106.158,229.679 107.825,231.846 105.5,237C 99.741,238.139 98.0744,235.972 100.5,230.5 Z"/></g>
<g><path style="opacity:0.851" fill="#ed3a5f" d="M 114.5,230.5 C 120.158,229.679 121.825,231.846 119.5,237C 113.741,238.139 112.074,235.972 114.5,230.5 Z"/></g>
<g><path style="opacity:0.851" fill="#ed3a5f" d="M 128.5,230.5 C 134.158,229.679 135.825,231.846 133.5,237C 127.741,238.139 126.074,235.972 128.5,230.5 Z"/></g>
<g><path style="opacity:0.851" fill="#ed3a5f" d="M 142.5,230.5 C 148.158,229.679 149.825,231.846 147.5,237C 141.741,238.139 140.074,235.972 142.5,230.5 Z"/></g>
<g><path style="opacity:0.851" fill="#ed3a5f" d="M 156.5,230.5 C 162.158,229.679 163.825,231.846 161.5,237C 155.741,238.139 154.074,235.972 156.5,230.5 Z"/></g>
<g><path style="opacity:0.851" fill="#ed3a5f" d="M 170.5,230.5 C 176.158,229.679 177.825,231.846 175.5,237C 169.741,238.139 168.074,235.972 170.5,230.5 Z"/></g>
<g><path style="opacity:0.85" fill="#ed3a5f" d="M 184.5,230.5 C 190.158,229.679 191.825,231.846 189.5,237C 183.741,238.139 182.074,235.972 184.5,230.5 Z"/></g>
<g><path style="opacity:0.85" fill="#ed3a5f" d="M 198.5,230.5 C 204.158,229.679 205.825,231.846 203.5,237C 197.741,238.139 196.074,235.972 198.5,230.5 Z"/></g>
<g><path style="opacity:0.85" fill="#ed3a5f" d="M 212.5,230.5 C 218.158,229.679 219.825,231.846 217.5,237C 211.741,238.139 210.074,235.972 212.5,230.5 Z"/></g>
<g><path style="opacity:0.851" fill="#ed3a5f" d="M 294.5,230.5 C 300.158,229.679 301.825,231.846 299.5,237C 293.741,238.139 292.074,235.972 294.5,230.5 Z"/></g>
<g><path style="opacity:0.851" fill="#ed3a5f" d="M 308.5,230.5 C 314.158,229.679 315.825,231.846 313.5,237C 307.741,238.139 306.074,235.972 308.5,230.5 Z"/></g>
<g><path style="opacity:0.851" fill="#ed3a5f" d="M 322.5,230.5 C 328.158,229.679 329.825,231.846 327.5,237C 321.741,238.139 320.074,235.972 322.5,230.5 Z"/></g>
<g><path style="opacity:0.851" fill="#ed3a5f" d="M 336.5,230.5 C 342.158,229.679 343.825,231.846 341.5,237C 335.741,238.139 334.074,235.972 336.5,230.5 Z"/></g>
<g><path style="opacity:0.851" fill="#ed3a5f" d="M 350.5,230.5 C 356.158,229.679 357.825,231.846 355.5,237C 349.741,238.139 348.074,235.972 350.5,230.5 Z"/></g>
<g><path style="opacity:0.851" fill="#ed3a5f" d="M 364.5,230.5 C 370.158,229.679 371.825,231.846 369.5,237C 363.741,238.139 362.074,235.972 364.5,230.5 Z"/></g>
<g><path style="opacity:0.851" fill="#ed3a5f" d="M 378.5,230.5 C 384.158,229.679 385.825,231.846 383.5,237C 377.741,238.139 376.074,235.972 378.5,230.5 Z"/></g>
<g><path style="opacity:0.85" fill="#ed3a5f" d="M 392.5,230.5 C 398.158,229.679 399.825,231.846 397.5,237C 391.741,238.139 390.074,235.972 392.5,230.5 Z"/></g>
<g><path style="opacity:0.85" fill="#ed3a5f" d="M 406.5,230.5 C 412.158,229.679 413.825,231.846 411.5,237C 405.741,238.139 404.074,235.972 406.5,230.5 Z"/></g>
<g><path style="opacity:0.85" fill="#ed3a5f" d="M 420.5,230.5 C 426.158,229.679 427.825,231.846 425.5,237C 419.741,238.139 418.074,235.972 420.5,230.5 Z"/></g>
<g><path style="opacity:1" fill="#ed3a5f" d="M 277.5,236.5 C 278.077,235.227 278.743,235.227 279.5,236.5C 279.03,237.463 278.363,237.463 277.5,236.5 Z"/></g>
<g><path style="opacity:0.847" fill="#ed3a5f" d="M 72.5,252.5 C 78.1581,251.679 79.8248,253.846 77.5,259C 71.741,260.139 70.0744,257.972 72.5,252.5 Z"/></g>
<g><path style="opacity:0.847" fill="#ed3a5f" d="M 280.5,252.5 C 286.158,251.679 287.825,253.846 285.5,259C 279.741,260.139 278.074,257.972 280.5,252.5 Z"/></g>
<g><path style="opacity:0.749" fill="#ed3a5f" d="M 79.5,264.5 C 84.9136,263.565 86.9136,265.565 85.5,270.5C 79.4321,273.096 77.4321,271.096 79.5,264.5 Z"/></g>
<g><path style="opacity:0.749" fill="#ed3a5f" d="M 287.5,264.5 C 292.914,263.565 294.914,265.565 293.5,270.5C 287.432,273.096 285.432,271.096 287.5,264.5 Z"/></g>
<g><path style="opacity:0.778" fill="#ed3a5f" d="M 206.5,273.5 C 212.235,272.821 213.902,275.155 211.5,280.5C 205.805,281.446 204.138,279.112 206.5,273.5 Z"/></g>
<g><path style="opacity:0.778" fill="#ed3a5f" d="M 414.5,273.5 C 420.235,272.821 421.902,275.155 419.5,280.5C 413.805,281.446 412.138,279.112 414.5,273.5 Z"/></g>
<g><path style="opacity:0.735" fill="#ed3a5f" d="M 88.5,275.5 C 94.704,275.314 96.0374,277.814 92.5,283C 86.8121,282.79 85.4788,280.29 88.5,275.5 Z"/></g>
<g><path style="opacity:0.735" fill="#ed3a5f" d="M 296.5,275.5 C 302.704,275.314 304.037,277.814 300.5,283C 294.812,282.79 293.479,280.29 296.5,275.5 Z"/></g>
<g><path style="opacity:0.75" fill="#ed3a5f" d="M 97.5,285.5 C 103.113,284.079 105.28,286.079 104,291.5C 101.911,293.959 99.7448,293.959 97.5,291.5C 96.3775,289.518 96.3775,287.518 97.5,285.5 Z"/></g>
<g><path style="opacity:0.733" fill="#ed3a5f" d="M 201.5,285.5 C 202.93,285.421 204.264,285.754 205.5,286.5C 207.89,292.608 206.056,294.608 200,292.5C 198.074,289.675 198.574,287.341 201.5,285.5 Z"/></g>
<g><path style="opacity:0.75" fill="#ed3a5f" d="M 305.5,285.5 C 311.113,284.079 313.28,286.079 312,291.5C 309.911,293.959 307.745,293.959 305.5,291.5C 304.377,289.518 304.377,287.518 305.5,285.5 Z"/></g>
<g><path style="opacity:0.734" fill="#ed3a5f" d="M 409.5,285.5 C 410.93,285.421 412.264,285.754 413.5,286.5C 415.89,292.608 414.056,294.608 408,292.5C 406.074,289.675 406.574,287.341 409.5,285.5 Z"/></g>
<g><path style="opacity:0.708" fill="#ed3a5f" d="M 109.5,293.5 C 115.313,293.062 116.98,295.562 114.5,301C 108.206,301.578 106.539,299.078 109.5,293.5 Z"/></g>
<g><path style="opacity:0.708" fill="#ed3a5f" d="M 188.5,293.5 C 195.004,293.138 196.671,295.638 193.5,301C 187.785,301.401 186.119,298.901 188.5,293.5 Z"/></g>
<g><path style="opacity:0.708" fill="#ed3a5f" d="M 317.5,293.5 C 323.313,293.062 324.98,295.562 322.5,301C 316.206,301.578 314.539,299.078 317.5,293.5 Z"/></g>
<g><path style="opacity:0.708" fill="#ed3a5f" d="M 396.5,293.5 C 403.004,293.138 404.671,295.638 401.5,301C 395.785,301.401 394.119,298.901 396.5,293.5 Z"/></g>
<g><path style="opacity:0.735" fill="#ed3a5f" d="M 123.5,299.5 C 127.708,300.253 129.041,302.586 127.5,306.5C 121.976,308.914 119.809,307.248 121,301.5C 121.995,300.934 122.828,300.267 123.5,299.5 Z"/></g>
<g><path style="opacity:0.708" fill="#ed3a5f" d="M 176.5,299.5 C 182.704,299.314 184.037,301.814 180.5,307C 174.403,307.147 173.07,304.647 176.5,299.5 Z"/></g>
<g><path style="opacity:0.735" fill="#ed3a5f" d="M 331.5,299.5 C 335.708,300.253 337.041,302.586 335.5,306.5C 329.976,308.914 327.809,307.248 329,301.5C 329.995,300.934 330.828,300.267 331.5,299.5 Z"/></g>
<g><path style="opacity:0.708" fill="#ed3a5f" d="M 384.5,299.5 C 390.704,299.314 392.037,301.814 388.5,307C 382.403,307.147 381.07,304.647 384.5,299.5 Z"/></g>
<g><path style="opacity:0.721" fill="#ed3a5f" d="M 136.5,303.5 C 141.266,304.158 142.6,306.658 140.5,311C 135.338,312.424 133.171,310.59 134,305.5C 134.995,304.934 135.828,304.267 136.5,303.5 Z"/></g>
<g><path style="opacity:0.708" fill="#ed3a5f" d="M 162.5,303.5 C 169.004,303.138 170.671,305.638 167.5,311C 161.785,311.401 160.119,308.901 162.5,303.5 Z"/></g>
<g><path style="opacity:0.721" fill="#ed3a5f" d="M 344.5,303.5 C 349.266,304.158 350.6,306.658 348.5,311C 343.338,312.424 341.171,310.59 342,305.5C 342.995,304.934 343.828,304.267 344.5,303.5 Z"/></g>
<g><path style="opacity:0.708" fill="#ed3a5f" d="M 370.5,303.5 C 377.004,303.138 378.671,305.638 375.5,311C 369.785,311.401 368.119,308.901 370.5,303.5 Z"/></g>
<g><path style="opacity:0.735" fill="#ed3a5f" d="M 148.5,305.5 C 154.113,304.079 156.28,306.079 155,311.5C 148.423,314.088 146.256,312.088 148.5,305.5 Z"/></g>
<g><path style="opacity:0.735" fill="#ed3a5f" d="M 356.5,305.5 C 362.113,304.079 364.28,306.079 363,311.5C 356.423,314.088 354.256,312.088 356.5,305.5 Z"/></g>
</svg>
