<?xml version="1.0" encoding="UTF-8"?>
<!DOCTYPE svg PUBLIC "-//W3C//DTD SVG 1.1//EN" "http://www.w3.org/Graphics/SVG/1.1/DTD/svg11.dtd">
<svg xmlns="http://www.w3.org/2000/svg" version="1.1" width="500px" height="500px" style="shape-rendering:geometricPrecision; text-rendering:geometricPrecision; image-rendering:optimizeQuality; fill-rule:evenodd; clip-rule:evenodd" xmlns:xlink="http://www.w3.org/1999/xlink">
<g><path style="opacity:1" fill="#f7f8f7" d="M -0.5,-0.5 C 166.167,-0.5 332.833,-0.5 499.5,-0.5C 499.5,166.167 499.5,332.833 499.5,499.5C 332.833,499.5 166.167,499.5 -0.5,499.5C -0.5,332.833 -0.5,166.167 -0.5,-0.5 Z M 395.5,138.5 C 397.144,138.286 398.644,138.62 400,139.5C 400.667,155.833 400.667,172.167 400,188.5C 390.911,189.319 381.744,189.819 372.5,190C 353.641,192.194 341.475,202.361 336,220.5C 334.533,256.126 334.033,291.793 334.5,327.5C 318.833,327.5 303.167,327.5 287.5,327.5C 287.5,265.5 287.5,203.5 287.5,141.5C 303.167,141.5 318.833,141.5 334.5,141.5C 334.5,152.167 334.5,162.833 334.5,173.5C 335.552,173.649 336.552,173.483 337.5,173C 351.515,152.495 370.848,140.995 395.5,138.5 Z M 150.5,139.5 C 184.391,135.515 212.891,145.848 236,170.5C 252.027,192.28 257.861,216.613 253.5,243.5C 207.833,243.5 162.167,243.5 116.5,243.5C 117.368,276.204 134.034,292.371 166.5,292C 185.657,290.66 197.657,280.827 202.5,262.5C 219.17,262.333 235.837,262.5 252.5,263C 241.271,302.214 215.271,324.214 174.5,329C 141.236,332.473 113.403,321.973 91,297.5C 77.25,278.863 70.4167,257.863 70.5,234.5C 70.4248,205.199 80.7582,180.365 101.5,160C 116.028,148.733 132.361,141.899 150.5,139.5 Z M 307.5,151.5 C 312.028,151.841 313.361,154.008 311.5,158C 313.922,159.888 313.922,161.888 311.5,164C 305.539,165.061 303.873,163.061 306.5,158C 303.794,155.301 304.127,153.134 307.5,151.5 Z M 330.5,188.5 C 331.833,188.5 333.167,188.5 334.5,188.5C 334.11,191.466 334.777,194.132 336.5,196.5C 335.147,197.524 334.48,198.857 334.5,200.5C 333.5,200.5 332.5,200.5 331.5,200.5C 331.5,199.5 331.5,198.5 331.5,197.5C 329.833,197.5 328.167,197.5 326.5,197.5C 327.038,194.095 328.371,191.095 330.5,188.5 Z M 225.5,205.5 C 233.1,205.213 234.767,208.046 230.5,214C 231.448,214.483 232.448,214.649 233.5,214.5C 233.5,215.5 233.5,216.5 233.5,217.5C 230.5,217.5 227.5,217.5 224.5,217.5C 224.351,216.448 224.517,215.448 225,214.5C 227.295,212.92 228.628,210.92 229,208.5C 227.89,210.037 226.39,210.703 224.5,210.5C 224.629,208.784 224.962,207.117 225.5,205.5 Z M 84.5,228.5 C 86.1667,228.5 87.8333,228.5 89.5,228.5C 89.5,232.5 89.5,236.5 89.5,240.5C 88.1667,240.5 86.8333,240.5 85.5,240.5C 85.6646,237.482 85.498,234.482 85,231.5C 83.2716,230.648 83.105,229.648 84.5,228.5 Z"/></g>
<g><path style="opacity:0.963" fill="#a5a6a5" d="M 394.5,137.5 C 396.792,137.244 398.959,137.577 401,138.5C 401.667,155.5 401.667,172.5 401,189.5C 391.911,190.319 382.744,190.819 373.5,191C 354.641,193.194 342.475,203.361 337,221.5C 335.533,257.126 335.033,292.793 335.5,328.5C 319.167,328.5 302.833,328.5 286.5,328.5C 286.5,265.833 286.5,203.167 286.5,140.5C 302.833,140.5 319.167,140.5 335.5,140.5C 335.333,151.172 335.5,161.839 336,172.5C 350.163,151.823 369.663,140.156 394.5,137.5 Z M 395.5,138.5 C 370.848,140.995 351.515,152.495 337.5,173C 336.552,173.483 335.552,173.649 334.5,173.5C 334.5,162.833 334.5,152.167 334.5,141.5C 318.833,141.5 303.167,141.5 287.5,141.5C 287.5,203.5 287.5,265.5 287.5,327.5C 303.167,327.5 318.833,327.5 334.5,327.5C 334.033,291.793 334.533,256.126 336,220.5C 341.475,202.361 353.641,192.194 372.5,190C 381.744,189.819 390.911,189.319 400,188.5C 400.667,172.167 400.667,155.833 400,139.5C 398.644,138.62 397.144,138.286 395.5,138.5 Z M 307.5,151.5 C 304.127,153.134 303.794,155.301 306.5,158C 303.873,163.061 305.539,165.061 311.5,164C 313.922,161.888 313.922,159.888 311.5,158C 313.361,154.008 312.028,151.841 307.5,151.5 Z M 330.5,188.5 C 328.371,191.095 327.038,194.095 326.5,197.5C 328.167,197.5 329.833,197.5 331.5,197.5C 331.5,198.5 331.5,199.5 331.5,200.5C 332.5,200.5 333.5,200.5 334.5,200.5C 334.48,198.857 335.147,197.524 336.5,196.5C 334.777,194.132 334.11,191.466 334.5,188.5C 333.167,188.5 331.833,188.5 330.5,188.5 Z"/></g>
<g><path style="opacity:0.905" fill="#a5a6a5" d="M 149.5,138.5 C 184.109,134.092 213.276,144.426 237,169.5C 253.353,191.92 259.187,216.92 254.5,244.5C 208.833,244.5 163.167,244.5 117.5,244.5C 118.551,273.382 133.385,289.048 162,291.5C 175.791,291.27 187.124,285.937 196,275.5C 198.917,271.249 200.75,266.582 201.5,261.5C 218.833,261.5 236.167,261.5 253.5,261.5C 245.874,297.293 224.207,319.46 188.5,328C 160.574,333.964 134.24,329.964 109.5,316C 82.2061,295.91 68.8727,268.743 69.5,234.5C 69.2146,204.83 79.5479,179.663 100.5,159C 115.028,147.733 131.361,140.899 149.5,138.5 Z M 150.5,139.5 C 132.361,141.899 116.028,148.733 101.5,160C 80.7582,180.365 70.4248,205.199 70.5,234.5C 70.4167,257.863 77.25,278.863 91,297.5C 113.403,321.973 141.236,332.473 174.5,329C 215.271,324.214 241.271,302.214 252.5,263C 235.837,262.5 219.17,262.333 202.5,262.5C 197.657,280.827 185.657,290.66 166.5,292C 134.034,292.371 117.368,276.204 116.5,243.5C 162.167,243.5 207.833,243.5 253.5,243.5C 257.861,216.613 252.027,192.28 236,170.5C 212.891,145.848 184.391,135.515 150.5,139.5 Z M 225.5,205.5 C 224.962,207.117 224.629,208.784 224.5,210.5C 226.39,210.703 227.89,210.037 229,208.5C 228.628,210.92 227.295,212.92 225,214.5C 224.517,215.448 224.351,216.448 224.5,217.5C 227.5,217.5 230.5,217.5 233.5,217.5C 233.5,216.5 233.5,215.5 233.5,214.5C 232.448,214.649 231.448,214.483 230.5,214C 234.767,208.046 233.1,205.213 225.5,205.5 Z M 84.5,228.5 C 83.105,229.648 83.2716,230.648 85,231.5C 85.498,234.482 85.6646,237.482 85.5,240.5C 86.8333,240.5 88.1667,240.5 89.5,240.5C 89.5,236.5 89.5,232.5 89.5,228.5C 87.8333,228.5 86.1667,228.5 84.5,228.5 Z"/></g>
<g><path style="opacity:0.888" fill="#ed3a5f" d="M 304.5,146.5 C 316.99,144.823 322.157,150.156 320,162.5C 319.215,164.286 318.049,165.786 316.5,167C 303.074,171.238 297.241,166.404 299,152.5C 300.36,149.977 302.193,147.977 304.5,146.5 Z M 307.5,151.5 C 304.127,153.134 303.794,155.301 306.5,158C 303.873,163.061 305.539,165.061 311.5,164C 313.922,161.888 313.922,159.888 311.5,158C 313.361,154.008 312.028,151.841 307.5,151.5 Z"/></g>
<g><path style="opacity:0.74" fill="#ed3a5f" d="M 158.5,158.5 C 164.113,157.079 166.28,159.079 165,164.5C 158.423,167.088 156.256,165.088 158.5,158.5 Z"/></g>
<g><path style="opacity:0.701" fill="#ed3a5f" d="M 144.5,159.5 C 151.145,158.977 152.811,161.477 149.5,167C 143.785,167.401 142.119,164.901 144.5,159.5 Z"/></g>
<g><path style="opacity:0.714" fill="#ed3a5f" d="M 173.5,159.5 C 179.488,159.664 180.821,162.164 177.5,167C 171.202,167.495 169.868,164.995 173.5,159.5 Z"/></g>
<g><path style="opacity:1" fill="#ed3a5f" d="M 307.5,160.5 C 308.077,159.227 308.743,159.227 309.5,160.5C 309.03,161.463 308.363,161.463 307.5,160.5 Z"/></g>
<g><path style="opacity:0.746" fill="#ed3a5f" d="M 378.5,161.5 C 383.914,160.565 385.914,162.565 384.5,167.5C 378.129,169.796 376.129,167.796 378.5,161.5 Z"/></g>
<g><path style="opacity:0.758" fill="#ed3a5f" d="M 392.5,162.5 C 398.235,161.821 399.902,164.155 397.5,169.5C 391.805,170.446 390.138,168.112 392.5,162.5 Z"/></g>
<g><path style="opacity:0.757" fill="#ed3a5f" d="M 131.5,163.5 C 137.476,163.157 139.142,165.49 136.5,170.5C 134.833,171.833 133.167,171.833 131.5,170.5C 130.286,168.141 130.286,165.808 131.5,163.5 Z"/></g>
<g><path style="opacity:0.726" fill="#ed3a5f" d="M 187.5,163.5 C 192.262,164.092 193.596,166.592 191.5,171C 184.186,171.537 182.853,169.037 187.5,163.5 Z"/></g>
<g><path style="opacity:0.704" fill="#ed3a5f" d="M 365.5,164.5 C 371.235,163.821 372.902,166.155 370.5,171.5C 366.934,173.359 364.6,172.359 363.5,168.5C 364.18,167.14 364.847,165.807 365.5,164.5 Z"/></g>
<g><path style="opacity:0.727" fill="#ed3a5f" d="M 119.5,169.5 C 124.708,169.369 126.375,171.702 124.5,176.5C 117.789,177.788 116.123,175.455 119.5,169.5 Z"/></g>
<g><path style="opacity:0.741" fill="#ed3a5f" d="M 198.5,170.5 C 204.729,170.027 206.395,172.36 203.5,177.5C 197.805,178.446 196.138,176.112 198.5,170.5 Z"/></g>
<g><path style="opacity:0.851" fill="#ed3a5f" d="M 307.5,171.5 C 313.158,170.679 314.825,172.846 312.5,178C 306.741,179.139 305.074,176.972 307.5,171.5 Z"/></g>
<g><path style="opacity:0.746" fill="#ed3a5f" d="M 354.5,171.5 C 355.93,171.421 357.264,171.754 358.5,172.5C 360.89,178.608 359.056,180.608 353,178.5C 352.185,175.802 352.685,173.468 354.5,171.5 Z"/></g>
<g><path style="opacity:0.92" fill="#a5a6a5" d="M 160.5,175.5 C 191.958,175.624 207.624,191.291 207.5,222.5C 177.167,222.5 146.833,222.5 116.5,222.5C 118.204,194.469 132.87,178.802 160.5,175.5 Z"/></g>
<g><path style="opacity:1" fill="#f7f8f7" d="M 161.5,176.5 C 190.952,177.285 205.952,192.285 206.5,221.5C 176.826,221.833 147.159,221.5 117.5,220.5C 120.6,194.067 135.267,179.4 161.5,176.5 Z"/></g>
<g><path style="opacity:0.74" fill="#ed3a5f" d="M 108.5,177.5 C 114.02,178.044 115.354,180.544 112.5,185C 106.202,185.495 104.868,182.995 108.5,177.5 Z"/></g>
<g><path style="opacity:0.714" fill="#ed3a5f" d="M 210.5,178.5 C 216.704,178.314 218.037,180.814 214.5,186C 208.403,186.147 207.07,183.647 210.5,178.5 Z"/></g>
<g><path style="opacity:0.827" fill="#ed3a5f" d="M 343.5,181.5 C 349.158,180.679 350.825,182.846 348.5,188C 342.741,189.139 341.074,186.972 343.5,181.5 Z"/></g>
<g><path style="opacity:0.893" fill="#ed3a5f" d="M 326.5,183.5 C 338.99,181.823 344.157,187.156 342,199.5C 341.215,201.286 340.049,202.786 338.5,204C 325.074,208.238 319.241,203.404 321,189.5C 322.36,186.977 324.193,184.977 326.5,183.5 Z M 330.5,188.5 C 328.371,191.095 327.038,194.095 326.5,197.5C 328.167,197.5 329.833,197.5 331.5,197.5C 331.5,198.5 331.5,199.5 331.5,200.5C 332.5,200.5 333.5,200.5 334.5,200.5C 334.48,198.857 335.147,197.524 336.5,196.5C 334.777,194.132 334.11,191.466 334.5,188.5C 333.167,188.5 331.833,188.5 330.5,188.5 Z"/></g>
<g><path style="opacity:0.851" fill="#ed3a5f" d="M 307.5,185.5 C 313.158,184.679 314.825,186.846 312.5,192C 306.741,193.139 305.074,190.972 307.5,185.5 Z"/></g>
<g><path style="opacity:0.82" fill="#ed3a5f" d="M 222.5,187.5 C 226.392,188.742 227.392,191.242 225.5,195C 220.333,196.5 218.5,194.667 220,189.5C 220.995,188.934 221.828,188.267 222.5,187.5 Z"/></g>
<g><path style="opacity:0.714" fill="#ed3a5f" d="M 97.5,188.5 C 103.113,187.079 105.28,189.079 104,194.5C 101.952,196.787 99.7851,196.954 97.5,195C 96.232,192.837 96.232,190.67 97.5,188.5 Z"/></g>
<g><path style="opacity:0.838" fill="#ed3a5f" d="M 92.5,199.5 C 96.3958,200.78 97.3958,203.28 95.5,207C 90.3333,208.5 88.5,206.667 90,201.5C 90.9947,200.934 91.828,200.267 92.5,199.5 Z"/></g>
<g><path style="opacity:0.851" fill="#ed3a5f" d="M 307.5,199.5 C 313.158,198.679 314.825,200.846 312.5,206C 306.741,207.139 305.074,204.972 307.5,199.5 Z"/></g>
<g><path style="opacity:0.89" fill="#ed3a5f" d="M 223.5,200.5 C 235.99,198.823 241.157,204.156 239,216.5C 238.215,218.286 237.049,219.786 235.5,221C 222.074,225.238 216.241,220.404 218,206.5C 219.36,203.977 221.193,201.977 223.5,200.5 Z M 225.5,205.5 C 224.962,207.117 224.629,208.784 224.5,210.5C 226.39,210.703 227.89,210.037 229,208.5C 228.628,210.92 227.295,212.92 225,214.5C 224.517,215.448 224.351,216.448 224.5,217.5C 227.5,217.5 230.5,217.5 233.5,217.5C 233.5,216.5 233.5,215.5 233.5,214.5C 232.448,214.649 231.448,214.483 230.5,214C 234.767,208.046 233.1,205.213 225.5,205.5 Z"/></g>
<g><path style="opacity:0.851" fill="#ed3a5f" d="M 307.5,213.5 C 313.158,212.679 314.825,214.846 312.5,220C 306.741,221.139 305.074,218.972 307.5,213.5 Z"/></g>
<g><path style="opacity:0.899" fill="#ed3a5f" d="M 82.5,222.5 C 94.9901,220.823 100.157,226.156 98,238.5C 97.2155,240.286 96.0488,241.786 94.5,243C 81.0744,247.238 75.2411,242.404 77,228.5C 78.3597,225.977 80.193,223.977 82.5,222.5 Z M 84.5,228.5 C 83.105,229.648 83.2716,230.648 85,231.5C 85.498,234.482 85.6646,237.482 85.5,240.5C 86.8333,240.5 88.1667,240.5 89.5,240.5C 89.5,236.5 89.5,232.5 89.5,228.5C 87.8333,228.5 86.1667,228.5 84.5,228.5 Z"/></g>
<g><path style="opacity:0.85" fill="#ed3a5f" d="M 307.5,227.5 C 313.158,226.679 314.825,228.846 312.5,234C 306.741,235.139 305.074,232.972 307.5,227.5 Z"/></g>
<g><path style="opacity:0.851" fill="#ed3a5f" d="M 102.5,230.5 C 108.158,229.679 109.825,231.846 107.5,237C 101.741,238.139 100.074,235.972 102.5,230.5 Z"/></g>
<g><path style="opacity:0.851" fill="#ed3a5f" d="M 116.5,230.5 C 122.158,229.679 123.825,231.846 121.5,237C 115.741,238.139 114.074,235.972 116.5,230.5 Z"/></g>
<g><path style="opacity:0.851" fill="#ed3a5f" d="M 130.5,230.5 C 136.158,229.679 137.825,231.846 135.5,237C 129.741,238.139 128.074,235.972 130.5,230.5 Z"/></g>
<g><path style="opacity:0.851" fill="#ed3a5f" d="M 144.5,230.5 C 150.158,229.679 151.825,231.846 149.5,237C 143.741,238.139 142.074,235.972 144.5,230.5 Z"/></g>
<g><path style="opacity:0.851" fill="#ed3a5f" d="M 158.5,230.5 C 164.158,229.679 165.825,231.846 163.5,237C 157.741,238.139 156.074,235.972 158.5,230.5 Z"/></g>
<g><path style="opacity:0.851" fill="#ed3a5f" d="M 172.5,230.5 C 178.158,229.679 179.825,231.846 177.5,237C 171.741,238.139 170.074,235.972 172.5,230.5 Z"/></g>
<g><path style="opacity:0.851" fill="#ed3a5f" d="M 186.5,230.5 C 192.158,229.679 193.825,231.846 191.5,237C 185.741,238.139 184.074,235.972 186.5,230.5 Z"/></g>
<g><path style="opacity:0.85" fill="#ed3a5f" d="M 200.5,230.5 C 206.158,229.679 207.825,231.846 205.5,237C 199.741,238.139 198.074,235.972 200.5,230.5 Z"/></g>
<g><path style="opacity:0.85" fill="#ed3a5f" d="M 214.5,230.5 C 220.158,229.679 221.825,231.846 219.5,237C 213.741,238.139 212.074,235.972 214.5,230.5 Z"/></g>
<g><path style="opacity:0.85" fill="#ed3a5f" d="M 228.5,230.5 C 234.158,229.679 235.825,231.846 233.5,237C 227.741,238.139 226.074,235.972 228.5,230.5 Z"/></g>
<g><path style="opacity:0.85" fill="#ed3a5f" d="M 307.5,241.5 C 313.158,240.679 314.825,242.846 312.5,248C 306.741,249.139 305.074,246.972 307.5,241.5 Z"/></g>
<g><path style="opacity:0.847" fill="#ed3a5f" d="M 88.5,252.5 C 94.1581,251.679 95.8248,253.846 93.5,259C 87.741,260.139 86.0744,257.972 88.5,252.5 Z"/></g>
<g><path style="opacity:0.85" fill="#ed3a5f" d="M 307.5,255.5 C 313.158,254.679 314.825,256.846 312.5,262C 306.741,263.139 305.074,260.972 307.5,255.5 Z"/></g>
<g><path style="opacity:0.749" fill="#ed3a5f" d="M 95.5,264.5 C 100.914,263.565 102.914,265.565 101.5,270.5C 95.4321,273.096 93.4321,271.096 95.5,264.5 Z"/></g>
<g><path style="opacity:0.851" fill="#ed3a5f" d="M 307.5,269.5 C 313.158,268.679 314.825,270.846 312.5,276C 306.741,277.139 305.074,274.972 307.5,269.5 Z"/></g>
<g><path style="opacity:0.778" fill="#ed3a5f" d="M 222.5,273.5 C 228.235,272.821 229.902,275.155 227.5,280.5C 221.805,281.446 220.138,279.112 222.5,273.5 Z"/></g>
<g><path style="opacity:0.735" fill="#ed3a5f" d="M 104.5,275.5 C 110.704,275.314 112.037,277.814 108.5,283C 102.812,282.79 101.479,280.29 104.5,275.5 Z"/></g>
<g><path style="opacity:0.85" fill="#ed3a5f" d="M 307.5,283.5 C 313.158,282.679 314.825,284.846 312.5,290C 306.741,291.139 305.074,288.972 307.5,283.5 Z"/></g>
<g><path style="opacity:0.75" fill="#ed3a5f" d="M 113.5,285.5 C 119.113,284.079 121.28,286.079 120,291.5C 117.911,293.959 115.745,293.959 113.5,291.5C 112.377,289.518 112.377,287.518 113.5,285.5 Z"/></g>
<g><path style="opacity:0.733" fill="#ed3a5f" d="M 217.5,285.5 C 218.93,285.421 220.264,285.754 221.5,286.5C 223.89,292.608 222.056,294.608 216,292.5C 214.074,289.675 214.574,287.341 217.5,285.5 Z"/></g>
<g><path style="opacity:0.708" fill="#ed3a5f" d="M 125.5,293.5 C 131.313,293.062 132.98,295.562 130.5,301C 124.206,301.578 122.539,299.078 125.5,293.5 Z"/></g>
<g><path style="opacity:0.708" fill="#ed3a5f" d="M 204.5,293.5 C 211.004,293.138 212.671,295.638 209.5,301C 203.785,301.401 202.119,298.901 204.5,293.5 Z"/></g>
<g><path style="opacity:0.85" fill="#ed3a5f" d="M 307.5,297.5 C 313.158,296.679 314.825,298.846 312.5,304C 306.741,305.139 305.074,302.972 307.5,297.5 Z"/></g>
<g><path style="opacity:0.735" fill="#ed3a5f" d="M 139.5,299.5 C 143.708,300.253 145.041,302.586 143.5,306.5C 137.976,308.914 135.809,307.248 137,301.5C 137.995,300.934 138.828,300.267 139.5,299.5 Z"/></g>
<g><path style="opacity:0.708" fill="#ed3a5f" d="M 192.5,299.5 C 198.704,299.314 200.037,301.814 196.5,307C 190.403,307.147 189.07,304.647 192.5,299.5 Z"/></g>
<g><path style="opacity:0.721" fill="#ed3a5f" d="M 152.5,303.5 C 157.266,304.158 158.6,306.658 156.5,311C 151.338,312.424 149.171,310.59 150,305.5C 150.995,304.934 151.828,304.267 152.5,303.5 Z"/></g>
<g><path style="opacity:0.708" fill="#ed3a5f" d="M 178.5,303.5 C 185.004,303.138 186.671,305.638 183.5,311C 177.785,311.401 176.119,308.901 178.5,303.5 Z"/></g>
<g><path style="opacity:0.735" fill="#ed3a5f" d="M 164.5,305.5 C 170.113,304.079 172.28,306.079 171,311.5C 164.423,314.088 162.256,312.088 164.5,305.5 Z"/></g>
<g><path style="opacity:0.85" fill="#ed3a5f" d="M 307.5,311.5 C 313.158,310.679 314.825,312.846 312.5,318C 306.741,319.139 305.074,316.972 307.5,311.5 Z"/></g>
</svg>
