<?xml version="1.0" encoding="UTF-8"?>
<!DOCTYPE svg PUBLIC "-//W3C//DTD SVG 1.1//EN" "http://www.w3.org/Graphics/SVG/1.1/DTD/svg11.dtd">
<svg xmlns="http://www.w3.org/2000/svg" version="1.1" width="500px" height="500px" style="shape-rendering:geometricPrecision; text-rendering:geometricPrecision; image-rendering:optimizeQuality; fill-rule:evenodd; clip-rule:evenodd" xmlns:xlink="http://www.w3.org/1999/xlink">
<g><path style="opacity:1" fill="#f7f8f7" d="M -0.5,-0.5 C 166.167,-0.5 332.833,-0.5 499.5,-0.5C 499.5,166.167 499.5,332.833 499.5,499.5C 332.833,499.5 166.167,499.5 -0.5,499.5C -0.5,332.833 -0.5,166.167 -0.5,-0.5 Z M 295.5,74.5 C 300.203,74.4372 304.87,74.7705 309.5,75.5C 309.5,88.8333 309.5,102.167 309.5,115.5C 284.136,112.207 271.802,123.207 272.5,148.5C 284.833,148.5 297.167,148.5 309.5,148.5C 309.5,161.5 309.5,174.5 309.5,187.5C 297.167,187.5 284.833,187.5 272.5,187.5C 272.5,236.5 272.5,285.5 272.5,334.5C 256.833,334.5 241.167,334.5 225.5,334.5C 225.5,285.5 225.5,236.5 225.5,187.5C 217.5,187.5 209.5,187.5 201.5,187.5C 201.5,174.5 201.5,161.5 201.5,148.5C 209.5,148.5 217.5,148.5 225.5,148.5C 225.224,101.444 248.557,76.7775 295.5,74.5 Z M 289.5,91.5 C 291.167,91.5 292.833,91.5 294.5,91.5C 294.5,95.5 294.5,99.5 294.5,103.5C 293.167,103.5 291.833,103.5 290.5,103.5C 290.665,100.482 290.498,97.4816 290,94.5C 288.272,93.6477 288.105,92.6477 289.5,91.5 Z M 215.5,162.5 C 223.1,162.213 224.767,165.046 220.5,171C 221.448,171.483 222.448,171.649 223.5,171.5C 223.5,172.5 223.5,173.5 223.5,174.5C 220.5,174.5 217.5,174.5 214.5,174.5C 214.351,173.448 214.517,172.448 215,171.5C 217.295,169.92 218.628,167.92 219,165.5C 217.89,167.037 216.39,167.703 214.5,167.5C 214.629,165.784 214.962,164.117 215.5,162.5 Z"/></g>
<g><path style="opacity:0.971" fill="#a5a6a5" d="M 294.5,73.5 C 299.87,73.3921 305.203,73.7255 310.5,74.5C 310.5,88.5 310.5,102.5 310.5,116.5C 301.069,115.646 292.069,117.146 283.5,121C 275.747,128.084 272.414,136.917 273.5,147.5C 285.833,147.5 298.167,147.5 310.5,147.5C 310.5,161.167 310.5,174.833 310.5,188.5C 298.167,188.5 285.833,188.5 273.5,188.5C 273.5,237.5 273.5,286.5 273.5,335.5C 257.167,335.5 240.833,335.5 224.5,335.5C 224.5,286.5 224.5,237.5 224.5,188.5C 216.5,188.5 208.5,188.5 200.5,188.5C 200.5,174.833 200.5,161.167 200.5,147.5C 208.5,147.5 216.5,147.5 224.5,147.5C 224.224,100.444 247.557,75.7775 294.5,73.5 Z M 295.5,74.5 C 248.557,76.7775 225.224,101.444 225.5,148.5C 217.5,148.5 209.5,148.5 201.5,148.5C 201.5,161.5 201.5,174.5 201.5,187.5C 209.5,187.5 217.5,187.5 225.5,187.5C 225.5,236.5 225.5,285.5 225.5,334.5C 241.167,334.5 256.833,334.5 272.5,334.5C 272.5,285.5 272.5,236.5 272.5,187.5C 284.833,187.5 297.167,187.5 309.5,187.5C 309.5,174.5 309.5,161.5 309.5,148.5C 297.167,148.5 284.833,148.5 272.5,148.5C 271.802,123.207 284.136,112.207 309.5,115.5C 309.5,102.167 309.5,88.8333 309.5,75.5C 304.87,74.7705 300.203,74.4372 295.5,74.5 Z M 289.5,91.5 C 288.105,92.6477 288.272,93.6477 290,94.5C 290.498,97.4816 290.665,100.482 290.5,103.5C 291.833,103.5 293.167,103.5 294.5,103.5C 294.5,99.5 294.5,95.5 294.5,91.5C 292.833,91.5 291.167,91.5 289.5,91.5 Z M 215.5,162.5 C 214.962,164.117 214.629,165.784 214.5,167.5C 216.39,167.703 217.89,167.037 219,165.5C 218.628,167.92 217.295,169.92 215,171.5C 214.517,172.448 214.351,173.448 214.5,174.5C 217.5,174.5 220.5,174.5 223.5,174.5C 223.5,173.5 223.5,172.5 223.5,171.5C 222.448,171.649 221.448,171.483 220.5,171C 224.767,165.046 223.1,162.213 215.5,162.5 Z"/></g>
<g><path style="opacity:0.899" fill="#ed3a5f" d="M 287.5,85.5 C 299.99,83.8227 305.157,89.156 303,101.5C 302.215,103.286 301.049,104.786 299.5,106C 286.074,110.238 280.241,105.404 282,91.5C 283.36,88.9774 285.193,86.9774 287.5,85.5 Z M 289.5,91.5 C 288.105,92.6477 288.272,93.6477 290,94.5C 290.498,97.4816 290.665,100.482 290.5,103.5C 291.833,103.5 293.167,103.5 294.5,103.5C 294.5,99.5 294.5,95.5 294.5,91.5C 292.833,91.5 291.167,91.5 289.5,91.5 Z"/></g>
<g><path style="opacity:0.849" fill="#ed3a5f" d="M 274.5,99.5 C 280.158,98.6794 281.825,100.846 279.5,106C 273.741,107.139 272.074,104.972 274.5,99.5 Z"/></g>
<g><path style="opacity:0.763" fill="#ed3a5f" d="M 262.5,106.5 C 267.914,105.565 269.914,107.565 268.5,112.5C 262.129,114.796 260.129,112.796 262.5,106.5 Z"/></g>
<g><path style="opacity:0.72" fill="#ed3a5f" d="M 255.5,118.5 C 261.113,117.079 263.28,119.079 262,124.5C 259.952,126.787 257.785,126.954 255.5,125C 254.395,122.88 254.395,120.713 255.5,118.5 Z"/></g>
<g><path style="opacity:0.694" fill="#ed3a5f" d="M 252.5,131.5 C 257.881,131.452 259.547,133.952 257.5,139C 250.745,139.756 249.078,137.256 252.5,131.5 Z"/></g>
<g><path style="opacity:0.72" fill="#ed3a5f" d="M 250.5,145.5 C 256.468,145.605 257.802,148.105 254.5,153C 248.403,153.147 247.07,150.647 250.5,145.5 Z"/></g>
<g><path style="opacity:0.89" fill="#ed3a5f" d="M 213.5,157.5 C 225.99,155.823 231.157,161.156 229,173.5C 228.215,175.286 227.049,176.786 225.5,178C 212.074,182.238 206.241,177.404 208,163.5C 209.36,160.977 211.193,158.977 213.5,157.5 Z M 215.5,162.5 C 214.962,164.117 214.629,165.784 214.5,167.5C 216.39,167.703 217.89,167.037 219,165.5C 218.628,167.92 217.295,169.92 215,171.5C 214.517,172.448 214.351,173.448 214.5,174.5C 217.5,174.5 220.5,174.5 223.5,174.5C 223.5,173.5 223.5,172.5 223.5,171.5C 222.448,171.649 221.448,171.483 220.5,171C 224.767,165.046 223.1,162.213 215.5,162.5 Z"/></g>
<g><path style="opacity:0.72" fill="#ed3a5f" d="M 248.5,159.5 C 253.501,158.671 255.668,160.671 255,165.5C 248.684,168.356 246.518,166.356 248.5,159.5 Z"/></g>
<g><path style="opacity:0.851" fill="#ed3a5f" d="M 236.5,165.5 C 242.158,164.679 243.825,166.846 241.5,172C 235.741,173.139 234.074,170.972 236.5,165.5 Z"/></g>
<g><path style="opacity:0.851" fill="#ed3a5f" d="M 264.5,165.5 C 270.158,164.679 271.825,166.846 269.5,172C 263.741,173.139 262.074,170.972 264.5,165.5 Z"/></g>
<g><path style="opacity:0.851" fill="#ed3a5f" d="M 278.5,165.5 C 284.158,164.679 285.825,166.846 283.5,172C 277.741,173.139 276.074,170.972 278.5,165.5 Z"/></g>
<g><path style="opacity:0.851" fill="#ed3a5f" d="M 292.5,165.5 C 298.158,164.679 299.825,166.846 297.5,172C 291.741,173.139 290.074,170.972 292.5,165.5 Z"/></g>
<g><path style="opacity:0.763" fill="#ed3a5f" d="M 248.5,173.5 C 254.235,172.821 255.902,175.155 253.5,180.5C 251.833,181.833 250.167,181.833 248.5,180.5C 247.286,178.141 247.286,175.808 248.5,173.5 Z"/></g>
<g><path style="opacity:0.764" fill="#ed3a5f" d="M 248.5,187.5 C 254.235,186.821 255.902,189.155 253.5,194.5C 251.833,195.833 250.167,195.833 248.5,194.5C 247.286,192.141 247.286,189.808 248.5,187.5 Z"/></g>
<g><path style="opacity:0.761" fill="#ed3a5f" d="M 248.5,201.5 C 254.235,200.821 255.902,203.155 253.5,208.5C 251.833,209.833 250.167,209.833 248.5,208.5C 247.286,206.141 247.286,203.808 248.5,201.5 Z"/></g>
<g><path style="opacity:0.764" fill="#ed3a5f" d="M 248.5,215.5 C 254.235,214.821 255.902,217.155 253.5,222.5C 251.833,223.833 250.167,223.833 248.5,222.5C 247.286,220.141 247.286,217.808 248.5,215.5 Z"/></g>
<g><path style="opacity:0.764" fill="#ed3a5f" d="M 248.5,229.5 C 254.235,228.821 255.902,231.155 253.5,236.5C 251.833,237.833 250.167,237.833 248.5,236.5C 247.286,234.141 247.286,231.808 248.5,229.5 Z"/></g>
<g><path style="opacity:0.796" fill="#ed3a5f" d="M 248.5,243.5 C 254.704,243.314 256.037,245.814 252.5,251C 247.632,250.711 246.299,248.211 248.5,243.5 Z"/></g>
<g><path style="opacity:0.792" fill="#ed3a5f" d="M 248.5,257.5 C 254.704,257.314 256.037,259.814 252.5,265C 247.632,264.711 246.299,262.211 248.5,257.5 Z"/></g>
<g><path style="opacity:0.831" fill="#ed3a5f" d="M 248.5,271.5 C 253.675,270.507 255.509,272.507 254,277.5C 252,280.167 250,280.167 248,277.5C 247.322,275.402 247.489,273.402 248.5,271.5 Z"/></g>
<g><path style="opacity:0.831" fill="#ed3a5f" d="M 248.5,285.5 C 253.675,284.507 255.509,286.507 254,291.5C 252,294.167 250,294.167 248,291.5C 247.322,289.402 247.489,287.402 248.5,285.5 Z"/></g>
<g><path style="opacity:0.829" fill="#ed3a5f" d="M 248.5,299.5 C 253.675,298.507 255.509,300.507 254,305.5C 252,308.167 250,308.167 248,305.5C 247.322,303.402 247.489,301.402 248.5,299.5 Z"/></g>
<g><path style="opacity:0.849" fill="#ed3a5f" d="M 248.5,313.5 C 254.158,312.679 255.825,314.846 253.5,320C 247.741,321.139 246.074,318.972 248.5,313.5 Z"/></g>
</svg>
