<?xml version="1.0" encoding="UTF-8"?>
<!DOCTYPE svg PUBLIC "-//W3C//DTD SVG 1.1//EN" "http://www.w3.org/Graphics/SVG/1.1/DTD/svg11.dtd">
<svg xmlns="http://www.w3.org/2000/svg" version="1.1" width="500px" height="500px" style="shape-rendering:geometricPrecision; text-rendering:geometricPrecision; image-rendering:optimizeQuality; fill-rule:evenodd; clip-rule:evenodd" xmlns:xlink="http://www.w3.org/1999/xlink">
<g><path style="opacity:1" fill="#f7f8f7" d="M -0.5,-0.5 C 166.167,-0.5 332.833,-0.5 499.5,-0.5C 499.5,166.167 499.5,332.833 499.5,499.5C 332.833,499.5 166.167,499.5 -0.5,499.5C -0.5,332.833 -0.5,166.167 -0.5,-0.5 Z M 209.5,107.5 C 235.294,104.373 257.128,112.04 275,130.5C 277.75,134.332 280.25,138.332 282.5,142.5C 283.325,143.386 284.325,143.719 285.5,143.5C 285.5,132.167 285.5,120.833 285.5,109.5C 300.833,109.5 316.167,109.5 331.5,109.5C 331.667,176.501 331.5,243.501 331,310.5C 322.48,360.849 292.647,386.182 241.5,386.5C 213.199,387.459 188.699,378.459 168,359.5C 156.587,347.006 149.754,332.34 147.5,315.5C 162.833,315.5 178.167,315.5 193.5,315.5C 198.116,332.942 209.449,342.775 227.5,345C 246.385,348.703 262.552,343.87 276,330.5C 281.376,323.038 284.376,314.705 285,305.5C 285.5,290.504 285.667,275.504 285.5,260.5C 284.325,260.281 283.325,260.614 282.5,261.5C 266.746,288.71 243.079,300.544 211.5,297C 180.411,292.902 158.911,276.402 147,247.5C 135.418,215.574 136.085,183.907 149,152.5C 161.38,126.943 181.547,111.943 209.5,107.5 Z M 306.5,118.5 C 314.1,118.213 315.767,121.046 311.5,127C 312.448,127.483 313.448,127.649 314.5,127.5C 314.5,128.5 314.5,129.5 314.5,130.5C 311.5,130.5 308.5,130.5 305.5,130.5C 305.351,129.448 305.517,128.448 306,127.5C 308.295,125.92 309.628,123.92 310,121.5C 308.89,123.037 307.39,123.703 305.5,123.5C 305.629,121.784 305.962,120.117 306.5,118.5 Z M 284.5,156.5 C 286.167,156.5 287.833,156.5 289.5,156.5C 289.5,160.5 289.5,164.5 289.5,168.5C 288.167,168.5 286.833,168.5 285.5,168.5C 285.665,165.482 285.498,162.482 285,159.5C 283.272,158.648 283.105,157.648 284.5,156.5 Z"/></g>
<g><path style="opacity:0.912" fill="#a5a6a5" d="M 208.5,106.5 C 235.014,102.948 257.514,110.614 276,129.5C 278.917,133.666 281.584,137.999 284,142.5C 284.5,131.172 284.667,119.838 284.5,108.5C 300.5,108.5 316.5,108.5 332.5,108.5C 332.667,176.167 332.5,243.834 332,311.5C 323.333,362.327 293.167,387.66 241.5,387.5C 212.835,388.671 188.001,379.671 167,360.5C 155.692,347.715 148.525,332.882 145.5,316C 161.678,314.516 178.012,314.016 194.5,314.5C 199.116,331.942 210.449,341.775 228.5,344C 246.698,347.376 262.198,342.543 275,329.5C 280.376,322.038 283.376,313.705 284,304.5C 284.667,290.167 284.667,275.833 284,261.5C 273.098,283.057 255.598,295.223 231.5,298C 180.977,300.476 150.477,276.976 140,227.5C 135.546,201.391 138.213,176.058 148,151.5C 160.38,125.943 180.547,110.943 208.5,106.5 Z M 209.5,107.5 C 181.547,111.943 161.38,126.943 149,152.5C 136.085,183.907 135.418,215.574 147,247.5C 158.911,276.402 180.411,292.902 211.5,297C 243.079,300.544 266.746,288.71 282.5,261.5C 283.325,260.614 284.325,260.281 285.5,260.5C 285.667,275.504 285.5,290.504 285,305.5C 284.376,314.705 281.376,323.038 276,330.5C 262.552,343.87 246.385,348.703 227.5,345C 209.449,342.775 198.116,332.942 193.5,315.5C 178.167,315.5 162.833,315.5 147.5,315.5C 149.754,332.34 156.587,347.006 168,359.5C 188.699,378.459 213.199,387.459 241.5,386.5C 292.647,386.182 322.48,360.849 331,310.5C 331.5,243.501 331.667,176.501 331.5,109.5C 316.167,109.5 300.833,109.5 285.5,109.5C 285.5,120.833 285.5,132.167 285.5,143.5C 284.325,143.719 283.325,143.386 282.5,142.5C 280.25,138.332 277.75,134.332 275,130.5C 257.128,112.04 235.294,104.373 209.5,107.5 Z M 306.5,118.5 C 305.962,120.117 305.629,121.784 305.5,123.5C 307.39,123.703 308.89,123.037 310,121.5C 309.628,123.92 308.295,125.92 306,127.5C 305.517,128.448 305.351,129.448 305.5,130.5C 308.5,130.5 311.5,130.5 314.5,130.5C 314.5,129.5 314.5,128.5 314.5,127.5C 313.448,127.649 312.448,127.483 311.5,127C 315.767,121.046 314.1,118.213 306.5,118.5 Z M 284.5,156.5 C 283.105,157.648 283.272,158.648 285,159.5C 285.498,162.482 285.665,165.482 285.5,168.5C 286.833,168.5 288.167,168.5 289.5,168.5C 289.5,164.5 289.5,160.5 289.5,156.5C 287.833,156.5 286.167,156.5 284.5,156.5 Z"/></g>
<g><path style="opacity:0.89" fill="#ed3a5f" d="M 304.5,113.5 C 316.99,111.823 322.157,117.156 320,129.5C 319.215,131.286 318.049,132.786 316.5,134C 303.074,138.238 297.241,133.404 299,119.5C 300.36,116.977 302.193,114.977 304.5,113.5 Z M 306.5,118.5 C 305.962,120.117 305.629,121.784 305.5,123.5C 307.39,123.703 308.89,123.037 310,121.5C 309.628,123.92 308.295,125.92 306,127.5C 305.517,128.448 305.351,129.448 305.5,130.5C 308.5,130.5 311.5,130.5 314.5,130.5C 314.5,129.5 314.5,128.5 314.5,127.5C 313.448,127.649 312.448,127.483 311.5,127C 315.767,121.046 314.1,118.213 306.5,118.5 Z"/></g>
<g><path style="opacity:0.739" fill="#ed3a5f" d="M 219.5,125.5 C 225.113,124.079 227.28,126.079 226,131.5C 219.423,134.088 217.256,132.088 219.5,125.5 Z"/></g>
<g><path style="opacity:0.739" fill="#ed3a5f" d="M 206.5,126.5 C 212.488,126.664 213.821,129.164 210.5,134C 204.403,134.147 203.07,131.647 206.5,126.5 Z"/></g>
<g><path style="opacity:0.737" fill="#ed3a5f" d="M 234.5,126.5 C 240.488,126.664 241.821,129.164 238.5,134C 232.403,134.147 231.07,131.647 234.5,126.5 Z"/></g>
<g><path style="opacity:0.753" fill="#ed3a5f" d="M 194.5,130.5 C 198.718,131.275 200.052,133.609 198.5,137.5C 192.976,139.914 190.809,138.248 192,132.5C 192.995,131.934 193.828,131.267 194.5,130.5 Z"/></g>
<g><path style="opacity:0.724" fill="#ed3a5f" d="M 247.5,130.5 C 253.235,129.821 254.902,132.155 252.5,137.5C 248.934,139.359 246.6,138.359 245.5,134.5C 246.18,133.14 246.847,131.807 247.5,130.5 Z"/></g>
<g><path style="opacity:0.739" fill="#ed3a5f" d="M 260.5,136.5 C 266.488,136.664 267.821,139.164 264.5,144C 258.403,144.147 257.07,141.647 260.5,136.5 Z"/></g>
<g><path style="opacity:0.739" fill="#ed3a5f" d="M 180.5,138.5 C 186.729,138.027 188.395,140.36 185.5,145.5C 179.805,146.446 178.138,144.112 180.5,138.5 Z"/></g>
<g><path style="opacity:0.848" fill="#ed3a5f" d="M 306.5,141.5 C 312.158,140.679 313.825,142.846 311.5,148C 305.741,149.139 304.074,146.972 306.5,141.5 Z"/></g>
<g><path style="opacity:0.725" fill="#ed3a5f" d="M 271.5,144.5 C 277.966,143.799 279.633,146.132 276.5,151.5C 270.805,152.446 269.138,150.112 271.5,144.5 Z"/></g>
<g><path style="opacity:0.711" fill="#ed3a5f" d="M 170.5,147.5 C 176.704,147.314 178.037,149.814 174.5,155C 168.403,155.147 167.07,152.647 170.5,147.5 Z"/></g>
<g><path style="opacity:0.885" fill="#a5a6a5" d="M 232.5,147.5 C 262.405,148.182 279.905,163.182 285,192.5C 286.964,207.719 284.297,222.052 277,235.5C 260.76,255.685 240.26,261.518 215.5,253C 198.717,245.2 189.217,232.033 187,213.5C 184.334,196.137 187.667,180.137 197,165.5C 206.439,154.531 218.272,148.531 232.5,147.5 Z"/></g>
<g><path style="opacity:1" fill="#f7f8f7" d="M 233.5,148.5 C 266.619,150.874 283.619,168.708 284.5,202C 283.889,234.438 267.556,252.271 235.5,255.5C 203.513,252.506 187.513,234.839 187.5,202.5C 187.534,171.152 202.867,153.152 233.5,148.5 Z"/></g>
<g><path style="opacity:0.899" fill="#ed3a5f" d="M 282.5,150.5 C 294.99,148.823 300.157,154.156 298,166.5C 297.215,168.286 296.049,169.786 294.5,171C 281.074,175.238 275.241,170.404 277,156.5C 278.36,153.977 280.193,151.977 282.5,150.5 Z M 284.5,156.5 C 283.105,157.648 283.272,158.648 285,159.5C 285.498,162.482 285.665,165.482 285.5,168.5C 286.833,168.5 288.167,168.5 289.5,168.5C 289.5,164.5 289.5,160.5 289.5,156.5C 287.833,156.5 286.167,156.5 284.5,156.5 Z"/></g>
<g><path style="opacity:0.848" fill="#ed3a5f" d="M 306.5,155.5 C 312.158,154.679 313.825,156.846 311.5,162C 305.741,163.139 304.074,160.972 306.5,155.5 Z"/></g>
<g><path style="opacity:0.751" fill="#ed3a5f" d="M 161.5,158.5 C 167.235,157.821 168.902,160.155 166.5,165.5C 162.904,167.035 160.57,165.869 159.5,162C 160.305,160.887 160.972,159.721 161.5,158.5 Z"/></g>
<g><path style="opacity:0.848" fill="#ed3a5f" d="M 306.5,169.5 C 312.158,168.679 313.825,170.846 311.5,176C 305.741,177.139 304.074,174.972 306.5,169.5 Z"/></g>
<g><path style="opacity:0.711" fill="#ed3a5f" d="M 157.5,171.5 C 162.984,171.481 164.65,173.981 162.5,179C 155.745,179.756 154.078,177.256 157.5,171.5 Z"/></g>
<g><path style="opacity:0.847" fill="#ed3a5f" d="M 306.5,183.5 C 312.158,182.679 313.825,184.846 311.5,190C 305.741,191.139 304.074,188.972 306.5,183.5 Z"/></g>
<g><path style="opacity:0.725" fill="#ed3a5f" d="M 155.5,185.5 C 161.488,185.664 162.821,188.164 159.5,193C 153.412,193.084 152.079,190.584 155.5,185.5 Z"/></g>
<g><path style="opacity:0.848" fill="#ed3a5f" d="M 306.5,197.5 C 312.158,196.679 313.825,198.846 311.5,204C 305.741,205.139 304.074,202.972 306.5,197.5 Z"/></g>
<g><path style="opacity:0.724" fill="#ed3a5f" d="M 154.5,199.5 C 160.641,199.305 162.307,201.805 159.5,207C 153.593,207.746 151.927,205.246 154.5,199.5 Z"/></g>
<g><path style="opacity:0.848" fill="#ed3a5f" d="M 306.5,211.5 C 312.158,210.679 313.825,212.846 311.5,218C 305.741,219.139 304.074,216.972 306.5,211.5 Z"/></g>
<g><path style="opacity:0.739" fill="#ed3a5f" d="M 156.5,213.5 C 160.145,212.68 162.478,214.013 163.5,217.5C 162.165,221.004 159.832,222.004 156.5,220.5C 155.286,218.141 155.286,215.808 156.5,213.5 Z"/></g>
<g><path style="opacity:0.768" fill="#ed3a5f" d="M 290.5,222.5 C 291.93,222.421 293.264,222.754 294.5,223.5C 296.89,229.608 295.056,231.608 289,229.5C 288.185,226.802 288.685,224.468 290.5,222.5 Z"/></g>
<g><path style="opacity:0.847" fill="#ed3a5f" d="M 306.5,225.5 C 312.158,224.679 313.825,226.846 311.5,232C 305.741,233.139 304.074,230.972 306.5,225.5 Z"/></g>
<g><path style="opacity:0.711" fill="#ed3a5f" d="M 161.5,226.5 C 166.75,226.236 168.416,228.569 166.5,233.5C 159.789,234.788 158.122,232.454 161.5,226.5 Z"/></g>
<g><path style="opacity:0.768" fill="#ed3a5f" d="M 284.5,234.5 C 289.342,235.665 290.342,238.165 287.5,242C 282.333,243.5 280.5,241.667 282,236.5C 282.995,235.934 283.828,235.267 284.5,234.5 Z"/></g>
<g><path style="opacity:0.725" fill="#ed3a5f" d="M 168.5,238.5 C 173.881,238.452 175.547,240.952 173.5,246C 167.206,246.578 165.539,244.078 168.5,238.5 Z"/></g>
<g><path style="opacity:0.848" fill="#ed3a5f" d="M 306.5,239.5 C 312.158,238.679 313.825,240.846 311.5,246C 305.741,247.139 304.074,244.972 306.5,239.5 Z"/></g>
<g><path style="opacity:0.753" fill="#ed3a5f" d="M 274.5,246.5 C 280.235,245.821 281.902,248.155 279.5,253.5C 275.904,255.035 273.57,253.869 272.5,250C 273.305,248.887 273.972,247.721 274.5,246.5 Z"/></g>
<g><path style="opacity:0.753" fill="#ed3a5f" d="M 177.5,249.5 C 183.729,249.027 185.395,251.36 182.5,256.5C 176.77,257.41 175.103,255.077 177.5,249.5 Z"/></g>
<g><path style="opacity:0.848" fill="#ed3a5f" d="M 306.5,253.5 C 312.158,252.679 313.825,254.846 311.5,260C 305.741,261.139 304.074,258.972 306.5,253.5 Z"/></g>
<g><path style="opacity:0.723" fill="#ed3a5f" d="M 265.5,256.5 C 271.488,256.664 272.821,259.164 269.5,264C 266.402,265.067 264.402,264.067 263.5,261C 263.519,259.167 264.185,257.667 265.5,256.5 Z"/></g>
<g><path style="opacity:0.836" fill="#ed3a5f" d="M 190.5,257.5 C 194.396,258.78 195.396,261.28 193.5,265C 188.333,266.5 186.5,264.667 188,259.5C 188.995,258.934 189.828,258.267 190.5,257.5 Z"/></g>
<g><path style="opacity:0.753" fill="#ed3a5f" d="M 255.5,264.5 C 260.328,265.641 261.328,268.141 258.5,272C 253.333,273.5 251.5,271.667 253,266.5C 253.995,265.934 254.828,265.267 255.5,264.5 Z"/></g>
<g><path style="opacity:0.753" fill="#ed3a5f" d="M 200.5,265.5 C 206.235,264.821 207.902,267.155 205.5,272.5C 201.904,274.035 199.57,272.869 198.5,269C 199.305,267.887 199.972,266.721 200.5,265.5 Z"/></g>
<g><path style="opacity:0.845" fill="#ed3a5f" d="M 306.5,267.5 C 312.158,266.679 313.825,268.846 311.5,274C 305.741,275.139 304.074,272.972 306.5,267.5 Z"/></g>
<g><path style="opacity:0.712" fill="#ed3a5f" d="M 241.5,270.5 C 247.488,270.664 248.821,273.164 245.5,278C 239.202,278.495 237.868,275.995 241.5,270.5 Z"/></g>
<g><path style="opacity:0.723" fill="#ed3a5f" d="M 213.5,271.5 C 219.704,271.314 221.037,273.814 217.5,279C 211.392,279.078 210.059,276.578 213.5,271.5 Z"/></g>
<g><path style="opacity:0.739" fill="#ed3a5f" d="M 226.5,273.5 C 232.113,272.079 234.28,274.079 233,279.5C 226.423,282.088 224.256,280.088 226.5,273.5 Z"/></g>
<g><path style="opacity:0.844" fill="#ed3a5f" d="M 306.5,281.5 C 312.158,280.679 313.825,282.846 311.5,288C 305.741,289.139 304.074,286.972 306.5,281.5 Z"/></g>
<g><path style="opacity:0.844" fill="#ed3a5f" d="M 306.5,295.5 C 312.158,294.679 313.825,296.846 311.5,302C 305.741,303.139 304.074,300.972 306.5,295.5 Z"/></g>
<g><path style="opacity:0.844" fill="#ed3a5f" d="M 306.5,309.5 C 312.158,308.679 313.825,310.846 311.5,316C 305.741,317.139 304.074,314.972 306.5,309.5 Z"/></g>
<g><path style="opacity:0.705" fill="#ed3a5f" d="M 304.5,322.5 C 309.984,322.481 311.65,324.981 309.5,330C 302.745,330.756 301.078,328.256 304.5,322.5 Z"/></g>
<g><path style="opacity:0.762" fill="#ed3a5f" d="M 176.5,331.5 C 177.93,331.421 179.264,331.754 180.5,332.5C 182.89,338.608 181.056,340.608 175,338.5C 174.185,335.802 174.685,333.468 176.5,331.5 Z"/></g>
<g><path style="opacity:0.706" fill="#ed3a5f" d="M 297.5,335.5 C 304.145,334.977 305.811,337.477 302.5,343C 296.788,343.433 295.122,340.933 297.5,335.5 Z"/></g>
<g><path style="opacity:0.719" fill="#ed3a5f" d="M 185.5,341.5 C 191.62,341.259 193.287,343.759 190.5,349C 184.98,349.37 183.313,346.87 185.5,341.5 Z"/></g>
<g><path style="opacity:0.717" fill="#ed3a5f" d="M 289.5,345.5 C 295.501,345.741 296.834,348.241 293.5,353C 287.202,353.495 285.868,350.995 289.5,345.5 Z"/></g>
<g><path style="opacity:0.759" fill="#ed3a5f" d="M 196.5,349.5 C 202.113,348.079 204.28,350.079 203,355.5C 196.854,357.636 194.687,355.636 196.5,349.5 Z"/></g>
<g><path style="opacity:0.762" fill="#ed3a5f" d="M 278.5,353.5 C 279.93,353.421 281.264,353.754 282.5,354.5C 284.89,360.608 283.056,362.608 277,360.5C 276.185,357.802 276.685,355.468 278.5,353.5 Z"/></g>
<g><path style="opacity:0.717" fill="#ed3a5f" d="M 210.5,354.5 C 215.708,354.369 217.375,356.702 215.5,361.5C 208.789,362.788 207.123,360.455 210.5,354.5 Z"/></g>
<g><path style="opacity:0.733" fill="#ed3a5f" d="M 224.5,358.5 C 225.93,358.421 227.264,358.754 228.5,359.5C 230.89,365.608 229.056,367.608 223,365.5C 221.074,362.675 221.574,360.341 224.5,358.5 Z"/></g>
<g><path style="opacity:0.733" fill="#ed3a5f" d="M 264.5,359.5 C 270.729,359.027 272.395,361.36 269.5,366.5C 263.805,367.446 262.138,365.112 264.5,359.5 Z"/></g>
<g><path style="opacity:0.733" fill="#ed3a5f" d="M 236.5,361.5 C 242.113,360.079 244.28,362.079 243,367.5C 239.414,370.3 236.914,369.467 235.5,365C 235.989,363.862 236.322,362.695 236.5,361.5 Z"/></g>
<g><path style="opacity:0.762" fill="#ed3a5f" d="M 250.5,362.5 C 256.113,361.079 258.28,363.079 257,368.5C 250.854,370.636 248.687,368.636 250.5,362.5 Z"/></g>
</svg>
