<?xml version="1.0" encoding="UTF-8"?>
<!DOCTYPE svg PUBLIC "-//W3C//DTD SVG 1.1//EN" "http://www.w3.org/Graphics/SVG/1.1/DTD/svg11.dtd">
<svg xmlns="http://www.w3.org/2000/svg" version="1.1" width="500px" height="500px" style="shape-rendering:geometricPrecision; text-rendering:geometricPrecision; image-rendering:optimizeQuality; fill-rule:evenodd; clip-rule:evenodd" xmlns:xlink="http://www.w3.org/1999/xlink">
<g><path style="opacity:1" fill="#f7f7f7" d="M -0.5,-0.5 C 166.167,-0.5 332.833,-0.5 499.5,-0.5C 499.5,166.167 499.5,332.833 499.5,499.5C 332.833,499.5 166.167,499.5 -0.5,499.5C -0.5,332.833 -0.5,166.167 -0.5,-0.5 Z M 217.5,224.5 C 217.276,220.438 215.276,217.605 211.5,216C 197.596,214.241 192.762,220.074 197,233.5C 200.735,237.096 205.235,238.429 210.5,237.5C 208.838,241.324 207.671,245.324 207,249.5C 206.5,286.832 206.333,324.165 206.5,361.5C 190.833,361.5 175.167,361.5 159.5,361.5C 159.5,278.833 159.5,196.167 159.5,113.5C 175.167,113.5 190.833,113.5 206.5,113.5C 206.5,144.833 206.5,176.167 206.5,207.5C 207.675,207.719 208.675,207.386 209.5,206.5C 223.282,184.183 243.449,172.85 270,172.5C 309.747,175.2 332.747,196.2 339,235.5C 340.442,277.477 340.942,319.477 340.5,361.5C 324.833,361.5 309.167,361.5 293.5,361.5C 293.667,323.499 293.5,285.499 293,247.5C 289.944,227.444 278.444,215.61 258.5,212C 242.776,209.842 229.11,214.008 217.5,224.5 Z M 181.5,128.5 C 183.167,128.5 184.833,128.5 186.5,128.5C 186.5,132.5 186.5,136.5 186.5,140.5C 185.167,140.5 183.833,140.5 182.5,140.5C 182.665,137.482 182.498,134.482 182,131.5C 180.272,130.648 180.105,129.648 181.5,128.5 Z M 203.5,220.5 C 211.1,220.213 212.767,223.046 208.5,229C 209.448,229.483 210.448,229.649 211.5,229.5C 211.5,230.5 211.5,231.5 211.5,232.5C 208.5,232.5 205.5,232.5 202.5,232.5C 202.351,231.448 202.517,230.448 203,229.5C 205.295,227.92 206.628,225.92 207,223.5C 205.89,225.037 204.39,225.703 202.5,225.5C 202.629,223.784 202.962,222.117 203.5,220.5 Z"/></g>
<g><path style="opacity:0.961" fill="#a6a5a5" d="M 217.5,226.5 C 217.5,225.833 217.5,225.167 217.5,224.5C 229.11,214.008 242.776,209.842 258.5,212C 278.444,215.61 289.944,227.444 293,247.5C 293.5,285.499 293.667,323.499 293.5,361.5C 309.167,361.5 324.833,361.5 340.5,361.5C 340.942,319.477 340.442,277.477 339,235.5C 332.747,196.2 309.747,175.2 270,172.5C 243.449,172.85 223.282,184.183 209.5,206.5C 208.675,207.386 207.675,207.719 206.5,207.5C 206.5,176.167 206.5,144.833 206.5,113.5C 190.833,113.5 175.167,113.5 159.5,113.5C 159.5,196.167 159.5,278.833 159.5,361.5C 175.167,361.5 190.833,361.5 206.5,361.5C 206.333,324.165 206.5,286.832 207,249.5C 207.671,245.324 208.838,241.324 210.5,237.5C 210.5,236.833 210.833,236.5 211.5,236.5C 210.237,241.126 209.071,245.792 208,250.5C 207.5,287.832 207.333,325.165 207.5,362.5C 191.167,362.5 174.833,362.5 158.5,362.5C 158.5,279.167 158.5,195.833 158.5,112.5C 174.833,112.5 191.167,112.5 207.5,112.5C 207.333,143.835 207.5,175.168 208,206.5C 221.883,183.216 242.549,171.549 270,171.5C 303.927,172.271 326.261,188.604 337,220.5C 339.198,228.354 340.531,236.354 341,244.5C 341.5,283.832 341.667,323.165 341.5,362.5C 325.167,362.5 308.833,362.5 292.5,362.5C 292.667,324.499 292.5,286.499 292,248.5C 288.014,225.516 274.348,213.516 251,212.5C 237.746,212.411 226.58,217.078 217.5,226.5 Z M 217.5,224.5 C 217.276,220.438 215.276,217.605 211.5,216C 197.596,214.241 192.762,220.074 197,233.5C 200.735,237.096 205.235,238.429 210.5,237.5C 208.838,241.324 207.671,245.324 207,249.5C 206.5,286.832 206.333,324.165 206.5,361.5C 190.833,361.5 175.167,361.5 159.5,361.5C 159.5,278.833 159.5,196.167 159.5,113.5C 175.167,113.5 190.833,113.5 206.5,113.5C 206.5,144.833 206.5,176.167 206.5,207.5C 207.675,207.719 208.675,207.386 209.5,206.5C 223.282,184.183 243.449,172.85 270,172.5C 309.747,175.2 332.747,196.2 339,235.5C 340.442,277.477 340.942,319.477 340.5,361.5C 324.833,361.5 309.167,361.5 293.5,361.5C 293.667,323.499 293.5,285.499 293,247.5C 289.944,227.444 278.444,215.61 258.5,212C 242.776,209.842 229.11,214.008 217.5,224.5 Z M 181.5,128.5 C 180.105,129.648 180.272,130.648 182,131.5C 182.498,134.482 182.665,137.482 182.5,140.5C 183.833,140.5 185.167,140.5 186.5,140.5C 186.5,136.5 186.5,132.5 186.5,128.5C 184.833,128.5 183.167,128.5 181.5,128.5 Z M 203.5,220.5 C 202.962,222.117 202.629,223.784 202.5,225.5C 204.39,225.703 205.89,225.037 207,223.5C 206.628,225.92 205.295,227.92 203,229.5C 202.517,230.448 202.351,231.448 202.5,232.5C 205.5,232.5 208.5,232.5 211.5,232.5C 211.5,231.5 211.5,230.5 211.5,229.5C 210.448,229.649 209.448,229.483 208.5,229C 212.767,223.046 211.1,220.213 203.5,220.5 Z"/></g>
<g><path style="opacity:0.899" fill="#ed3a5f" d="M 179.5,122.5 C 191.99,120.823 197.157,126.156 195,138.5C 194.215,140.286 193.049,141.786 191.5,143C 178.074,147.238 172.241,142.404 174,128.5C 175.36,125.977 177.193,123.977 179.5,122.5 Z M 181.5,128.5 C 180.105,129.648 180.272,130.648 182,131.5C 182.498,134.482 182.665,137.482 182.5,140.5C 183.833,140.5 185.167,140.5 186.5,140.5C 186.5,136.5 186.5,132.5 186.5,128.5C 184.833,128.5 183.167,128.5 181.5,128.5 Z"/></g>
<g><path style="opacity:0.851" fill="#ed3a5f" d="M 180.5,149.5 C 186.158,148.679 187.825,150.846 185.5,156C 179.741,157.139 178.074,154.972 180.5,149.5 Z"/></g>
<g><path style="opacity:0.851" fill="#ed3a5f" d="M 180.5,163.5 C 186.158,162.679 187.825,164.846 185.5,170C 179.741,171.139 178.074,168.972 180.5,163.5 Z"/></g>
<g><path style="opacity:0.851" fill="#ed3a5f" d="M 180.5,177.5 C 186.158,176.679 187.825,178.846 185.5,184C 179.741,185.139 178.074,182.972 180.5,177.5 Z"/></g>
<g><path style="opacity:0.766" fill="#ed3a5f" d="M 271.5,189.5 C 276.914,188.565 278.914,190.565 277.5,195.5C 271.129,197.796 269.129,195.796 271.5,189.5 Z"/></g>
<g><path style="opacity:0.709" fill="#ed3a5f" d="M 257.5,190.5 C 264.004,190.138 265.671,192.638 262.5,198C 256.785,198.401 255.119,195.901 257.5,190.5 Z"/></g>
<g><path style="opacity:0.851" fill="#ed3a5f" d="M 180.5,191.5 C 186.158,190.679 187.825,192.846 185.5,198C 179.741,199.139 178.074,196.972 180.5,191.5 Z"/></g>
<g><path style="opacity:0.721" fill="#ed3a5f" d="M 285.5,191.5 C 290.881,191.452 292.547,193.952 290.5,199C 284.206,199.578 282.539,197.078 285.5,191.5 Z"/></g>
<g><path style="opacity:0.737" fill="#ed3a5f" d="M 244.5,194.5 C 250.704,194.314 252.037,196.814 248.5,202C 242.812,201.79 241.479,199.29 244.5,194.5 Z"/></g>
<g><path style="opacity:0.737" fill="#ed3a5f" d="M 298.5,198.5 C 303.262,199.092 304.596,201.592 302.5,206C 295.17,206.486 293.837,203.986 298.5,198.5 Z"/></g>
<g><path style="opacity:0.832" fill="#ed3a5f" d="M 231.5,200.5 C 237.317,200.03 238.984,202.196 236.5,207C 230.741,208.139 229.074,205.972 231.5,200.5 Z"/></g>
<g><path style="opacity:0.85" fill="#ed3a5f" d="M 180.5,205.5 C 186.158,204.679 187.825,206.846 185.5,212C 179.741,213.139 178.074,210.972 180.5,205.5 Z"/></g>
<g><path style="opacity:0.75" fill="#ed3a5f" d="M 219.5,207.5 C 225.235,206.821 226.902,209.155 224.5,214.5C 220.904,216.035 218.57,214.869 217.5,211C 218.305,209.887 218.972,208.721 219.5,207.5 Z"/></g>
<g><path style="opacity:0.737" fill="#ed3a5f" d="M 306.5,209.5 C 312.488,209.664 313.821,212.164 310.5,217C 304.403,217.147 303.07,214.647 306.5,209.5 Z"/></g>
<g><path style="opacity:0.909" fill="#ed3a60" d="M 217.5,224.5 C 217.5,225.167 217.5,225.833 217.5,226.5C 217.023,230.793 215.023,234.127 211.5,236.5C 210.833,236.5 210.5,236.833 210.5,237.5C 205.235,238.429 200.735,237.096 197,233.5C 192.762,220.074 197.596,214.241 211.5,216C 215.276,217.605 217.276,220.438 217.5,224.5 Z M 203.5,220.5 C 202.962,222.117 202.629,223.784 202.5,225.5C 204.39,225.703 205.89,225.037 207,223.5C 206.628,225.92 205.295,227.92 203,229.5C 202.517,230.448 202.351,231.448 202.5,232.5C 205.5,232.5 208.5,232.5 211.5,232.5C 211.5,231.5 211.5,230.5 211.5,229.5C 210.448,229.649 209.448,229.483 208.5,229C 212.767,223.046 211.1,220.213 203.5,220.5 Z"/></g>
<g><path style="opacity:0.85" fill="#ed3a5f" d="M 180.5,219.5 C 186.158,218.679 187.825,220.846 185.5,226C 179.741,227.139 178.074,224.972 180.5,219.5 Z"/></g>
<g><path style="opacity:0.709" fill="#ed3a5f" d="M 311.5,222.5 C 318.004,222.138 319.671,224.638 316.5,230C 310.785,230.401 309.119,227.901 311.5,222.5 Z"/></g>
<g><path style="opacity:0.85" fill="#ed3a5f" d="M 180.5,233.5 C 186.158,232.679 187.825,234.846 185.5,240C 179.741,241.139 178.074,238.972 180.5,233.5 Z"/></g>
<g><path style="opacity:0.766" fill="#ed3a5f" d="M 317.5,235.5 C 321.396,236.78 322.396,239.28 320.5,243C 315.296,244.292 313.296,242.459 314.5,237.5C 315.602,236.824 316.602,236.158 317.5,235.5 Z"/></g>
<g><path style="opacity:0.851" fill="#ed3a5f" d="M 180.5,247.5 C 186.158,246.679 187.825,248.846 185.5,254C 179.741,255.139 178.074,252.972 180.5,247.5 Z"/></g>
<g><path style="opacity:0.767" fill="#ed3a5f" d="M 317.5,249.5 C 318.93,249.421 320.264,249.754 321.5,250.5C 323.89,256.608 322.056,258.608 316,256.5C 315.185,253.802 315.685,251.468 317.5,249.5 Z"/></g>
<g><path style="opacity:0.85" fill="#ed3a5f" d="M 180.5,261.5 C 186.158,260.679 187.825,262.846 185.5,268C 179.741,269.139 178.074,266.972 180.5,261.5 Z"/></g>
<g><path style="opacity:0.798" fill="#ed3a5f" d="M 317.5,263.5 C 322.262,264.092 323.596,266.592 321.5,271C 315.202,271.495 313.868,268.995 317.5,263.5 Z"/></g>
<g><path style="opacity:0.85" fill="#ed3a5f" d="M 180.5,275.5 C 186.158,274.679 187.825,276.846 185.5,282C 179.741,283.139 178.074,280.972 180.5,275.5 Z"/></g>
<g><path style="opacity:0.797" fill="#ed3a5f" d="M 317.5,277.5 C 322.262,278.092 323.596,280.592 321.5,285C 315.202,285.495 313.868,282.995 317.5,277.5 Z"/></g>
<g><path style="opacity:0.85" fill="#ed3a5f" d="M 180.5,289.5 C 186.158,288.679 187.825,290.846 185.5,296C 179.741,297.139 178.074,294.972 180.5,289.5 Z"/></g>
<g><path style="opacity:0.834" fill="#ed3a5f" d="M 318.5,291.5 C 322.396,292.78 323.396,295.28 321.5,299C 316.333,300.5 314.5,298.667 316,293.5C 316.995,292.934 317.828,292.267 318.5,291.5 Z"/></g>
<g><path style="opacity:0.851" fill="#ed3a5f" d="M 180.5,303.5 C 186.158,302.679 187.825,304.846 185.5,310C 179.741,311.139 178.074,308.972 180.5,303.5 Z"/></g>
<g><path style="opacity:0.833" fill="#ed3a5f" d="M 318.5,305.5 C 322.396,306.78 323.396,309.28 321.5,313C 316.333,314.5 314.5,312.667 316,307.5C 316.995,306.934 317.828,306.267 318.5,305.5 Z"/></g>
<g><path style="opacity:0.85" fill="#ed3a5f" d="M 180.5,317.5 C 186.158,316.679 187.825,318.846 185.5,324C 179.741,325.139 178.074,322.972 180.5,317.5 Z"/></g>
<g><path style="opacity:0.85" fill="#ed3a5f" d="M 316.5,320.5 C 322.158,319.679 323.825,321.846 321.5,327C 315.741,328.139 314.074,325.972 316.5,320.5 Z"/></g>
<g><path style="opacity:0.85" fill="#ed3a5f" d="M 180.5,331.5 C 186.158,330.679 187.825,332.846 185.5,338C 179.741,339.139 178.074,336.972 180.5,331.5 Z"/></g>
<g><path style="opacity:0.852" fill="#ed3a5f" d="M 316.5,334.5 C 322.158,333.679 323.825,335.846 321.5,341C 315.741,342.139 314.074,339.972 316.5,334.5 Z"/></g>
<g><path style="opacity:0.85" fill="#ed3a5f" d="M 180.5,345.5 C 186.158,344.679 187.825,346.846 185.5,352C 179.741,353.139 178.074,350.972 180.5,345.5 Z"/></g>
</svg>
