<?xml version="1.0" encoding="UTF-8"?>
<!DOCTYPE svg PUBLIC "-//W3C//DTD SVG 1.1//EN" "http://www.w3.org/Graphics/SVG/1.1/DTD/svg11.dtd">
<svg xmlns="http://www.w3.org/2000/svg" version="1.1" width="500px" height="500px" style="shape-rendering:geometricPrecision; text-rendering:geometricPrecision; image-rendering:optimizeQuality; fill-rule:evenodd; clip-rule:evenodd" xmlns:xlink="http://www.w3.org/1999/xlink">
<g><path style="opacity:1" fill="#f7f7f7" d="M -0.5,-0.5 C 166.167,-0.5 332.833,-0.5 499.5,-0.5C 499.5,166.167 499.5,332.833 499.5,499.5C 332.833,499.5 166.167,499.5 -0.5,499.5C -0.5,332.833 -0.5,166.167 -0.5,-0.5 Z M 242.5,104.5 C 252.756,102.963 262.089,105.13 270.5,111C 278.874,119.914 280.707,130.081 276,141.5C 269.779,150.612 261.112,155.279 250,155.5C 233.107,154.77 223.274,146.104 220.5,129.5C 222.232,116.108 229.566,107.775 242.5,104.5 Z M 247.5,125.5 C 255.1,125.213 256.767,128.046 252.5,134C 253.448,134.483 254.448,134.649 255.5,134.5C 255.5,135.5 255.5,136.5 255.5,137.5C 252.5,137.5 249.5,137.5 246.5,137.5C 246.351,136.448 246.517,135.448 247,134.5C 249.295,132.92 250.628,130.92 251,128.5C 249.89,130.037 248.39,130.703 246.5,130.5C 246.629,128.784 246.962,127.117 247.5,125.5 Z M 226.5,183.5 C 242.167,183.5 257.833,183.5 273.5,183.5C 273.5,245.5 273.5,307.5 273.5,369.5C 257.833,369.5 242.167,369.5 226.5,369.5C 226.5,307.5 226.5,245.5 226.5,183.5 Z M 246.5,199.5 C 248.167,199.5 249.833,199.5 251.5,199.5C 251.5,203.5 251.5,207.5 251.5,211.5C 250.167,211.5 248.833,211.5 247.5,211.5C 247.665,208.482 247.498,205.482 247,202.5C 245.272,201.648 245.105,200.648 246.5,199.5 Z"/></g>
<g><path style="opacity:0.889" fill="#a5a6a5" d="M 241.5,103.5 C 252.405,101.884 262.405,104.051 271.5,110C 278.85,117.392 281.35,126.225 279,136.5C 277.474,143.362 273.641,148.528 267.5,152C 255.034,157.854 242.7,157.52 230.5,151C 216.396,137.28 216.063,123.28 229.5,109C 233.284,106.471 237.284,104.638 241.5,103.5 Z M 242.5,104.5 C 229.566,107.775 222.232,116.108 220.5,129.5C 223.274,146.104 233.107,154.77 250,155.5C 261.112,155.279 269.779,150.612 276,141.5C 280.707,130.081 278.874,119.914 270.5,111C 262.089,105.13 252.756,102.963 242.5,104.5 Z M 247.5,125.5 C 246.962,127.117 246.629,128.784 246.5,130.5C 248.39,130.703 249.89,130.037 251,128.5C 250.628,130.92 249.295,132.92 247,134.5C 246.517,135.448 246.351,136.448 246.5,137.5C 249.5,137.5 252.5,137.5 255.5,137.5C 255.5,136.5 255.5,135.5 255.5,134.5C 254.448,134.649 253.448,134.483 252.5,134C 256.767,128.046 255.1,125.213 247.5,125.5 Z"/></g>
<g><path style="opacity:0.89" fill="#ed3a5f" d="M 245.5,120.5 C 257.99,118.823 263.157,124.156 261,136.5C 260.215,138.286 259.049,139.786 257.5,141C 244.074,145.238 238.241,140.404 240,126.5C 241.36,123.977 243.193,121.977 245.5,120.5 Z M 247.5,125.5 C 246.962,127.117 246.629,128.784 246.5,130.5C 248.39,130.703 249.89,130.037 251,128.5C 250.628,130.92 249.295,132.92 247,134.5C 246.517,135.448 246.351,136.448 246.5,137.5C 249.5,137.5 252.5,137.5 255.5,137.5C 255.5,136.5 255.5,135.5 255.5,134.5C 254.448,134.649 253.448,134.483 252.5,134C 256.767,128.046 255.1,125.213 247.5,125.5 Z"/></g>
<g><path style="opacity:1" fill="#a5a6a5" d="M 225.5,182.5 C 241.833,182.5 258.167,182.5 274.5,182.5C 274.5,245.167 274.5,307.833 274.5,370.5C 258.167,370.5 241.833,370.5 225.5,370.5C 225.5,307.833 225.5,245.167 225.5,182.5 Z M 226.5,183.5 C 226.5,245.5 226.5,307.5 226.5,369.5C 242.167,369.5 257.833,369.5 273.5,369.5C 273.5,307.5 273.5,245.5 273.5,183.5C 257.833,183.5 242.167,183.5 226.5,183.5 Z M 246.5,199.5 C 245.105,200.648 245.272,201.648 247,202.5C 247.498,205.482 247.665,208.482 247.5,211.5C 248.833,211.5 250.167,211.5 251.5,211.5C 251.5,207.5 251.5,203.5 251.5,199.5C 249.833,199.5 248.167,199.5 246.5,199.5 Z"/></g>
<g><path style="opacity:0.899" fill="#ed3a5f" d="M 244.5,193.5 C 256.99,191.823 262.157,197.156 260,209.5C 259.215,211.286 258.049,212.786 256.5,214C 243.074,218.238 237.241,213.404 239,199.5C 240.36,196.977 242.193,194.977 244.5,193.5 Z M 246.5,199.5 C 245.105,200.648 245.272,201.648 247,202.5C 247.498,205.482 247.665,208.482 247.5,211.5C 248.833,211.5 250.167,211.5 251.5,211.5C 251.5,207.5 251.5,203.5 251.5,199.5C 249.833,199.5 248.167,199.5 246.5,199.5 Z"/></g>
<g><path style="opacity:0.853" fill="#ed3a5f" d="M 248.5,218.5 C 254.158,217.679 255.825,219.846 253.5,225C 247.741,226.139 246.074,223.972 248.5,218.5 Z"/></g>
<g><path style="opacity:0.835" fill="#ed3a5f" d="M 248.5,232.5 C 253.675,231.507 255.509,233.507 254,238.5C 252,241.167 250,241.167 248,238.5C 247.322,236.402 247.489,234.402 248.5,232.5 Z"/></g>
<g><path style="opacity:0.798" fill="#ed3a5f" d="M 248.5,246.5 C 254.704,246.314 256.037,248.814 252.5,254C 247.632,253.711 246.299,251.211 248.5,246.5 Z"/></g>
<g><path style="opacity:0.768" fill="#ed3a5f" d="M 248.5,260.5 C 254.235,259.821 255.902,262.155 253.5,267.5C 251.833,268.833 250.167,268.833 248.5,267.5C 247.286,265.141 247.286,262.808 248.5,260.5 Z"/></g>
<g><path style="opacity:0.766" fill="#ed3a5f" d="M 248.5,274.5 C 254.235,273.821 255.902,276.155 253.5,281.5C 251.833,282.833 250.167,282.833 248.5,281.5C 247.286,279.141 247.286,276.808 248.5,274.5 Z"/></g>
<g><path style="opacity:0.768" fill="#ed3a5f" d="M 248.5,288.5 C 254.235,287.821 255.902,290.155 253.5,295.5C 251.833,296.833 250.167,296.833 248.5,295.5C 247.286,293.141 247.286,290.808 248.5,288.5 Z"/></g>
<g><path style="opacity:0.768" fill="#ed3a5f" d="M 248.5,302.5 C 254.235,301.821 255.902,304.155 253.5,309.5C 251.833,310.833 250.167,310.833 248.5,309.5C 247.286,307.141 247.286,304.808 248.5,302.5 Z"/></g>
<g><path style="opacity:0.766" fill="#ed3a5f" d="M 248.5,316.5 C 254.235,315.821 255.902,318.155 253.5,323.5C 251.833,324.833 250.167,324.833 248.5,323.5C 247.286,321.141 247.286,318.808 248.5,316.5 Z"/></g>
<g><path style="opacity:0.737" fill="#ed3a5f" d="M 248.5,330.5 C 254.313,330.062 255.98,332.562 253.5,338C 247.593,338.746 245.927,336.246 248.5,330.5 Z"/></g>
<g><path style="opacity:0.738" fill="#ed3a5f" d="M 248.5,344.5 C 254.313,344.062 255.98,346.562 253.5,352C 247.593,352.746 245.927,350.246 248.5,344.5 Z"/></g>
</svg>
