<?xml version="1.0" encoding="UTF-8"?>
<!DOCTYPE svg PUBLIC "-//W3C//DTD SVG 1.1//EN" "http://www.w3.org/Graphics/SVG/1.1/DTD/svg11.dtd">
<svg xmlns="http://www.w3.org/2000/svg" version="1.1" width="500px" height="500px" style="shape-rendering:geometricPrecision; text-rendering:geometricPrecision; image-rendering:optimizeQuality; fill-rule:evenodd; clip-rule:evenodd" xmlns:xlink="http://www.w3.org/1999/xlink">
<g><path style="opacity:1" fill="#f7f7f7" d="M -0.5,-0.5 C 166.167,-0.5 332.833,-0.5 499.5,-0.5C 499.5,166.167 499.5,332.833 499.5,499.5C 332.833,499.5 166.167,499.5 -0.5,499.5C -0.5,332.833 -0.5,166.167 -0.5,-0.5 Z M 178.5,104.5 C 188.756,102.963 198.089,105.13 206.5,111C 214.874,119.914 216.707,130.081 212,141.5C 205.779,150.612 197.112,155.279 186,155.5C 169.107,154.77 159.274,146.104 156.5,129.5C 158.232,116.108 165.566,107.775 178.5,104.5 Z M 183.5,121.5 C 191.1,121.213 192.767,124.046 188.5,130C 189.448,130.483 190.448,130.649 191.5,130.5C 191.5,131.5 191.5,132.5 191.5,133.5C 188.5,133.5 185.5,133.5 182.5,133.5C 182.351,132.448 182.517,131.448 183,130.5C 185.295,128.92 186.628,126.92 187,124.5C 185.89,126.037 184.39,126.703 182.5,126.5C 182.629,124.784 182.962,123.117 183.5,121.5 Z M 321.5,181.5 C 355.391,177.515 383.891,187.848 407,212.5C 423.027,234.28 428.861,258.613 424.5,285.5C 378.833,285.5 333.167,285.5 287.5,285.5C 288.368,318.204 305.034,334.371 337.5,334C 356.657,332.66 368.657,322.827 373.5,304.5C 390.17,304.333 406.837,304.5 423.5,305C 412.271,344.214 386.271,366.214 345.5,371C 312.236,374.473 284.403,363.973 262,339.5C 248.25,320.863 241.417,299.863 241.5,276.5C 241.425,247.199 251.758,222.365 272.5,202C 287.028,190.733 303.361,183.899 321.5,181.5 Z M 162.5,183.5 C 178.167,183.5 193.833,183.5 209.5,183.5C 209.5,245.5 209.5,307.5 209.5,369.5C 193.833,369.5 178.167,369.5 162.5,369.5C 162.5,307.5 162.5,245.5 162.5,183.5 Z M 183.5,198.5 C 185.167,198.5 186.833,198.5 188.5,198.5C 188.5,202.5 188.5,206.5 188.5,210.5C 187.167,210.5 185.833,210.5 184.5,210.5C 184.665,207.482 184.498,204.482 184,201.5C 182.272,200.648 182.105,199.648 183.5,198.5 Z M 399.5,243.5 C 400.833,243.5 402.167,243.5 403.5,243.5C 403.11,246.466 403.777,249.132 405.5,251.5C 404.147,252.524 403.48,253.857 403.5,255.5C 402.5,255.5 401.5,255.5 400.5,255.5C 400.5,254.5 400.5,253.5 400.5,252.5C 398.833,252.5 397.167,252.5 395.5,252.5C 396.038,249.095 397.371,246.095 399.5,243.5 Z M 257.5,267.5 C 262.028,267.841 263.361,270.008 261.5,274C 263.922,275.888 263.922,277.888 261.5,280C 255.539,281.061 253.873,279.061 256.5,274C 253.794,271.301 254.127,269.134 257.5,267.5 Z"/></g>
<g><path style="opacity:0.889" fill="#a5a6a5" d="M 177.5,103.5 C 188.405,101.884 198.405,104.051 207.5,110C 214.85,117.392 217.35,126.225 215,136.5C 213.474,143.362 209.641,148.528 203.5,152C 191.034,157.854 178.7,157.52 166.5,151C 152.396,137.28 152.063,123.28 165.5,109C 169.284,106.471 173.284,104.638 177.5,103.5 Z M 178.5,104.5 C 165.566,107.775 158.232,116.108 156.5,129.5C 159.274,146.104 169.107,154.77 186,155.5C 197.112,155.279 205.779,150.612 212,141.5C 216.707,130.081 214.874,119.914 206.5,111C 198.089,105.13 188.756,102.963 178.5,104.5 Z M 183.5,121.5 C 182.962,123.117 182.629,124.784 182.5,126.5C 184.39,126.703 185.89,126.037 187,124.5C 186.628,126.92 185.295,128.92 183,130.5C 182.517,131.448 182.351,132.448 182.5,133.5C 185.5,133.5 188.5,133.5 191.5,133.5C 191.5,132.5 191.5,131.5 191.5,130.5C 190.448,130.649 189.448,130.483 188.5,130C 192.767,124.046 191.1,121.213 183.5,121.5 Z"/></g>
<g><path style="opacity:0.89" fill="#ed3a5f" d="M 181.5,116.5 C 193.99,114.823 199.157,120.156 197,132.5C 196.215,134.286 195.049,135.786 193.5,137C 180.074,141.238 174.241,136.404 176,122.5C 177.36,119.977 179.193,117.977 181.5,116.5 Z M 183.5,121.5 C 182.962,123.117 182.629,124.784 182.5,126.5C 184.39,126.703 185.89,126.037 187,124.5C 186.628,126.92 185.295,128.92 183,130.5C 182.517,131.448 182.351,132.448 182.5,133.5C 185.5,133.5 188.5,133.5 191.5,133.5C 191.5,132.5 191.5,131.5 191.5,130.5C 190.448,130.649 189.448,130.483 188.5,130C 192.767,124.046 191.1,121.213 183.5,121.5 Z"/></g>
<g><path style="opacity:0.905" fill="#a5a6a5" d="M 320.5,180.5 C 355.109,176.092 384.276,186.426 408,211.5C 424.353,233.92 430.187,258.92 425.5,286.5C 379.833,286.5 334.167,286.5 288.5,286.5C 289.551,315.382 304.385,331.048 333,333.5C 346.791,333.27 358.124,327.937 367,317.5C 369.917,313.249 371.75,308.582 372.5,303.5C 389.833,303.5 407.167,303.5 424.5,303.5C 416.874,339.293 395.207,361.46 359.5,370C 331.574,375.964 305.24,371.964 280.5,358C 253.206,337.91 239.873,310.743 240.5,276.5C 240.215,246.83 250.548,221.663 271.5,201C 286.028,189.733 302.361,182.899 320.5,180.5 Z M 321.5,181.5 C 303.361,183.899 287.028,190.733 272.5,202C 251.758,222.365 241.425,247.199 241.5,276.5C 241.417,299.863 248.25,320.863 262,339.5C 284.403,363.973 312.236,374.473 345.5,371C 386.271,366.214 412.271,344.214 423.5,305C 406.837,304.5 390.17,304.333 373.5,304.5C 368.657,322.827 356.657,332.66 337.5,334C 305.034,334.371 288.368,318.204 287.5,285.5C 333.167,285.5 378.833,285.5 424.5,285.5C 428.861,258.613 423.027,234.28 407,212.5C 383.891,187.848 355.391,177.515 321.5,181.5 Z M 399.5,243.5 C 397.371,246.095 396.038,249.095 395.5,252.5C 397.167,252.5 398.833,252.5 400.5,252.5C 400.5,253.5 400.5,254.5 400.5,255.5C 401.5,255.5 402.5,255.5 403.5,255.5C 403.48,253.857 404.147,252.524 405.5,251.5C 403.777,249.132 403.11,246.466 403.5,243.5C 402.167,243.5 400.833,243.5 399.5,243.5 Z M 257.5,267.5 C 254.127,269.134 253.794,271.301 256.5,274C 253.873,279.061 255.539,281.061 261.5,280C 263.922,277.888 263.922,275.888 261.5,274C 263.361,270.008 262.028,267.841 257.5,267.5 Z"/></g>
<g><path style="opacity:1" fill="#a5a6a5" d="M 161.5,182.5 C 177.833,182.5 194.167,182.5 210.5,182.5C 210.5,245.167 210.5,307.833 210.5,370.5C 194.167,370.5 177.833,370.5 161.5,370.5C 161.5,307.833 161.5,245.167 161.5,182.5 Z M 162.5,183.5 C 162.5,245.5 162.5,307.5 162.5,369.5C 178.167,369.5 193.833,369.5 209.5,369.5C 209.5,307.5 209.5,245.5 209.5,183.5C 193.833,183.5 178.167,183.5 162.5,183.5 Z M 183.5,198.5 C 182.105,199.648 182.272,200.648 184,201.5C 184.498,204.482 184.665,207.482 184.5,210.5C 185.833,210.5 187.167,210.5 188.5,210.5C 188.5,206.5 188.5,202.5 188.5,198.5C 186.833,198.5 185.167,198.5 183.5,198.5 Z"/></g>
<g><path style="opacity:0.899" fill="#ed3a5f" d="M 181.5,192.5 C 193.99,190.823 199.157,196.156 197,208.5C 196.215,210.286 195.049,211.786 193.5,213C 180.074,217.238 174.241,212.404 176,198.5C 177.36,195.977 179.193,193.977 181.5,192.5 Z M 183.5,198.5 C 182.105,199.648 182.272,200.648 184,201.5C 184.498,204.482 184.665,207.482 184.5,210.5C 185.833,210.5 187.167,210.5 188.5,210.5C 188.5,206.5 188.5,202.5 188.5,198.5C 186.833,198.5 185.167,198.5 183.5,198.5 Z"/></g>
<g><path style="opacity:0.736" fill="#ed3a5f" d="M 326.5,199.5 C 332.113,198.079 334.28,200.079 333,205.5C 326.423,208.088 324.256,206.088 326.5,199.5 Z"/></g>
<g><path style="opacity:0.72" fill="#ed3a5f" d="M 313.5,200.5 C 319.362,200.662 320.695,203.162 317.5,208C 311.403,208.147 310.07,205.647 313.5,200.5 Z"/></g>
<g><path style="opacity:0.709" fill="#ed3a5f" d="M 340.5,200.5 C 345.672,199.565 347.839,201.565 347,206.5C 340.684,209.356 338.518,207.356 340.5,200.5 Z"/></g>
<g><path style="opacity:0.751" fill="#ed3a5f" d="M 355.5,203.5 C 356.93,203.421 358.264,203.754 359.5,204.5C 361.914,210.024 360.248,212.191 354.5,211C 352.315,208.322 352.649,205.822 355.5,203.5 Z"/></g>
<g><path style="opacity:0.723" fill="#ed3a5f" d="M 299.5,204.5 C 305.951,204.092 307.618,206.592 304.5,212C 298.785,212.401 297.119,209.901 299.5,204.5 Z"/></g>
<g><path style="opacity:0.751" fill="#ed3a5f" d="M 367.5,209.5 C 372.675,208.507 374.509,210.507 373,215.5C 369.414,218.3 366.914,217.467 365.5,213C 365.978,211.697 366.645,210.531 367.5,209.5 Z"/></g>
<g><path style="opacity:0.709" fill="#ed3a5f" d="M 287.5,210.5 C 292.75,210.236 294.416,212.569 292.5,217.5C 285.789,218.788 284.122,216.454 287.5,210.5 Z"/></g>
<g><path style="opacity:0.751" fill="#ed3a5f" d="M 379.5,216.5 C 385.704,216.314 387.037,218.814 383.5,224C 377.834,223.835 376.501,221.335 379.5,216.5 Z"/></g>
<g><path style="opacity:0.92" fill="#a5a6a5" d="M 331.5,217.5 C 362.958,217.624 378.624,233.291 378.5,264.5C 348.167,264.5 317.833,264.5 287.5,264.5C 289.204,236.469 303.87,220.802 331.5,217.5 Z"/></g>
<g><path style="opacity:0.722" fill="#ed3a5f" d="M 276.5,218.5 C 282.488,218.664 283.821,221.164 280.5,226C 277.402,227.067 275.402,226.067 274.5,223C 274.519,221.167 275.185,219.667 276.5,218.5 Z"/></g>
<g><path style="opacity:1" fill="#f7f8f7" d="M 332.5,218.5 C 361.952,219.285 376.952,234.285 377.5,263.5C 347.826,263.833 318.159,263.5 288.5,262.5C 291.6,236.067 306.267,221.4 332.5,218.5 Z"/></g>
<g><path style="opacity:0.853" fill="#ed3a5f" d="M 184.5,223.5 C 190.158,222.679 191.825,224.846 189.5,230C 183.741,231.139 182.074,228.972 184.5,223.5 Z"/></g>
<g><path style="opacity:0.765" fill="#ed3a5f" d="M 391.5,224.5 C 392.93,224.421 394.264,224.754 395.5,225.5C 397.89,231.608 396.056,233.608 390,231.5C 389.185,228.802 389.685,226.468 391.5,224.5 Z"/></g>
<g><path style="opacity:0.734" fill="#ed3a5f" d="M 268.5,228.5 C 272.708,229.253 274.041,231.586 272.5,235.5C 266.976,237.914 264.809,236.248 266,230.5C 266.995,229.934 267.828,229.267 268.5,228.5 Z"/></g>
<g><path style="opacity:0.835" fill="#ed3a5f" d="M 184.5,237.5 C 189.675,236.507 191.509,238.507 190,243.5C 188,246.167 186,246.167 184,243.5C 183.322,241.402 183.489,239.402 184.5,237.5 Z"/></g>
<g><path style="opacity:0.893" fill="#ed3a5f" d="M 395.5,238.5 C 407.99,236.823 413.157,242.156 411,254.5C 410.215,256.286 409.049,257.786 407.5,259C 394.074,263.238 388.241,258.404 390,244.5C 391.36,241.977 393.193,239.977 395.5,238.5 Z M 399.5,243.5 C 397.371,246.095 396.038,249.095 395.5,252.5C 397.167,252.5 398.833,252.5 400.5,252.5C 400.5,253.5 400.5,254.5 400.5,255.5C 401.5,255.5 402.5,255.5 403.5,255.5C 403.48,253.857 404.147,252.524 405.5,251.5C 403.777,249.132 403.11,246.466 403.5,243.5C 402.167,243.5 400.833,243.5 399.5,243.5 Z"/></g>
<g><path style="opacity:0.832" fill="#ed3a5f" d="M 263.5,241.5 C 267.396,242.78 268.396,245.28 266.5,249C 261.333,250.5 259.5,248.667 261,243.5C 261.995,242.934 262.828,242.267 263.5,241.5 Z"/></g>
<g><path style="opacity:0.798" fill="#ed3a5f" d="M 184.5,251.5 C 190.704,251.314 192.037,253.814 188.5,259C 183.632,258.711 182.299,256.211 184.5,251.5 Z"/></g>
<g><path style="opacity:0.888" fill="#ed3a5f" d="M 254.5,262.5 C 266.99,260.823 272.157,266.156 270,278.5C 269.215,280.286 268.049,281.786 266.5,283C 253.074,287.238 247.241,282.404 249,268.5C 250.36,265.977 252.193,263.977 254.5,262.5 Z M 257.5,267.5 C 254.127,269.134 253.794,271.301 256.5,274C 253.873,279.061 255.539,281.061 261.5,280C 263.922,277.888 263.922,275.888 261.5,274C 263.361,270.008 262.028,267.841 257.5,267.5 Z"/></g>
<g><path style="opacity:0.768" fill="#ed3a5f" d="M 184.5,265.5 C 190.235,264.821 191.902,267.155 189.5,272.5C 187.833,273.833 186.167,273.833 184.5,272.5C 183.286,270.141 183.286,267.808 184.5,265.5 Z"/></g>
<g><path style="opacity:0.854" fill="#ed3a5f" d="M 274.5,272.5 C 280.158,271.679 281.825,273.846 279.5,279C 273.741,280.139 272.074,277.972 274.5,272.5 Z"/></g>
<g><path style="opacity:0.836" fill="#ed3a5f" d="M 288.5,272.5 C 294.317,272.03 295.984,274.196 293.5,279C 287.741,280.139 286.074,277.972 288.5,272.5 Z"/></g>
<g><path style="opacity:0.785" fill="#ed3a5f" d="M 302.5,272.5 C 307.709,271.705 309.709,273.705 308.5,278.5C 302.129,280.796 300.129,278.796 302.5,272.5 Z"/></g>
<g><path style="opacity:0.769" fill="#ed3a5f" d="M 316.5,272.5 C 321.914,271.565 323.914,273.565 322.5,278.5C 316.129,280.796 314.129,278.796 316.5,272.5 Z"/></g>
<g><path style="opacity:0.768" fill="#ed3a5f" d="M 330.5,272.5 C 335.914,271.565 337.914,273.565 336.5,278.5C 330.129,280.796 328.129,278.796 330.5,272.5 Z"/></g>
<g><path style="opacity:0.767" fill="#ed3a5f" d="M 344.5,272.5 C 349.914,271.565 351.914,273.565 350.5,278.5C 344.129,280.796 342.129,278.796 344.5,272.5 Z"/></g>
<g><path style="opacity:0.767" fill="#ed3a5f" d="M 358.5,272.5 C 363.914,271.565 365.914,273.565 364.5,278.5C 358.129,280.796 356.129,278.796 358.5,272.5 Z"/></g>
<g><path style="opacity:0.767" fill="#ed3a5f" d="M 372.5,272.5 C 377.914,271.565 379.914,273.565 378.5,278.5C 372.129,280.796 370.129,278.796 372.5,272.5 Z"/></g>
<g><path style="opacity:0.738" fill="#ed3a5f" d="M 386.5,272.5 C 392.113,271.079 394.28,273.079 393,278.5C 386.423,281.088 384.256,279.088 386.5,272.5 Z"/></g>
<g><path style="opacity:0.74" fill="#ed3a5f" d="M 400.5,272.5 C 406.113,271.079 408.28,273.079 407,278.5C 400.423,281.088 398.256,279.088 400.5,272.5 Z"/></g>
<g><path style="opacity:1" fill="#ed3a5f" d="M 257.5,276.5 C 258.077,275.227 258.743,275.227 259.5,276.5C 259.03,277.463 258.363,277.463 257.5,276.5 Z"/></g>
<g><path style="opacity:0.766" fill="#ed3a5f" d="M 184.5,279.5 C 190.235,278.821 191.902,281.155 189.5,286.5C 187.833,287.833 186.167,287.833 184.5,286.5C 183.286,284.141 183.286,281.808 184.5,279.5 Z"/></g>
<g><path style="opacity:0.855" fill="#ed3a5f" d="M 258.5,290.5 C 264.158,289.679 265.825,291.846 263.5,297C 257.741,298.139 256.074,295.972 258.5,290.5 Z"/></g>
<g><path style="opacity:0.768" fill="#ed3a5f" d="M 184.5,293.5 C 190.235,292.821 191.902,295.155 189.5,300.5C 187.833,301.833 186.167,301.833 184.5,300.5C 183.286,298.141 183.286,295.808 184.5,293.5 Z"/></g>
<g><path style="opacity:0.725" fill="#ed3a5f" d="M 262.5,303.5 C 269.004,303.138 270.671,305.638 267.5,311C 261.788,311.433 260.122,308.933 262.5,303.5 Z"/></g>
<g><path style="opacity:0.768" fill="#ed3a5f" d="M 184.5,307.5 C 190.235,306.821 191.902,309.155 189.5,314.5C 187.833,315.833 186.167,315.833 184.5,314.5C 183.286,312.141 183.286,309.808 184.5,307.5 Z"/></g>
<g><path style="opacity:0.768" fill="#ed3a5f" d="M 395.5,311.5 C 401.235,310.821 402.902,313.155 400.5,318.5C 398.833,319.833 397.167,319.833 395.5,318.5C 394.286,316.141 394.286,313.808 395.5,311.5 Z"/></g>
<g><path style="opacity:0.738" fill="#ed3a5f" d="M 270.5,315.5 C 275.999,316 277.332,318.5 274.5,323C 270.798,324.393 268.798,323.226 268.5,319.5C 268.803,317.886 269.47,316.552 270.5,315.5 Z"/></g>
<g><path style="opacity:0.766" fill="#ed3a5f" d="M 184.5,321.5 C 190.235,320.821 191.902,323.155 189.5,328.5C 187.833,329.833 186.167,329.833 184.5,328.5C 183.286,326.141 183.286,323.808 184.5,321.5 Z"/></g>
<g><path style="opacity:0.834" fill="#ed3a5f" d="M 389.5,324.5 C 395.317,324.03 396.984,326.196 394.5,331C 388.741,332.139 387.074,329.972 389.5,324.5 Z"/></g>
<g><path style="opacity:0.724" fill="#ed3a5f" d="M 278.5,326.5 C 283.881,326.452 285.547,328.952 283.5,334C 277.206,334.578 275.539,332.078 278.5,326.5 Z"/></g>
<g><path style="opacity:0.737" fill="#ed3a5f" d="M 184.5,335.5 C 190.313,335.062 191.98,337.562 189.5,343C 183.593,343.746 181.927,341.246 184.5,335.5 Z"/></g>
<g><path style="opacity:0.711" fill="#ed3a5f" d="M 289.5,335.5 C 294.984,335.481 296.65,337.981 294.5,343C 287.745,343.756 286.078,341.256 289.5,335.5 Z"/></g>
<g><path style="opacity:0.709" fill="#ed3a5f" d="M 382.5,335.5 C 386.06,334.891 388.06,336.391 388.5,340C 386.927,343.452 384.427,344.286 381,342.5C 380.185,339.802 380.685,337.468 382.5,335.5 Z"/></g>
<g><path style="opacity:0.767" fill="#ed3a5f" d="M 301.5,342.5 C 307.235,341.821 308.902,344.155 306.5,349.5C 304.833,350.833 303.167,350.833 301.5,349.5C 300.286,347.141 300.286,344.808 301.5,342.5 Z"/></g>
<g><path style="opacity:0.767" fill="#ed3a5f" d="M 372.5,342.5 C 376.396,343.78 377.396,346.28 375.5,350C 370.296,351.292 368.296,349.459 369.5,344.5C 370.602,343.824 371.602,343.158 372.5,342.5 Z"/></g>
<g><path style="opacity:0.71" fill="#ed3a5f" d="M 314.5,346.5 C 319.672,345.565 321.839,347.565 321,352.5C 314.684,355.356 312.518,353.356 314.5,346.5 Z"/></g>
<g><path style="opacity:0.768" fill="#ed3a5f" d="M 356.5,346.5 C 361.914,345.565 363.914,347.565 362.5,352.5C 356.129,354.796 354.129,352.796 356.5,346.5 Z"/></g>
<g><path style="opacity:0.739" fill="#ed3a5f" d="M 343.5,347.5 C 349.02,348.044 350.354,350.544 347.5,355C 341.202,355.495 339.868,352.995 343.5,347.5 Z"/></g>
<g><path style="opacity:0.768" fill="#ed3a5f" d="M 328.5,348.5 C 333.914,347.565 335.914,349.565 334.5,354.5C 328.129,356.796 326.129,354.796 328.5,348.5 Z"/></g>
<g><path style="opacity:0.738" fill="#ed3a5f" d="M 184.5,349.5 C 190.313,349.062 191.98,351.562 189.5,357C 183.593,357.746 181.927,355.246 184.5,349.5 Z"/></g>
</svg>
