<?xml version="1.0" encoding="UTF-8"?>
<!DOCTYPE svg PUBLIC "-//W3C//DTD SVG 1.1//EN" "http://www.w3.org/Graphics/SVG/1.1/DTD/svg11.dtd">
<svg xmlns="http://www.w3.org/2000/svg" version="1.1" width="500px" height="500px" style="shape-rendering:geometricPrecision; text-rendering:geometricPrecision; image-rendering:optimizeQuality; fill-rule:evenodd; clip-rule:evenodd" xmlns:xlink="http://www.w3.org/1999/xlink">
<g><path style="opacity:1" fill="#f7f7f7" d="M -0.5,-0.5 C 166.167,-0.5 332.833,-0.5 499.5,-0.5C 499.5,166.167 499.5,332.833 499.5,499.5C 332.833,499.5 166.167,499.5 -0.5,499.5C -0.5,332.833 -0.5,166.167 -0.5,-0.5 Z M 241.5,85.5 C 256.892,82.9512 268.392,88.2845 276,101.5C 279.919,122.933 270.919,134.599 249,136.5C 232.107,135.77 222.274,127.104 219.5,110.5C 221.232,97.1079 228.566,88.7746 241.5,85.5 Z M 246.5,103.5 C 254.1,103.213 255.767,106.046 251.5,112C 252.448,112.483 253.448,112.649 254.5,112.5C 254.5,113.5 254.5,114.5 254.5,115.5C 251.5,115.5 248.5,115.5 245.5,115.5C 245.351,114.448 245.517,113.448 246,112.5C 248.295,110.92 249.628,108.92 250,106.5C 248.89,108.037 247.39,108.703 245.5,108.5C 245.629,106.784 245.962,105.117 246.5,103.5 Z M 225.5,164.5 C 241.167,164.5 256.833,164.5 272.5,164.5C 272.667,239.167 272.5,313.834 272,388.5C 269.206,416.961 253.706,433.461 225.5,438C 214.505,438.5 203.505,438.667 192.5,438.5C 192.5,425.167 192.5,411.833 192.5,398.5C 200.571,398.863 208.571,398.363 216.5,397C 221.336,395.181 224.169,391.681 225,386.5C 225.5,312.501 225.667,238.501 225.5,164.5 Z M 247.5,180.5 C 249.167,180.5 250.833,180.5 252.5,180.5C 252.5,184.5 252.5,188.5 252.5,192.5C 251.167,192.5 249.833,192.5 248.5,192.5C 248.665,189.482 248.498,186.482 248,183.5C 246.272,182.648 246.105,181.648 247.5,180.5 Z"/></g>
<g><path style="opacity:0.889" fill="#a5a6a5" d="M 240.5,84.5 C 254.517,81.8633 266.017,85.8633 275,96.5C 283.327,120.834 274.66,134.501 249,137.5C 224.945,135.467 215.612,122.8 221,99.5C 225.28,91.4611 231.78,86.4611 240.5,84.5 Z M 241.5,85.5 C 228.566,88.7746 221.232,97.1079 219.5,110.5C 222.274,127.104 232.107,135.77 249,136.5C 270.919,134.599 279.919,122.933 276,101.5C 268.392,88.2845 256.892,82.9512 241.5,85.5 Z M 246.5,103.5 C 245.962,105.117 245.629,106.784 245.5,108.5C 247.39,108.703 248.89,108.037 250,106.5C 249.628,108.92 248.295,110.92 246,112.5C 245.517,113.448 245.351,114.448 245.5,115.5C 248.5,115.5 251.5,115.5 254.5,115.5C 254.5,114.5 254.5,113.5 254.5,112.5C 253.448,112.649 252.448,112.483 251.5,112C 255.767,106.046 254.1,103.213 246.5,103.5 Z"/></g>
<g><path style="opacity:0.89" fill="#ed3a5f" d="M 244.5,98.5 C 256.99,96.8227 262.157,102.156 260,114.5C 259.215,116.286 258.049,117.786 256.5,119C 243.074,123.238 237.241,118.404 239,104.5C 240.36,101.977 242.193,99.9774 244.5,98.5 Z M 246.5,103.5 C 245.962,105.117 245.629,106.784 245.5,108.5C 247.39,108.703 248.89,108.037 250,106.5C 249.628,108.92 248.295,110.92 246,112.5C 245.517,113.448 245.351,114.448 245.5,115.5C 248.5,115.5 251.5,115.5 254.5,115.5C 254.5,114.5 254.5,113.5 254.5,112.5C 253.448,112.649 252.448,112.483 251.5,112C 255.767,106.046 254.1,103.213 246.5,103.5 Z"/></g>
<g><path style="opacity:0.977" fill="#a5a6a5" d="M 224.5,163.5 C 240.833,163.5 257.167,163.5 273.5,163.5C 273.667,238.834 273.5,314.167 273,389.5C 270.206,417.961 254.706,434.461 226.5,439C 214.838,439.5 203.171,439.667 191.5,439.5C 191.5,425.5 191.5,411.5 191.5,397.5C 199.571,397.863 207.571,397.363 215.5,396C 220.336,394.181 223.169,390.681 224,385.5C 224.5,311.501 224.667,237.501 224.5,163.5 Z M 225.5,164.5 C 225.667,238.501 225.5,312.501 225,386.5C 224.169,391.681 221.336,395.181 216.5,397C 208.571,398.363 200.571,398.863 192.5,398.5C 192.5,411.833 192.5,425.167 192.5,438.5C 203.505,438.667 214.505,438.5 225.5,438C 253.706,433.461 269.206,416.961 272,388.5C 272.5,313.834 272.667,239.167 272.5,164.5C 256.833,164.5 241.167,164.5 225.5,164.5 Z M 247.5,180.5 C 246.105,181.648 246.272,182.648 248,183.5C 248.498,186.482 248.665,189.482 248.5,192.5C 249.833,192.5 251.167,192.5 252.5,192.5C 252.5,188.5 252.5,184.5 252.5,180.5C 250.833,180.5 249.167,180.5 247.5,180.5 Z"/></g>
<g><path style="opacity:0.899" fill="#ed3a5f" d="M 245.5,174.5 C 257.99,172.823 263.157,178.156 261,190.5C 260.215,192.286 259.049,193.786 257.5,195C 244.074,199.238 238.241,194.404 240,180.5C 241.36,177.977 243.193,175.977 245.5,174.5 Z M 247.5,180.5 C 246.105,181.648 246.272,182.648 248,183.5C 248.498,186.482 248.665,189.482 248.5,192.5C 249.833,192.5 251.167,192.5 252.5,192.5C 252.5,188.5 252.5,184.5 252.5,180.5C 250.833,180.5 249.167,180.5 247.5,180.5 Z"/></g>
<g><path style="opacity:0.742" fill="#ed3a5f" d="M 247.5,199.5 C 253.113,198.079 255.28,200.079 254,205.5C 247.423,208.088 245.256,206.088 247.5,199.5 Z"/></g>
<g><path style="opacity:0.739" fill="#ed3a5f" d="M 247.5,213.5 C 253.113,212.079 255.28,214.079 254,219.5C 247.423,222.088 245.256,220.088 247.5,213.5 Z"/></g>
<g><path style="opacity:0.715" fill="#ed3a5f" d="M 249.5,226.5 C 254.266,227.158 255.6,229.658 253.5,234C 247.906,235.913 245.739,234.08 247,228.5C 247.995,227.934 248.828,227.267 249.5,226.5 Z"/></g>
<g><path style="opacity:0.715" fill="#ed3a5f" d="M 249.5,240.5 C 254.266,241.158 255.6,243.658 253.5,248C 247.906,249.913 245.739,248.08 247,242.5C 247.995,241.934 248.828,241.267 249.5,240.5 Z"/></g>
<g><path style="opacity:0.712" fill="#ed3a5f" d="M 249.5,254.5 C 254.266,255.158 255.6,257.658 253.5,262C 247.906,263.913 245.739,262.08 247,256.5C 247.995,255.934 248.828,255.267 249.5,254.5 Z"/></g>
<g><path style="opacity:0.715" fill="#ed3a5f" d="M 249.5,268.5 C 254.266,269.158 255.6,271.658 253.5,276C 247.906,277.913 245.739,276.08 247,270.5C 247.995,269.934 248.828,269.267 249.5,268.5 Z"/></g>
<g><path style="opacity:0.729" fill="#ed3a5f" d="M 249.5,282.5 C 254.266,283.158 255.6,285.658 253.5,290C 248.338,291.424 246.171,289.59 247,284.5C 247.995,283.934 248.828,283.267 249.5,282.5 Z"/></g>
<g><path style="opacity:0.727" fill="#ed3a5f" d="M 249.5,296.5 C 254.266,297.158 255.6,299.658 253.5,304C 248.338,305.424 246.171,303.59 247,298.5C 247.995,297.934 248.828,297.267 249.5,296.5 Z"/></g>
<g><path style="opacity:0.714" fill="#ed3a5f" d="M 249.5,310.5 C 254.262,311.092 255.596,313.592 253.5,318C 248.338,319.424 246.171,317.59 247,312.5C 247.995,311.934 248.828,311.267 249.5,310.5 Z"/></g>
<g><path style="opacity:0.713" fill="#ed3a5f" d="M 248.5,324.5 C 253.984,324.481 255.65,326.981 253.5,332C 246.745,332.756 245.078,330.256 248.5,324.5 Z"/></g>
<g><path style="opacity:0.702" fill="#ed3a5f" d="M 248.5,338.5 C 253.984,338.481 255.65,340.981 253.5,346C 246.683,346.861 245.016,344.361 248.5,338.5 Z"/></g>
<g><path style="opacity:0.702" fill="#ed3a5f" d="M 248.5,352.5 C 253.984,352.481 255.65,354.981 253.5,360C 246.683,360.861 245.016,358.361 248.5,352.5 Z"/></g>
<g><path style="opacity:0.741" fill="#ed3a5f" d="M 249.5,366.5 C 250.93,366.421 252.264,366.754 253.5,367.5C 255.89,373.608 254.056,375.608 248,373.5C 246.074,370.675 246.574,368.341 249.5,366.5 Z"/></g>
<g><path style="opacity:0.727" fill="#ed3a5f" d="M 248.5,380.5 C 253.942,380.886 255.275,383.386 252.5,388C 248.798,389.393 246.798,388.226 246.5,384.5C 246.803,382.886 247.47,381.552 248.5,380.5 Z"/></g>
<g><path style="opacity:0.714" fill="#ed3a5f" d="M 244.5,393.5 C 249.262,394.092 250.596,396.592 248.5,401C 243.338,402.424 241.171,400.59 242,395.5C 242.995,394.934 243.828,394.267 244.5,393.5 Z"/></g>
<g><path style="opacity:0.714" fill="#ed3a5f" d="M 234.5,404.5 C 239.881,404.452 241.547,406.952 239.5,412C 232.798,412.802 231.132,410.302 234.5,404.5 Z"/></g>
<g><path style="opacity:0.714" fill="#ed3a5f" d="M 222.5,411.5 C 227.984,411.481 229.65,413.981 227.5,419C 220.745,419.756 219.078,417.256 222.5,411.5 Z"/></g>
<g><path style="opacity:0.838" fill="#ed3a5f" d="M 208.5,415.5 C 214.317,415.03 215.984,417.196 213.5,422C 207.741,423.139 206.074,420.972 208.5,415.5 Z"/></g>
</svg>
