<?xml version="1.0" encoding="UTF-8"?>
<!DOCTYPE svg PUBLIC "-//W3C//DTD SVG 1.1//EN" "http://www.w3.org/Graphics/SVG/1.1/DTD/svg11.dtd">
<svg xmlns="http://www.w3.org/2000/svg" version="1.1" width="500px" height="500px" style="shape-rendering:geometricPrecision; text-rendering:geometricPrecision; image-rendering:optimizeQuality; fill-rule:evenodd; clip-rule:evenodd" xmlns:xlink="http://www.w3.org/1999/xlink">
<g><path style="opacity:1" fill="#f7f7f7" d="M -0.5,-0.5 C 166.167,-0.5 332.833,-0.5 499.5,-0.5C 499.5,166.167 499.5,332.833 499.5,499.5C 332.833,499.5 166.167,499.5 -0.5,499.5C -0.5,332.833 -0.5,166.167 -0.5,-0.5 Z M 224.5,102.5 C 240.167,102.5 255.833,102.5 271.5,102.5C 271.5,185.167 271.5,267.833 271.5,350.5C 255.833,350.5 240.167,350.5 224.5,350.5C 224.5,267.833 224.5,185.167 224.5,102.5 Z M 246.5,114.5 C 248.167,114.5 249.833,114.5 251.5,114.5C 251.5,118.5 251.5,122.5 251.5,126.5C 250.167,126.5 248.833,126.5 247.5,126.5C 247.665,123.482 247.498,120.482 247,117.5C 245.272,116.648 245.105,115.648 246.5,114.5 Z"/></g>
<g><path style="opacity:1" fill="#a5a6a5" d="M 223.5,101.5 C 239.833,101.5 256.167,101.5 272.5,101.5C 272.5,184.833 272.5,268.167 272.5,351.5C 256.167,351.5 239.833,351.5 223.5,351.5C 223.5,268.167 223.5,184.833 223.5,101.5 Z M 224.5,102.5 C 224.5,185.167 224.5,267.833 224.5,350.5C 240.167,350.5 255.833,350.5 271.5,350.5C 271.5,267.833 271.5,185.167 271.5,102.5C 255.833,102.5 240.167,102.5 224.5,102.5 Z M 246.5,114.5 C 245.105,115.648 245.272,116.648 247,117.5C 247.498,120.482 247.665,123.482 247.5,126.5C 248.833,126.5 250.167,126.5 251.5,126.5C 251.5,122.5 251.5,118.5 251.5,114.5C 249.833,114.5 248.167,114.5 246.5,114.5 Z"/></g>
<g><path style="opacity:0.899" fill="#ed3a5f" d="M 244.5,108.5 C 256.99,106.823 262.157,112.156 260,124.5C 259.215,126.286 258.049,127.786 256.5,129C 243.074,133.238 237.241,128.404 239,114.5C 240.36,111.977 242.193,109.977 244.5,108.5 Z M 246.5,114.5 C 245.105,115.648 245.272,116.648 247,117.5C 247.498,120.482 247.665,123.482 247.5,126.5C 248.833,126.5 250.167,126.5 251.5,126.5C 251.5,122.5 251.5,118.5 251.5,114.5C 249.833,114.5 248.167,114.5 246.5,114.5 Z"/></g>
<g><path style="opacity:0.852" fill="#ed3a5f" d="M 248.5,137.5 C 254.158,136.679 255.825,138.846 253.5,144C 247.741,145.139 246.074,142.972 248.5,137.5 Z"/></g>
<g><path style="opacity:0.832" fill="#ed3a5f" d="M 248.5,151.5 C 253.675,150.507 255.509,152.507 254,157.5C 252,160.167 250,160.167 248,157.5C 247.322,155.402 247.489,153.402 248.5,151.5 Z"/></g>
<g><path style="opacity:0.799" fill="#ed3a5f" d="M 248.5,165.5 C 254.704,165.314 256.037,167.814 252.5,173C 247.632,172.711 246.299,170.211 248.5,165.5 Z"/></g>
<g><path style="opacity:0.797" fill="#ed3a5f" d="M 248.5,179.5 C 254.704,179.314 256.037,181.814 252.5,187C 247.632,186.711 246.299,184.211 248.5,179.5 Z"/></g>
<g><path style="opacity:0.767" fill="#ed3a5f" d="M 248.5,193.5 C 254.235,192.821 255.902,195.155 253.5,200.5C 251.833,201.833 250.167,201.833 248.5,200.5C 247.286,198.141 247.286,195.808 248.5,193.5 Z"/></g>
<g><path style="opacity:0.767" fill="#ed3a5f" d="M 248.5,207.5 C 254.235,206.821 255.902,209.155 253.5,214.5C 251.833,215.833 250.167,215.833 248.5,214.5C 247.286,212.141 247.286,209.808 248.5,207.5 Z"/></g>
<g><path style="opacity:0.765" fill="#ed3a5f" d="M 248.5,221.5 C 254.235,220.821 255.902,223.155 253.5,228.5C 251.833,229.833 250.167,229.833 248.5,228.5C 247.286,226.141 247.286,223.808 248.5,221.5 Z"/></g>
<g><path style="opacity:0.767" fill="#ed3a5f" d="M 248.5,235.5 C 254.235,234.821 255.902,237.155 253.5,242.5C 251.833,243.833 250.167,243.833 248.5,242.5C 247.286,240.141 247.286,237.808 248.5,235.5 Z"/></g>
<g><path style="opacity:0.765" fill="#ed3a5f" d="M 248.5,249.5 C 254.235,248.821 255.902,251.155 253.5,256.5C 251.833,257.833 250.167,257.833 248.5,256.5C 247.286,254.141 247.286,251.808 248.5,249.5 Z"/></g>
<g><path style="opacity:0.768" fill="#ed3a5f" d="M 248.5,263.5 C 254.235,262.821 255.902,265.155 253.5,270.5C 251.833,271.833 250.167,271.833 248.5,270.5C 247.286,268.141 247.286,265.808 248.5,263.5 Z"/></g>
<g><path style="opacity:0.765" fill="#ed3a5f" d="M 248.5,277.5 C 254.235,276.821 255.902,279.155 253.5,284.5C 251.833,285.833 250.167,285.833 248.5,284.5C 247.286,282.141 247.286,279.808 248.5,277.5 Z"/></g>
<g><path style="opacity:0.738" fill="#ed3a5f" d="M 248.5,291.5 C 254.313,291.062 255.98,293.562 253.5,299C 247.593,299.746 245.927,297.246 248.5,291.5 Z"/></g>
<g><path style="opacity:0.736" fill="#ed3a5f" d="M 248.5,305.5 C 254.313,305.062 255.98,307.562 253.5,313C 247.593,313.746 245.927,311.246 248.5,305.5 Z"/></g>
<g><path style="opacity:0.738" fill="#ed3a5f" d="M 248.5,319.5 C 254.313,319.062 255.98,321.562 253.5,327C 247.593,327.746 245.927,325.246 248.5,319.5 Z"/></g>
<g><path style="opacity:0.736" fill="#ed3a5f" d="M 248.5,333.5 C 254.313,333.062 255.98,335.562 253.5,341C 247.593,341.746 245.927,339.246 248.5,333.5 Z"/></g>
</svg>
