<?xml version="1.0" encoding="UTF-8"?>
<!DOCTYPE svg PUBLIC "-//W3C//DTD SVG 1.1//EN" "http://www.w3.org/Graphics/SVG/1.1/DTD/svg11.dtd">
<svg xmlns="http://www.w3.org/2000/svg" version="1.1" width="500px" height="500px" style="shape-rendering:geometricPrecision; text-rendering:geometricPrecision; image-rendering:optimizeQuality; fill-rule:evenodd; clip-rule:evenodd" xmlns:xlink="http://www.w3.org/1999/xlink">
<g><path style="opacity:1" fill="#f7f7f7" d="M -0.5,-0.5 C 166.167,-0.5 332.833,-0.5 499.5,-0.5C 499.5,166.167 499.5,332.833 499.5,499.5C 332.833,499.5 166.167,499.5 -0.5,499.5C -0.5,332.833 -0.5,166.167 -0.5,-0.5 Z M 255.5,194.5 C 253.833,206.833 259.167,212.167 271.5,210.5C 266.589,218.067 263.755,226.4 263,235.5C 262.5,271.498 262.333,307.498 262.5,343.5C 247.167,343.5 231.833,343.5 216.5,343.5C 216.667,307.832 216.5,272.165 216,236.5C 212.476,204.34 194.643,191.173 162.5,197C 156.486,198.175 151.152,200.675 146.5,204.5C 146.5,201.167 146.5,197.833 146.5,194.5C 143.909,189.871 139.909,187.871 134.5,188.5C 142.477,172.045 155.477,161.545 173.5,157C 210.382,149.43 237.715,161.93 255.5,194.5 Z M 277.5,204.5 C 279.69,191.515 274.357,186.182 261.5,188.5C 270.388,173.793 283.055,163.627 299.5,158C 323.011,151.748 345.011,155.082 365.5,168C 381.847,181.187 391.014,198.353 393,219.5C 394.415,260.815 394.915,302.149 394.5,343.5C 378.833,343.5 363.167,343.5 347.5,343.5C 347.667,306.165 347.5,268.832 347,231.5C 344.713,211.215 333.546,199.381 313.5,196C 300.342,194.244 288.342,197.077 277.5,204.5 Z M 131.5,188.5 C 124.895,191.841 122.729,197.174 125,204.5C 126.167,207 128,208.833 130.5,210C 133.817,210.498 137.15,210.665 140.5,210.5C 135.808,217.07 132.975,224.404 132,232.5C 131.5,269.498 131.333,306.498 131.5,343.5C 115.833,343.5 100.167,343.5 84.5,343.5C 84.5,281.5 84.5,219.5 84.5,157.5C 100.167,157.5 115.833,157.5 131.5,157.5C 131.5,167.833 131.5,178.167 131.5,188.5 Z M 101.5,172.5 C 103.167,172.5 104.833,172.5 106.5,172.5C 106.5,176.5 106.5,180.5 106.5,184.5C 105.167,184.5 103.833,184.5 102.5,184.5C 102.665,181.482 102.498,178.482 102,175.5C 100.272,174.648 100.105,173.648 101.5,172.5 Z M 132.5,193.5 C 140.1,193.213 141.767,196.046 137.5,202C 138.448,202.483 139.448,202.649 140.5,202.5C 140.5,203.5 140.5,204.5 140.5,205.5C 137.5,205.5 134.5,205.5 131.5,205.5C 131.351,204.448 131.517,203.448 132,202.5C 134.295,200.92 135.628,198.92 136,196.5C 134.89,198.037 133.39,198.703 131.5,198.5C 131.629,196.784 131.962,195.117 132.5,193.5 Z M 264.5,201.5 C 264.5,200.5 264.5,199.5 264.5,198.5C 261.795,198.62 261.128,197.62 262.5,195.5C 264.833,194.167 267.167,194.167 269.5,195.5C 269.378,198.447 269.544,201.447 270,204.5C 268.192,206.396 266.025,206.896 263.5,206C 261.963,204.89 261.297,203.39 261.5,201.5C 262.5,201.5 263.5,201.5 264.5,201.5 Z"/></g>
<g><path style="opacity:0.941" fill="#a6a5a5" d="M 256.5,193.5 C 256.5,194.167 256.167,194.5 255.5,194.5C 237.715,161.93 210.382,149.43 173.5,157C 155.477,161.545 142.477,172.045 134.5,188.5C 133.5,188.5 132.5,188.5 131.5,188.5C 131.5,178.167 131.5,167.833 131.5,157.5C 115.833,157.5 100.167,157.5 84.5,157.5C 84.5,219.5 84.5,281.5 84.5,343.5C 100.167,343.5 115.833,343.5 131.5,343.5C 131.333,306.498 131.5,269.498 132,232.5C 132.975,224.404 135.808,217.07 140.5,210.5C 141.167,210.5 141.5,210.167 141.5,209.5C 142.833,207.5 144.5,205.833 146.5,204.5C 151.152,200.675 156.486,198.175 162.5,197C 194.643,191.173 212.476,204.34 216,236.5C 216.5,272.165 216.667,307.832 216.5,343.5C 231.833,343.5 247.167,343.5 262.5,343.5C 262.333,307.498 262.5,271.498 263,235.5C 263.755,226.4 266.589,218.067 271.5,210.5C 272.167,210.5 272.5,210.167 272.5,209.5C 274.167,208.5 275.5,207.167 276.5,205.5C 277.167,205.5 277.5,205.167 277.5,204.5C 288.342,197.077 300.342,194.244 313.5,196C 333.546,199.381 344.713,211.215 347,231.5C 347.5,268.832 347.667,306.165 347.5,343.5C 363.167,343.5 378.833,343.5 394.5,343.5C 394.915,302.149 394.415,260.815 393,219.5C 391.014,198.353 381.847,181.187 365.5,168C 345.011,155.082 323.011,151.748 299.5,158C 283.055,163.627 270.388,173.793 261.5,188.5C 260.833,188.5 260.5,188.833 260.5,189.5C 259.728,190.694 258.728,191.694 257.5,192.5C 271.032,167.466 292.199,154.466 321,153.5C 363.568,154.737 387.902,176.404 394,218.5C 395.417,260.482 395.917,302.482 395.5,344.5C 379.167,344.5 362.833,344.5 346.5,344.5C 346.667,307.165 346.5,269.832 346,232.5C 342.846,209.513 329.68,197.513 306.5,196.5C 281.204,197.962 267.037,211.295 264,236.5C 263.5,272.498 263.333,308.498 263.5,344.5C 247.5,344.5 231.5,344.5 215.5,344.5C 215.667,308.832 215.5,273.165 215,237.5C 213.963,211.718 200.63,198.052 175,196.5C 153.818,197.027 140.152,207.361 134,227.5C 132.536,266.466 132.036,305.466 132.5,344.5C 116.167,344.5 99.8333,344.5 83.5,344.5C 83.5,281.833 83.5,219.167 83.5,156.5C 99.8333,156.5 116.167,156.5 132.5,156.5C 132.334,166.839 132.5,177.172 133,187.5C 141.373,171.141 154.539,160.641 172.5,156C 199.142,149.789 222.642,155.622 243,173.5C 248.266,179.714 252.766,186.381 256.5,193.5 Z M 255.5,194.5 C 253.833,206.833 259.167,212.167 271.5,210.5C 266.589,218.067 263.755,226.4 263,235.5C 262.5,271.498 262.333,307.498 262.5,343.5C 247.167,343.5 231.833,343.5 216.5,343.5C 216.667,307.832 216.5,272.165 216,236.5C 212.476,204.34 194.643,191.173 162.5,197C 156.486,198.175 151.152,200.675 146.5,204.5C 146.5,201.167 146.5,197.833 146.5,194.5C 143.909,189.871 139.909,187.871 134.5,188.5C 142.477,172.045 155.477,161.545 173.5,157C 210.382,149.43 237.715,161.93 255.5,194.5 Z M 277.5,204.5 C 279.69,191.515 274.357,186.182 261.5,188.5C 270.388,173.793 283.055,163.627 299.5,158C 323.011,151.748 345.011,155.082 365.5,168C 381.847,181.187 391.014,198.353 393,219.5C 394.415,260.815 394.915,302.149 394.5,343.5C 378.833,343.5 363.167,343.5 347.5,343.5C 347.667,306.165 347.5,268.832 347,231.5C 344.713,211.215 333.546,199.381 313.5,196C 300.342,194.244 288.342,197.077 277.5,204.5 Z M 131.5,188.5 C 124.895,191.841 122.729,197.174 125,204.5C 126.167,207 128,208.833 130.5,210C 133.817,210.498 137.15,210.665 140.5,210.5C 135.808,217.07 132.975,224.404 132,232.5C 131.5,269.498 131.333,306.498 131.5,343.5C 115.833,343.5 100.167,343.5 84.5,343.5C 84.5,281.5 84.5,219.5 84.5,157.5C 100.167,157.5 115.833,157.5 131.5,157.5C 131.5,167.833 131.5,178.167 131.5,188.5 Z M 101.5,172.5 C 100.105,173.648 100.272,174.648 102,175.5C 102.498,178.482 102.665,181.482 102.5,184.5C 103.833,184.5 105.167,184.5 106.5,184.5C 106.5,180.5 106.5,176.5 106.5,172.5C 104.833,172.5 103.167,172.5 101.5,172.5 Z M 132.5,193.5 C 131.962,195.117 131.629,196.784 131.5,198.5C 133.39,198.703 134.89,198.037 136,196.5C 135.628,198.92 134.295,200.92 132,202.5C 131.517,203.448 131.351,204.448 131.5,205.5C 134.5,205.5 137.5,205.5 140.5,205.5C 140.5,204.5 140.5,203.5 140.5,202.5C 139.448,202.649 138.448,202.483 137.5,202C 141.767,196.046 140.1,193.213 132.5,193.5 Z M 264.5,201.5 C 263.5,201.5 262.5,201.5 261.5,201.5C 261.297,203.39 261.963,204.89 263.5,206C 266.025,206.896 268.192,206.396 270,204.5C 269.544,201.447 269.378,198.447 269.5,195.5C 267.167,194.167 264.833,194.167 262.5,195.5C 261.128,197.62 261.795,198.62 264.5,198.5C 264.5,199.5 264.5,200.5 264.5,201.5 Z"/></g>
<g><path style="opacity:0.899" fill="#ed3a5f" d="M 99.5,166.5 C 111.99,164.823 117.157,170.156 115,182.5C 114.215,184.286 113.049,185.786 111.5,187C 98.0744,191.238 92.2411,186.404 94,172.5C 95.3597,169.977 97.193,167.977 99.5,166.5 Z M 101.5,172.5 C 100.105,173.648 100.272,174.648 102,175.5C 102.498,178.482 102.665,181.482 102.5,184.5C 103.833,184.5 105.167,184.5 106.5,184.5C 106.5,180.5 106.5,176.5 106.5,172.5C 104.833,172.5 103.167,172.5 101.5,172.5 Z"/></g>
<g><path style="opacity:0.766" fill="#ed3a5f" d="M 320.5,173.5 C 325.914,172.565 327.914,174.565 326.5,179.5C 320.129,181.796 318.129,179.796 320.5,173.5 Z"/></g>
<g><path style="opacity:0.709" fill="#ed3a5f" d="M 307.5,174.5 C 313.488,174.664 314.821,177.164 311.5,182C 305.202,182.495 303.868,179.995 307.5,174.5 Z"/></g>
<g><path style="opacity:0.736" fill="#ed3a5f" d="M 334.5,174.5 C 340.729,174.027 342.395,176.36 339.5,181.5C 333.805,182.446 332.138,180.112 334.5,174.5 Z"/></g>
<g><path style="opacity:0.765" fill="#ed3a5f" d="M 187.5,176.5 C 192.914,175.565 194.914,177.565 193.5,182.5C 187.129,184.796 185.129,182.796 187.5,176.5 Z"/></g>
<g><path style="opacity:0.709" fill="#ed3a5f" d="M 201.5,176.5 C 207.951,176.092 209.618,178.592 206.5,184C 200.98,184.37 199.313,181.87 201.5,176.5 Z"/></g>
<g><path style="opacity:0.709" fill="#ed3a5f" d="M 173.5,178.5 C 178.672,177.565 180.839,179.565 180,184.5C 173.684,187.356 171.518,185.356 173.5,178.5 Z"/></g>
<g><path style="opacity:0.709" fill="#ed3a5f" d="M 293.5,178.5 C 299.313,178.062 300.98,180.562 298.5,186C 292.206,186.578 290.539,184.078 293.5,178.5 Z"/></g>
<g><path style="opacity:0.751" fill="#ed3a5f" d="M 347.5,179.5 C 352.914,178.565 354.914,180.565 353.5,185.5C 347.432,188.096 345.432,186.096 347.5,179.5 Z"/></g>
<g><path style="opacity:0.734" fill="#ed3a5f" d="M 215.5,180.5 C 221.488,180.664 222.821,183.164 219.5,188C 213.403,188.147 212.07,185.647 215.5,180.5 Z"/></g>
<g><path style="opacity:0.75" fill="#ed3a5f" d="M 160.5,182.5 C 166.704,182.314 168.037,184.814 164.5,190C 158.834,189.835 157.501,187.335 160.5,182.5 Z"/></g>
<g><path style="opacity:0.83" fill="#ed3a5f" d="M 280.5,184.5 C 285.675,183.507 287.509,185.507 286,190.5C 284,193.167 282,193.167 280,190.5C 279.322,188.402 279.489,186.402 280.5,184.5 Z"/></g>
<g><path style="opacity:0.749" fill="#ed3a5f" d="M 146.5,194.5 C 145.074,188.641 147.074,186.641 152.5,188.5C 154.796,194.871 152.796,196.871 146.5,194.5 Z"/></g>
<g><path style="opacity:0.737" fill="#ed3a5f" d="M 359.5,187.5 C 365.488,187.664 366.821,190.164 363.5,195C 357.403,195.147 356.07,192.647 359.5,187.5 Z"/></g>
<g><path style="opacity:0.899" fill="#ed3a5f" d="M 131.5,188.5 C 132.5,188.5 133.5,188.5 134.5,188.5C 139.909,187.871 143.909,189.871 146.5,194.5C 146.5,197.833 146.5,201.167 146.5,204.5C 144.5,205.833 142.833,207.5 141.5,209.5C 140.833,209.5 140.5,209.833 140.5,210.5C 137.15,210.665 133.817,210.498 130.5,210C 128,208.833 126.167,207 125,204.5C 122.729,197.174 124.895,191.841 131.5,188.5 Z M 132.5,193.5 C 131.962,195.117 131.629,196.784 131.5,198.5C 133.39,198.703 134.89,198.037 136,196.5C 135.628,198.92 134.295,200.92 132,202.5C 131.517,203.448 131.351,204.448 131.5,205.5C 134.5,205.5 137.5,205.5 140.5,205.5C 140.5,204.5 140.5,203.5 140.5,202.5C 139.448,202.649 138.448,202.483 137.5,202C 141.767,196.046 140.1,193.213 132.5,193.5 Z"/></g>
<g><path style="opacity:0.891" fill="#ed3a60" d="M 261.5,188.5 C 274.357,186.182 279.69,191.515 277.5,204.5C 276.833,204.5 276.5,204.833 276.5,205.5C 275.5,207.167 274.167,208.5 272.5,209.5C 271.833,209.5 271.5,209.833 271.5,210.5C 259.167,212.167 253.833,206.833 255.5,194.5C 256.167,194.5 256.5,194.167 256.5,193.5C 257.167,193.5 257.5,193.167 257.5,192.5C 258.728,191.694 259.728,190.694 260.5,189.5C 261.167,189.5 261.5,189.167 261.5,188.5 Z M 264.5,201.5 C 263.5,201.5 262.5,201.5 261.5,201.5C 261.297,203.39 261.963,204.89 263.5,206C 266.025,206.896 268.192,206.396 270,204.5C 269.544,201.447 269.378,198.447 269.5,195.5C 267.167,194.167 264.833,194.167 262.5,195.5C 261.128,197.62 261.795,198.62 264.5,198.5C 264.5,199.5 264.5,200.5 264.5,201.5 Z"/></g>
<g><path style="opacity:0.737" fill="#ed3a5f" d="M 225.5,189.5 C 231.966,188.799 233.633,191.132 230.5,196.5C 224.77,197.41 223.103,195.077 225.5,189.5 Z"/></g>
<g><path style="opacity:0.853" fill="#ed3a5f" d="M 102.5,190.5 C 108.158,189.679 109.825,191.846 107.5,197C 101.741,198.139 100.074,195.972 102.5,190.5 Z"/></g>
<g><path style="opacity:0.736" fill="#ed3a5f" d="M 368.5,198.5 C 373.262,199.092 374.596,201.592 372.5,206C 365.17,206.486 363.837,203.986 368.5,198.5 Z"/></g>
<g><path style="opacity:0.736" fill="#ed3a5f" d="M 232.5,201.5 C 238.729,201.027 240.395,203.36 237.5,208.5C 231.805,209.446 230.138,207.112 232.5,201.5 Z"/></g>
<g><path style="opacity:1" fill="#ed3a5f" d="M 264.5,201.5 C 266.028,201.517 266.528,202.184 266,203.5C 265.283,202.956 264.783,202.289 264.5,201.5 Z"/></g>
<g><path style="opacity:0.835" fill="#ed3a5f" d="M 102.5,204.5 C 107.675,203.507 109.509,205.507 108,210.5C 106,213.167 104,213.167 102,210.5C 101.322,208.402 101.489,206.402 102.5,204.5 Z"/></g>
<g><path style="opacity:0.709" fill="#ed3a5f" d="M 373.5,211.5 C 379.704,211.314 381.037,213.814 377.5,219C 371.403,219.147 370.07,216.647 373.5,211.5 Z"/></g>
<g><path style="opacity:0.764" fill="#ed3a5f" d="M 236.5,214.5 C 237.93,214.421 239.264,214.754 240.5,215.5C 242.89,221.608 241.056,223.608 235,221.5C 234.185,218.802 234.685,216.468 236.5,214.5 Z"/></g>
<g><path style="opacity:0.782" fill="#ed3a5f" d="M 102.5,218.5 C 108.235,217.821 109.902,220.155 107.5,225.5C 101.805,226.446 100.138,224.112 102.5,218.5 Z"/></g>
<g><path style="opacity:0.78" fill="#ed3a5f" d="M 374.5,225.5 C 380.704,225.314 382.037,227.814 378.5,233C 377.101,233.595 375.768,233.428 374.5,232.5C 373.286,230.141 373.286,227.808 374.5,225.5 Z"/></g>
<g><path style="opacity:0.766" fill="#ed3a5f" d="M 236.5,228.5 C 237.93,228.421 239.264,228.754 240.5,229.5C 242.89,235.608 241.056,237.608 235,235.5C 234.185,232.802 234.685,230.468 236.5,228.5 Z"/></g>
<g><path style="opacity:0.766" fill="#ed3a5f" d="M 102.5,232.5 C 108.235,231.821 109.902,234.155 107.5,239.5C 105.833,240.833 104.167,240.833 102.5,239.5C 101.286,237.141 101.286,234.808 102.5,232.5 Z"/></g>
<g><path style="opacity:0.723" fill="#ed3a5f" d="M 373.5,239.5 C 379.113,238.079 381.28,240.079 380,245.5C 377.952,247.787 375.785,247.954 373.5,246C 372.395,243.88 372.395,241.713 373.5,239.5 Z"/></g>
<g><path style="opacity:0.767" fill="#ed3a5f" d="M 236.5,242.5 C 237.93,242.421 239.264,242.754 240.5,243.5C 242.89,249.608 241.056,251.608 235,249.5C 234.185,246.802 234.685,244.468 236.5,242.5 Z"/></g>
<g><path style="opacity:0.766" fill="#ed3a5f" d="M 102.5,246.5 C 108.235,245.821 109.902,248.155 107.5,253.5C 105.833,254.833 104.167,254.833 102.5,253.5C 101.286,251.141 101.286,248.808 102.5,246.5 Z"/></g>
<g><path style="opacity:0.737" fill="#ed3a5f" d="M 373.5,253.5 C 379.966,252.799 381.633,255.132 378.5,260.5C 372.77,261.41 371.103,259.077 373.5,253.5 Z"/></g>
<g><path style="opacity:0.798" fill="#ed3a5f" d="M 236.5,256.5 C 241.262,257.092 242.596,259.592 240.5,264C 234.202,264.495 232.868,261.995 236.5,256.5 Z"/></g>
<g><path style="opacity:0.768" fill="#ed3a5f" d="M 102.5,260.5 C 108.235,259.821 109.902,262.155 107.5,267.5C 105.833,268.833 104.167,268.833 102.5,267.5C 101.286,265.141 101.286,262.808 102.5,260.5 Z"/></g>
<g><path style="opacity:0.765" fill="#ed3a5f" d="M 373.5,267.5 C 378.675,266.507 380.509,268.507 379,273.5C 375.632,275.935 373.132,275.101 371.5,271C 371.978,269.697 372.645,268.531 373.5,267.5 Z"/></g>
<g><path style="opacity:0.796" fill="#ed3a5f" d="M 236.5,270.5 C 241.262,271.092 242.596,273.592 240.5,278C 234.202,278.495 232.868,275.995 236.5,270.5 Z"/></g>
<g><path style="opacity:0.768" fill="#ed3a5f" d="M 102.5,274.5 C 108.235,273.821 109.902,276.155 107.5,281.5C 105.833,282.833 104.167,282.833 102.5,281.5C 101.286,279.141 101.286,276.808 102.5,274.5 Z"/></g>
<g><path style="opacity:0.708" fill="#ed3a5f" d="M 372.5,281.5 C 378.113,280.079 380.28,282.079 379,287.5C 376.952,289.787 374.785,289.954 372.5,288C 371.232,285.837 371.232,283.67 372.5,281.5 Z"/></g>
<g><path style="opacity:0.834" fill="#ed3a5f" d="M 237.5,284.5 C 241.396,285.78 242.396,288.28 240.5,292C 235.333,293.5 233.5,291.667 235,286.5C 235.995,285.934 236.828,285.267 237.5,284.5 Z"/></g>
<g><path style="opacity:0.766" fill="#ed3a5f" d="M 102.5,288.5 C 108.235,287.821 109.902,290.155 107.5,295.5C 105.833,296.833 104.167,296.833 102.5,295.5C 101.286,293.141 101.286,290.808 102.5,288.5 Z"/></g>
<g><path style="opacity:0.767" fill="#ed3a5f" d="M 372.5,295.5 C 377.709,294.705 379.709,296.705 378.5,301.5C 372.432,304.096 370.432,302.096 372.5,295.5 Z"/></g>
<g><path style="opacity:0.833" fill="#ed3a5f" d="M 237.5,298.5 C 241.396,299.78 242.396,302.28 240.5,306C 235.333,307.5 233.5,305.667 235,300.5C 235.995,299.934 236.828,299.267 237.5,298.5 Z"/></g>
<g><path style="opacity:0.737" fill="#ed3a5f" d="M 102.5,302.5 C 108.313,302.062 109.98,304.562 107.5,310C 101.593,310.746 99.9267,308.246 102.5,302.5 Z"/></g>
<g><path style="opacity:0.766" fill="#ed3a5f" d="M 371.5,309.5 C 377.113,308.079 379.28,310.079 378,315.5C 371.854,317.636 369.687,315.636 371.5,309.5 Z"/></g>
<g><path style="opacity:0.829" fill="#ed3a5f" d="M 237.5,312.5 C 241.396,313.78 242.396,316.28 240.5,320C 235.333,321.5 233.5,319.667 235,314.5C 235.995,313.934 236.828,313.267 237.5,312.5 Z"/></g>
<g><path style="opacity:0.739" fill="#ed3a5f" d="M 102.5,316.5 C 108.313,316.062 109.98,318.562 107.5,324C 101.593,324.746 99.9267,322.246 102.5,316.5 Z"/></g>
<g><path style="opacity:0.766" fill="#ed3a5f" d="M 371.5,323.5 C 376.914,322.565 378.914,324.565 377.5,329.5C 371.129,331.796 369.129,329.796 371.5,323.5 Z"/></g>
<g><path style="opacity:0.851" fill="#ed3a5f" d="M 235.5,327.5 C 241.158,326.679 242.825,328.846 240.5,334C 234.741,335.139 233.074,332.972 235.5,327.5 Z"/></g>
</svg>
