<?xml version="1.0" encoding="UTF-8"?>
<!DOCTYPE svg PUBLIC "-//W3C//DTD SVG 1.1//EN" "http://www.w3.org/Graphics/SVG/1.1/DTD/svg11.dtd">
<svg xmlns="http://www.w3.org/2000/svg" version="1.1" width="500px" height="500px" style="shape-rendering:geometricPrecision; text-rendering:geometricPrecision; image-rendering:optimizeQuality; fill-rule:evenodd; clip-rule:evenodd" xmlns:xlink="http://www.w3.org/1999/xlink">
<g><path style="opacity:1" fill="#f7f7f7" d="M -0.5,-0.5 C 166.167,-0.5 332.833,-0.5 499.5,-0.5C 499.5,166.167 499.5,332.833 499.5,499.5C 332.833,499.5 166.167,499.5 -0.5,499.5C -0.5,332.833 -0.5,166.167 -0.5,-0.5 Z M 228.5,202.5 C 229.658,192.66 225.325,187.993 215.5,188.5C 229.253,166.196 249.42,154.863 276,154.5C 315.747,157.2 338.747,178.2 345,217.5C 346.442,259.477 346.942,301.477 346.5,343.5C 330.833,343.5 315.167,343.5 299.5,343.5C 299.667,305.499 299.5,267.499 299,229.5C 295.944,209.444 284.444,197.61 264.5,194C 251.301,192.203 239.301,195.036 228.5,202.5 Z M 212.5,189.5 C 209.909,190.254 208.076,191.921 207,194.5C 204.517,205.845 209.017,211.178 220.5,210.5C 216.926,217.052 214.426,224.052 213,231.5C 212.5,268.832 212.333,306.165 212.5,343.5C 196.833,343.5 181.167,343.5 165.5,343.5C 165.5,281.5 165.5,219.5 165.5,157.5C 181.167,157.5 196.833,157.5 212.5,157.5C 212.5,168.167 212.5,178.833 212.5,189.5 Z M 184.5,172.5 C 186.167,172.5 187.833,172.5 189.5,172.5C 189.5,176.5 189.5,180.5 189.5,184.5C 188.167,184.5 186.833,184.5 185.5,184.5C 185.665,181.482 185.498,178.482 185,175.5C 183.272,174.648 183.105,173.648 184.5,172.5 Z M 214.5,193.5 C 222.1,193.213 223.767,196.046 219.5,202C 220.448,202.483 221.448,202.649 222.5,202.5C 222.5,203.5 222.5,204.5 222.5,205.5C 219.5,205.5 216.5,205.5 213.5,205.5C 213.351,204.448 213.517,203.448 214,202.5C 216.295,200.92 217.628,198.92 218,196.5C 216.89,198.037 215.39,198.703 213.5,198.5C 213.629,196.784 213.962,195.117 214.5,193.5 Z"/></g>
<g><path style="opacity:0.933" fill="#a6a5a5" d="M 227.5,204.5 C 227.833,203.833 228.167,203.167 228.5,202.5C 239.301,195.036 251.301,192.203 264.5,194C 284.444,197.61 295.944,209.444 299,229.5C 299.5,267.499 299.667,305.499 299.5,343.5C 315.167,343.5 330.833,343.5 346.5,343.5C 346.942,301.477 346.442,259.477 345,217.5C 338.747,178.2 315.747,157.2 276,154.5C 249.42,154.863 229.253,166.196 215.5,188.5C 215.167,188.5 214.833,188.5 214.5,188.5C 224.41,169.521 240.077,158.355 261.5,155C 296.177,149.095 322.011,161.261 339,191.5C 342.423,199.523 344.756,207.857 346,216.5C 347.443,259.144 347.943,301.811 347.5,344.5C 331.167,344.5 314.833,344.5 298.5,344.5C 298.667,306.499 298.5,268.499 298,230.5C 292.698,204.751 276.865,192.917 250.5,195C 241.84,196.004 234.174,199.17 227.5,204.5 Z"/></g>
<g><path style="opacity:0.992" fill="#a6a5a5" d="M 213.5,188.5 C 213.5,189.167 213.167,189.5 212.5,189.5C 212.5,178.833 212.5,168.167 212.5,157.5C 196.833,157.5 181.167,157.5 165.5,157.5C 165.5,219.5 165.5,281.5 165.5,343.5C 181.167,343.5 196.833,343.5 212.5,343.5C 212.333,306.165 212.5,268.832 213,231.5C 214.426,224.052 216.926,217.052 220.5,210.5C 221.391,209.89 222.391,209.557 223.5,209.5C 218.496,216.329 215.33,223.996 214,232.5C 213.5,269.832 213.333,307.165 213.5,344.5C 197.167,344.5 180.833,344.5 164.5,344.5C 164.5,281.833 164.5,219.167 164.5,156.5C 180.833,156.5 197.167,156.5 213.5,156.5C 213.5,167.167 213.5,177.833 213.5,188.5 Z M 184.5,172.5 C 183.105,173.648 183.272,174.648 185,175.5C 185.498,178.482 185.665,181.482 185.5,184.5C 186.833,184.5 188.167,184.5 189.5,184.5C 189.5,180.5 189.5,176.5 189.5,172.5C 187.833,172.5 186.167,172.5 184.5,172.5 Z"/></g>
<g><path style="opacity:0.899" fill="#ed3a5f" d="M 182.5,166.5 C 194.99,164.823 200.157,170.156 198,182.5C 197.215,184.286 196.049,185.786 194.5,187C 181.074,191.238 175.241,186.404 177,172.5C 178.36,169.977 180.193,167.977 182.5,166.5 Z M 184.5,172.5 C 183.105,173.648 183.272,174.648 185,175.5C 185.498,178.482 185.665,181.482 185.5,184.5C 186.833,184.5 188.167,184.5 189.5,184.5C 189.5,180.5 189.5,176.5 189.5,172.5C 187.833,172.5 186.167,172.5 184.5,172.5 Z"/></g>
<g><path style="opacity:0.765" fill="#ed3a5f" d="M 272.5,174.5 C 277.914,173.565 279.914,175.565 278.5,180.5C 272.129,182.796 270.129,180.796 272.5,174.5 Z"/></g>
<g><path style="opacity:0.709" fill="#ed3a5f" d="M 286.5,174.5 C 292.951,174.092 294.618,176.592 291.5,182C 285.98,182.37 284.313,179.87 286.5,174.5 Z"/></g>
<g><path style="opacity:0.709" fill="#ed3a5f" d="M 258.5,176.5 C 263.672,175.565 265.839,177.565 265,182.5C 258.684,185.356 256.518,183.356 258.5,176.5 Z"/></g>
<g><path style="opacity:0.734" fill="#ed3a5f" d="M 300.5,178.5 C 306.488,178.664 307.821,181.164 304.5,186C 298.403,186.147 297.07,183.647 300.5,178.5 Z"/></g>
<g><path style="opacity:0.75" fill="#ed3a5f" d="M 245.5,180.5 C 251.704,180.314 253.037,182.814 249.5,188C 243.834,187.835 242.501,185.335 245.5,180.5 Z"/></g>
<g><path style="opacity:0.749" fill="#ed3a5f" d="M 232.5,185.5 C 237.881,185.452 239.547,187.952 237.5,193C 231.593,193.746 229.927,191.246 232.5,185.5 Z"/></g>
<g><path style="opacity:0.737" fill="#ed3a5f" d="M 310.5,187.5 C 316.966,186.799 318.633,189.132 315.5,194.5C 309.77,195.41 308.103,193.077 310.5,187.5 Z"/></g>
<g><path style="opacity:0.912" fill="#ed3b60" d="M 213.5,188.5 C 213.833,188.5 214.167,188.5 214.5,188.5C 214.833,188.5 215.167,188.5 215.5,188.5C 225.325,187.993 229.658,192.66 228.5,202.5C 228.167,203.167 227.833,203.833 227.5,204.5C 226.167,206.167 224.833,207.833 223.5,209.5C 222.391,209.557 221.391,209.89 220.5,210.5C 209.017,211.178 204.517,205.845 207,194.5C 208.076,191.921 209.909,190.254 212.5,189.5C 213.167,189.5 213.5,189.167 213.5,188.5 Z M 214.5,193.5 C 213.962,195.117 213.629,196.784 213.5,198.5C 215.39,198.703 216.89,198.037 218,196.5C 217.628,198.92 216.295,200.92 214,202.5C 213.517,203.448 213.351,204.448 213.5,205.5C 216.5,205.5 219.5,205.5 222.5,205.5C 222.5,204.5 222.5,203.5 222.5,202.5C 221.448,202.649 220.448,202.483 219.5,202C 223.767,196.046 222.1,193.213 214.5,193.5 Z"/></g>
<g><path style="opacity:0.853" fill="#ed3a5f" d="M 185.5,196.5 C 191.158,195.679 192.825,197.846 190.5,203C 184.741,204.139 183.074,201.972 185.5,196.5 Z"/></g>
<g><path style="opacity:0.736" fill="#ed3a5f" d="M 317.5,199.5 C 323.729,199.027 325.395,201.36 322.5,206.5C 316.805,207.446 315.138,205.112 317.5,199.5 Z"/></g>
<g><path style="opacity:0.835" fill="#ed3a5f" d="M 185.5,210.5 C 190.675,209.507 192.509,211.507 191,216.5C 189,219.167 187,219.167 185,216.5C 184.322,214.402 184.489,212.402 185.5,210.5 Z"/></g>
<g><path style="opacity:0.764" fill="#ed3a5f" d="M 321.5,212.5 C 322.93,212.421 324.264,212.754 325.5,213.5C 327.89,219.608 326.056,221.608 320,219.5C 319.185,216.802 319.685,214.468 321.5,212.5 Z"/></g>
<g><path style="opacity:0.782" fill="#ed3a5f" d="M 185.5,224.5 C 191.235,223.821 192.902,226.155 190.5,231.5C 184.805,232.446 183.138,230.112 185.5,224.5 Z"/></g>
<g><path style="opacity:0.766" fill="#ed3a5f" d="M 321.5,226.5 C 322.93,226.421 324.264,226.754 325.5,227.5C 327.89,233.608 326.056,235.608 320,233.5C 319.185,230.802 319.685,228.468 321.5,226.5 Z"/></g>
<g><path style="opacity:0.766" fill="#ed3a5f" d="M 185.5,238.5 C 191.235,237.821 192.902,240.155 190.5,245.5C 188.833,246.833 187.167,246.833 185.5,245.5C 184.286,243.141 184.286,240.808 185.5,238.5 Z"/></g>
<g><path style="opacity:0.767" fill="#ed3a5f" d="M 321.5,240.5 C 322.93,240.421 324.264,240.754 325.5,241.5C 327.89,247.608 326.056,249.608 320,247.5C 319.185,244.802 319.685,242.468 321.5,240.5 Z"/></g>
<g><path style="opacity:0.766" fill="#ed3a5f" d="M 185.5,252.5 C 191.235,251.821 192.902,254.155 190.5,259.5C 188.833,260.833 187.167,260.833 185.5,259.5C 184.286,257.141 184.286,254.808 185.5,252.5 Z"/></g>
<g><path style="opacity:0.798" fill="#ed3a5f" d="M 321.5,254.5 C 326.262,255.092 327.596,257.592 325.5,262C 319.202,262.495 317.868,259.995 321.5,254.5 Z"/></g>
<g><path style="opacity:0.768" fill="#ed3a5f" d="M 185.5,266.5 C 191.235,265.821 192.902,268.155 190.5,273.5C 188.833,274.833 187.167,274.833 185.5,273.5C 184.286,271.141 184.286,268.808 185.5,266.5 Z"/></g>
<g><path style="opacity:0.796" fill="#ed3a5f" d="M 321.5,268.5 C 326.262,269.092 327.596,271.592 325.5,276C 319.202,276.495 317.868,273.995 321.5,268.5 Z"/></g>
<g><path style="opacity:0.768" fill="#ed3a5f" d="M 185.5,280.5 C 191.235,279.821 192.902,282.155 190.5,287.5C 188.833,288.833 187.167,288.833 185.5,287.5C 184.286,285.141 184.286,282.808 185.5,280.5 Z"/></g>
<g><path style="opacity:0.834" fill="#ed3a5f" d="M 322.5,282.5 C 326.396,283.78 327.396,286.28 325.5,290C 320.333,291.5 318.5,289.667 320,284.5C 320.995,283.934 321.828,283.267 322.5,282.5 Z"/></g>
<g><path style="opacity:0.766" fill="#ed3a5f" d="M 185.5,294.5 C 191.235,293.821 192.902,296.155 190.5,301.5C 188.833,302.833 187.167,302.833 185.5,301.5C 184.286,299.141 184.286,296.808 185.5,294.5 Z"/></g>
<g><path style="opacity:0.833" fill="#ed3a5f" d="M 322.5,296.5 C 326.396,297.78 327.396,300.28 325.5,304C 320.333,305.5 318.5,303.667 320,298.5C 320.995,297.934 321.828,297.267 322.5,296.5 Z"/></g>
<g><path style="opacity:0.737" fill="#ed3a5f" d="M 185.5,308.5 C 191.313,308.062 192.98,310.562 190.5,316C 184.593,316.746 182.927,314.246 185.5,308.5 Z"/></g>
<g><path style="opacity:0.829" fill="#ed3a5f" d="M 322.5,310.5 C 326.396,311.78 327.396,314.28 325.5,318C 320.333,319.5 318.5,317.667 320,312.5C 320.995,311.934 321.828,311.267 322.5,310.5 Z"/></g>
<g><path style="opacity:0.739" fill="#ed3a5f" d="M 185.5,322.5 C 191.313,322.062 192.98,324.562 190.5,330C 184.593,330.746 182.927,328.246 185.5,322.5 Z"/></g>
<g><path style="opacity:0.851" fill="#ed3a5f" d="M 320.5,325.5 C 326.158,324.679 327.825,326.846 325.5,332C 319.741,333.139 318.074,330.972 320.5,325.5 Z"/></g>
</svg>
