<?xml version="1.0" encoding="UTF-8"?>
<!DOCTYPE svg PUBLIC "-//W3C//DTD SVG 1.1//EN" "http://www.w3.org/Graphics/SVG/1.1/DTD/svg11.dtd">
<svg xmlns="http://www.w3.org/2000/svg" version="1.1" width="500px" height="500px" style="shape-rendering:geometricPrecision; text-rendering:geometricPrecision; image-rendering:optimizeQuality; fill-rule:evenodd; clip-rule:evenodd" xmlns:xlink="http://www.w3.org/1999/xlink">
<g><path style="opacity:1" fill="#f7f7f7" d="M -0.5,-0.5 C 166.167,-0.5 332.833,-0.5 499.5,-0.5C 499.5,166.167 499.5,332.833 499.5,499.5C 332.833,499.5 166.167,499.5 -0.5,499.5C -0.5,332.833 -0.5,166.167 -0.5,-0.5 Z M 112.5,193.5 C 111.509,183.819 106.176,180.319 96.5,183C 92.0466,185.071 90.0466,188.571 90.5,193.5C 90.6573,201.323 94.6573,204.99 102.5,204.5C 99.4455,210.496 97.2788,216.829 96,223.5C 95.5,260.832 95.3333,298.165 95.5,335.5C 79.8333,335.5 64.1667,335.5 48.5,335.5C 48.5,273.5 48.5,211.5 48.5,149.5C 64.1667,149.5 79.8333,149.5 95.5,149.5C 95.5,160.167 95.5,170.833 95.5,181.5C 96.675,181.719 97.675,181.386 98.5,180.5C 112.282,158.183 132.449,146.85 159,146.5C 198.747,149.2 221.747,170.2 228,209.5C 229.442,251.477 229.942,293.477 229.5,335.5C 213.833,335.5 198.167,335.5 182.5,335.5C 182.667,297.499 182.5,259.499 182,221.5C 179.69,203.526 169.857,192.026 152.5,187C 138.201,183.696 124.868,185.862 112.5,193.5 Z M 331.5,147.5 C 357.294,144.373 379.128,152.04 397,170.5C 399.75,174.332 402.25,178.332 404.5,182.5C 405.325,183.386 406.325,183.719 407.5,183.5C 407.5,172.167 407.5,160.833 407.5,149.5C 422.833,149.5 438.167,149.5 453.5,149.5C 453.667,216.501 453.5,283.501 453,350.5C 444.48,400.849 414.647,426.182 363.5,426.5C 335.199,427.459 310.699,418.459 290,399.5C 278.587,387.006 271.754,372.34 269.5,355.5C 284.833,355.5 300.167,355.5 315.5,355.5C 320.116,372.942 331.449,382.775 349.5,385C 368.385,388.703 384.552,383.87 398,370.5C 403.376,363.038 406.376,354.705 407,345.5C 407.5,330.504 407.667,315.504 407.5,300.5C 406.325,300.281 405.325,300.614 404.5,301.5C 388.746,328.71 365.079,340.544 333.5,337C 302.411,332.902 280.911,316.402 269,287.5C 257.418,255.574 258.085,223.907 271,192.5C 283.38,166.943 303.547,151.943 331.5,147.5 Z M 67.5,162.5 C 69.1667,162.5 70.8333,162.5 72.5,162.5C 72.5,166.5 72.5,170.5 72.5,174.5C 71.1667,174.5 69.8333,174.5 68.5,174.5C 68.6646,171.482 68.498,168.482 68,165.5C 66.2716,164.648 66.105,163.648 67.5,162.5 Z M 429.5,163.5 C 430.833,163.5 432.167,163.5 433.5,163.5C 434.005,167.6 434.005,171.6 433.5,175.5C 432.5,175.5 431.5,175.5 430.5,175.5C 430.5,174.5 430.5,173.5 430.5,172.5C 428.396,172.799 426.396,172.466 424.5,171.5C 426.193,168.816 427.86,166.149 429.5,163.5 Z M 98.5,187.5 C 106.1,187.213 107.767,190.046 103.5,196C 104.448,196.483 105.448,196.649 106.5,196.5C 106.5,197.5 106.5,198.5 106.5,199.5C 103.5,199.5 100.5,199.5 97.5,199.5C 97.3505,198.448 97.5172,197.448 98,196.5C 100.295,194.92 101.628,192.92 102,190.5C 100.89,192.037 99.3904,192.703 97.5,192.5C 97.6287,190.784 97.962,189.117 98.5,187.5 Z M 408.5,206.5 C 408.5,205.5 408.5,204.5 408.5,203.5C 405.795,203.62 405.128,202.62 406.5,200.5C 408.833,199.167 411.167,199.167 413.5,200.5C 413.378,203.447 413.544,206.447 414,209.5C 412.192,211.396 410.025,211.896 407.5,211C 405.963,209.89 405.297,208.39 405.5,206.5C 406.5,206.5 407.5,206.5 408.5,206.5 Z"/></g>
<g><path style="opacity:0.957" fill="#a5a6a5" d="M 112.5,195.5 C 112.5,194.833 112.5,194.167 112.5,193.5C 124.868,185.862 138.201,183.696 152.5,187C 169.857,192.026 179.69,203.526 182,221.5C 182.5,259.499 182.667,297.499 182.5,335.5C 198.167,335.5 213.833,335.5 229.5,335.5C 229.942,293.477 229.442,251.477 228,209.5C 221.747,170.2 198.747,149.2 159,146.5C 132.449,146.85 112.282,158.183 98.5,180.5C 97.675,181.386 96.675,181.719 95.5,181.5C 95.5,170.833 95.5,160.167 95.5,149.5C 79.8333,149.5 64.1667,149.5 48.5,149.5C 48.5,211.5 48.5,273.5 48.5,335.5C 64.1667,335.5 79.8333,335.5 95.5,335.5C 95.3333,298.165 95.5,260.832 96,223.5C 97.2788,216.829 99.4455,210.496 102.5,204.5C 103.167,204.5 103.833,204.5 104.5,204.5C 100.733,210.627 98.233,217.294 97,224.5C 96.5,261.832 96.3333,299.165 96.5,336.5C 80.1667,336.5 63.8333,336.5 47.5,336.5C 47.5,273.833 47.5,211.167 47.5,148.5C 63.8333,148.5 80.1667,148.5 96.5,148.5C 96.3335,159.172 96.5002,169.839 97,180.5C 110.883,157.216 131.549,145.549 159,145.5C 192.927,146.271 215.261,162.604 226,194.5C 228.198,202.354 229.531,210.354 230,218.5C 230.5,257.832 230.667,297.165 230.5,336.5C 214.167,336.5 197.833,336.5 181.5,336.5C 181.667,298.499 181.5,260.499 181,222.5C 175.698,196.751 159.865,184.917 133.5,187C 125.6,187.796 118.6,190.629 112.5,195.5 Z M 112.5,193.5 C 111.509,183.819 106.176,180.319 96.5,183C 92.0466,185.071 90.0466,188.571 90.5,193.5C 90.6573,201.323 94.6573,204.99 102.5,204.5C 99.4455,210.496 97.2788,216.829 96,223.5C 95.5,260.832 95.3333,298.165 95.5,335.5C 79.8333,335.5 64.1667,335.5 48.5,335.5C 48.5,273.5 48.5,211.5 48.5,149.5C 64.1667,149.5 79.8333,149.5 95.5,149.5C 95.5,160.167 95.5,170.833 95.5,181.5C 96.675,181.719 97.675,181.386 98.5,180.5C 112.282,158.183 132.449,146.85 159,146.5C 198.747,149.2 221.747,170.2 228,209.5C 229.442,251.477 229.942,293.477 229.5,335.5C 213.833,335.5 198.167,335.5 182.5,335.5C 182.667,297.499 182.5,259.499 182,221.5C 179.69,203.526 169.857,192.026 152.5,187C 138.201,183.696 124.868,185.862 112.5,193.5 Z M 67.5,162.5 C 66.105,163.648 66.2716,164.648 68,165.5C 68.498,168.482 68.6646,171.482 68.5,174.5C 69.8333,174.5 71.1667,174.5 72.5,174.5C 72.5,170.5 72.5,166.5 72.5,162.5C 70.8333,162.5 69.1667,162.5 67.5,162.5 Z M 98.5,187.5 C 97.962,189.117 97.6287,190.784 97.5,192.5C 99.3904,192.703 100.89,192.037 102,190.5C 101.628,192.92 100.295,194.92 98,196.5C 97.5172,197.448 97.3505,198.448 97.5,199.5C 100.5,199.5 103.5,199.5 106.5,199.5C 106.5,198.5 106.5,197.5 106.5,196.5C 105.448,196.649 104.448,196.483 103.5,196C 107.767,190.046 106.1,187.213 98.5,187.5 Z"/></g>
<g><path style="opacity:0.912" fill="#a5a6a5" d="M 330.5,146.5 C 357.014,142.948 379.514,150.614 398,169.5C 400.917,173.666 403.584,177.999 406,182.5C 406.5,171.172 406.667,159.838 406.5,148.5C 422.5,148.5 438.5,148.5 454.5,148.5C 454.667,216.167 454.5,283.834 454,351.5C 445.333,402.327 415.167,427.66 363.5,427.5C 334.835,428.671 310.001,419.671 289,400.5C 277.692,387.715 270.525,372.882 267.5,356C 283.678,354.516 300.012,354.016 316.5,354.5C 321.116,371.942 332.449,381.775 350.5,384C 368.698,387.376 384.198,382.543 397,369.5C 402.376,362.038 405.376,353.705 406,344.5C 406.667,330.167 406.667,315.833 406,301.5C 395.098,323.057 377.598,335.223 353.5,338C 302.977,340.476 272.477,316.976 262,267.5C 257.546,241.391 260.213,216.058 270,191.5C 282.38,165.943 302.547,150.943 330.5,146.5 Z M 331.5,147.5 C 303.547,151.943 283.38,166.943 271,192.5C 258.085,223.907 257.418,255.574 269,287.5C 280.911,316.402 302.411,332.902 333.5,337C 365.079,340.544 388.746,328.71 404.5,301.5C 405.325,300.614 406.325,300.281 407.5,300.5C 407.667,315.504 407.5,330.504 407,345.5C 406.376,354.705 403.376,363.038 398,370.5C 384.552,383.87 368.385,388.703 349.5,385C 331.449,382.775 320.116,372.942 315.5,355.5C 300.167,355.5 284.833,355.5 269.5,355.5C 271.754,372.34 278.587,387.006 290,399.5C 310.699,418.459 335.199,427.459 363.5,426.5C 414.647,426.182 444.48,400.849 453,350.5C 453.5,283.501 453.667,216.501 453.5,149.5C 438.167,149.5 422.833,149.5 407.5,149.5C 407.5,160.833 407.5,172.167 407.5,183.5C 406.325,183.719 405.325,183.386 404.5,182.5C 402.25,178.332 399.75,174.332 397,170.5C 379.128,152.04 357.294,144.373 331.5,147.5 Z M 429.5,163.5 C 427.86,166.149 426.193,168.816 424.5,171.5C 426.396,172.466 428.396,172.799 430.5,172.5C 430.5,173.5 430.5,174.5 430.5,175.5C 431.5,175.5 432.5,175.5 433.5,175.5C 434.005,171.6 434.005,167.6 433.5,163.5C 432.167,163.5 430.833,163.5 429.5,163.5 Z M 408.5,206.5 C 407.5,206.5 406.5,206.5 405.5,206.5C 405.297,208.39 405.963,209.89 407.5,211C 410.025,211.896 412.192,211.396 414,209.5C 413.544,206.447 413.378,203.447 413.5,200.5C 411.167,199.167 408.833,199.167 406.5,200.5C 405.128,202.62 405.795,203.62 408.5,203.5C 408.5,204.5 408.5,205.5 408.5,206.5 Z"/></g>
<g><path style="opacity:0.899" fill="#ed3a5f" d="M 65.5,156.5 C 77.9901,154.823 83.1568,160.156 81,172.5C 80.2155,174.286 79.0488,175.786 77.5,177C 64.0744,181.238 58.2411,176.404 60,162.5C 61.3597,159.977 63.193,157.977 65.5,156.5 Z M 67.5,162.5 C 66.105,163.648 66.2716,164.648 68,165.5C 68.498,168.482 68.6646,171.482 68.5,174.5C 69.8333,174.5 71.1667,174.5 72.5,174.5C 72.5,170.5 72.5,166.5 72.5,162.5C 70.8333,162.5 69.1667,162.5 67.5,162.5 Z"/></g>
<g><path style="opacity:0.873" fill="#ed3a5f" d="M 424.5,159.5 C 438.098,156.599 443.598,161.932 441,175.5C 440.215,177.286 439.049,178.786 437.5,180C 426.131,184.32 419.798,180.486 418.5,168.5C 419.286,164.567 421.286,161.567 424.5,159.5 Z M 429.5,163.5 C 427.86,166.149 426.193,168.816 424.5,171.5C 426.396,172.466 428.396,172.799 430.5,172.5C 430.5,173.5 430.5,174.5 430.5,175.5C 431.5,175.5 432.5,175.5 433.5,175.5C 434.005,171.6 434.005,167.6 433.5,163.5C 432.167,163.5 430.833,163.5 429.5,163.5 Z"/></g>
<g><path style="opacity:0.765" fill="#ed3a5f" d="M 157.5,164.5 C 162.914,163.565 164.914,165.565 163.5,170.5C 157.129,172.796 155.129,170.796 157.5,164.5 Z"/></g>
<g><path style="opacity:0.709" fill="#ed3a5f" d="M 171.5,164.5 C 177.951,164.092 179.618,166.592 176.5,172C 170.98,172.37 169.313,169.87 171.5,164.5 Z"/></g>
<g><path style="opacity:0.709" fill="#ed3a5f" d="M 143.5,166.5 C 148.672,165.565 150.839,167.565 150,172.5C 143.684,175.356 141.518,173.356 143.5,166.5 Z"/></g>
<g><path style="opacity:0.748" fill="#ed3a5f" d="M 333.5,166.5 C 338.262,167.092 339.596,169.592 337.5,174C 333.872,175.316 331.539,174.149 330.5,170.5C 331.172,168.84 332.172,167.507 333.5,166.5 Z"/></g>
<g><path style="opacity:0.779" fill="#ed3a5f" d="M 345.5,166.5 C 351.113,165.079 353.28,167.079 352,172.5C 346.101,174.433 343.935,172.433 345.5,166.5 Z"/></g>
<g><path style="opacity:0.734" fill="#ed3a5f" d="M 185.5,168.5 C 191.488,168.664 192.821,171.164 189.5,176C 183.403,176.147 182.07,173.647 185.5,168.5 Z"/></g>
<g><path style="opacity:0.764" fill="#ed3a5f" d="M 359.5,168.5 C 365.113,167.079 367.28,169.079 366,174.5C 359.854,176.636 357.687,174.636 359.5,168.5 Z"/></g>
<g><path style="opacity:0.75" fill="#ed3a5f" d="M 130.5,170.5 C 136.704,170.314 138.037,172.814 134.5,178C 128.834,177.835 127.501,175.335 130.5,170.5 Z"/></g>
<g><path style="opacity:0.721" fill="#ed3a5f" d="M 318.5,170.5 C 323.501,169.671 325.668,171.671 325,176.5C 318.684,179.356 316.518,177.356 318.5,170.5 Z"/></g>
<g><path style="opacity:0.721" fill="#ed3a5f" d="M 373.5,172.5 C 378.881,172.452 380.547,174.952 378.5,180C 372.206,180.578 370.539,178.078 373.5,172.5 Z"/></g>
<g><path style="opacity:0.749" fill="#ed3a5f" d="M 117.5,175.5 C 122.881,175.452 124.547,177.952 122.5,183C 116.593,183.746 114.927,181.246 117.5,175.5 Z"/></g>
<g><path style="opacity:0.72" fill="#ed3a5f" d="M 307.5,175.5 C 312.266,176.158 313.6,178.658 311.5,183C 306.338,184.424 304.171,182.59 305,177.5C 305.995,176.934 306.828,176.267 307.5,175.5 Z"/></g>
<g><path style="opacity:0.737" fill="#ed3a5f" d="M 195.5,177.5 C 201.966,176.799 203.633,179.132 200.5,184.5C 194.77,185.41 193.103,183.077 195.5,177.5 Z"/></g>
<g><path style="opacity:0.72" fill="#ed3a5f" d="M 385.5,179.5 C 391.62,179.259 393.287,181.759 390.5,187C 384.98,187.37 383.313,184.87 385.5,179.5 Z"/></g>
<g><path style="opacity:0.912" fill="#ed3a60" d="M 112.5,193.5 C 112.5,194.167 112.5,194.833 112.5,195.5C 111.202,199.794 108.535,202.794 104.5,204.5C 103.833,204.5 103.167,204.5 102.5,204.5C 94.6573,204.99 90.6573,201.323 90.5,193.5C 90.0466,188.571 92.0466,185.071 96.5,183C 106.176,180.319 111.509,183.819 112.5,193.5 Z M 98.5,187.5 C 97.962,189.117 97.6287,190.784 97.5,192.5C 99.3904,192.703 100.89,192.037 102,190.5C 101.628,192.92 100.295,194.92 98,196.5C 97.5172,197.448 97.3505,198.448 97.5,199.5C 100.5,199.5 103.5,199.5 106.5,199.5C 106.5,198.5 106.5,197.5 106.5,196.5C 105.448,196.649 104.448,196.483 103.5,196C 107.767,190.046 106.1,187.213 98.5,187.5 Z"/></g>
<g><path style="opacity:0.721" fill="#ed3a5f" d="M 294.5,183.5 C 300.704,183.314 302.037,185.814 298.5,191C 292.392,191.078 291.059,188.578 294.5,183.5 Z"/></g>
<g><path style="opacity:0.849" fill="#ed3a5f" d="M 427.5,184.5 C 433.158,183.679 434.825,185.846 432.5,191C 426.741,192.139 425.074,189.972 427.5,184.5 Z"/></g>
<g><path style="opacity:0.885" fill="#a5a6a5" d="M 399.5,209.5 C 399.328,210.492 399.662,211.158 400.5,211.5C 400.5,212.167 400.833,212.5 401.5,212.5C 410.173,233.884 409.339,254.884 399,275.5C 382.76,295.685 362.26,301.518 337.5,293C 322.506,286.194 313.339,274.694 310,258.5C 306.802,242.272 308.469,226.606 315,211.5C 330.289,189.543 350.789,182.709 376.5,191C 385.875,195.225 393.542,201.392 399.5,209.5 Z"/></g>
<g><path style="opacity:1" fill="#f7f8f7" d="M 355.5,188.5 C 388.619,190.874 405.619,208.708 406.5,242C 405.889,274.438 389.556,292.271 357.5,295.5C 325.278,292.436 309.278,274.603 309.5,242C 309.772,210.912 325.105,193.079 355.5,188.5 Z"/></g>
<g><path style="opacity:0.763" fill="#ed3a5f" d="M 402.5,195.5 C 396.754,197.532 394.587,195.532 396,189.5C 401.678,187.338 403.844,189.338 402.5,195.5 Z"/></g>
<g><path style="opacity:0.736" fill="#ed3a5f" d="M 202.5,189.5 C 208.729,189.027 210.395,191.36 207.5,196.5C 201.805,197.446 200.138,195.112 202.5,189.5 Z"/></g>
<g><path style="opacity:0.853" fill="#ed3a5f" d="M 67.5,190.5 C 73.1581,189.679 74.8248,191.846 72.5,197C 66.741,198.139 65.0744,195.972 67.5,190.5 Z"/></g>
<g><path style="opacity:0.882" fill="#ed3a5f" d="M 401.5,212.5 C 400.833,212.5 400.5,212.167 400.5,211.5C 400.672,210.508 400.338,209.842 399.5,209.5C 398.803,204.36 399.803,199.693 402.5,195.5C 418.353,189.853 424.186,195.186 420,211.5C 414.096,216.44 407.929,216.773 401.5,212.5 Z M 408.5,206.5 C 407.5,206.5 406.5,206.5 405.5,206.5C 405.297,208.39 405.963,209.89 407.5,211C 410.025,211.896 412.192,211.396 414,209.5C 413.544,206.447 413.378,203.447 413.5,200.5C 411.167,199.167 408.833,199.167 406.5,200.5C 405.128,202.62 405.795,203.62 408.5,203.5C 408.5,204.5 408.5,205.5 408.5,206.5 Z"/></g>
<g><path style="opacity:0.72" fill="#ed3a5f" d="M 288.5,194.5 C 293.19,194.94 294.524,197.274 292.5,201.5C 286.976,203.914 284.809,202.248 286,196.5C 286.995,195.934 287.828,195.267 288.5,194.5 Z"/></g>
<g><path style="opacity:0.848" fill="#ed3a5f" d="M 427.5,198.5 C 433.158,197.679 434.825,199.846 432.5,205C 426.741,206.139 425.074,203.972 427.5,198.5 Z"/></g>
<g><path style="opacity:0.764" fill="#ed3a5f" d="M 206.5,202.5 C 207.93,202.421 209.264,202.754 210.5,203.5C 212.89,209.608 211.056,211.608 205,209.5C 204.185,206.802 204.685,204.468 206.5,202.5 Z"/></g>
<g><path style="opacity:0.835" fill="#ed3a5f" d="M 67.5,204.5 C 72.6752,203.507 74.5086,205.507 73,210.5C 71,213.167 69,213.167 67,210.5C 66.3224,208.402 66.4891,206.402 67.5,204.5 Z"/></g>
<g><path style="opacity:1" fill="#ed3a5f" d="M 408.5,206.5 C 410.028,206.517 410.528,207.184 410,208.5C 409.283,207.956 408.783,207.289 408.5,206.5 Z"/></g>
<g><path style="opacity:0.793" fill="#ed3a5f" d="M 282.5,208.5 C 288.704,208.314 290.037,210.814 286.5,216C 281.632,215.711 280.299,213.211 282.5,208.5 Z"/></g>
<g><path style="opacity:0.828" fill="#ed3a5f" d="M 427.5,212.5 C 432.675,211.507 434.509,213.507 433,218.5C 431,221.167 429,221.167 427,218.5C 426.322,216.402 426.489,214.402 427.5,212.5 Z"/></g>
<g><path style="opacity:0.766" fill="#ed3a5f" d="M 206.5,216.5 C 207.93,216.421 209.264,216.754 210.5,217.5C 212.89,223.608 211.056,225.608 205,223.5C 204.185,220.802 204.685,218.468 206.5,216.5 Z"/></g>
<g><path style="opacity:0.782" fill="#ed3a5f" d="M 67.5,218.5 C 73.2354,217.821 74.902,220.155 72.5,225.5C 66.8045,226.446 65.1378,224.112 67.5,218.5 Z"/></g>
<g><path style="opacity:0.734" fill="#ed3a5f" d="M 280.5,221.5 C 285.999,222 287.332,224.5 284.5,229C 280.798,230.393 278.798,229.226 278.5,225.5C 278.803,223.886 279.47,222.552 280.5,221.5 Z"/></g>
<g><path style="opacity:0.83" fill="#ed3a5f" d="M 427.5,226.5 C 432.675,225.507 434.509,227.507 433,232.5C 431,235.167 429,235.167 427,232.5C 426.322,230.402 426.489,228.402 427.5,226.5 Z"/></g>
<g><path style="opacity:0.767" fill="#ed3a5f" d="M 206.5,230.5 C 207.93,230.421 209.264,230.754 210.5,231.5C 212.89,237.608 211.056,239.608 205,237.5C 204.185,234.802 204.685,232.468 206.5,230.5 Z"/></g>
<g><path style="opacity:0.766" fill="#ed3a5f" d="M 67.5,232.5 C 73.2354,231.821 74.902,234.155 72.5,239.5C 70.8333,240.833 69.1667,240.833 67.5,239.5C 66.2857,237.141 66.2857,234.808 67.5,232.5 Z"/></g>
<g><path style="opacity:0.763" fill="#ed3a5f" d="M 279.5,235.5 C 280.93,235.421 282.264,235.754 283.5,236.5C 285.89,242.608 284.056,244.608 278,242.5C 277.185,239.802 277.685,237.468 279.5,235.5 Z"/></g>
<g><path style="opacity:0.83" fill="#ed3a5f" d="M 427.5,240.5 C 432.675,239.507 434.509,241.507 433,246.5C 431,249.167 429,249.167 427,246.5C 426.322,244.402 426.489,242.402 427.5,240.5 Z"/></g>
<g><path style="opacity:0.798" fill="#ed3a5f" d="M 206.5,244.5 C 211.262,245.092 212.596,247.592 210.5,252C 204.202,252.495 202.868,249.995 206.5,244.5 Z"/></g>
<g><path style="opacity:0.766" fill="#ed3a5f" d="M 67.5,246.5 C 73.2354,245.821 74.902,248.155 72.5,253.5C 70.8333,254.833 69.1667,254.833 67.5,253.5C 66.2857,251.141 66.2857,248.808 67.5,246.5 Z"/></g>
<g><path style="opacity:0.72" fill="#ed3a5f" d="M 280.5,249.5 C 285.942,249.886 287.275,252.386 284.5,257C 280.798,258.393 278.798,257.226 278.5,253.5C 278.803,251.886 279.47,250.552 280.5,249.5 Z"/></g>
<g><path style="opacity:0.795" fill="#ed3a5f" d="M 427.5,254.5 C 433.704,254.314 435.037,256.814 431.5,262C 426.632,261.711 425.299,259.211 427.5,254.5 Z"/></g>
<g><path style="opacity:0.796" fill="#ed3a5f" d="M 206.5,258.5 C 211.262,259.092 212.596,261.592 210.5,266C 204.202,266.495 202.868,263.995 206.5,258.5 Z"/></g>
<g><path style="opacity:0.768" fill="#ed3a5f" d="M 67.5,260.5 C 73.2354,259.821 74.902,262.155 72.5,267.5C 70.8333,268.833 69.1667,268.833 67.5,267.5C 66.2857,265.141 66.2857,262.808 67.5,260.5 Z"/></g>
<g><path style="opacity:0.778" fill="#ed3a5f" d="M 283.5,263.5 C 289.158,262.679 290.825,264.846 288.5,270C 282.013,271.158 280.347,268.991 283.5,263.5 Z"/></g>
<g><path style="opacity:0.792" fill="#ed3a5f" d="M 408.5,264.5 C 414.704,264.314 416.037,266.814 412.5,272C 407.632,271.711 406.299,269.211 408.5,264.5 Z"/></g>
<g><path style="opacity:0.794" fill="#ed3a5f" d="M 427.5,268.5 C 433.704,268.314 435.037,270.814 431.5,276C 426.632,275.711 425.299,273.211 427.5,268.5 Z"/></g>
<g><path style="opacity:0.834" fill="#ed3a5f" d="M 207.5,272.5 C 211.396,273.78 212.396,276.28 210.5,280C 205.333,281.5 203.5,279.667 205,274.5C 205.995,273.934 206.828,273.267 207.5,272.5 Z"/></g>
<g><path style="opacity:0.768" fill="#ed3a5f" d="M 67.5,274.5 C 73.2354,273.821 74.902,276.155 72.5,281.5C 70.8333,282.833 69.1667,282.833 67.5,281.5C 66.2857,279.141 66.2857,276.808 67.5,274.5 Z"/></g>
<g><path style="opacity:0.707" fill="#ed3a5f" d="M 289.5,275.5 C 295.951,275.092 297.618,277.592 294.5,283C 288.98,283.37 287.313,280.87 289.5,275.5 Z"/></g>
<g><path style="opacity:0.719" fill="#ed3a5f" d="M 404.5,276.5 C 409.19,276.94 410.524,279.274 408.5,283.5C 402.976,285.914 400.809,284.248 402,278.5C 402.995,277.934 403.828,277.267 404.5,276.5 Z"/></g>
<g><path style="opacity:0.779" fill="#ed3a5f" d="M 427.5,282.5 C 433.235,281.821 434.902,284.155 432.5,289.5C 426.805,290.446 425.138,288.112 427.5,282.5 Z"/></g>
<g><path style="opacity:0.833" fill="#ed3a5f" d="M 207.5,286.5 C 211.396,287.78 212.396,290.28 210.5,294C 205.333,295.5 203.5,293.667 205,288.5C 205.995,287.934 206.828,287.267 207.5,286.5 Z"/></g>
<g><path style="opacity:0.72" fill="#ed3a5f" d="M 298.5,286.5 C 304.235,285.821 305.902,288.155 303.5,293.5C 299.934,295.359 297.6,294.359 296.5,290.5C 297.18,289.14 297.847,287.807 298.5,286.5 Z"/></g>
<g><path style="opacity:0.766" fill="#ed3a5f" d="M 67.5,288.5 C 73.2354,287.821 74.902,290.155 72.5,295.5C 70.8333,296.833 69.1667,296.833 67.5,295.5C 66.2857,293.141 66.2857,290.808 67.5,288.5 Z"/></g>
<g><path style="opacity:0.748" fill="#ed3a5f" d="M 396.5,288.5 C 397.93,288.421 399.264,288.754 400.5,289.5C 402.914,295.024 401.248,297.191 395.5,296C 393.315,293.322 393.649,290.822 396.5,288.5 Z"/></g>
<g><path style="opacity:0.735" fill="#ed3a5f" d="M 309.5,295.5 C 315.488,295.664 316.821,298.164 313.5,303C 307.403,303.147 306.07,300.647 309.5,295.5 Z"/></g>
<g><path style="opacity:0.779" fill="#ed3a5f" d="M 427.5,296.5 C 433.235,295.821 434.902,298.155 432.5,303.5C 426.805,304.446 425.138,302.112 427.5,296.5 Z"/></g>
<g><path style="opacity:0.72" fill="#ed3a5f" d="M 386.5,298.5 C 392.501,298.741 393.834,301.241 390.5,306C 384.202,306.495 382.868,303.995 386.5,298.5 Z"/></g>
<g><path style="opacity:0.829" fill="#ed3a5f" d="M 207.5,300.5 C 211.396,301.78 212.396,304.28 210.5,308C 205.333,309.5 203.5,307.667 205,302.5C 205.995,301.934 206.828,301.267 207.5,300.5 Z"/></g>
<g><path style="opacity:0.737" fill="#ed3a5f" d="M 67.5,302.5 C 73.3133,302.062 74.98,304.562 72.5,310C 66.5933,310.746 64.9267,308.246 67.5,302.5 Z"/></g>
<g><path style="opacity:0.763" fill="#ed3a5f" d="M 320.5,303.5 C 325.914,302.565 327.914,304.565 326.5,309.5C 320.129,311.796 318.129,309.796 320.5,303.5 Z"/></g>
<g><path style="opacity:0.707" fill="#ed3a5f" d="M 374.5,306.5 C 380.704,306.314 382.037,308.814 378.5,314C 372.403,314.147 371.07,311.647 374.5,306.5 Z"/></g>
<g><path style="opacity:0.795" fill="#ed3a5f" d="M 333.5,309.5 C 339.158,308.679 340.825,310.846 338.5,316C 332.244,316.934 330.577,314.767 333.5,309.5 Z"/></g>
<g><path style="opacity:0.72" fill="#ed3a5f" d="M 362.5,310.5 C 367.19,310.94 368.524,313.274 366.5,317.5C 360.976,319.914 358.809,318.248 360,312.5C 360.995,311.934 361.828,311.267 362.5,310.5 Z"/></g>
<g><path style="opacity:0.762" fill="#ed3a5f" d="M 427.5,310.5 C 433.235,309.821 434.902,312.155 432.5,317.5C 430.833,318.833 429.167,318.833 427.5,317.5C 426.286,315.141 426.286,312.808 427.5,310.5 Z"/></g>
<g><path style="opacity:0.735" fill="#ed3a5f" d="M 346.5,312.5 C 352.113,311.079 354.28,313.079 353,318.5C 346.423,321.088 344.256,319.088 346.5,312.5 Z"/></g>
<g><path style="opacity:0.851" fill="#ed3a5f" d="M 205.5,315.5 C 211.158,314.679 212.825,316.846 210.5,322C 204.741,323.139 203.074,320.972 205.5,315.5 Z"/></g>
<g><path style="opacity:0.739" fill="#ed3a5f" d="M 67.5,316.5 C 73.3133,316.062 74.98,318.562 72.5,324C 66.5933,324.746 64.9267,322.246 67.5,316.5 Z"/></g>
<g><path style="opacity:0.762" fill="#ed3a5f" d="M 427.5,324.5 C 433.235,323.821 434.902,326.155 432.5,331.5C 430.833,332.833 429.167,332.833 427.5,331.5C 426.286,329.141 426.286,326.808 427.5,324.5 Z"/></g>
<g><path style="opacity:0.763" fill="#ed3a5f" d="M 427.5,338.5 C 433.235,337.821 434.902,340.155 432.5,345.5C 430.833,346.833 429.167,346.833 427.5,345.5C 426.286,343.141 426.286,340.808 427.5,338.5 Z"/></g>
<g><path style="opacity:0.763" fill="#ed3a5f" d="M 427.5,352.5 C 433.235,351.821 434.902,354.155 432.5,359.5C 430.833,360.833 429.167,360.833 427.5,359.5C 426.286,357.141 426.286,354.808 427.5,352.5 Z"/></g>
<g><path style="opacity:0.748" fill="#ed3a5f" d="M 425.5,365.5 C 426.93,365.421 428.264,365.754 429.5,366.5C 431.914,372.024 430.248,374.191 424.5,373C 422.315,370.322 422.649,367.822 425.5,365.5 Z"/></g>
<g><path style="opacity:0.778" fill="#ed3a5f" d="M 295.5,368.5 C 301.704,368.314 303.037,370.814 299.5,376C 298.101,376.595 296.768,376.428 295.5,375.5C 294.286,373.141 294.286,370.808 295.5,368.5 Z"/></g>
<g><path style="opacity:0.732" fill="#ed3a5f" d="M 416.5,377.5 C 422.704,377.314 424.037,379.814 420.5,385C 414.812,384.79 413.479,382.29 416.5,377.5 Z"/></g>
<g><path style="opacity:0.733" fill="#ed3a5f" d="M 302.5,380.5 C 308.488,380.664 309.821,383.164 306.5,388C 300.403,388.147 299.07,385.647 302.5,380.5 Z"/></g>
<g><path style="opacity:0.72" fill="#ed3a5f" d="M 405.5,385.5 C 410.881,385.452 412.547,387.952 410.5,393C 404.206,393.578 402.539,391.078 405.5,385.5 Z"/></g>
<g><path style="opacity:0.705" fill="#ed3a5f" d="M 313.5,389.5 C 318.266,390.158 319.6,392.658 317.5,397C 311.906,398.913 309.739,397.08 311,391.5C 311.995,390.934 312.828,390.267 313.5,389.5 Z"/></g>
<g><path style="opacity:0.693" fill="#ed3a5f" d="M 393.5,391.5 C 399.488,391.664 400.821,394.164 397.5,399C 393.798,400.393 391.798,399.226 391.5,395.5C 391.803,393.886 392.47,392.552 393.5,391.5 Z"/></g>
<g><path style="opacity:0.717" fill="#ed3a5f" d="M 379.5,395.5 C 384.881,395.452 386.547,397.952 384.5,403C 378.206,403.578 376.539,401.078 379.5,395.5 Z"/></g>
<g><path style="opacity:0.747" fill="#ed3a5f" d="M 324.5,396.5 C 330.235,395.821 331.902,398.155 329.5,403.5C 325.904,405.035 323.57,403.869 322.5,400C 323.305,398.887 323.972,397.721 324.5,396.5 Z"/></g>
<g><path style="opacity:0.733" fill="#ed3a5f" d="M 365.5,398.5 C 371.729,398.027 373.395,400.36 370.5,405.5C 364.805,406.446 363.138,404.112 365.5,398.5 Z"/></g>
<g><path style="opacity:0.706" fill="#ed3a5f" d="M 352.5,399.5 C 358.488,399.664 359.821,402.164 356.5,407C 350.202,407.495 348.868,404.995 352.5,399.5 Z"/></g>
<g><path style="opacity:0.734" fill="#ed3a5f" d="M 337.5,400.5 C 343.113,399.079 345.28,401.079 344,406.5C 337.423,409.088 335.256,407.088 337.5,400.5 Z"/></g>
</svg>
