<?xml version="1.0" encoding="UTF-8"?>
<!DOCTYPE svg PUBLIC "-//W3C//DTD SVG 1.1//EN" "http://www.w3.org/Graphics/SVG/1.1/DTD/svg11.dtd">
<svg xmlns="http://www.w3.org/2000/svg" version="1.1" width="500px" height="500px" style="shape-rendering:geometricPrecision; text-rendering:geometricPrecision; image-rendering:optimizeQuality; fill-rule:evenodd; clip-rule:evenodd" xmlns:xlink="http://www.w3.org/1999/xlink">
<g><path style="opacity:1" fill="#f7f7f7" d="M -0.5,-0.5 C 166.167,-0.5 332.833,-0.5 499.5,-0.5C 499.5,166.167 499.5,332.833 499.5,499.5C 332.833,499.5 166.167,499.5 -0.5,499.5C -0.5,332.833 -0.5,166.167 -0.5,-0.5 Z M 233.5,128.5 C 282.542,123.948 321.042,141.614 349,181.5C 370.195,219.385 373.195,258.718 358,299.5C 336.553,345.414 300.387,369.081 249.5,370.5C 196.526,368.99 159.693,343.99 139,295.5C 124.232,252.083 129.565,211.416 155,173.5C 175.308,148.263 201.475,133.263 233.5,128.5 Z M 229.5,143.5 C 231.167,143.5 232.833,143.5 234.5,143.5C 234.5,147.5 234.5,151.5 234.5,155.5C 233.167,155.5 231.833,155.5 230.5,155.5C 230.665,152.482 230.498,149.482 230,146.5C 228.272,145.648 228.105,144.648 229.5,143.5 Z"/></g>
<g><path style="opacity:0.884" fill="#a5a6a5" d="M 232.5,127.5 C 282.327,122.356 321.494,140.022 350,180.5C 367.492,210.75 372.826,243.083 366,277.5C 350.461,337.688 311.627,369.021 249.5,371.5C 196.004,370.465 158.837,345.465 138,296.5C 123.128,252.424 128.461,211.091 154,172.5C 174.308,147.263 200.475,132.263 232.5,127.5 Z M 233.5,128.5 C 201.475,133.263 175.308,148.263 155,173.5C 129.565,211.416 124.232,252.083 139,295.5C 159.693,343.99 196.526,368.99 249.5,370.5C 300.387,369.081 336.553,345.414 358,299.5C 373.195,258.718 370.195,219.385 349,181.5C 321.042,141.614 282.542,123.948 233.5,128.5 Z M 229.5,143.5 C 228.105,144.648 228.272,145.648 230,146.5C 230.498,149.482 230.665,152.482 230.5,155.5C 231.833,155.5 233.167,155.5 234.5,155.5C 234.5,151.5 234.5,147.5 234.5,143.5C 232.833,143.5 231.167,143.5 229.5,143.5 Z"/></g>
<g><path style="opacity:0.899" fill="#ed3a5f" d="M 227.5,137.5 C 239.99,135.823 245.157,141.156 243,153.5C 242.215,155.286 241.049,156.786 239.5,158C 226.074,162.238 220.241,157.404 222,143.5C 223.36,140.977 225.193,138.977 227.5,137.5 Z M 229.5,143.5 C 228.105,144.648 228.272,145.648 230,146.5C 230.498,149.482 230.665,152.482 230.5,155.5C 231.833,155.5 233.167,155.5 234.5,155.5C 234.5,151.5 234.5,147.5 234.5,143.5C 232.833,143.5 231.167,143.5 229.5,143.5 Z"/></g>
<g><path style="opacity:0.736" fill="#ed3a5f" d="M 271.5,151.5 C 277.113,150.079 279.28,152.079 278,157.5C 271.423,160.088 269.256,158.088 271.5,151.5 Z"/></g>
<g><path style="opacity:0.749" fill="#ed3a5f" d="M 212.5,153.5 C 217.999,154 219.332,156.5 216.5,161C 210.202,161.495 208.868,158.995 212.5,153.5 Z"/></g>
<g><path style="opacity:0.709" fill="#ed3a5f" d="M 284.5,156.5 C 290.113,155.079 292.28,157.079 291,162.5C 288.952,164.787 286.785,164.954 284.5,163C 283.232,160.837 283.232,158.67 284.5,156.5 Z"/></g>
<g><path style="opacity:0.709" fill="#ed3a5f" d="M 199.5,160.5 C 205.704,160.314 207.037,162.814 203.5,168C 197.403,168.147 196.07,165.647 199.5,160.5 Z"/></g>
<g><path style="opacity:0.75" fill="#ed3a5f" d="M 296.5,163.5 C 302.113,162.079 304.28,164.079 303,169.5C 300.911,171.959 298.745,171.959 296.5,169.5C 295.377,167.518 295.377,165.518 296.5,163.5 Z"/></g>
<g><path style="opacity:0.709" fill="#ed3a5f" d="M 189.5,168.5 C 194.266,169.158 195.6,171.658 193.5,176C 187.906,177.913 185.739,176.08 187,170.5C 187.995,169.934 188.828,169.267 189.5,168.5 Z"/></g>
<g><path style="opacity:0.886" fill="#a5a6a5" d="M 237.5,171.5 C 280.832,167.557 307.665,186.557 318,228.5C 322.676,252.407 319.343,275.073 308,296.5C 288.597,322.83 262.763,332.33 230.5,325C 201.62,316.107 184.787,296.607 180,266.5C 175.554,240.726 180.554,217.06 195,195.5C 206.38,182.398 220.547,174.398 237.5,171.5 Z"/></g>
<g><path style="opacity:0.709" fill="#ed3a5f" d="M 308.5,171.5 C 313.984,171.481 315.65,173.981 313.5,179C 306.745,179.756 305.078,177.256 308.5,171.5 Z"/></g>
<g><path style="opacity:1" fill="#f7f8f7" d="M 238.5,172.5 C 283.699,170.006 310.199,191.006 318,235.5C 321.428,260.05 316.094,282.383 302,302.5C 279.251,325.72 252.418,331.887 221.5,321C 198.401,309.681 184.901,291.181 181,265.5C 176.817,240.408 181.817,217.408 196,196.5C 207.38,183.398 221.547,175.398 238.5,172.5 Z"/></g>
<g><path style="opacity:0.722" fill="#ed3a5f" d="M 179.5,178.5 C 184.262,179.092 185.596,181.592 183.5,186C 178.502,187.33 176.336,185.496 177,180.5C 177.995,179.934 178.828,179.267 179.5,178.5 Z"/></g>
<g><path style="opacity:0.766" fill="#ed3a5f" d="M 317.5,182.5 C 322.914,181.565 324.914,183.565 323.5,188.5C 317.129,190.796 315.129,188.796 317.5,182.5 Z"/></g>
<g><path style="opacity:0.722" fill="#ed3a5f" d="M 169.5,190.5 C 174.672,189.565 176.839,191.565 176,196.5C 173.952,198.787 171.785,198.954 169.5,197C 168.232,194.837 168.232,192.67 169.5,190.5 Z"/></g>
<g><path style="opacity:0.736" fill="#ed3a5f" d="M 325.5,193.5 C 331.313,193.062 332.98,195.562 330.5,201C 324.593,201.746 322.927,199.246 325.5,193.5 Z"/></g>
<g><path style="opacity:0.708" fill="#ed3a5f" d="M 163.5,202.5 C 169.235,201.821 170.902,204.155 168.5,209.5C 164.624,211.446 162.291,210.28 161.5,206C 161.978,204.697 162.645,203.531 163.5,202.5 Z"/></g>
<g><path style="opacity:0.736" fill="#ed3a5f" d="M 331.5,206.5 C 337.966,205.799 339.633,208.132 336.5,213.5C 330.77,214.41 329.103,212.077 331.5,206.5 Z"/></g>
<g><path style="opacity:0.723" fill="#ed3a5f" d="M 159.5,215.5 C 164.942,215.886 166.275,218.386 163.5,223C 159.798,224.393 157.798,223.226 157.5,219.5C 157.803,217.886 158.47,216.552 159.5,215.5 Z"/></g>
<g><path style="opacity:0.766" fill="#ed3a5f" d="M 336.5,219.5 C 342.235,218.821 343.902,221.155 341.5,226.5C 339.833,227.833 338.167,227.833 336.5,226.5C 335.286,224.141 335.286,221.808 336.5,219.5 Z"/></g>
<g><path style="opacity:0.72" fill="#ed3a5f" d="M 155.5,229.5 C 161.951,229.092 163.618,231.592 160.5,237C 154.785,237.401 153.119,234.901 155.5,229.5 Z"/></g>
<g><path style="opacity:0.749" fill="#ed3a5f" d="M 341.5,232.5 C 345.718,233.275 347.052,235.609 345.5,239.5C 339.976,241.914 337.809,240.248 339,234.5C 339.995,233.934 340.828,233.267 341.5,232.5 Z"/></g>
<g><path style="opacity:0.766" fill="#ed3a5f" d="M 154.5,243.5 C 160.235,242.821 161.902,245.155 159.5,250.5C 157.833,251.833 156.167,251.833 154.5,250.5C 153.286,248.141 153.286,245.808 154.5,243.5 Z"/></g>
<g><path style="opacity:0.797" fill="#ed3a5f" d="M 342.5,246.5 C 347.262,247.092 348.596,249.592 346.5,254C 340.202,254.495 338.868,251.995 342.5,246.5 Z"/></g>
<g><path style="opacity:0.723" fill="#ed3a5f" d="M 154.5,257.5 C 159.501,256.671 161.668,258.671 161,263.5C 154.684,266.356 152.518,264.356 154.5,257.5 Z"/></g>
<g><path style="opacity:0.781" fill="#ed3a5f" d="M 341.5,260.5 C 346.262,261.092 347.596,263.592 345.5,268C 341.798,269.393 339.798,268.226 339.5,264.5C 339.803,262.886 340.47,261.552 341.5,260.5 Z"/></g>
<g><path style="opacity:0.736" fill="#ed3a5f" d="M 156.5,271.5 C 162.704,271.314 164.037,273.814 160.5,279C 154.812,278.79 153.479,276.29 156.5,271.5 Z"/></g>
<g><path style="opacity:0.709" fill="#ed3a5f" d="M 338.5,274.5 C 344.488,274.664 345.821,277.164 342.5,282C 336.202,282.495 334.868,279.995 338.5,274.5 Z"/></g>
<g><path style="opacity:0.709" fill="#ed3a5f" d="M 160.5,284.5 C 167.004,284.138 168.671,286.638 165.5,292C 159.785,292.401 158.119,289.901 160.5,284.5 Z"/></g>
<g><path style="opacity:0.766" fill="#ed3a5f" d="M 335.5,287.5 C 340.342,288.665 341.342,291.165 338.5,295C 333.333,296.5 331.5,294.667 333,289.5C 333.995,288.934 334.828,288.267 335.5,287.5 Z"/></g>
<g><path style="opacity:0.737" fill="#ed3a5f" d="M 168.5,296.5 C 174.488,296.664 175.821,299.164 172.5,304C 166.403,304.147 165.07,301.647 168.5,296.5 Z"/></g>
<g><path style="opacity:0.709" fill="#ed3a5f" d="M 328.5,300.5 C 334.488,300.664 335.821,303.164 332.5,308C 326.202,308.495 324.868,305.995 328.5,300.5 Z"/></g>
<g><path style="opacity:0.736" fill="#ed3a5f" d="M 177.5,307.5 C 182.262,308.092 183.596,310.592 181.5,315C 174.17,315.486 172.837,312.986 177.5,307.5 Z"/></g>
<g><path style="opacity:0.722" fill="#ed3a5f" d="M 320.5,312.5 C 326.235,311.821 327.902,314.155 325.5,319.5C 321.934,321.359 319.6,320.359 318.5,316.5C 319.18,315.14 319.847,313.807 320.5,312.5 Z"/></g>
<g><path style="opacity:0.736" fill="#ed3a5f" d="M 185.5,318.5 C 191.729,318.027 193.395,320.36 190.5,325.5C 184.805,326.446 183.138,324.112 185.5,318.5 Z"/></g>
<g><path style="opacity:0.707" fill="#ed3a5f" d="M 312.5,322.5 C 317.266,323.158 318.6,325.658 316.5,330C 310.906,331.913 308.739,330.08 310,324.5C 310.995,323.934 311.828,323.267 312.5,322.5 Z"/></g>
<g><path style="opacity:0.736" fill="#ed3a5f" d="M 196.5,327.5 C 202.488,327.664 203.821,330.164 200.5,335C 194.403,335.147 193.07,332.647 196.5,327.5 Z"/></g>
<g><path style="opacity:0.707" fill="#ed3a5f" d="M 300.5,331.5 C 305.984,331.481 307.65,333.981 305.5,339C 298.745,339.756 297.078,337.256 300.5,331.5 Z"/></g>
<g><path style="opacity:0.722" fill="#ed3a5f" d="M 207.5,335.5 C 213.62,335.259 215.287,337.759 212.5,343C 206.98,343.37 205.313,340.87 207.5,335.5 Z"/></g>
<g><path style="opacity:0.736" fill="#ed3a5f" d="M 288.5,338.5 C 294.488,338.664 295.821,341.164 292.5,346C 286.403,346.147 285.07,343.647 288.5,338.5 Z"/></g>
<g><path style="opacity:0.709" fill="#ed3a5f" d="M 220.5,341.5 C 225.984,341.481 227.65,343.981 225.5,349C 218.745,349.756 217.078,347.256 220.5,341.5 Z"/></g>
<g><path style="opacity:0.709" fill="#ed3a5f" d="M 275.5,343.5 C 281.488,343.664 282.821,346.164 279.5,351C 273.202,351.495 271.868,348.995 275.5,343.5 Z"/></g>
<g><path style="opacity:0.815" fill="#ed3a5f" d="M 235.5,345.5 C 239.396,346.78 240.396,349.28 238.5,353C 235.153,354.206 232.82,353.206 231.5,350C 232.357,347.981 233.691,346.481 235.5,345.5 Z"/></g>
<g><path style="opacity:0.749" fill="#ed3a5f" d="M 262.5,346.5 C 267.266,347.158 268.6,349.658 266.5,354C 259.17,354.486 257.837,351.986 262.5,346.5 Z"/></g>
<g><path style="opacity:0.766" fill="#ed3a5f" d="M 246.5,348.5 C 252.113,347.079 254.28,349.079 253,354.5C 246.854,356.636 244.687,354.636 246.5,348.5 Z"/></g>
</svg>
