<?xml version="1.0" encoding="UTF-8"?>
<!DOCTYPE svg PUBLIC "-//W3C//DTD SVG 1.1//EN" "http://www.w3.org/Graphics/SVG/1.1/DTD/svg11.dtd">
<svg xmlns="http://www.w3.org/2000/svg" version="1.1" width="500px" height="500px" style="shape-rendering:geometricPrecision; text-rendering:geometricPrecision; image-rendering:optimizeQuality; fill-rule:evenodd; clip-rule:evenodd" xmlns:xlink="http://www.w3.org/1999/xlink">
<g><path style="opacity:1" fill="#f7f7f7" d="M -0.5,-0.5 C 166.167,-0.5 332.833,-0.5 499.5,-0.5C 499.5,166.167 499.5,332.833 499.5,499.5C 332.833,499.5 166.167,499.5 -0.5,499.5C -0.5,332.833 -0.5,166.167 -0.5,-0.5 Z M 129.5,171.5 C 163.251,167.915 192.084,177.915 216,201.5C 234.775,225.675 241.775,253.008 237,283.5C 231.412,317.86 212.579,341.694 180.5,355C 148.084,366.086 117.084,363.086 87.5,346C 60.7986,326.432 47.4653,299.932 47.5,266.5C 47.6636,229.983 62.9969,202.15 93.5,183C 105.011,177.217 117.011,173.384 129.5,171.5 Z M 332.5,171.5 C 358.294,168.373 380.128,176.04 398,194.5C 400.75,198.332 403.25,202.332 405.5,206.5C 406.325,207.386 407.325,207.719 408.5,207.5C 408.5,196.167 408.5,184.833 408.5,173.5C 423.833,173.5 439.167,173.5 454.5,173.5C 454.5,235.5 454.5,297.5 454.5,359.5C 439.167,359.5 423.833,359.5 408.5,359.5C 408.5,347.833 408.5,336.167 408.5,324.5C 407.325,324.281 406.325,324.614 405.5,325.5C 389.746,352.71 366.079,364.544 334.5,361C 303.411,356.902 281.911,340.402 270,311.5C 258.418,279.574 259.085,247.907 272,216.5C 284.38,190.943 304.547,175.943 332.5,171.5 Z M 429.5,192.5 C 429.5,191.5 429.5,190.5 429.5,189.5C 426.795,189.62 426.128,188.62 427.5,186.5C 429.833,185.167 432.167,185.167 434.5,186.5C 434.378,189.447 434.544,192.447 435,195.5C 433.192,197.396 431.025,197.896 428.5,197C 426.963,195.89 426.297,194.39 426.5,192.5C 427.5,192.5 428.5,192.5 429.5,192.5 Z M 116.5,190.5 C 118.167,190.5 119.833,190.5 121.5,190.5C 121.5,194.5 121.5,198.5 121.5,202.5C 120.167,202.5 118.833,202.5 117.5,202.5C 117.344,199.934 117.678,197.434 118.5,195C 117.586,193.594 116.92,192.094 116.5,190.5 Z M 404.5,218.5 C 412.1,218.213 413.767,221.046 409.5,227C 410.448,227.483 411.448,227.649 412.5,227.5C 412.5,228.5 412.5,229.5 412.5,230.5C 409.5,230.5 406.5,230.5 403.5,230.5C 403.351,229.448 403.517,228.448 404,227.5C 406.295,225.92 407.628,223.92 408,221.5C 406.89,223.037 405.39,223.703 403.5,223.5C 403.629,221.784 403.962,220.117 404.5,218.5 Z"/></g>
<g><path style="opacity:0.887" fill="#a5a6a5" d="M 128.5,170.5 C 158.737,166.972 185.737,174.472 209.5,193C 229.924,213.077 239.924,237.577 239.5,266.5C 237.513,321.316 209.513,353.149 155.5,362C 126.943,365.113 101.276,358.113 78.5,341C 52.5973,315.941 42.4306,285.441 48,249.5C 55.9159,203.75 82.7492,177.416 128.5,170.5 Z M 129.5,171.5 C 117.011,173.384 105.011,177.217 93.5,183C 62.9969,202.15 47.6636,229.983 47.5,266.5C 47.4653,299.932 60.7986,326.432 87.5,346C 117.084,363.086 148.084,366.086 180.5,355C 212.579,341.694 231.412,317.86 237,283.5C 241.775,253.008 234.775,225.675 216,201.5C 192.084,177.915 163.251,167.915 129.5,171.5 Z M 116.5,190.5 C 116.92,192.094 117.586,193.594 118.5,195C 117.678,197.434 117.344,199.934 117.5,202.5C 118.833,202.5 120.167,202.5 121.5,202.5C 121.5,198.5 121.5,194.5 121.5,190.5C 119.833,190.5 118.167,190.5 116.5,190.5 Z"/></g>
<g><path style="opacity:0.927" fill="#a5a6a5" d="M 331.5,170.5 C 358.014,166.948 380.514,174.614 399,193.5C 401.917,197.666 404.584,201.999 407,206.5C 407.5,195.172 407.667,183.838 407.5,172.5C 423.5,172.5 439.5,172.5 455.5,172.5C 455.5,235.167 455.5,297.833 455.5,360.5C 439.5,360.5 423.5,360.5 407.5,360.5C 407.667,348.829 407.5,337.162 407,325.5C 396.098,347.057 378.598,359.223 354.5,362C 303.977,364.476 273.477,340.976 263,291.5C 258.546,265.391 261.213,240.058 271,215.5C 283.38,189.943 303.547,174.943 331.5,170.5 Z M 332.5,171.5 C 304.547,175.943 284.38,190.943 272,216.5C 259.085,247.907 258.418,279.574 270,311.5C 281.911,340.402 303.411,356.902 334.5,361C 366.079,364.544 389.746,352.71 405.5,325.5C 406.325,324.614 407.325,324.281 408.5,324.5C 408.5,336.167 408.5,347.833 408.5,359.5C 423.833,359.5 439.167,359.5 454.5,359.5C 454.5,297.5 454.5,235.5 454.5,173.5C 439.167,173.5 423.833,173.5 408.5,173.5C 408.5,184.833 408.5,196.167 408.5,207.5C 407.325,207.719 406.325,207.386 405.5,206.5C 403.25,202.332 400.75,198.332 398,194.5C 380.128,176.04 358.294,168.373 332.5,171.5 Z M 429.5,192.5 C 428.5,192.5 427.5,192.5 426.5,192.5C 426.297,194.39 426.963,195.89 428.5,197C 431.025,197.896 433.192,197.396 435,195.5C 434.544,192.447 434.378,189.447 434.5,186.5C 432.167,185.167 429.833,185.167 427.5,186.5C 426.128,188.62 426.795,189.62 429.5,189.5C 429.5,190.5 429.5,191.5 429.5,192.5 Z M 404.5,218.5 C 403.962,220.117 403.629,221.784 403.5,223.5C 405.39,223.703 406.89,223.037 408,221.5C 407.628,223.92 406.295,225.92 404,227.5C 403.517,228.448 403.351,229.448 403.5,230.5C 406.5,230.5 409.5,230.5 412.5,230.5C 412.5,229.5 412.5,228.5 412.5,227.5C 411.448,227.649 410.448,227.483 409.5,227C 413.767,221.046 412.1,218.213 404.5,218.5 Z"/></g>
<g><path style="opacity:0.882" fill="#ed3a5f" d="M 426.5,179.5 C 439.512,177.178 444.679,182.512 442,195.5C 441.215,197.286 440.049,198.786 438.5,200C 425.074,204.238 419.241,199.404 421,185.5C 422.36,182.977 424.193,180.977 426.5,179.5 Z M 429.5,192.5 C 428.5,192.5 427.5,192.5 426.5,192.5C 426.297,194.39 426.963,195.89 428.5,197C 431.025,197.896 433.192,197.396 435,195.5C 434.544,192.447 434.378,189.447 434.5,186.5C 432.167,185.167 429.833,185.167 427.5,186.5C 426.128,188.62 426.795,189.62 429.5,189.5C 429.5,190.5 429.5,191.5 429.5,192.5 Z"/></g>
<g><path style="opacity:0.889" fill="#ed3a5f" d="M 114.5,184.5 C 126.99,182.823 132.157,188.156 130,200.5C 129.215,202.286 128.049,203.786 126.5,205C 113.074,209.238 107.241,204.404 109,190.5C 110.36,187.977 112.193,185.977 114.5,184.5 Z M 116.5,190.5 C 116.92,192.094 117.586,193.594 118.5,195C 117.678,197.434 117.344,199.934 117.5,202.5C 118.833,202.5 120.167,202.5 121.5,202.5C 121.5,198.5 121.5,194.5 121.5,190.5C 119.833,190.5 118.167,190.5 116.5,190.5 Z"/></g>
<g><path style="opacity:0.767" fill="#ed3a5f" d="M 149.5,187.5 C 154.914,186.565 156.914,188.565 155.5,193.5C 149.129,195.796 147.129,193.796 149.5,187.5 Z"/></g>
<g><path style="opacity:0.71" fill="#ed3a5f" d="M 162.5,191.5 C 168.113,190.079 170.28,192.079 169,197.5C 166.952,199.787 164.785,199.954 162.5,198C 161.232,195.837 161.232,193.67 162.5,191.5 Z"/></g>
<g><path style="opacity:0.764" fill="#ed3a5f" d="M 339.5,192.5 C 344.914,191.565 346.914,193.565 345.5,198.5C 339.129,200.796 337.129,198.796 339.5,192.5 Z"/></g>
<g><path style="opacity:0.722" fill="#ed3a5f" d="M 354.5,192.5 C 360.488,192.664 361.821,195.164 358.5,200C 352.412,200.084 351.079,197.584 354.5,192.5 Z"/></g>
<g><path style="opacity:1" fill="#ed3a5f" d="M 429.5,192.5 C 431.028,192.517 431.528,193.184 431,194.5C 430.283,193.956 429.783,193.289 429.5,192.5 Z"/></g>
<g><path style="opacity:0.765" fill="#ed3a5f" d="M 325.5,195.5 C 331.113,194.079 333.28,196.079 332,201.5C 325.854,203.636 323.687,201.636 325.5,195.5 Z"/></g>
<g><path style="opacity:0.75" fill="#ed3a5f" d="M 368.5,195.5 C 373.262,196.092 374.596,198.592 372.5,203C 368.872,204.316 366.539,203.149 365.5,199.5C 366.172,197.84 367.172,196.507 368.5,195.5 Z"/></g>
<g><path style="opacity:0.723" fill="#ed3a5f" d="M 175.5,197.5 C 181.313,197.062 182.98,199.562 180.5,205C 176.535,206.417 174.201,205.084 173.5,201C 174.305,199.887 174.972,198.721 175.5,197.5 Z"/></g>
<g><path style="opacity:0.816" fill="#ed3a5f" d="M 99.5,198.5 C 104.675,197.507 106.509,199.507 105,204.5C 101.76,206.827 99.26,205.994 97.5,202C 98.305,200.887 98.9717,199.721 99.5,198.5 Z"/></g>
<g><path style="opacity:0.708" fill="#ed3a5f" d="M 313.5,201.5 C 320.004,201.138 321.671,203.638 318.5,209C 312.785,209.401 311.119,206.901 313.5,201.5 Z"/></g>
<g><path style="opacity:0.721" fill="#ed3a5f" d="M 380.5,201.5 C 386.704,201.314 388.037,203.814 384.5,209C 380.945,210.123 378.945,208.789 378.5,205C 378.978,203.697 379.645,202.531 380.5,201.5 Z"/></g>
<g><path style="opacity:0.737" fill="#ed3a5f" d="M 186.5,206.5 C 192.704,206.314 194.037,208.814 190.5,214C 184.812,213.79 183.479,211.29 186.5,206.5 Z"/></g>
<g><path style="opacity:0.71" fill="#ed3a5f" d="M 88.5,207.5 C 95.004,207.138 96.6707,209.638 93.5,215C 87.7853,215.401 86.1187,212.901 88.5,207.5 Z"/></g>
<g><path style="opacity:0.721" fill="#ed3a5f" d="M 393.5,208.5 C 398.262,209.092 399.596,211.592 397.5,216C 392.502,217.33 390.336,215.496 391,210.5C 391.995,209.934 392.828,209.267 393.5,208.5 Z"/></g>
<g><path style="opacity:0.853" fill="#ed3a5f" d="M 427.5,209.5 C 433.158,208.679 434.825,210.846 432.5,216C 426.741,217.139 425.074,214.972 427.5,209.5 Z"/></g>
<g><path style="opacity:0.705" fill="#ed3a5f" d="M 303.5,210.5 C 308.75,210.236 310.416,212.569 308.5,217.5C 301.789,218.788 300.122,216.454 303.5,210.5 Z"/></g>
<g><path style="opacity:0.886" fill="#a5a6a5" d="M 136.5,211.5 C 166.778,210.535 184.611,224.869 190,254.5C 192.618,271.126 189.951,286.792 182,301.5C 165.995,320.794 146.162,325.961 122.5,317C 106.844,308.55 98.0104,295.383 96,277.5C 93.7055,261.265 96.3722,245.932 104,231.5C 112.204,220.445 123.037,213.778 136.5,211.5 Z"/></g>
<g><path style="opacity:0.886" fill="#a6a5a5" d="M 396.5,228.5 C 398.226,230.228 399.559,232.228 400.5,234.5C 407.513,247.238 410.013,260.905 408,275.5C 402.184,307.499 383.018,322.333 350.5,320C 326.797,315.629 313.297,301.463 310,277.5C 306.109,255.182 312.276,236.349 328.5,221C 348.506,208.427 368.506,208.427 388.5,221C 391.692,223.028 394.359,225.528 396.5,228.5 Z"/></g>
<g><path style="opacity:1" fill="#f7f8f7" d="M 137.5,212.5 C 166.993,212.165 184.159,226.498 189,255.5C 191.398,271.449 188.731,286.449 181,300.5C 165.65,319.464 146.484,324.631 123.5,316C 107.844,307.55 99.0104,294.383 97,276.5C 94.9258,260.943 97.5925,246.276 105,232.5C 113.204,221.445 124.037,214.778 137.5,212.5 Z"/></g>
<g><path style="opacity:1" fill="#f7f8f7" d="M 356.5,212.5 C 389.619,214.874 406.619,232.708 407.5,266C 406.889,298.438 390.556,316.271 358.5,319.5C 326.513,316.506 310.513,298.839 310.5,266.5C 310.534,235.152 325.867,217.152 356.5,212.5 Z"/></g>
<g><path style="opacity:0.894" fill="#ed3a5f" d="M 400.5,234.5 C 399.559,232.228 398.226,230.228 396.5,228.5C 395.323,216.511 400.656,211.678 412.5,214C 416.953,216.071 418.953,219.571 418.5,224.5C 418.953,229.429 416.953,232.929 412.5,235C 408.446,235.694 404.446,235.527 400.5,234.5 Z M 404.5,218.5 C 403.962,220.117 403.629,221.784 403.5,223.5C 405.39,223.703 406.89,223.037 408,221.5C 407.628,223.92 406.295,225.92 404,227.5C 403.517,228.448 403.351,229.448 403.5,230.5C 406.5,230.5 409.5,230.5 412.5,230.5C 412.5,229.5 412.5,228.5 412.5,227.5C 411.448,227.649 410.448,227.483 409.5,227C 413.767,221.046 412.1,218.213 404.5,218.5 Z"/></g>
<g><path style="opacity:0.767" fill="#ed3a5f" d="M 194.5,217.5 C 200.113,216.079 202.28,218.079 201,223.5C 194.854,225.636 192.687,223.636 194.5,217.5 Z"/></g>
<g><path style="opacity:0.737" fill="#ed3a5f" d="M 80.5,218.5 C 86.704,218.314 88.0374,220.814 84.5,226C 78.8121,225.79 77.4788,223.29 80.5,218.5 Z"/></g>
<g><path style="opacity:0.721" fill="#ed3a5f" d="M 294.5,221.5 C 300.235,220.821 301.902,223.155 299.5,228.5C 295.934,230.359 293.6,229.359 292.5,225.5C 293.18,224.14 293.847,222.807 294.5,221.5 Z"/></g>
<g><path style="opacity:0.835" fill="#ed3a5f" d="M 427.5,223.5 C 432.675,222.507 434.509,224.507 433,229.5C 431,232.167 429,232.167 427,229.5C 426.322,227.402 426.489,225.402 427.5,223.5 Z"/></g>
<g><path style="opacity:0.71" fill="#ed3a5f" d="M 202.5,229.5 C 208.704,229.314 210.037,231.814 206.5,237C 200.403,237.147 199.07,234.647 202.5,229.5 Z"/></g>
<g><path style="opacity:0.697" fill="#ed3a5f" d="M 74.5,230.5 C 79.7083,230.369 81.3749,232.702 79.5,237.5C 72.3692,239.27 70.7025,236.936 74.5,230.5 Z"/></g>
<g><path style="opacity:0.705" fill="#ed3a5f" d="M 288.5,233.5 C 292.06,232.891 294.06,234.391 294.5,238C 292.927,241.452 290.427,242.286 287,240.5C 286.185,237.802 286.685,235.468 288.5,233.5 Z"/></g>
<g><path style="opacity:0.782" fill="#ed3a5f" d="M 427.5,237.5 C 433.235,236.821 434.902,239.155 432.5,244.5C 426.805,245.446 425.138,243.112 427.5,237.5 Z"/></g>
<g><path style="opacity:0.71" fill="#ed3a5f" d="M 207.5,242.5 C 213.488,242.664 214.821,245.164 211.5,250C 208.099,251.135 206.099,249.968 205.5,246.5C 205.803,244.886 206.47,243.552 207.5,242.5 Z"/></g>
<g><path style="opacity:0.723" fill="#ed3a5f" d="M 69.5,244.5 C 75.1132,243.079 77.2799,245.079 76,250.5C 73.9517,252.787 71.7851,252.954 69.5,251C 68.3947,248.88 68.3947,246.713 69.5,244.5 Z"/></g>
<g><path style="opacity:0.708" fill="#ed3a5f" d="M 285.5,247.5 C 292.004,247.138 293.671,249.638 290.5,255C 284.785,255.401 283.119,252.901 285.5,247.5 Z"/></g>
<g><path style="opacity:0.766" fill="#ed3a5f" d="M 427.5,251.5 C 433.235,250.821 434.902,253.155 432.5,258.5C 430.833,259.833 429.167,259.833 427.5,258.5C 426.286,256.141 426.286,253.808 427.5,251.5 Z"/></g>
<g><path style="opacity:0.766" fill="#ed3a5f" d="M 209.5,256.5 C 215.235,255.821 216.902,258.155 214.5,263.5C 212.833,264.833 211.167,264.833 209.5,263.5C 208.286,261.141 208.286,258.808 209.5,256.5 Z"/></g>
<g><path style="opacity:0.831" fill="#ed3a5f" d="M 68.5,258.5 C 73.6752,257.507 75.5086,259.507 74,264.5C 72,267.167 70,267.167 68,264.5C 67.3224,262.402 67.4891,260.402 68.5,258.5 Z"/></g>
<g><path style="opacity:0.749" fill="#ed3a5f" d="M 285.5,261.5 C 291.235,260.821 292.902,263.155 290.5,268.5C 288.629,269.767 286.796,269.767 285,268.5C 284.297,266.071 284.463,263.738 285.5,261.5 Z"/></g>
<g><path style="opacity:0.766" fill="#ed3a5f" d="M 427.5,265.5 C 433.235,264.821 434.902,267.155 432.5,272.5C 430.833,273.833 429.167,273.833 427.5,272.5C 426.286,270.141 426.286,267.808 427.5,265.5 Z"/></g>
<g><path style="opacity:0.751" fill="#ed3a5f" d="M 209.5,270.5 C 215.704,270.314 217.037,272.814 213.5,278C 207.834,277.835 206.501,275.335 209.5,270.5 Z"/></g>
<g><path style="opacity:0.734" fill="#ed3a5f" d="M 68.5,272.5 C 74.1132,271.079 76.2799,273.079 75,278.5C 68.423,281.088 66.2563,279.088 68.5,272.5 Z"/></g>
<g><path style="opacity:0.708" fill="#ed3a5f" d="M 286.5,275.5 C 293.004,275.138 294.671,277.638 291.5,283C 285.785,283.401 284.119,280.901 286.5,275.5 Z"/></g>
<g><path style="opacity:0.768" fill="#ed3a5f" d="M 427.5,279.5 C 433.235,278.821 434.902,281.155 432.5,286.5C 430.833,287.833 429.167,287.833 427.5,286.5C 426.286,284.141 426.286,281.808 427.5,279.5 Z"/></g>
<g><path style="opacity:0.752" fill="#ed3a5f" d="M 208.5,283.5 C 213.328,284.641 214.328,287.141 211.5,291C 206.333,292.5 204.5,290.667 206,285.5C 206.995,284.934 207.828,284.267 208.5,283.5 Z"/></g>
<g><path style="opacity:0.735" fill="#ed3a5f" d="M 72.5,285.5 C 77.2624,286.092 78.5957,288.592 76.5,293C 69.17,293.486 67.8367,290.986 72.5,285.5 Z"/></g>
<g><path style="opacity:0.75" fill="#ed3a5f" d="M 411.5,288.5 C 416.881,288.452 418.547,290.952 416.5,296C 410.593,296.746 408.927,294.246 411.5,288.5 Z"/></g>
<g><path style="opacity:0.734" fill="#ed3a5f" d="M 289.5,289.5 C 295.113,288.079 297.28,290.079 296,295.5C 289.423,298.088 287.256,296.088 289.5,289.5 Z"/></g>
<g><path style="opacity:0.768" fill="#ed3a5f" d="M 427.5,293.5 C 433.235,292.821 434.902,295.155 432.5,300.5C 430.833,301.833 429.167,301.833 427.5,300.5C 426.286,298.141 426.286,295.808 427.5,293.5 Z"/></g>
<g><path style="opacity:0.749" fill="#ed3a5f" d="M 80.5,297.5 C 84.3958,298.78 85.3958,301.28 83.5,305C 78.0984,306.421 76.0984,304.588 77.5,299.5C 78.6016,298.824 79.6016,298.158 80.5,297.5 Z"/></g>
<g><path style="opacity:0.721" fill="#ed3a5f" d="M 201.5,297.5 C 207.113,296.079 209.28,298.079 208,303.5C 206.04,305.899 203.874,306.065 201.5,304C 200.232,301.837 200.232,299.67 201.5,297.5 Z"/></g>
<g><path style="opacity:0.735" fill="#ed3a5f" d="M 296.5,301.5 C 301.262,302.092 302.596,304.592 300.5,309C 293.17,309.486 291.837,306.986 296.5,301.5 Z"/></g>
<g><path style="opacity:0.762" fill="#ed3a5f" d="M 404.5,301.5 C 410.113,300.079 412.28,302.079 411,307.5C 404.854,309.636 402.687,307.636 404.5,301.5 Z"/></g>
<g><path style="opacity:0.767" fill="#ed3a5f" d="M 427.5,307.5 C 433.235,306.821 434.902,309.155 432.5,314.5C 430.833,315.833 429.167,315.833 427.5,314.5C 426.286,312.141 426.286,309.808 427.5,307.5 Z"/></g>
<g><path style="opacity:0.737" fill="#ed3a5f" d="M 86.5,309.5 C 92.7286,309.027 94.3953,311.36 91.5,316.5C 85.8045,317.446 84.1378,315.112 86.5,309.5 Z"/></g>
<g><path style="opacity:0.723" fill="#ed3a5f" d="M 194.5,309.5 C 200.113,308.079 202.28,310.079 201,315.5C 198.952,317.787 196.785,317.954 194.5,316C 193.395,313.88 193.395,311.713 194.5,309.5 Z"/></g>
<g><path style="opacity:0.707" fill="#ed3a5f" d="M 397.5,312.5 C 402.881,312.452 404.547,314.952 402.5,320C 395.798,320.802 394.132,318.302 397.5,312.5 Z"/></g>
<g><path style="opacity:0.735" fill="#ed3a5f" d="M 303.5,313.5 C 309.488,313.664 310.821,316.164 307.5,321C 301.403,321.147 300.07,318.647 303.5,313.5 Z"/></g>
<g><path style="opacity:0.75" fill="#ed3a5f" d="M 96.5,319.5 C 102.476,319.157 104.142,321.49 101.5,326.5C 99.8333,327.833 98.1667,327.833 96.5,326.5C 95.2857,324.141 95.2857,321.808 96.5,319.5 Z"/></g>
<g><path style="opacity:0.71" fill="#ed3a5f" d="M 186.5,319.5 C 192.488,319.664 193.821,322.164 190.5,327C 184.202,327.495 182.868,324.995 186.5,319.5 Z"/></g>
<g><path style="opacity:0.737" fill="#ed3a5f" d="M 427.5,321.5 C 433.313,321.062 434.98,323.562 432.5,329C 426.593,329.746 424.927,327.246 427.5,321.5 Z"/></g>
<g><path style="opacity:0.72" fill="#ed3a5f" d="M 312.5,323.5 C 319.004,323.138 320.671,325.638 317.5,331C 311.788,331.433 310.122,328.933 312.5,323.5 Z"/></g>
<g><path style="opacity:0.733" fill="#ed3a5f" d="M 387.5,323.5 C 393.113,322.079 395.28,324.079 394,329.5C 387.423,332.088 385.256,330.088 387.5,323.5 Z"/></g>
<g><path style="opacity:0.708" fill="#ed3a5f" d="M 108.5,327.5 C 114.488,327.664 115.821,330.164 112.5,335C 109.099,336.135 107.099,334.968 106.5,331.5C 106.803,329.886 107.47,328.552 108.5,327.5 Z"/></g>
<g><path style="opacity:0.75" fill="#ed3a5f" d="M 175.5,327.5 C 176.93,327.421 178.264,327.754 179.5,328.5C 181.914,334.024 180.248,336.191 174.5,335C 172.315,332.322 172.649,329.822 175.5,327.5 Z"/></g>
<g><path style="opacity:0.796" fill="#ed3a5f" d="M 324.5,331.5 C 329.006,330.527 331.172,332.194 331,336.5C 324.645,340.201 322.478,338.534 324.5,331.5 Z"/></g>
<g><path style="opacity:0.708" fill="#ed3a5f" d="M 377.5,331.5 C 382.708,331.369 384.375,333.702 382.5,338.5C 375.699,339.903 374.032,337.57 377.5,331.5 Z"/></g>
<g><path style="opacity:0.723" fill="#ed3a5f" d="M 120.5,333.5 C 125.881,333.452 127.547,335.952 125.5,341C 119.206,341.578 117.539,339.078 120.5,333.5 Z"/></g>
<g><path style="opacity:0.71" fill="#ed3a5f" d="M 162.5,333.5 C 166.06,332.891 168.06,334.391 168.5,338C 166.927,341.452 164.427,342.286 161,340.5C 160.185,337.802 160.685,335.468 162.5,333.5 Z"/></g>
<g><path style="opacity:0.738" fill="#ed3a5f" d="M 427.5,335.5 C 433.313,335.062 434.98,337.562 432.5,343C 426.593,343.746 424.927,341.246 427.5,335.5 Z"/></g>
<g><path style="opacity:0.723" fill="#ed3a5f" d="M 149.5,336.5 C 154.266,337.158 155.6,339.658 153.5,344C 148.338,345.424 146.171,343.59 147,338.5C 147.995,337.934 148.828,337.267 149.5,336.5 Z"/></g>
<g><path style="opacity:0.721" fill="#ed3a5f" d="M 337.5,336.5 C 343.313,336.062 344.98,338.562 342.5,344C 338.535,345.417 336.201,344.084 335.5,340C 336.305,338.887 336.972,337.721 337.5,336.5 Z"/></g>
<g><path style="opacity:0.737" fill="#ed3a5f" d="M 133.5,337.5 C 139.113,336.079 141.28,338.079 140,343.5C 133.423,346.088 131.256,344.088 133.5,337.5 Z"/></g>
<g><path style="opacity:0.735" fill="#ed3a5f" d="M 364.5,338.5 C 370.729,338.027 372.395,340.36 369.5,345.5C 363.805,346.446 362.138,344.112 364.5,338.5 Z"/></g>
<g><path style="opacity:0.735" fill="#ed3a5f" d="M 350.5,340.5 C 356.113,339.079 358.28,341.079 357,346.5C 350.423,349.088 348.256,347.088 350.5,340.5 Z"/></g>
</svg>
