<?xml version="1.0" encoding="UTF-8"?>
<!DOCTYPE svg PUBLIC "-//W3C//DTD SVG 1.1//EN" "http://www.w3.org/Graphics/SVG/1.1/DTD/svg11.dtd">
<svg xmlns="http://www.w3.org/2000/svg" version="1.1" width="500px" height="500px" style="shape-rendering:geometricPrecision; text-rendering:geometricPrecision; image-rendering:optimizeQuality; fill-rule:evenodd; clip-rule:evenodd" xmlns:xlink="http://www.w3.org/1999/xlink">
<g><path style="opacity:1" fill="#f7f7f7" d="M -0.5,-0.5 C 166.167,-0.5 332.833,-0.5 499.5,-0.5C 499.5,166.167 499.5,332.833 499.5,499.5C 332.833,499.5 166.167,499.5 -0.5,499.5C -0.5,332.833 -0.5,166.167 -0.5,-0.5 Z M 300.5,90.5 C 310.756,88.9635 320.089,91.1301 328.5,97C 336.874,105.914 338.707,116.081 334,127.5C 327.779,136.612 319.112,141.279 308,141.5C 291.107,140.77 281.274,132.104 278.5,115.5C 280.232,102.108 287.566,93.7746 300.5,90.5 Z M 306.5,117.5 C 306.5,116.5 306.5,115.5 306.5,114.5C 303.795,114.62 303.128,113.62 304.5,111.5C 306.833,110.167 309.167,110.167 311.5,111.5C 311.378,114.447 311.544,117.447 312,120.5C 310.192,122.396 308.025,122.896 305.5,122C 303.963,120.89 303.297,119.39 303.5,117.5C 304.5,117.5 305.5,117.5 306.5,117.5 Z M 142.5,167.5 C 176.251,163.915 205.084,173.915 229,197.5C 247.775,221.675 254.775,249.008 250,279.5C 244.412,313.86 225.579,337.694 193.5,351C 161.084,362.086 130.084,359.086 100.5,342C 73.7986,322.432 60.4653,295.932 60.5,262.5C 60.6636,225.983 75.9969,198.15 106.5,179C 118.011,173.217 130.011,169.384 142.5,167.5 Z M 284.5,169.5 C 300.167,169.5 315.833,169.5 331.5,169.5C 331.5,231.5 331.5,293.5 331.5,355.5C 315.833,355.5 300.167,355.5 284.5,355.5C 284.5,293.5 284.5,231.5 284.5,169.5 Z M 305.5,182.5 C 313.1,182.213 314.767,185.046 310.5,191C 311.448,191.483 312.448,191.649 313.5,191.5C 313.5,192.5 313.5,193.5 313.5,194.5C 310.5,194.5 307.5,194.5 304.5,194.5C 304.351,193.448 304.517,192.448 305,191.5C 307.295,189.92 308.628,187.92 309,185.5C 307.89,187.037 306.39,187.703 304.5,187.5C 304.629,185.784 304.962,184.117 305.5,182.5 Z M 139.5,183.5 C 141.167,183.5 142.833,183.5 144.5,183.5C 144.5,187.5 144.5,191.5 144.5,195.5C 143.167,195.5 141.833,195.5 140.5,195.5C 140.665,192.482 140.498,189.482 140,186.5C 138.272,185.648 138.105,184.648 139.5,183.5 Z"/></g>
<g><path style="opacity:0.889" fill="#a5a6a5" d="M 299.5,89.5 C 310.405,87.8843 320.405,90.051 329.5,96C 336.85,103.392 339.35,112.225 337,122.5C 335.474,129.362 331.641,134.528 325.5,138C 313.034,143.854 300.7,143.52 288.5,137C 274.396,123.28 274.063,109.28 287.5,95C 291.284,92.4713 295.284,90.638 299.5,89.5 Z M 300.5,90.5 C 287.566,93.7746 280.232,102.108 278.5,115.5C 281.274,132.104 291.107,140.77 308,141.5C 319.112,141.279 327.779,136.612 334,127.5C 338.707,116.081 336.874,105.914 328.5,97C 320.089,91.1301 310.756,88.9635 300.5,90.5 Z M 306.5,117.5 C 305.5,117.5 304.5,117.5 303.5,117.5C 303.297,119.39 303.963,120.89 305.5,122C 308.025,122.896 310.192,122.396 312,120.5C 311.544,117.447 311.378,114.447 311.5,111.5C 309.167,110.167 306.833,110.167 304.5,111.5C 303.128,113.62 303.795,114.62 306.5,114.5C 306.5,115.5 306.5,116.5 306.5,117.5 Z"/></g>
<g><path style="opacity:0.882" fill="#ed3a5f" d="M 303.5,104.5 C 316.512,102.178 321.679,107.512 319,120.5C 318.215,122.286 317.049,123.786 315.5,125C 302.074,129.238 296.241,124.404 298,110.5C 299.36,107.977 301.193,105.977 303.5,104.5 Z M 306.5,117.5 C 305.5,117.5 304.5,117.5 303.5,117.5C 303.297,119.39 303.963,120.89 305.5,122C 308.025,122.896 310.192,122.396 312,120.5C 311.544,117.447 311.378,114.447 311.5,111.5C 309.167,110.167 306.833,110.167 304.5,111.5C 303.128,113.62 303.795,114.62 306.5,114.5C 306.5,115.5 306.5,116.5 306.5,117.5 Z"/></g>
<g><path style="opacity:1" fill="#ed3a5f" d="M 306.5,117.5 C 308.028,117.517 308.528,118.184 308,119.5C 307.283,118.956 306.783,118.289 306.5,117.5 Z"/></g>
<g><path style="opacity:0.887" fill="#a5a6a5" d="M 141.5,166.5 C 171.737,162.972 198.737,170.472 222.5,189C 242.924,209.077 252.924,233.577 252.5,262.5C 250.513,317.316 222.513,349.149 168.5,358C 139.943,361.113 114.276,354.113 91.5,337C 65.5973,311.941 55.4306,281.441 61,245.5C 68.9159,199.75 95.7492,173.416 141.5,166.5 Z M 142.5,167.5 C 130.011,169.384 118.011,173.217 106.5,179C 75.9969,198.15 60.6636,225.983 60.5,262.5C 60.4653,295.932 73.7986,322.432 100.5,342C 130.084,359.086 161.084,362.086 193.5,351C 225.579,337.694 244.412,313.86 250,279.5C 254.775,249.008 247.775,221.675 229,197.5C 205.084,173.915 176.251,163.915 142.5,167.5 Z M 139.5,183.5 C 138.105,184.648 138.272,185.648 140,186.5C 140.498,189.482 140.665,192.482 140.5,195.5C 141.833,195.5 143.167,195.5 144.5,195.5C 144.5,191.5 144.5,187.5 144.5,183.5C 142.833,183.5 141.167,183.5 139.5,183.5 Z"/></g>
<g><path style="opacity:1" fill="#a5a6a5" d="M 283.5,168.5 C 299.833,168.5 316.167,168.5 332.5,168.5C 332.5,231.167 332.5,293.833 332.5,356.5C 316.167,356.5 299.833,356.5 283.5,356.5C 283.5,293.833 283.5,231.167 283.5,168.5 Z M 284.5,169.5 C 284.5,231.5 284.5,293.5 284.5,355.5C 300.167,355.5 315.833,355.5 331.5,355.5C 331.5,293.5 331.5,231.5 331.5,169.5C 315.833,169.5 300.167,169.5 284.5,169.5 Z M 305.5,182.5 C 304.962,184.117 304.629,185.784 304.5,187.5C 306.39,187.703 307.89,187.037 309,185.5C 308.628,187.92 307.295,189.92 305,191.5C 304.517,192.448 304.351,193.448 304.5,194.5C 307.5,194.5 310.5,194.5 313.5,194.5C 313.5,193.5 313.5,192.5 313.5,191.5C 312.448,191.649 311.448,191.483 310.5,191C 314.767,185.046 313.1,182.213 305.5,182.5 Z"/></g>
<g><path style="opacity:0.899" fill="#ed3a5f" d="M 137.5,177.5 C 149.99,175.823 155.157,181.156 153,193.5C 152.215,195.286 151.049,196.786 149.5,198C 136.074,202.238 130.241,197.404 132,183.5C 133.36,180.977 135.193,178.977 137.5,177.5 Z M 139.5,183.5 C 138.105,184.648 138.272,185.648 140,186.5C 140.498,189.482 140.665,192.482 140.5,195.5C 141.833,195.5 143.167,195.5 144.5,195.5C 144.5,191.5 144.5,187.5 144.5,183.5C 142.833,183.5 141.167,183.5 139.5,183.5 Z"/></g>
<g><path style="opacity:0.89" fill="#ed3a5f" d="M 303.5,177.5 C 315.99,175.823 321.157,181.156 319,193.5C 318.215,195.286 317.049,196.786 315.5,198C 302.074,202.238 296.241,197.404 298,183.5C 299.36,180.977 301.193,178.977 303.5,177.5 Z M 305.5,182.5 C 304.962,184.117 304.629,185.784 304.5,187.5C 306.39,187.703 307.89,187.037 309,185.5C 308.628,187.92 307.295,189.92 305,191.5C 304.517,192.448 304.351,193.448 304.5,194.5C 307.5,194.5 310.5,194.5 313.5,194.5C 313.5,193.5 313.5,192.5 313.5,191.5C 312.448,191.649 311.448,191.483 310.5,191C 314.767,185.046 313.1,182.213 305.5,182.5 Z"/></g>
<g><path style="opacity:0.767" fill="#ed3a5f" d="M 161.5,187.5 C 166.914,186.565 168.914,188.565 167.5,193.5C 161.129,195.796 159.129,193.796 161.5,187.5 Z"/></g>
<g><path style="opacity:0.733" fill="#ed3a5f" d="M 123.5,191.5 C 129.729,191.027 131.395,193.36 128.5,198.5C 122.805,199.446 121.138,197.112 123.5,191.5 Z"/></g>
<g><path style="opacity:0.71" fill="#ed3a5f" d="M 174.5,191.5 C 180.113,190.079 182.28,192.079 181,197.5C 178.952,199.787 176.785,199.954 174.5,198C 173.232,195.837 173.232,193.67 174.5,191.5 Z"/></g>
<g><path style="opacity:0.723" fill="#ed3a5f" d="M 187.5,197.5 C 193.313,197.062 194.98,199.562 192.5,205C 188.535,206.417 186.201,205.084 185.5,201C 186.305,199.887 186.972,198.721 187.5,197.5 Z"/></g>
<g><path style="opacity:0.816" fill="#ed3a5f" d="M 111.5,198.5 C 116.675,197.507 118.509,199.507 117,204.5C 113.76,206.827 111.26,205.994 109.5,202C 110.305,200.887 110.972,199.721 111.5,198.5 Z"/></g>
<g><path style="opacity:0.737" fill="#ed3a5f" d="M 198.5,206.5 C 204.704,206.314 206.037,208.814 202.5,214C 196.812,213.79 195.479,211.29 198.5,206.5 Z"/></g>
<g><path style="opacity:0.71" fill="#ed3a5f" d="M 100.5,207.5 C 107.004,207.138 108.671,209.638 105.5,215C 99.7853,215.401 98.1187,212.901 100.5,207.5 Z"/></g>
<g><path style="opacity:0.886" fill="#a5a6a5" d="M 149.5,207.5 C 179.778,206.535 197.611,220.869 203,250.5C 205.618,267.126 202.951,282.792 195,297.5C 178.995,316.794 159.162,321.961 135.5,313C 119.844,304.55 111.01,291.383 109,273.5C 106.705,257.265 109.372,241.932 117,227.5C 125.204,216.445 136.037,209.778 149.5,207.5 Z"/></g>
<g><path style="opacity:1" fill="#f7f8f7" d="M 150.5,208.5 C 179.993,208.165 197.159,222.498 202,251.5C 204.398,267.449 201.731,282.449 194,296.5C 178.65,315.464 159.484,320.631 136.5,312C 120.844,303.55 112.01,290.383 110,272.5C 107.926,256.943 110.592,242.276 118,228.5C 126.204,217.445 137.037,210.778 150.5,208.5 Z"/></g>
<g><path style="opacity:0.853" fill="#ed3a5f" d="M 306.5,209.5 C 312.158,208.679 313.825,210.846 311.5,216C 305.741,217.139 304.074,214.972 306.5,209.5 Z"/></g>
<g><path style="opacity:0.767" fill="#ed3a5f" d="M 206.5,217.5 C 212.113,216.079 214.28,218.079 213,223.5C 206.854,225.636 204.687,223.636 206.5,217.5 Z"/></g>
<g><path style="opacity:0.737" fill="#ed3a5f" d="M 92.5,218.5 C 98.704,218.314 100.037,220.814 96.5,226C 90.8121,225.79 89.4788,223.29 92.5,218.5 Z"/></g>
<g><path style="opacity:0.835" fill="#ed3a5f" d="M 306.5,223.5 C 311.675,222.507 313.509,224.507 312,229.5C 310,232.167 308,232.167 306,229.5C 305.322,227.402 305.489,225.402 306.5,223.5 Z"/></g>
<g><path style="opacity:0.71" fill="#ed3a5f" d="M 214.5,229.5 C 220.704,229.314 222.037,231.814 218.5,237C 212.403,237.147 211.07,234.647 214.5,229.5 Z"/></g>
<g><path style="opacity:0.697" fill="#ed3a5f" d="M 86.5,230.5 C 91.7083,230.369 93.3749,232.702 91.5,237.5C 84.3692,239.27 82.7025,236.936 86.5,230.5 Z"/></g>
<g><path style="opacity:0.782" fill="#ed3a5f" d="M 306.5,237.5 C 312.235,236.821 313.902,239.155 311.5,244.5C 305.805,245.446 304.138,243.112 306.5,237.5 Z"/></g>
<g><path style="opacity:0.71" fill="#ed3a5f" d="M 219.5,242.5 C 225.488,242.664 226.821,245.164 223.5,250C 220.099,251.135 218.099,249.968 217.5,246.5C 217.803,244.886 218.47,243.552 219.5,242.5 Z"/></g>
<g><path style="opacity:0.723" fill="#ed3a5f" d="M 81.5,244.5 C 87.1132,243.079 89.2799,245.079 88,250.5C 85.9517,252.787 83.7851,252.954 81.5,251C 80.3947,248.88 80.3947,246.713 81.5,244.5 Z"/></g>
<g><path style="opacity:0.766" fill="#ed3a5f" d="M 306.5,251.5 C 312.235,250.821 313.902,253.155 311.5,258.5C 309.833,259.833 308.167,259.833 306.5,258.5C 305.286,256.141 305.286,253.808 306.5,251.5 Z"/></g>
<g><path style="opacity:0.766" fill="#ed3a5f" d="M 221.5,256.5 C 227.235,255.821 228.902,258.155 226.5,263.5C 224.833,264.833 223.167,264.833 221.5,263.5C 220.286,261.141 220.286,258.808 221.5,256.5 Z"/></g>
<g><path style="opacity:0.831" fill="#ed3a5f" d="M 80.5,258.5 C 85.6752,257.507 87.5086,259.507 86,264.5C 84,267.167 82,267.167 80,264.5C 79.3224,262.402 79.4891,260.402 80.5,258.5 Z"/></g>
<g><path style="opacity:0.766" fill="#ed3a5f" d="M 306.5,265.5 C 312.235,264.821 313.902,267.155 311.5,272.5C 309.833,273.833 308.167,273.833 306.5,272.5C 305.286,270.141 305.286,267.808 306.5,265.5 Z"/></g>
<g><path style="opacity:0.751" fill="#ed3a5f" d="M 221.5,270.5 C 227.704,270.314 229.037,272.814 225.5,278C 219.834,277.835 218.501,275.335 221.5,270.5 Z"/></g>
<g><path style="opacity:0.734" fill="#ed3a5f" d="M 80.5,272.5 C 86.1132,271.079 88.2799,273.079 87,278.5C 80.423,281.088 78.2563,279.088 80.5,272.5 Z"/></g>
<g><path style="opacity:0.768" fill="#ed3a5f" d="M 306.5,279.5 C 312.235,278.821 313.902,281.155 311.5,286.5C 309.833,287.833 308.167,287.833 306.5,286.5C 305.286,284.141 305.286,281.808 306.5,279.5 Z"/></g>
<g><path style="opacity:0.752" fill="#ed3a5f" d="M 220.5,283.5 C 225.328,284.641 226.328,287.141 223.5,291C 218.333,292.5 216.5,290.667 218,285.5C 218.995,284.934 219.828,284.267 220.5,283.5 Z"/></g>
<g><path style="opacity:0.735" fill="#ed3a5f" d="M 84.5,285.5 C 89.2624,286.092 90.5957,288.592 88.5,293C 81.17,293.486 79.8367,290.986 84.5,285.5 Z"/></g>
<g><path style="opacity:0.768" fill="#ed3a5f" d="M 306.5,293.5 C 312.235,292.821 313.902,295.155 311.5,300.5C 309.833,301.833 308.167,301.833 306.5,300.5C 305.286,298.141 305.286,295.808 306.5,293.5 Z"/></g>
<g><path style="opacity:0.749" fill="#ed3a5f" d="M 92.5,297.5 C 96.3958,298.78 97.3958,301.28 95.5,305C 90.0984,306.421 88.0984,304.588 89.5,299.5C 90.6016,298.824 91.6016,298.158 92.5,297.5 Z"/></g>
<g><path style="opacity:0.721" fill="#ed3a5f" d="M 213.5,297.5 C 219.113,296.079 221.28,298.079 220,303.5C 218.04,305.899 215.874,306.065 213.5,304C 212.232,301.837 212.232,299.67 213.5,297.5 Z"/></g>
<g><path style="opacity:0.767" fill="#ed3a5f" d="M 306.5,307.5 C 312.235,306.821 313.902,309.155 311.5,314.5C 309.833,315.833 308.167,315.833 306.5,314.5C 305.286,312.141 305.286,309.808 306.5,307.5 Z"/></g>
<g><path style="opacity:0.737" fill="#ed3a5f" d="M 98.5,309.5 C 104.729,309.027 106.395,311.36 103.5,316.5C 97.8045,317.446 96.1378,315.112 98.5,309.5 Z"/></g>
<g><path style="opacity:0.723" fill="#ed3a5f" d="M 206.5,309.5 C 212.113,308.079 214.28,310.079 213,315.5C 210.952,317.787 208.785,317.954 206.5,316C 205.395,313.88 205.395,311.713 206.5,309.5 Z"/></g>
<g><path style="opacity:0.75" fill="#ed3a5f" d="M 108.5,319.5 C 114.476,319.157 116.142,321.49 113.5,326.5C 111.833,327.833 110.167,327.833 108.5,326.5C 107.286,324.141 107.286,321.808 108.5,319.5 Z"/></g>
<g><path style="opacity:0.71" fill="#ed3a5f" d="M 198.5,319.5 C 204.488,319.664 205.821,322.164 202.5,327C 196.202,327.495 194.868,324.995 198.5,319.5 Z"/></g>
<g><path style="opacity:0.737" fill="#ed3a5f" d="M 306.5,321.5 C 312.313,321.062 313.98,323.562 311.5,329C 305.593,329.746 303.927,327.246 306.5,321.5 Z"/></g>
<g><path style="opacity:0.708" fill="#ed3a5f" d="M 120.5,327.5 C 126.488,327.664 127.821,330.164 124.5,335C 121.099,336.135 119.099,334.968 118.5,331.5C 118.803,329.886 119.47,328.552 120.5,327.5 Z"/></g>
<g><path style="opacity:0.75" fill="#ed3a5f" d="M 187.5,327.5 C 188.93,327.421 190.264,327.754 191.5,328.5C 193.914,334.024 192.248,336.191 186.5,335C 184.315,332.322 184.649,329.822 187.5,327.5 Z"/></g>
<g><path style="opacity:0.723" fill="#ed3a5f" d="M 132.5,333.5 C 137.881,333.452 139.547,335.952 137.5,341C 131.206,341.578 129.539,339.078 132.5,333.5 Z"/></g>
<g><path style="opacity:0.71" fill="#ed3a5f" d="M 174.5,333.5 C 178.06,332.891 180.06,334.391 180.5,338C 178.927,341.452 176.427,342.286 173,340.5C 172.185,337.802 172.685,335.468 174.5,333.5 Z"/></g>
<g><path style="opacity:0.738" fill="#ed3a5f" d="M 306.5,335.5 C 312.313,335.062 313.98,337.562 311.5,343C 305.593,343.746 303.927,341.246 306.5,335.5 Z"/></g>
<g><path style="opacity:0.723" fill="#ed3a5f" d="M 161.5,336.5 C 166.266,337.158 167.6,339.658 165.5,344C 160.338,345.424 158.171,343.59 159,338.5C 159.995,337.934 160.828,337.267 161.5,336.5 Z"/></g>
<g><path style="opacity:0.737" fill="#ed3a5f" d="M 145.5,337.5 C 151.113,336.079 153.28,338.079 152,343.5C 145.423,346.088 143.256,344.088 145.5,337.5 Z"/></g>
</svg>
