<?xml version="1.0" encoding="UTF-8"?>
<!DOCTYPE svg PUBLIC "-//W3C//DTD SVG 1.1//EN" "http://www.w3.org/Graphics/SVG/1.1/DTD/svg11.dtd">
<svg xmlns="http://www.w3.org/2000/svg" version="1.1" width="500px" height="500px" style="shape-rendering:geometricPrecision; text-rendering:geometricPrecision; image-rendering:optimizeQuality; fill-rule:evenodd; clip-rule:evenodd" xmlns:xlink="http://www.w3.org/1999/xlink">
<g><path style="opacity:1" fill="#f7f7f7" d="M -0.5,-0.5 C 166.167,-0.5 332.833,-0.5 499.5,-0.5C 499.5,166.167 499.5,332.833 499.5,499.5C 332.833,499.5 166.167,499.5 -0.5,499.5C -0.5,332.833 -0.5,166.167 -0.5,-0.5 Z M 129.5,170.5 C 163.251,166.915 192.084,176.915 216,200.5C 234.775,224.675 241.775,252.008 237,282.5C 231.412,316.86 212.579,340.694 180.5,354C 148.084,365.086 117.084,362.086 87.5,345C 60.7986,325.432 47.4653,298.932 47.5,265.5C 47.6636,228.983 62.9969,201.15 93.5,182C 105.011,176.217 117.011,172.384 129.5,170.5 Z M 343.5,170.5 C 377.251,166.915 406.084,176.915 430,200.5C 448.775,224.675 455.775,252.008 451,282.5C 445.412,316.86 426.579,340.694 394.5,354C 362.084,365.086 331.084,362.086 301.5,345C 274.799,325.432 261.465,298.932 261.5,265.5C 261.664,228.983 276.997,201.15 307.5,182C 319.011,176.217 331.011,172.384 343.5,170.5 Z M 345.5,182.5 C 353.1,182.213 354.767,185.046 350.5,191C 351.448,191.483 352.448,191.649 353.5,191.5C 353.5,192.5 353.5,193.5 353.5,194.5C 350.5,194.5 347.5,194.5 344.5,194.5C 344.351,193.448 344.517,192.448 345,191.5C 347.295,189.92 348.628,187.92 349,185.5C 347.89,187.037 346.39,187.703 344.5,187.5C 344.629,185.784 344.962,184.117 345.5,182.5 Z M 126.5,183.5 C 128.167,183.5 129.833,183.5 131.5,183.5C 131.5,187.5 131.5,191.5 131.5,195.5C 130.167,195.5 128.833,195.5 127.5,195.5C 127.665,192.482 127.498,189.482 127,186.5C 125.272,185.648 125.105,184.648 126.5,183.5 Z"/></g>
<g><path style="opacity:0.887" fill="#a5a6a5" d="M 128.5,169.5 C 158.737,165.972 185.737,173.472 209.5,192C 229.924,212.077 239.924,236.577 239.5,265.5C 237.513,320.316 209.513,352.149 155.5,361C 126.943,364.113 101.276,357.113 78.5,340C 52.5973,314.941 42.4306,284.441 48,248.5C 55.9159,202.75 82.7492,176.416 128.5,169.5 Z M 129.5,170.5 C 117.011,172.384 105.011,176.217 93.5,182C 62.9969,201.15 47.6636,228.983 47.5,265.5C 47.4653,298.932 60.7986,325.432 87.5,345C 117.084,362.086 148.084,365.086 180.5,354C 212.579,340.694 231.412,316.86 237,282.5C 241.775,252.008 234.775,224.675 216,200.5C 192.084,176.915 163.251,166.915 129.5,170.5 Z M 126.5,183.5 C 125.105,184.648 125.272,185.648 127,186.5C 127.498,189.482 127.665,192.482 127.5,195.5C 128.833,195.5 130.167,195.5 131.5,195.5C 131.5,191.5 131.5,187.5 131.5,183.5C 129.833,183.5 128.167,183.5 126.5,183.5 Z"/></g>
<g><path style="opacity:0.887" fill="#a5a6a5" d="M 342.5,169.5 C 372.737,165.972 399.737,173.472 423.5,192C 443.924,212.077 453.924,236.577 453.5,265.5C 451.513,320.316 423.513,352.149 369.5,361C 340.943,364.113 315.276,357.113 292.5,340C 266.597,314.941 256.431,284.441 262,248.5C 269.916,202.75 296.749,176.416 342.5,169.5 Z M 343.5,170.5 C 331.011,172.384 319.011,176.217 307.5,182C 276.997,201.15 261.664,228.983 261.5,265.5C 261.465,298.932 274.799,325.432 301.5,345C 331.084,362.086 362.084,365.086 394.5,354C 426.579,340.694 445.412,316.86 451,282.5C 455.775,252.008 448.775,224.675 430,200.5C 406.084,176.915 377.251,166.915 343.5,170.5 Z M 345.5,182.5 C 344.962,184.117 344.629,185.784 344.5,187.5C 346.39,187.703 347.89,187.037 349,185.5C 348.628,187.92 347.295,189.92 345,191.5C 344.517,192.448 344.351,193.448 344.5,194.5C 347.5,194.5 350.5,194.5 353.5,194.5C 353.5,193.5 353.5,192.5 353.5,191.5C 352.448,191.649 351.448,191.483 350.5,191C 354.767,185.046 353.1,182.213 345.5,182.5 Z"/></g>
<g><path style="opacity:0.899" fill="#ed3a5f" d="M 124.5,177.5 C 136.99,175.823 142.157,181.156 140,193.5C 139.215,195.286 138.049,196.786 136.5,198C 123.074,202.238 117.241,197.404 119,183.5C 120.36,180.977 122.193,178.977 124.5,177.5 Z M 126.5,183.5 C 125.105,184.648 125.272,185.648 127,186.5C 127.498,189.482 127.665,192.482 127.5,195.5C 128.833,195.5 130.167,195.5 131.5,195.5C 131.5,191.5 131.5,187.5 131.5,183.5C 129.833,183.5 128.167,183.5 126.5,183.5 Z"/></g>
<g><path style="opacity:0.89" fill="#ed3a5f" d="M 343.5,177.5 C 355.99,175.823 361.157,181.156 359,193.5C 358.215,195.286 357.049,196.786 355.5,198C 342.074,202.238 336.241,197.404 338,183.5C 339.36,180.977 341.193,178.977 343.5,177.5 Z M 345.5,182.5 C 344.962,184.117 344.629,185.784 344.5,187.5C 346.39,187.703 347.89,187.037 349,185.5C 348.628,187.92 347.295,189.92 345,191.5C 344.517,192.448 344.351,193.448 344.5,194.5C 347.5,194.5 350.5,194.5 353.5,194.5C 353.5,193.5 353.5,192.5 353.5,191.5C 352.448,191.649 351.448,191.483 350.5,191C 354.767,185.046 353.1,182.213 345.5,182.5 Z"/></g>
<g><path style="opacity:0.767" fill="#ed3a5f" d="M 148.5,187.5 C 153.914,186.565 155.914,188.565 154.5,193.5C 148.129,195.796 146.129,193.796 148.5,187.5 Z"/></g>
<g><path style="opacity:0.767" fill="#ed3a5f" d="M 367.5,187.5 C 372.914,186.565 374.914,188.565 373.5,193.5C 367.129,195.796 365.129,193.796 367.5,187.5 Z"/></g>
<g><path style="opacity:0.733" fill="#ed3a5f" d="M 110.5,191.5 C 116.729,191.027 118.395,193.36 115.5,198.5C 109.805,199.446 108.138,197.112 110.5,191.5 Z"/></g>
<g><path style="opacity:0.71" fill="#ed3a5f" d="M 161.5,191.5 C 167.113,190.079 169.28,192.079 168,197.5C 165.952,199.787 163.785,199.954 161.5,198C 160.232,195.837 160.232,193.67 161.5,191.5 Z"/></g>
<g><path style="opacity:0.733" fill="#ed3a5f" d="M 329.5,191.5 C 335.729,191.027 337.395,193.36 334.5,198.5C 328.805,199.446 327.138,197.112 329.5,191.5 Z"/></g>
<g><path style="opacity:0.71" fill="#ed3a5f" d="M 380.5,191.5 C 386.113,190.079 388.28,192.079 387,197.5C 384.952,199.787 382.785,199.954 380.5,198C 379.232,195.837 379.232,193.67 380.5,191.5 Z"/></g>
<g><path style="opacity:0.723" fill="#ed3a5f" d="M 174.5,197.5 C 180.313,197.062 181.98,199.562 179.5,205C 175.535,206.417 173.201,205.084 172.5,201C 173.305,199.887 173.972,198.721 174.5,197.5 Z"/></g>
<g><path style="opacity:0.723" fill="#ed3a5f" d="M 393.5,197.5 C 399.313,197.062 400.98,199.562 398.5,205C 394.535,206.417 392.201,205.084 391.5,201C 392.305,199.887 392.972,198.721 393.5,197.5 Z"/></g>
<g><path style="opacity:0.816" fill="#ed3a5f" d="M 98.5,198.5 C 103.675,197.507 105.509,199.507 104,204.5C 100.76,206.827 98.26,205.994 96.5,202C 97.305,200.887 97.9717,199.721 98.5,198.5 Z"/></g>
<g><path style="opacity:0.816" fill="#ed3a5f" d="M 317.5,198.5 C 322.675,197.507 324.509,199.507 323,204.5C 319.76,206.827 317.26,205.994 315.5,202C 316.305,200.887 316.972,199.721 317.5,198.5 Z"/></g>
<g><path style="opacity:0.737" fill="#ed3a5f" d="M 185.5,206.5 C 191.704,206.314 193.037,208.814 189.5,214C 183.812,213.79 182.479,211.29 185.5,206.5 Z"/></g>
<g><path style="opacity:0.737" fill="#ed3a5f" d="M 404.5,206.5 C 410.704,206.314 412.037,208.814 408.5,214C 402.812,213.79 401.479,211.29 404.5,206.5 Z"/></g>
<g><path style="opacity:0.71" fill="#ed3a5f" d="M 87.5,207.5 C 94.004,207.138 95.6707,209.638 92.5,215C 86.7853,215.401 85.1187,212.901 87.5,207.5 Z"/></g>
<g><path style="opacity:0.71" fill="#ed3a5f" d="M 306.5,207.5 C 313.004,207.138 314.671,209.638 311.5,215C 305.785,215.401 304.119,212.901 306.5,207.5 Z"/></g>
<g><path style="opacity:0.886" fill="#a5a6a5" d="M 136.5,210.5 C 166.778,209.535 184.611,223.869 190,253.5C 192.618,270.126 189.951,285.792 182,300.5C 165.995,319.794 146.162,324.961 122.5,316C 106.844,307.55 98.0104,294.383 96,276.5C 93.7055,260.265 96.3722,244.932 104,230.5C 112.204,219.445 123.037,212.778 136.5,210.5 Z"/></g>
<g><path style="opacity:0.886" fill="#a5a6a5" d="M 350.5,210.5 C 380.778,209.535 398.611,223.869 404,253.5C 406.618,270.126 403.951,285.792 396,300.5C 379.995,319.794 360.162,324.961 336.5,316C 320.844,307.55 312.01,294.383 310,276.5C 307.705,260.265 310.372,244.932 318,230.5C 326.204,219.445 337.037,212.778 350.5,210.5 Z"/></g>
<g><path style="opacity:1" fill="#f7f8f7" d="M 137.5,211.5 C 166.993,211.165 184.159,225.498 189,254.5C 191.398,270.449 188.731,285.449 181,299.5C 165.65,318.464 146.484,323.631 123.5,315C 107.844,306.55 99.0104,293.383 97,275.5C 94.9258,259.943 97.5925,245.276 105,231.5C 113.204,220.445 124.037,213.778 137.5,211.5 Z"/></g>
<g><path style="opacity:1" fill="#f7f8f7" d="M 351.5,211.5 C 380.993,211.165 398.159,225.498 403,254.5C 405.398,270.449 402.731,285.449 395,299.5C 379.65,318.464 360.484,323.631 337.5,315C 321.844,306.55 313.01,293.383 311,275.5C 308.926,259.943 311.592,245.276 319,231.5C 327.204,220.445 338.037,213.778 351.5,211.5 Z"/></g>
<g><path style="opacity:0.767" fill="#ed3a5f" d="M 193.5,217.5 C 199.113,216.079 201.28,218.079 200,223.5C 193.854,225.636 191.687,223.636 193.5,217.5 Z"/></g>
<g><path style="opacity:0.767" fill="#ed3a5f" d="M 412.5,217.5 C 418.113,216.079 420.28,218.079 419,223.5C 412.854,225.636 410.687,223.636 412.5,217.5 Z"/></g>
<g><path style="opacity:0.737" fill="#ed3a5f" d="M 79.5,218.5 C 85.704,218.314 87.0374,220.814 83.5,226C 77.8121,225.79 76.4788,223.29 79.5,218.5 Z"/></g>
<g><path style="opacity:0.737" fill="#ed3a5f" d="M 298.5,218.5 C 304.704,218.314 306.037,220.814 302.5,226C 296.812,225.79 295.479,223.29 298.5,218.5 Z"/></g>
<g><path style="opacity:0.71" fill="#ed3a5f" d="M 201.5,229.5 C 207.704,229.314 209.037,231.814 205.5,237C 199.403,237.147 198.07,234.647 201.5,229.5 Z"/></g>
<g><path style="opacity:0.71" fill="#ed3a5f" d="M 420.5,229.5 C 426.704,229.314 428.037,231.814 424.5,237C 418.403,237.147 417.07,234.647 420.5,229.5 Z"/></g>
<g><path style="opacity:0.697" fill="#ed3a5f" d="M 73.5,230.5 C 78.7083,230.369 80.3749,232.702 78.5,237.5C 71.3692,239.27 69.7025,236.936 73.5,230.5 Z"/></g>
<g><path style="opacity:0.697" fill="#ed3a5f" d="M 292.5,230.5 C 297.708,230.369 299.375,232.702 297.5,237.5C 290.369,239.27 288.703,236.936 292.5,230.5 Z"/></g>
<g><path style="opacity:0.71" fill="#ed3a5f" d="M 206.5,242.5 C 212.488,242.664 213.821,245.164 210.5,250C 207.099,251.135 205.099,249.968 204.5,246.5C 204.803,244.886 205.47,243.552 206.5,242.5 Z"/></g>
<g><path style="opacity:0.71" fill="#ed3a5f" d="M 425.5,242.5 C 431.488,242.664 432.821,245.164 429.5,250C 426.099,251.135 424.099,249.968 423.5,246.5C 423.803,244.886 424.47,243.552 425.5,242.5 Z"/></g>
<g><path style="opacity:0.723" fill="#ed3a5f" d="M 68.5,244.5 C 74.1132,243.079 76.2799,245.079 75,250.5C 72.9517,252.787 70.7851,252.954 68.5,251C 67.3947,248.88 67.3947,246.713 68.5,244.5 Z"/></g>
<g><path style="opacity:0.723" fill="#ed3a5f" d="M 287.5,244.5 C 293.113,243.079 295.28,245.079 294,250.5C 291.952,252.787 289.785,252.954 287.5,251C 286.395,248.88 286.395,246.713 287.5,244.5 Z"/></g>
<g><path style="opacity:0.766" fill="#ed3a5f" d="M 208.5,256.5 C 214.235,255.821 215.902,258.155 213.5,263.5C 211.833,264.833 210.167,264.833 208.5,263.5C 207.286,261.141 207.286,258.808 208.5,256.5 Z"/></g>
<g><path style="opacity:0.766" fill="#ed3a5f" d="M 427.5,256.5 C 433.235,255.821 434.902,258.155 432.5,263.5C 430.833,264.833 429.167,264.833 427.5,263.5C 426.286,261.141 426.286,258.808 427.5,256.5 Z"/></g>
<g><path style="opacity:0.831" fill="#ed3a5f" d="M 67.5,258.5 C 72.6752,257.507 74.5086,259.507 73,264.5C 71,267.167 69,267.167 67,264.5C 66.3224,262.402 66.4891,260.402 67.5,258.5 Z"/></g>
<g><path style="opacity:0.831" fill="#ed3a5f" d="M 286.5,258.5 C 291.675,257.507 293.509,259.507 292,264.5C 290,267.167 288,267.167 286,264.5C 285.322,262.402 285.489,260.402 286.5,258.5 Z"/></g>
<g><path style="opacity:0.751" fill="#ed3a5f" d="M 208.5,270.5 C 214.704,270.314 216.037,272.814 212.5,278C 206.834,277.835 205.501,275.335 208.5,270.5 Z"/></g>
<g><path style="opacity:0.751" fill="#ed3a5f" d="M 427.5,270.5 C 433.704,270.314 435.037,272.814 431.5,278C 425.834,277.835 424.501,275.335 427.5,270.5 Z"/></g>
<g><path style="opacity:0.734" fill="#ed3a5f" d="M 67.5,272.5 C 73.1132,271.079 75.2799,273.079 74,278.5C 67.423,281.088 65.2563,279.088 67.5,272.5 Z"/></g>
<g><path style="opacity:0.734" fill="#ed3a5f" d="M 286.5,272.5 C 292.113,271.079 294.28,273.079 293,278.5C 286.423,281.088 284.256,279.088 286.5,272.5 Z"/></g>
<g><path style="opacity:0.752" fill="#ed3a5f" d="M 207.5,283.5 C 212.328,284.641 213.328,287.141 210.5,291C 205.333,292.5 203.5,290.667 205,285.5C 205.995,284.934 206.828,284.267 207.5,283.5 Z"/></g>
<g><path style="opacity:0.752" fill="#ed3a5f" d="M 426.5,283.5 C 431.328,284.641 432.328,287.141 429.5,291C 424.333,292.5 422.5,290.667 424,285.5C 424.995,284.934 425.828,284.267 426.5,283.5 Z"/></g>
<g><path style="opacity:0.735" fill="#ed3a5f" d="M 71.5,285.5 C 76.2624,286.092 77.5957,288.592 75.5,293C 68.17,293.486 66.8367,290.986 71.5,285.5 Z"/></g>
<g><path style="opacity:0.735" fill="#ed3a5f" d="M 290.5,285.5 C 295.262,286.092 296.596,288.592 294.5,293C 287.17,293.486 285.837,290.986 290.5,285.5 Z"/></g>
<g><path style="opacity:0.749" fill="#ed3a5f" d="M 79.5,297.5 C 83.3958,298.78 84.3958,301.28 82.5,305C 77.0984,306.421 75.0984,304.588 76.5,299.5C 77.6016,298.824 78.6016,298.158 79.5,297.5 Z"/></g>
<g><path style="opacity:0.721" fill="#ed3a5f" d="M 200.5,297.5 C 206.113,296.079 208.28,298.079 207,303.5C 205.04,305.899 202.874,306.065 200.5,304C 199.232,301.837 199.232,299.67 200.5,297.5 Z"/></g>
<g><path style="opacity:0.749" fill="#ed3a5f" d="M 298.5,297.5 C 302.396,298.78 303.396,301.28 301.5,305C 296.098,306.421 294.098,304.588 295.5,299.5C 296.602,298.824 297.602,298.158 298.5,297.5 Z"/></g>
<g><path style="opacity:0.721" fill="#ed3a5f" d="M 419.5,297.5 C 425.113,296.079 427.28,298.079 426,303.5C 424.04,305.899 421.874,306.065 419.5,304C 418.232,301.837 418.232,299.67 419.5,297.5 Z"/></g>
<g><path style="opacity:0.737" fill="#ed3a5f" d="M 85.5,309.5 C 91.7286,309.027 93.3953,311.36 90.5,316.5C 84.8045,317.446 83.1378,315.112 85.5,309.5 Z"/></g>
<g><path style="opacity:0.723" fill="#ed3a5f" d="M 193.5,309.5 C 199.113,308.079 201.28,310.079 200,315.5C 197.952,317.787 195.785,317.954 193.5,316C 192.395,313.88 192.395,311.713 193.5,309.5 Z"/></g>
<g><path style="opacity:0.737" fill="#ed3a5f" d="M 304.5,309.5 C 310.729,309.027 312.395,311.36 309.5,316.5C 303.805,317.446 302.138,315.112 304.5,309.5 Z"/></g>
<g><path style="opacity:0.723" fill="#ed3a5f" d="M 412.5,309.5 C 418.113,308.079 420.28,310.079 419,315.5C 416.952,317.787 414.785,317.954 412.5,316C 411.395,313.88 411.395,311.713 412.5,309.5 Z"/></g>
<g><path style="opacity:0.75" fill="#ed3a5f" d="M 95.5,319.5 C 101.476,319.157 103.142,321.49 100.5,326.5C 98.8333,327.833 97.1667,327.833 95.5,326.5C 94.2857,324.141 94.2857,321.808 95.5,319.5 Z"/></g>
<g><path style="opacity:0.71" fill="#ed3a5f" d="M 185.5,319.5 C 191.488,319.664 192.821,322.164 189.5,327C 183.202,327.495 181.868,324.995 185.5,319.5 Z"/></g>
<g><path style="opacity:0.75" fill="#ed3a5f" d="M 314.5,319.5 C 320.476,319.157 322.142,321.49 319.5,326.5C 317.833,327.833 316.167,327.833 314.5,326.5C 313.286,324.141 313.286,321.808 314.5,319.5 Z"/></g>
<g><path style="opacity:0.71" fill="#ed3a5f" d="M 404.5,319.5 C 410.488,319.664 411.821,322.164 408.5,327C 402.202,327.495 400.868,324.995 404.5,319.5 Z"/></g>
<g><path style="opacity:0.708" fill="#ed3a5f" d="M 107.5,327.5 C 113.488,327.664 114.821,330.164 111.5,335C 108.099,336.135 106.099,334.968 105.5,331.5C 105.803,329.886 106.47,328.552 107.5,327.5 Z"/></g>
<g><path style="opacity:0.75" fill="#ed3a5f" d="M 174.5,327.5 C 175.93,327.421 177.264,327.754 178.5,328.5C 180.914,334.024 179.248,336.191 173.5,335C 171.315,332.322 171.649,329.822 174.5,327.5 Z"/></g>
<g><path style="opacity:0.708" fill="#ed3a5f" d="M 326.5,327.5 C 332.488,327.664 333.821,330.164 330.5,335C 327.099,336.135 325.099,334.968 324.5,331.5C 324.803,329.886 325.47,328.552 326.5,327.5 Z"/></g>
<g><path style="opacity:0.75" fill="#ed3a5f" d="M 393.5,327.5 C 394.93,327.421 396.264,327.754 397.5,328.5C 399.914,334.024 398.248,336.191 392.5,335C 390.315,332.322 390.649,329.822 393.5,327.5 Z"/></g>
<g><path style="opacity:0.723" fill="#ed3a5f" d="M 119.5,333.5 C 124.881,333.452 126.547,335.952 124.5,341C 118.206,341.578 116.539,339.078 119.5,333.5 Z"/></g>
<g><path style="opacity:0.71" fill="#ed3a5f" d="M 161.5,333.5 C 165.06,332.891 167.06,334.391 167.5,338C 165.927,341.452 163.427,342.286 160,340.5C 159.185,337.802 159.685,335.468 161.5,333.5 Z"/></g>
<g><path style="opacity:0.723" fill="#ed3a5f" d="M 338.5,333.5 C 343.881,333.452 345.547,335.952 343.5,341C 337.206,341.578 335.539,339.078 338.5,333.5 Z"/></g>
<g><path style="opacity:0.71" fill="#ed3a5f" d="M 380.5,333.5 C 384.06,332.891 386.06,334.391 386.5,338C 384.927,341.452 382.427,342.286 379,340.5C 378.185,337.802 378.685,335.468 380.5,333.5 Z"/></g>
<g><path style="opacity:0.723" fill="#ed3a5f" d="M 148.5,336.5 C 153.266,337.158 154.6,339.658 152.5,344C 147.338,345.424 145.171,343.59 146,338.5C 146.995,337.934 147.828,337.267 148.5,336.5 Z"/></g>
<g><path style="opacity:0.723" fill="#ed3a5f" d="M 367.5,336.5 C 372.266,337.158 373.6,339.658 371.5,344C 366.338,345.424 364.171,343.59 365,338.5C 365.995,337.934 366.828,337.267 367.5,336.5 Z"/></g>
<g><path style="opacity:0.737" fill="#ed3a5f" d="M 132.5,337.5 C 138.113,336.079 140.28,338.079 139,343.5C 132.423,346.088 130.256,344.088 132.5,337.5 Z"/></g>
<g><path style="opacity:0.737" fill="#ed3a5f" d="M 351.5,337.5 C 357.113,336.079 359.28,338.079 358,343.5C 351.423,346.088 349.256,344.088 351.5,337.5 Z"/></g>
</svg>
