<?xml version="1.0" encoding="UTF-8"?>
<!DOCTYPE svg PUBLIC "-//W3C//DTD SVG 1.1//EN" "http://www.w3.org/Graphics/SVG/1.1/DTD/svg11.dtd">
<svg xmlns="http://www.w3.org/2000/svg" version="1.1" width="500px" height="500px" style="shape-rendering:geometricPrecision; text-rendering:geometricPrecision; image-rendering:optimizeQuality; fill-rule:evenodd; clip-rule:evenodd" xmlns:xlink="http://www.w3.org/1999/xlink">
<g><path style="opacity:1" fill="#f7f7f7" d="M -0.5,-0.5 C 166.167,-0.5 332.833,-0.5 499.5,-0.5C 499.5,166.167 499.5,332.833 499.5,499.5C 332.833,499.5 166.167,499.5 -0.5,499.5C -0.5,332.833 -0.5,166.167 -0.5,-0.5 Z M 389.5,169.5 C 391.144,169.286 392.644,169.62 394,170.5C 394.667,186.833 394.667,203.167 394,219.5C 384.911,220.319 375.744,220.819 366.5,221C 347.641,223.194 335.475,233.361 330,251.5C 328.533,287.126 328.033,322.793 328.5,358.5C 312.833,358.5 297.167,358.5 281.5,358.5C 281.5,296.5 281.5,234.5 281.5,172.5C 297.167,172.5 312.833,172.5 328.5,172.5C 328.5,183.167 328.5,193.833 328.5,204.5C 329.552,204.649 330.552,204.483 331.5,204C 345.515,183.495 364.848,171.995 389.5,169.5 Z M 139.5,170.5 C 173.251,166.915 202.084,176.915 226,200.5C 244.775,224.675 251.775,252.008 247,282.5C 241.412,316.86 222.579,340.694 190.5,354C 158.084,365.086 127.084,362.086 97.5,345C 70.7986,325.432 57.4653,298.932 57.5,265.5C 57.6636,228.983 72.9969,201.15 103.5,182C 115.011,176.217 127.011,172.384 139.5,170.5 Z M 301.5,182.5 C 309.1,182.213 310.767,185.046 306.5,191C 307.448,191.483 308.448,191.649 309.5,191.5C 309.5,192.5 309.5,193.5 309.5,194.5C 306.5,194.5 303.5,194.5 300.5,194.5C 300.351,193.448 300.517,192.448 301,191.5C 303.295,189.92 304.628,187.92 305,185.5C 303.89,187.037 302.39,187.703 300.5,187.5C 300.629,185.784 300.962,184.117 301.5,182.5 Z M 136.5,183.5 C 138.167,183.5 139.833,183.5 141.5,183.5C 141.5,187.5 141.5,191.5 141.5,195.5C 140.167,195.5 138.833,195.5 137.5,195.5C 137.665,192.482 137.498,189.482 137,186.5C 135.272,185.648 135.105,184.648 136.5,183.5 Z M 326.5,225.5 C 326.5,224.5 326.5,223.5 326.5,222.5C 323.795,222.62 323.128,221.62 324.5,219.5C 326.833,218.167 329.167,218.167 331.5,219.5C 331.378,222.447 331.544,225.447 332,228.5C 330.192,230.396 328.025,230.896 325.5,230C 323.963,228.89 323.297,227.39 323.5,225.5C 324.5,225.5 325.5,225.5 326.5,225.5 Z"/></g>
<g><path style="opacity:0.963" fill="#a5a6a5" d="M 388.5,168.5 C 390.792,168.244 392.959,168.577 395,169.5C 395.667,186.5 395.667,203.5 395,220.5C 385.911,221.319 376.744,221.819 367.5,222C 348.641,224.194 336.475,234.361 331,252.5C 329.533,288.126 329.033,323.793 329.5,359.5C 313.167,359.5 296.833,359.5 280.5,359.5C 280.5,296.833 280.5,234.167 280.5,171.5C 296.833,171.5 313.167,171.5 329.5,171.5C 329.333,182.172 329.5,192.839 330,203.5C 344.163,182.823 363.663,171.156 388.5,168.5 Z M 389.5,169.5 C 364.848,171.995 345.515,183.495 331.5,204C 330.552,204.483 329.552,204.649 328.5,204.5C 328.5,193.833 328.5,183.167 328.5,172.5C 312.833,172.5 297.167,172.5 281.5,172.5C 281.5,234.5 281.5,296.5 281.5,358.5C 297.167,358.5 312.833,358.5 328.5,358.5C 328.033,322.793 328.533,287.126 330,251.5C 335.475,233.361 347.641,223.194 366.5,221C 375.744,220.819 384.911,220.319 394,219.5C 394.667,203.167 394.667,186.833 394,170.5C 392.644,169.62 391.144,169.286 389.5,169.5 Z M 301.5,182.5 C 300.962,184.117 300.629,185.784 300.5,187.5C 302.39,187.703 303.89,187.037 305,185.5C 304.628,187.92 303.295,189.92 301,191.5C 300.517,192.448 300.351,193.448 300.5,194.5C 303.5,194.5 306.5,194.5 309.5,194.5C 309.5,193.5 309.5,192.5 309.5,191.5C 308.448,191.649 307.448,191.483 306.5,191C 310.767,185.046 309.1,182.213 301.5,182.5 Z M 326.5,225.5 C 325.5,225.5 324.5,225.5 323.5,225.5C 323.297,227.39 323.963,228.89 325.5,230C 328.025,230.896 330.192,230.396 332,228.5C 331.544,225.447 331.378,222.447 331.5,219.5C 329.167,218.167 326.833,218.167 324.5,219.5C 323.128,221.62 323.795,222.62 326.5,222.5C 326.5,223.5 326.5,224.5 326.5,225.5 Z"/></g>
<g><path style="opacity:0.887" fill="#a5a6a5" d="M 138.5,169.5 C 168.737,165.972 195.737,173.472 219.5,192C 239.924,212.077 249.924,236.577 249.5,265.5C 247.513,320.316 219.513,352.149 165.5,361C 136.943,364.113 111.276,357.113 88.5,340C 62.5973,314.941 52.4306,284.441 58,248.5C 65.9159,202.75 92.7492,176.416 138.5,169.5 Z M 139.5,170.5 C 127.011,172.384 115.011,176.217 103.5,182C 72.9969,201.15 57.6636,228.983 57.5,265.5C 57.4653,298.932 70.7986,325.432 97.5,345C 127.084,362.086 158.084,365.086 190.5,354C 222.579,340.694 241.412,316.86 247,282.5C 251.775,252.008 244.775,224.675 226,200.5C 202.084,176.915 173.251,166.915 139.5,170.5 Z M 136.5,183.5 C 135.105,184.648 135.272,185.648 137,186.5C 137.498,189.482 137.665,192.482 137.5,195.5C 138.833,195.5 140.167,195.5 141.5,195.5C 141.5,191.5 141.5,187.5 141.5,183.5C 139.833,183.5 138.167,183.5 136.5,183.5 Z"/></g>
<g><path style="opacity:0.899" fill="#ed3a5f" d="M 134.5,177.5 C 146.99,175.823 152.157,181.156 150,193.5C 149.215,195.286 148.049,196.786 146.5,198C 133.074,202.238 127.241,197.404 129,183.5C 130.36,180.977 132.193,178.977 134.5,177.5 Z M 136.5,183.5 C 135.105,184.648 135.272,185.648 137,186.5C 137.498,189.482 137.665,192.482 137.5,195.5C 138.833,195.5 140.167,195.5 141.5,195.5C 141.5,191.5 141.5,187.5 141.5,183.5C 139.833,183.5 138.167,183.5 136.5,183.5 Z"/></g>
<g><path style="opacity:0.89" fill="#ed3a5f" d="M 299.5,177.5 C 311.99,175.823 317.157,181.156 315,193.5C 314.215,195.286 313.049,196.786 311.5,198C 298.074,202.238 292.241,197.404 294,183.5C 295.36,180.977 297.193,178.977 299.5,177.5 Z M 301.5,182.5 C 300.962,184.117 300.629,185.784 300.5,187.5C 302.39,187.703 303.89,187.037 305,185.5C 304.628,187.92 303.295,189.92 301,191.5C 300.517,192.448 300.351,193.448 300.5,194.5C 303.5,194.5 306.5,194.5 309.5,194.5C 309.5,193.5 309.5,192.5 309.5,191.5C 308.448,191.649 307.448,191.483 306.5,191C 310.767,185.046 309.1,182.213 301.5,182.5 Z"/></g>
<g><path style="opacity:0.767" fill="#ed3a5f" d="M 158.5,187.5 C 163.914,186.565 165.914,188.565 164.5,193.5C 158.129,195.796 156.129,193.796 158.5,187.5 Z"/></g>
<g><path style="opacity:0.733" fill="#ed3a5f" d="M 120.5,191.5 C 126.729,191.027 128.395,193.36 125.5,198.5C 119.805,199.446 118.138,197.112 120.5,191.5 Z"/></g>
<g><path style="opacity:0.71" fill="#ed3a5f" d="M 171.5,191.5 C 177.113,190.079 179.28,192.079 178,197.5C 175.952,199.787 173.785,199.954 171.5,198C 170.232,195.837 170.232,193.67 171.5,191.5 Z"/></g>
<g><path style="opacity:0.843" fill="#ed3a5f" d="M 376.5,192.5 C 382.158,191.679 383.825,193.846 381.5,199C 375.741,200.139 374.074,197.972 376.5,192.5 Z"/></g>
<g><path style="opacity:0.715" fill="#ed3a5f" d="M 363.5,196.5 C 369.704,196.314 371.037,198.814 367.5,204C 363.945,205.123 361.945,203.789 361.5,200C 361.978,198.697 362.645,197.531 363.5,196.5 Z"/></g>
<g><path style="opacity:0.723" fill="#ed3a5f" d="M 184.5,197.5 C 190.313,197.062 191.98,199.562 189.5,205C 185.535,206.417 183.201,205.084 182.5,201C 183.305,199.887 183.972,198.721 184.5,197.5 Z"/></g>
<g><path style="opacity:0.816" fill="#ed3a5f" d="M 108.5,198.5 C 113.675,197.507 115.509,199.507 114,204.5C 110.76,206.827 108.26,205.994 106.5,202C 107.305,200.887 107.972,199.721 108.5,198.5 Z"/></g>
<g><path style="opacity:0.701" fill="#ed3a5f" d="M 350.5,203.5 C 356.113,202.079 358.28,204.079 357,209.5C 354.952,211.787 352.785,211.954 350.5,210C 349.232,207.837 349.232,205.67 350.5,203.5 Z"/></g>
<g><path style="opacity:0.737" fill="#ed3a5f" d="M 195.5,206.5 C 201.704,206.314 203.037,208.814 199.5,214C 193.812,213.79 192.479,211.29 195.5,206.5 Z"/></g>
<g><path style="opacity:0.71" fill="#ed3a5f" d="M 97.5,207.5 C 104.004,207.138 105.671,209.638 102.5,215C 96.7853,215.401 95.1187,212.901 97.5,207.5 Z"/></g>
<g><path style="opacity:0.853" fill="#ed3a5f" d="M 304.5,207.5 C 310.158,206.679 311.825,208.846 309.5,214C 303.741,215.139 302.074,212.972 304.5,207.5 Z"/></g>
<g><path style="opacity:0.886" fill="#a5a6a5" d="M 146.5,210.5 C 176.778,209.535 194.611,223.869 200,253.5C 202.618,270.126 199.951,285.792 192,300.5C 175.995,319.794 156.162,324.961 132.5,316C 116.844,307.55 108.01,294.383 106,276.5C 103.705,260.265 106.372,244.932 114,230.5C 122.204,219.445 133.037,212.778 146.5,210.5 Z"/></g>
<g><path style="opacity:1" fill="#f7f8f7" d="M 147.5,211.5 C 176.993,211.165 194.159,225.498 199,254.5C 201.398,270.449 198.731,285.449 191,299.5C 175.65,318.464 156.484,323.631 133.5,315C 117.844,306.55 109.01,293.383 107,275.5C 104.926,259.943 107.592,245.276 115,231.5C 123.204,220.445 134.037,213.778 147.5,211.5 Z"/></g>
<g><path style="opacity:0.877" fill="#ed3a5f" d="M 339.5,218.5 C 341.177,230.99 335.844,236.157 323.5,234C 321.714,233.215 320.214,232.049 319,230.5C 314.932,216.565 320.099,210.732 334.5,213C 336.333,213.5 337.5,214.667 338,216.5C 338.022,211.956 340.188,210.456 344.5,212C 346.825,217.154 345.158,219.321 339.5,218.5 Z M 326.5,225.5 C 325.5,225.5 324.5,225.5 323.5,225.5C 323.297,227.39 323.963,228.89 325.5,230C 328.025,230.896 330.192,230.396 332,228.5C 331.544,225.447 331.378,222.447 331.5,219.5C 329.167,218.167 326.833,218.167 324.5,219.5C 323.128,221.62 323.795,222.62 326.5,222.5C 326.5,223.5 326.5,224.5 326.5,225.5 Z"/></g>
<g><path style="opacity:0.767" fill="#ed3a5f" d="M 203.5,217.5 C 209.113,216.079 211.28,218.079 210,223.5C 203.854,225.636 201.687,223.636 203.5,217.5 Z"/></g>
<g><path style="opacity:0.737" fill="#ed3a5f" d="M 89.5,218.5 C 95.704,218.314 97.0374,220.814 93.5,226C 87.8121,225.79 86.4788,223.29 89.5,218.5 Z"/></g>
<g><path style="opacity:0.835" fill="#ed3a5f" d="M 304.5,221.5 C 309.675,220.507 311.509,222.507 310,227.5C 308,230.167 306,230.167 304,227.5C 303.322,225.402 303.489,223.402 304.5,221.5 Z"/></g>
<g><path style="opacity:1" fill="#ed3a5f" d="M 326.5,225.5 C 328.028,225.517 328.528,226.184 328,227.5C 327.283,226.956 326.783,226.289 326.5,225.5 Z"/></g>
<g><path style="opacity:0.71" fill="#ed3a5f" d="M 211.5,229.5 C 217.704,229.314 219.037,231.814 215.5,237C 209.403,237.147 208.07,234.647 211.5,229.5 Z"/></g>
<g><path style="opacity:0.697" fill="#ed3a5f" d="M 83.5,230.5 C 88.7083,230.369 90.3749,232.702 88.5,237.5C 81.3692,239.27 79.7025,236.936 83.5,230.5 Z"/></g>
<g><path style="opacity:0.798" fill="#ed3a5f" d="M 304.5,235.5 C 310.704,235.314 312.037,237.814 308.5,243C 303.632,242.711 302.299,240.211 304.5,235.5 Z"/></g>
<g><path style="opacity:0.71" fill="#ed3a5f" d="M 216.5,242.5 C 222.488,242.664 223.821,245.164 220.5,250C 217.099,251.135 215.099,249.968 214.5,246.5C 214.803,244.886 215.47,243.552 216.5,242.5 Z"/></g>
<g><path style="opacity:0.723" fill="#ed3a5f" d="M 78.5,244.5 C 84.1132,243.079 86.2799,245.079 85,250.5C 82.9517,252.787 80.7851,252.954 78.5,251C 77.3947,248.88 77.3947,246.713 78.5,244.5 Z"/></g>
<g><path style="opacity:0.768" fill="#ed3a5f" d="M 304.5,249.5 C 310.235,248.821 311.902,251.155 309.5,256.5C 307.833,257.833 306.167,257.833 304.5,256.5C 303.286,254.141 303.286,251.808 304.5,249.5 Z"/></g>
<g><path style="opacity:0.766" fill="#ed3a5f" d="M 218.5,256.5 C 224.235,255.821 225.902,258.155 223.5,263.5C 221.833,264.833 220.167,264.833 218.5,263.5C 217.286,261.141 217.286,258.808 218.5,256.5 Z"/></g>
<g><path style="opacity:0.831" fill="#ed3a5f" d="M 77.5,258.5 C 82.6752,257.507 84.5086,259.507 83,264.5C 81,267.167 79,267.167 77,264.5C 76.3224,262.402 76.4891,260.402 77.5,258.5 Z"/></g>
<g><path style="opacity:0.766" fill="#ed3a5f" d="M 304.5,263.5 C 310.235,262.821 311.902,265.155 309.5,270.5C 307.833,271.833 306.167,271.833 304.5,270.5C 303.286,268.141 303.286,265.808 304.5,263.5 Z"/></g>
<g><path style="opacity:0.751" fill="#ed3a5f" d="M 218.5,270.5 C 224.704,270.314 226.037,272.814 222.5,278C 216.834,277.835 215.501,275.335 218.5,270.5 Z"/></g>
<g><path style="opacity:0.734" fill="#ed3a5f" d="M 77.5,272.5 C 83.1132,271.079 85.2799,273.079 84,278.5C 77.423,281.088 75.2563,279.088 77.5,272.5 Z"/></g>
<g><path style="opacity:0.768" fill="#ed3a5f" d="M 304.5,277.5 C 310.235,276.821 311.902,279.155 309.5,284.5C 307.833,285.833 306.167,285.833 304.5,284.5C 303.286,282.141 303.286,279.808 304.5,277.5 Z"/></g>
<g><path style="opacity:0.752" fill="#ed3a5f" d="M 217.5,283.5 C 222.328,284.641 223.328,287.141 220.5,291C 215.333,292.5 213.5,290.667 215,285.5C 215.995,284.934 216.828,284.267 217.5,283.5 Z"/></g>
<g><path style="opacity:0.735" fill="#ed3a5f" d="M 81.5,285.5 C 86.2624,286.092 87.5957,288.592 85.5,293C 78.17,293.486 76.8367,290.986 81.5,285.5 Z"/></g>
<g><path style="opacity:0.768" fill="#ed3a5f" d="M 304.5,291.5 C 310.235,290.821 311.902,293.155 309.5,298.5C 307.833,299.833 306.167,299.833 304.5,298.5C 303.286,296.141 303.286,293.808 304.5,291.5 Z"/></g>
<g><path style="opacity:0.749" fill="#ed3a5f" d="M 89.5,297.5 C 93.3958,298.78 94.3958,301.28 92.5,305C 87.0984,306.421 85.0984,304.588 86.5,299.5C 87.6016,298.824 88.6016,298.158 89.5,297.5 Z"/></g>
<g><path style="opacity:0.721" fill="#ed3a5f" d="M 210.5,297.5 C 216.113,296.079 218.28,298.079 217,303.5C 215.04,305.899 212.874,306.065 210.5,304C 209.232,301.837 209.232,299.67 210.5,297.5 Z"/></g>
<g><path style="opacity:0.766" fill="#ed3a5f" d="M 304.5,305.5 C 310.235,304.821 311.902,307.155 309.5,312.5C 307.833,313.833 306.167,313.833 304.5,312.5C 303.286,310.141 303.286,307.808 304.5,305.5 Z"/></g>
<g><path style="opacity:0.737" fill="#ed3a5f" d="M 95.5,309.5 C 101.729,309.027 103.395,311.36 100.5,316.5C 94.8045,317.446 93.1378,315.112 95.5,309.5 Z"/></g>
<g><path style="opacity:0.723" fill="#ed3a5f" d="M 203.5,309.5 C 209.113,308.079 211.28,310.079 210,315.5C 207.952,317.787 205.785,317.954 203.5,316C 202.395,313.88 202.395,311.713 203.5,309.5 Z"/></g>
<g><path style="opacity:0.75" fill="#ed3a5f" d="M 105.5,319.5 C 111.476,319.157 113.142,321.49 110.5,326.5C 108.833,327.833 107.167,327.833 105.5,326.5C 104.286,324.141 104.286,321.808 105.5,319.5 Z"/></g>
<g><path style="opacity:0.71" fill="#ed3a5f" d="M 195.5,319.5 C 201.488,319.664 202.821,322.164 199.5,327C 193.202,327.495 191.868,324.995 195.5,319.5 Z"/></g>
<g><path style="opacity:0.737" fill="#ed3a5f" d="M 304.5,319.5 C 310.313,319.062 311.98,321.562 309.5,327C 303.593,327.746 301.927,325.246 304.5,319.5 Z"/></g>
<g><path style="opacity:0.708" fill="#ed3a5f" d="M 117.5,327.5 C 123.488,327.664 124.821,330.164 121.5,335C 118.099,336.135 116.099,334.968 115.5,331.5C 115.803,329.886 116.47,328.552 117.5,327.5 Z"/></g>
<g><path style="opacity:0.75" fill="#ed3a5f" d="M 184.5,327.5 C 185.93,327.421 187.264,327.754 188.5,328.5C 190.914,334.024 189.248,336.191 183.5,335C 181.315,332.322 181.649,329.822 184.5,327.5 Z"/></g>
<g><path style="opacity:0.723" fill="#ed3a5f" d="M 129.5,333.5 C 134.881,333.452 136.547,335.952 134.5,341C 128.206,341.578 126.539,339.078 129.5,333.5 Z"/></g>
<g><path style="opacity:0.71" fill="#ed3a5f" d="M 171.5,333.5 C 175.06,332.891 177.06,334.391 177.5,338C 175.927,341.452 173.427,342.286 170,340.5C 169.185,337.802 169.685,335.468 171.5,333.5 Z"/></g>
<g><path style="opacity:0.738" fill="#ed3a5f" d="M 304.5,333.5 C 310.313,333.062 311.98,335.562 309.5,341C 303.593,341.746 301.927,339.246 304.5,333.5 Z"/></g>
<g><path style="opacity:0.723" fill="#ed3a5f" d="M 158.5,336.5 C 163.266,337.158 164.6,339.658 162.5,344C 157.338,345.424 155.171,343.59 156,338.5C 156.995,337.934 157.828,337.267 158.5,336.5 Z"/></g>
<g><path style="opacity:0.737" fill="#ed3a5f" d="M 142.5,337.5 C 148.113,336.079 150.28,338.079 149,343.5C 142.423,346.088 140.256,344.088 142.5,337.5 Z"/></g>
</svg>
