<?xml version="1.0" encoding="UTF-8"?>
<!DOCTYPE svg PUBLIC "-//W3C//DTD SVG 1.1//EN" "http://www.w3.org/Graphics/SVG/1.1/DTD/svg11.dtd">
<svg xmlns="http://www.w3.org/2000/svg" version="1.1" width="500px" height="500px" style="shape-rendering:geometricPrecision; text-rendering:geometricPrecision; image-rendering:optimizeQuality; fill-rule:evenodd; clip-rule:evenodd" xmlns:xlink="http://www.w3.org/1999/xlink">
<g><path style="opacity:1" fill="#f7f7f7" d="M -0.5,-0.5 C 166.167,-0.5 332.833,-0.5 499.5,-0.5C 499.5,166.167 499.5,332.833 499.5,499.5C 332.833,499.5 166.167,499.5 -0.5,499.5C -0.5,332.833 -0.5,166.167 -0.5,-0.5 Z M 119.5,167.5 C 153.251,163.915 182.084,173.915 206,197.5C 224.775,221.675 231.775,249.008 227,279.5C 221.412,313.86 202.579,337.694 170.5,351C 138.084,362.086 107.084,359.086 77.5,342C 50.7986,322.432 37.4653,295.932 37.5,262.5C 37.6636,225.983 52.9969,198.15 83.5,179C 95.0109,173.217 107.011,169.384 119.5,167.5 Z M 257.5,169.5 C 273.167,169.5 288.833,169.5 304.5,169.5C 304.333,207.168 304.5,244.835 305,282.5C 308.967,306.159 322.967,318.493 347,319.5C 376.25,317.581 391.25,301.915 392,272.5C 392.5,238.168 392.667,203.835 392.5,169.5C 407.833,169.5 423.167,169.5 438.5,169.5C 438.5,231.5 438.5,293.5 438.5,355.5C 423.167,355.5 407.833,355.5 392.5,355.5C 392.5,343.833 392.5,332.167 392.5,320.5C 391.325,320.281 390.325,320.614 389.5,321.5C 378.584,342.477 361.251,354.31 337.5,357C 299.594,360.315 274.427,344.148 262,308.5C 260.744,303.552 259.744,298.552 259,293.5C 257.585,252.185 257.085,210.851 257.5,169.5 Z M 278.5,179.5 C 286.1,179.213 287.767,182.046 283.5,188C 284.448,188.483 285.448,188.649 286.5,188.5C 286.5,189.5 286.5,190.5 286.5,191.5C 283.5,191.5 280.5,191.5 277.5,191.5C 277.351,190.448 277.517,189.448 278,188.5C 280.295,186.92 281.628,184.92 282,182.5C 280.89,184.037 279.39,184.703 277.5,184.5C 277.629,182.784 277.962,181.117 278.5,179.5 Z M 116.5,180.5 C 118.167,180.5 119.833,180.5 121.5,180.5C 121.5,184.5 121.5,188.5 121.5,192.5C 120.167,192.5 118.833,192.5 117.5,192.5C 117.665,189.482 117.498,186.482 117,183.5C 115.272,182.648 115.105,181.648 116.5,180.5 Z M 416.5,189.5 C 416.5,188.5 416.5,187.5 416.5,186.5C 413.795,186.62 413.128,185.62 414.5,183.5C 416.833,182.167 419.167,182.167 421.5,183.5C 421.378,186.447 421.544,189.447 422,192.5C 420.192,194.396 418.025,194.896 415.5,194C 413.963,192.89 413.297,191.39 413.5,189.5C 414.5,189.5 415.5,189.5 416.5,189.5 Z"/></g>
<g><path style="opacity:0.887" fill="#a5a6a5" d="M 118.5,166.5 C 148.737,162.972 175.737,170.472 199.5,189C 219.924,209.077 229.924,233.577 229.5,262.5C 227.513,317.316 199.513,349.149 145.5,358C 116.943,361.113 91.276,354.113 68.5,337C 42.5973,311.941 32.4306,281.441 38,245.5C 45.9159,199.75 72.7492,173.416 118.5,166.5 Z M 119.5,167.5 C 107.011,169.384 95.0109,173.217 83.5,179C 52.9969,198.15 37.6636,225.983 37.5,262.5C 37.4653,295.932 50.7986,322.432 77.5,342C 107.084,359.086 138.084,362.086 170.5,351C 202.579,337.694 221.412,313.86 227,279.5C 231.775,249.008 224.775,221.675 206,197.5C 182.084,173.915 153.251,163.915 119.5,167.5 Z M 116.5,180.5 C 115.105,181.648 115.272,182.648 117,183.5C 117.498,186.482 117.665,189.482 117.5,192.5C 118.833,192.5 120.167,192.5 121.5,192.5C 121.5,188.5 121.5,184.5 121.5,180.5C 119.833,180.5 118.167,180.5 116.5,180.5 Z"/></g>
<g><path style="opacity:0.955" fill="#a5a6a5" d="M 256.5,168.5 C 272.833,168.5 289.167,168.5 305.5,168.5C 305.333,206.168 305.5,243.835 306,281.5C 309.697,304.853 323.363,317.186 347,318.5C 375.722,316.108 390.389,300.441 391,271.5C 391.5,237.168 391.667,202.835 391.5,168.5C 407.5,168.5 423.5,168.5 439.5,168.5C 439.5,231.167 439.5,293.833 439.5,356.5C 423.5,356.5 407.5,356.5 391.5,356.5C 391.667,344.829 391.5,333.162 391,321.5C 380.148,342.989 362.648,355.155 338.5,358C 302.606,362.316 277.44,348.149 263,315.5C 260.57,308.684 258.903,301.684 258,294.5C 256.583,252.518 256.083,210.518 256.5,168.5 Z M 257.5,169.5 C 257.085,210.851 257.585,252.185 259,293.5C 259.744,298.552 260.744,303.552 262,308.5C 274.427,344.148 299.594,360.315 337.5,357C 361.251,354.31 378.584,342.477 389.5,321.5C 390.325,320.614 391.325,320.281 392.5,320.5C 392.5,332.167 392.5,343.833 392.5,355.5C 407.833,355.5 423.167,355.5 438.5,355.5C 438.5,293.5 438.5,231.5 438.5,169.5C 423.167,169.5 407.833,169.5 392.5,169.5C 392.667,203.835 392.5,238.168 392,272.5C 391.25,301.915 376.25,317.581 347,319.5C 322.967,318.493 308.967,306.159 305,282.5C 304.5,244.835 304.333,207.168 304.5,169.5C 288.833,169.5 273.167,169.5 257.5,169.5 Z M 278.5,179.5 C 277.962,181.117 277.629,182.784 277.5,184.5C 279.39,184.703 280.89,184.037 282,182.5C 281.628,184.92 280.295,186.92 278,188.5C 277.517,189.448 277.351,190.448 277.5,191.5C 280.5,191.5 283.5,191.5 286.5,191.5C 286.5,190.5 286.5,189.5 286.5,188.5C 285.448,188.649 284.448,188.483 283.5,188C 287.767,182.046 286.1,179.213 278.5,179.5 Z M 416.5,189.5 C 415.5,189.5 414.5,189.5 413.5,189.5C 413.297,191.39 413.963,192.89 415.5,194C 418.025,194.896 420.192,194.396 422,192.5C 421.544,189.447 421.378,186.447 421.5,183.5C 419.167,182.167 416.833,182.167 414.5,183.5C 413.128,185.62 413.795,186.62 416.5,186.5C 416.5,187.5 416.5,188.5 416.5,189.5 Z"/></g>
<g><path style="opacity:0.899" fill="#ed3a5f" d="M 114.5,174.5 C 126.99,172.823 132.157,178.156 130,190.5C 129.215,192.286 128.049,193.786 126.5,195C 113.074,199.238 107.241,194.404 109,180.5C 110.36,177.977 112.193,175.977 114.5,174.5 Z M 116.5,180.5 C 115.105,181.648 115.272,182.648 117,183.5C 117.498,186.482 117.665,189.482 117.5,192.5C 118.833,192.5 120.167,192.5 121.5,192.5C 121.5,188.5 121.5,184.5 121.5,180.5C 119.833,180.5 118.167,180.5 116.5,180.5 Z"/></g>
<g><path style="opacity:0.89" fill="#ed3a5f" d="M 276.5,174.5 C 288.99,172.823 294.157,178.156 292,190.5C 291.215,192.286 290.049,193.786 288.5,195C 275.074,199.238 269.241,194.404 271,180.5C 272.36,177.977 274.193,175.977 276.5,174.5 Z M 278.5,179.5 C 277.962,181.117 277.629,182.784 277.5,184.5C 279.39,184.703 280.89,184.037 282,182.5C 281.628,184.92 280.295,186.92 278,188.5C 277.517,189.448 277.351,190.448 277.5,191.5C 280.5,191.5 283.5,191.5 286.5,191.5C 286.5,190.5 286.5,189.5 286.5,188.5C 285.448,188.649 284.448,188.483 283.5,188C 287.767,182.046 286.1,179.213 278.5,179.5 Z"/></g>
<g><path style="opacity:0.882" fill="#ed3a5f" d="M 413.5,176.5 C 426.512,174.178 431.679,179.512 429,192.5C 428.215,194.286 427.049,195.786 425.5,197C 412.074,201.238 406.241,196.404 408,182.5C 409.36,179.977 411.193,177.977 413.5,176.5 Z M 416.5,189.5 C 415.5,189.5 414.5,189.5 413.5,189.5C 413.297,191.39 413.963,192.89 415.5,194C 418.025,194.896 420.192,194.396 422,192.5C 421.544,189.447 421.378,186.447 421.5,183.5C 419.167,182.167 416.833,182.167 414.5,183.5C 413.128,185.62 413.795,186.62 416.5,186.5C 416.5,187.5 416.5,188.5 416.5,189.5 Z"/></g>
<g><path style="opacity:0.767" fill="#ed3a5f" d="M 138.5,184.5 C 143.914,183.565 145.914,185.565 144.5,190.5C 138.129,192.796 136.129,190.796 138.5,184.5 Z"/></g>
<g><path style="opacity:0.733" fill="#ed3a5f" d="M 100.5,188.5 C 106.729,188.027 108.395,190.36 105.5,195.5C 99.8045,196.446 98.1378,194.112 100.5,188.5 Z"/></g>
<g><path style="opacity:0.71" fill="#ed3a5f" d="M 151.5,188.5 C 157.113,187.079 159.28,189.079 158,194.5C 155.952,196.787 153.785,196.954 151.5,195C 150.232,192.837 150.232,190.67 151.5,188.5 Z"/></g>
<g><path style="opacity:1" fill="#ed3a5f" d="M 416.5,189.5 C 418.028,189.517 418.528,190.184 418,191.5C 417.283,190.956 416.783,190.289 416.5,189.5 Z"/></g>
<g><path style="opacity:0.723" fill="#ed3a5f" d="M 164.5,194.5 C 170.313,194.062 171.98,196.562 169.5,202C 165.535,203.417 163.201,202.084 162.5,198C 163.305,196.887 163.972,195.721 164.5,194.5 Z"/></g>
<g><path style="opacity:0.816" fill="#ed3a5f" d="M 88.5,195.5 C 93.6752,194.507 95.5086,196.507 94,201.5C 90.76,203.827 88.26,202.994 86.5,199C 87.305,197.887 87.9717,196.721 88.5,195.5 Z"/></g>
<g><path style="opacity:0.834" fill="#ed3a5f" d="M 277.5,200.5 C 283.317,200.03 284.984,202.196 282.5,207C 276.741,208.139 275.074,205.972 277.5,200.5 Z"/></g>
<g><path style="opacity:0.737" fill="#ed3a5f" d="M 175.5,203.5 C 181.704,203.314 183.037,205.814 179.5,211C 173.812,210.79 172.479,208.29 175.5,203.5 Z"/></g>
<g><path style="opacity:0.71" fill="#ed3a5f" d="M 77.5,204.5 C 84.004,204.138 85.6707,206.638 82.5,212C 76.7853,212.401 75.1187,209.901 77.5,204.5 Z"/></g>
<g><path style="opacity:0.853" fill="#ed3a5f" d="M 416.5,206.5 C 422.158,205.679 423.825,207.846 421.5,213C 415.741,214.139 414.074,211.972 416.5,206.5 Z"/></g>
<g><path style="opacity:0.886" fill="#a5a6a5" d="M 126.5,207.5 C 156.778,206.535 174.611,220.869 180,250.5C 182.618,267.126 179.951,282.792 172,297.5C 155.995,316.794 136.162,321.961 112.5,313C 96.8438,304.55 88.0104,291.383 86,273.5C 83.7055,257.265 86.3722,241.932 94,227.5C 102.204,216.445 113.037,209.778 126.5,207.5 Z"/></g>
<g><path style="opacity:1" fill="#f7f8f7" d="M 127.5,208.5 C 156.993,208.165 174.159,222.498 179,251.5C 181.398,267.449 178.731,282.449 171,296.5C 155.65,315.464 136.484,320.631 113.5,312C 97.8438,303.55 89.0104,290.383 87,272.5C 84.9258,256.943 87.5925,242.276 95,228.5C 103.204,217.445 114.037,210.778 127.5,208.5 Z"/></g>
<g><path style="opacity:0.767" fill="#ed3a5f" d="M 183.5,214.5 C 189.113,213.079 191.28,215.079 190,220.5C 183.854,222.636 181.687,220.636 183.5,214.5 Z"/></g>
<g><path style="opacity:0.815" fill="#ed3a5f" d="M 277.5,214.5 C 280.864,213.789 283.197,214.956 284.5,218C 282.74,221.994 280.24,222.827 277,220.5C 276.322,218.402 276.489,216.402 277.5,214.5 Z"/></g>
<g><path style="opacity:0.737" fill="#ed3a5f" d="M 69.5,215.5 C 75.704,215.314 77.0374,217.814 73.5,223C 67.8121,222.79 66.4788,220.29 69.5,215.5 Z"/></g>
<g><path style="opacity:0.835" fill="#ed3a5f" d="M 416.5,220.5 C 421.675,219.507 423.509,221.507 422,226.5C 420,229.167 418,229.167 416,226.5C 415.322,224.402 415.489,222.402 416.5,220.5 Z"/></g>
<g><path style="opacity:0.71" fill="#ed3a5f" d="M 191.5,226.5 C 197.704,226.314 199.037,228.814 195.5,234C 189.403,234.147 188.07,231.647 191.5,226.5 Z"/></g>
<g><path style="opacity:0.697" fill="#ed3a5f" d="M 63.5,227.5 C 68.7083,227.369 70.3749,229.702 68.5,234.5C 61.3692,236.27 59.7025,233.936 63.5,227.5 Z"/></g>
<g><path style="opacity:0.799" fill="#ed3a5f" d="M 277.5,228.5 C 283.068,228.015 285.068,230.348 283.5,235.5C 277.323,236.984 275.323,234.65 277.5,228.5 Z"/></g>
<g><path style="opacity:0.768" fill="#ed3a5f" d="M 416.5,234.5 C 422.235,233.821 423.902,236.155 421.5,241.5C 419.833,242.833 418.167,242.833 416.5,241.5C 415.286,239.141 415.286,236.808 416.5,234.5 Z"/></g>
<g><path style="opacity:0.71" fill="#ed3a5f" d="M 196.5,239.5 C 202.488,239.664 203.821,242.164 200.5,247C 197.099,248.135 195.099,246.968 194.5,243.5C 194.803,241.886 195.47,240.552 196.5,239.5 Z"/></g>
<g><path style="opacity:0.723" fill="#ed3a5f" d="M 58.5,241.5 C 64.1132,240.079 66.2799,242.079 65,247.5C 62.9517,249.787 60.7851,249.954 58.5,248C 57.3947,245.88 57.3947,243.713 58.5,241.5 Z"/></g>
<g><path style="opacity:0.766" fill="#ed3a5f" d="M 277.5,242.5 C 283.476,242.157 285.142,244.49 282.5,249.5C 276.805,250.446 275.138,248.112 277.5,242.5 Z"/></g>
<g><path style="opacity:0.767" fill="#ed3a5f" d="M 416.5,248.5 C 422.235,247.821 423.902,250.155 421.5,255.5C 419.833,256.833 418.167,256.833 416.5,255.5C 415.286,253.141 415.286,250.808 416.5,248.5 Z"/></g>
<g><path style="opacity:0.766" fill="#ed3a5f" d="M 198.5,253.5 C 204.235,252.821 205.902,255.155 203.5,260.5C 201.833,261.833 200.167,261.833 198.5,260.5C 197.286,258.141 197.286,255.808 198.5,253.5 Z"/></g>
<g><path style="opacity:0.831" fill="#ed3a5f" d="M 57.5,255.5 C 62.6752,254.507 64.5086,256.507 63,261.5C 61,264.167 59,264.167 57,261.5C 56.3224,259.402 56.4891,257.402 57.5,255.5 Z"/></g>
<g><path style="opacity:0.767" fill="#ed3a5f" d="M 277.5,256.5 C 283.476,256.157 285.142,258.49 282.5,263.5C 276.805,264.446 275.138,262.112 277.5,256.5 Z"/></g>
<g><path style="opacity:0.766" fill="#ed3a5f" d="M 416.5,262.5 C 422.235,261.821 423.902,264.155 421.5,269.5C 419.833,270.833 418.167,270.833 416.5,269.5C 415.286,267.141 415.286,264.808 416.5,262.5 Z"/></g>
<g><path style="opacity:0.751" fill="#ed3a5f" d="M 198.5,267.5 C 204.704,267.314 206.037,269.814 202.5,275C 196.834,274.835 195.501,272.335 198.5,267.5 Z"/></g>
<g><path style="opacity:0.734" fill="#ed3a5f" d="M 57.5,269.5 C 63.1132,268.079 65.2799,270.079 64,275.5C 57.423,278.088 55.2563,276.088 57.5,269.5 Z"/></g>
<g><path style="opacity:0.765" fill="#ed3a5f" d="M 277.5,270.5 C 283.235,269.821 284.902,272.155 282.5,277.5C 280.833,278.833 279.167,278.833 277.5,277.5C 276.286,275.141 276.286,272.808 277.5,270.5 Z"/></g>
<g><path style="opacity:0.768" fill="#ed3a5f" d="M 416.5,276.5 C 422.235,275.821 423.902,278.155 421.5,283.5C 419.833,284.833 418.167,284.833 416.5,283.5C 415.286,281.141 415.286,278.808 416.5,276.5 Z"/></g>
<g><path style="opacity:0.752" fill="#ed3a5f" d="M 197.5,280.5 C 202.328,281.641 203.328,284.141 200.5,288C 195.333,289.5 193.5,287.667 195,282.5C 195.995,281.934 196.828,281.267 197.5,280.5 Z"/></g>
<g><path style="opacity:0.735" fill="#ed3a5f" d="M 61.5,282.5 C 66.2624,283.092 67.5957,285.592 65.5,290C 58.17,290.486 56.8367,287.986 61.5,282.5 Z"/></g>
<g><path style="opacity:0.737" fill="#ed3a5f" d="M 278.5,284.5 C 284.729,284.027 286.395,286.36 283.5,291.5C 277.805,292.446 276.138,290.112 278.5,284.5 Z"/></g>
<g><path style="opacity:0.768" fill="#ed3a5f" d="M 416.5,290.5 C 422.235,289.821 423.902,292.155 421.5,297.5C 419.833,298.833 418.167,298.833 416.5,297.5C 415.286,295.141 415.286,292.808 416.5,290.5 Z"/></g>
<g><path style="opacity:0.749" fill="#ed3a5f" d="M 69.5,294.5 C 73.3958,295.78 74.3958,298.28 72.5,302C 67.0984,303.421 65.0984,301.588 66.5,296.5C 67.6016,295.824 68.6016,295.158 69.5,294.5 Z"/></g>
<g><path style="opacity:0.721" fill="#ed3a5f" d="M 190.5,294.5 C 196.113,293.079 198.28,295.079 197,300.5C 195.04,302.899 192.874,303.065 190.5,301C 189.232,298.837 189.232,296.67 190.5,294.5 Z"/></g>
<g><path style="opacity:0.737" fill="#ed3a5f" d="M 283.5,297.5 C 288.262,298.092 289.596,300.592 287.5,305C 280.17,305.486 278.837,302.986 283.5,297.5 Z"/></g>
<g><path style="opacity:0.75" fill="#ed3a5f" d="M 394.5,297.5 C 399.881,297.452 401.547,299.952 399.5,305C 393.593,305.746 391.927,303.246 394.5,297.5 Z"/></g>
<g><path style="opacity:0.739" fill="#ed3a5f" d="M 416.5,304.5 C 422.313,304.062 423.98,306.562 421.5,312C 415.593,312.746 413.927,310.246 416.5,304.5 Z"/></g>
<g><path style="opacity:0.737" fill="#ed3a5f" d="M 75.5,306.5 C 81.7286,306.027 83.3953,308.36 80.5,313.5C 74.8045,314.446 73.1378,312.112 75.5,306.5 Z"/></g>
<g><path style="opacity:0.723" fill="#ed3a5f" d="M 183.5,306.5 C 189.113,305.079 191.28,307.079 190,312.5C 187.952,314.787 185.785,314.954 183.5,313C 182.395,310.88 182.395,308.713 183.5,306.5 Z"/></g>
<g><path style="opacity:0.737" fill="#ed3a5f" d="M 385.5,308.5 C 389.145,307.68 391.478,309.013 392.5,312.5C 391.165,316.004 388.832,317.004 385.5,315.5C 384.286,313.141 384.286,310.808 385.5,308.5 Z"/></g>
<g><path style="opacity:0.723" fill="#ed3a5f" d="M 288.5,310.5 C 294.235,309.821 295.902,312.155 293.5,317.5C 289.934,319.359 287.6,318.359 286.5,314.5C 287.18,313.14 287.847,311.807 288.5,310.5 Z"/></g>
<g><path style="opacity:0.75" fill="#ed3a5f" d="M 85.5,316.5 C 91.4756,316.157 93.1423,318.49 90.5,323.5C 88.8333,324.833 87.1667,324.833 85.5,323.5C 84.2857,321.141 84.2857,318.808 85.5,316.5 Z"/></g>
<g><path style="opacity:0.71" fill="#ed3a5f" d="M 175.5,316.5 C 181.488,316.664 182.821,319.164 179.5,324C 173.202,324.495 171.868,321.995 175.5,316.5 Z"/></g>
<g><path style="opacity:0.738" fill="#ed3a5f" d="M 374.5,317.5 C 380.729,317.027 382.395,319.36 379.5,324.5C 373.805,325.446 372.138,323.112 374.5,317.5 Z"/></g>
<g><path style="opacity:0.737" fill="#ed3a5f" d="M 416.5,318.5 C 422.313,318.062 423.98,320.562 421.5,326C 415.593,326.746 413.927,324.246 416.5,318.5 Z"/></g>
<g><path style="opacity:0.85" fill="#ed3a5f" d="M 297.5,321.5 C 303.158,320.679 304.825,322.846 302.5,328C 296.741,329.139 295.074,326.972 297.5,321.5 Z"/></g>
<g><path style="opacity:0.708" fill="#ed3a5f" d="M 97.5,324.5 C 103.488,324.664 104.821,327.164 101.5,332C 98.0989,333.135 96.0989,331.968 95.5,328.5C 95.8029,326.886 96.4695,325.552 97.5,324.5 Z"/></g>
<g><path style="opacity:0.75" fill="#ed3a5f" d="M 164.5,324.5 C 165.93,324.421 167.264,324.754 168.5,325.5C 170.914,331.024 169.248,333.191 163.5,332C 161.315,329.322 161.649,326.822 164.5,324.5 Z"/></g>
<g><path style="opacity:0.722" fill="#ed3a5f" d="M 364.5,324.5 C 369.19,324.94 370.524,327.274 368.5,331.5C 362.976,333.914 360.809,332.248 362,326.5C 362.995,325.934 363.828,325.267 364.5,324.5 Z"/></g>
<g><path style="opacity:0.71" fill="#ed3a5f" d="M 309.5,328.5 C 315.235,327.821 316.902,330.155 314.5,335.5C 310.624,337.446 308.291,336.28 307.5,332C 307.978,330.697 308.645,329.531 309.5,328.5 Z"/></g>
<g><path style="opacity:0.723" fill="#ed3a5f" d="M 109.5,330.5 C 114.881,330.452 116.547,332.952 114.5,338C 108.206,338.578 106.539,336.078 109.5,330.5 Z"/></g>
<g><path style="opacity:0.71" fill="#ed3a5f" d="M 151.5,330.5 C 155.06,329.891 157.06,331.391 157.5,335C 155.927,338.452 153.427,339.286 150,337.5C 149.185,334.802 149.685,332.468 151.5,330.5 Z"/></g>
<g><path style="opacity:0.709" fill="#ed3a5f" d="M 350.5,331.5 C 356.62,331.259 358.287,333.759 355.5,339C 349.593,339.746 347.927,337.246 350.5,331.5 Z"/></g>
<g><path style="opacity:0.736" fill="#ed3a5f" d="M 322.5,332.5 C 328.729,332.027 330.395,334.36 327.5,339.5C 321.805,340.446 320.138,338.112 322.5,332.5 Z"/></g>
<g><path style="opacity:0.737" fill="#ed3a5f" d="M 416.5,332.5 C 422.313,332.062 423.98,334.562 421.5,340C 415.593,340.746 413.927,338.246 416.5,332.5 Z"/></g>
<g><path style="opacity:0.723" fill="#ed3a5f" d="M 138.5,333.5 C 143.266,334.158 144.6,336.658 142.5,341C 137.338,342.424 135.171,340.59 136,335.5C 136.995,334.934 137.828,334.267 138.5,333.5 Z"/></g>
<g><path style="opacity:0.765" fill="#ed3a5f" d="M 336.5,333.5 C 341.914,332.565 343.914,334.565 342.5,339.5C 336.129,341.796 334.129,339.796 336.5,333.5 Z"/></g>
<g><path style="opacity:0.737" fill="#ed3a5f" d="M 122.5,334.5 C 128.113,333.079 130.28,335.079 129,340.5C 122.423,343.088 120.256,341.088 122.5,334.5 Z"/></g>
</svg>
