<?xml version="1.0" encoding="UTF-8"?>
<!DOCTYPE svg PUBLIC "-//W3C//DTD SVG 1.1//EN" "http://www.w3.org/Graphics/SVG/1.1/DTD/svg11.dtd">
<svg xmlns="http://www.w3.org/2000/svg" version="1.1" width="500px" height="500px" style="shape-rendering:geometricPrecision; text-rendering:geometricPrecision; image-rendering:optimizeQuality; fill-rule:evenodd; clip-rule:evenodd" xmlns:xlink="http://www.w3.org/1999/xlink">
<g><path style="opacity:1" fill="#f7f8f7" d="M -0.5,-0.5 C 166.167,-0.5 332.833,-0.5 499.5,-0.5C 499.5,166.167 499.5,332.833 499.5,499.5C 332.833,499.5 166.167,499.5 -0.5,499.5C -0.5,332.833 -0.5,166.167 -0.5,-0.5 Z M 196.5,169.5 C 193.551,170.614 191.385,172.614 190,175.5C 188.209,189.203 194.043,194.203 207.5,190.5C 195.509,209.077 192.676,229.077 199,250.5C 210.829,276.665 230.995,286.832 259.5,281C 279.15,275.013 290.65,261.846 294,241.5C 297.502,221.993 293.502,204.326 282,188.5C 265.82,174.099 247.32,170.266 226.5,177C 220.472,179.543 215.139,183.043 210.5,187.5C 214.879,176.258 211.212,170.258 199.5,169.5C 209.445,149.082 225.778,137.248 248.5,134C 301.121,131.582 331.954,156.415 341,208.5C 345.005,235.136 341.005,260.469 329,284.5C 307.695,316.884 277.862,329.051 239.5,321C 221.701,315.608 208.367,304.775 199.5,288.5C 198.675,287.614 197.675,287.281 196.5,287.5C 196.5,328.167 196.5,368.833 196.5,409.5C 180.833,409.5 165.167,409.5 149.5,409.5C 149.5,318.167 149.5,226.833 149.5,135.5C 165.167,135.5 180.833,135.5 196.5,135.5C 196.5,146.833 196.5,158.167 196.5,169.5 Z M 168.5,153.5 C 170.167,153.5 171.833,153.5 173.5,153.5C 173.5,157.5 173.5,161.5 173.5,165.5C 172.167,165.5 170.833,165.5 169.5,165.5C 169.665,162.482 169.498,159.482 169,156.5C 167.272,155.648 167.105,154.648 168.5,153.5 Z M 197.5,174.5 C 199.5,174.5 201.5,174.5 203.5,174.5C 203.433,176.401 203.767,178.234 204.5,180C 204.241,181.261 203.574,182.261 202.5,183C 203.448,183.483 204.448,183.649 205.5,183.5C 205.5,184.5 205.5,185.5 205.5,186.5C 202.5,186.5 199.5,186.5 196.5,186.5C 196.351,185.448 196.517,184.448 197,183.5C 199.295,181.92 200.628,179.92 201,177.5C 199.89,179.037 198.39,179.703 196.5,179.5C 196.629,177.784 196.962,176.117 197.5,174.5 Z"/></g>
<g><path style="opacity:0.939" fill="#a5a6a5" d="M 247.5,132.5 C 298.561,129.408 329.728,152.741 341,202.5C 347.092,233.627 342.425,262.961 327,290.5C 307.691,316.227 281.858,327.393 249.5,324C 226.192,320.94 209.026,309.107 198,288.5C 197.5,329.165 197.333,369.832 197.5,410.5C 181.167,410.5 164.833,410.5 148.5,410.5C 148.5,318.5 148.5,226.5 148.5,134.5C 164.833,134.5 181.167,134.5 197.5,134.5C 197.333,145.838 197.5,157.172 198,168.5C 208.495,148.163 224.995,136.163 247.5,132.5 Z M 196.5,169.5 C 193.551,170.614 191.385,172.614 190,175.5C 188.209,189.203 194.043,194.203 207.5,190.5C 195.509,209.077 192.676,229.077 199,250.5C 210.829,276.665 230.995,286.832 259.5,281C 279.15,275.013 290.65,261.846 294,241.5C 297.502,221.993 293.502,204.326 282,188.5C 265.82,174.099 247.32,170.266 226.5,177C 220.472,179.543 215.139,183.043 210.5,187.5C 214.879,176.258 211.212,170.258 199.5,169.5C 209.445,149.082 225.778,137.248 248.5,134C 301.121,131.582 331.954,156.415 341,208.5C 345.005,235.136 341.005,260.469 329,284.5C 307.695,316.884 277.862,329.051 239.5,321C 221.701,315.608 208.367,304.775 199.5,288.5C 198.675,287.614 197.675,287.281 196.5,287.5C 196.5,328.167 196.5,368.833 196.5,409.5C 180.833,409.5 165.167,409.5 149.5,409.5C 149.5,318.167 149.5,226.833 149.5,135.5C 165.167,135.5 180.833,135.5 196.5,135.5C 196.5,146.833 196.5,158.167 196.5,169.5 Z M 168.5,153.5 C 167.105,154.648 167.272,155.648 169,156.5C 169.498,159.482 169.665,162.482 169.5,165.5C 170.833,165.5 172.167,165.5 173.5,165.5C 173.5,161.5 173.5,157.5 173.5,153.5C 171.833,153.5 170.167,153.5 168.5,153.5 Z M 197.5,174.5 C 196.962,176.117 196.629,177.784 196.5,179.5C 198.39,179.703 199.89,179.037 201,177.5C 200.628,179.92 199.295,181.92 197,183.5C 196.517,184.448 196.351,185.448 196.5,186.5C 199.5,186.5 202.5,186.5 205.5,186.5C 205.5,185.5 205.5,184.5 205.5,183.5C 204.448,183.649 203.448,183.483 202.5,183C 203.574,182.261 204.241,181.261 204.5,180C 203.767,178.234 203.433,176.401 203.5,174.5C 201.5,174.5 199.5,174.5 197.5,174.5 Z"/></g>
<g><path style="opacity:0.899" fill="#ed3a5f" d="M 166.5,147.5 C 178.99,145.823 184.157,151.156 182,163.5C 181.215,165.286 180.049,166.786 178.5,168C 165.074,172.238 159.241,167.404 161,153.5C 162.36,150.977 164.193,148.977 166.5,147.5 Z M 168.5,153.5 C 167.105,154.648 167.272,155.648 169,156.5C 169.498,159.482 169.665,162.482 169.5,165.5C 170.833,165.5 172.167,165.5 173.5,165.5C 173.5,161.5 173.5,157.5 173.5,153.5C 171.833,153.5 170.167,153.5 168.5,153.5 Z"/></g>
<g><path style="opacity:0.735" fill="#ed3a5f" d="M 241.5,151.5 C 247.488,151.664 248.821,154.164 245.5,159C 239.403,159.147 238.07,156.647 241.5,151.5 Z"/></g>
<g><path style="opacity:0.737" fill="#ed3a5f" d="M 254.5,151.5 C 260.113,150.079 262.28,152.079 261,157.5C 254.423,160.088 252.256,158.088 254.5,151.5 Z"/></g>
<g><path style="opacity:0.751" fill="#ed3a5f" d="M 270.5,152.5 C 274.718,153.275 276.052,155.609 274.5,159.5C 268.976,161.914 266.809,160.248 268,154.5C 268.995,153.934 269.828,153.267 270.5,152.5 Z"/></g>
<g><path style="opacity:0.736" fill="#ed3a5f" d="M 228.5,156.5 C 234.488,156.664 235.821,159.164 232.5,164C 226.403,164.147 225.07,161.647 228.5,156.5 Z"/></g>
<g><path style="opacity:0.735" fill="#ed3a5f" d="M 282.5,157.5 C 288.488,157.664 289.821,160.164 286.5,165C 280.403,165.147 279.07,162.647 282.5,157.5 Z"/></g>
<g><path style="opacity:0.721" fill="#ed3a5f" d="M 216.5,163.5 C 222.488,163.664 223.821,166.164 220.5,171C 214.412,171.084 213.079,168.584 216.5,163.5 Z"/></g>
<g><path style="opacity:0.723" fill="#ed3a5f" d="M 294.5,164.5 C 299.708,164.369 301.375,166.702 299.5,171.5C 292.789,172.788 291.123,170.455 294.5,164.5 Z"/></g>
<g><path style="opacity:0.89" fill="#ed3a5f" d="M 196.5,169.5 C 197.5,169.5 198.5,169.5 199.5,169.5C 211.212,170.258 214.879,176.258 210.5,187.5C 209.833,187.5 209.5,187.833 209.5,188.5C 208.833,188.5 208.5,188.833 208.5,189.5C 207.833,189.5 207.5,189.833 207.5,190.5C 194.043,194.203 188.209,189.203 190,175.5C 191.385,172.614 193.551,170.614 196.5,169.5 Z M 197.5,174.5 C 196.962,176.117 196.629,177.784 196.5,179.5C 198.39,179.703 199.89,179.037 201,177.5C 200.628,179.92 199.295,181.92 197,183.5C 196.517,184.448 196.351,185.448 196.5,186.5C 199.5,186.5 202.5,186.5 205.5,186.5C 205.5,185.5 205.5,184.5 205.5,183.5C 204.448,183.649 203.448,183.483 202.5,183C 203.574,182.261 204.241,181.261 204.5,180C 203.767,178.234 203.433,176.401 203.5,174.5C 201.5,174.5 199.5,174.5 197.5,174.5 Z"/></g>
<g><path style="opacity:0.885" fill="#a5a6a5" d="M 207.5,190.5 C 208.167,190.5 208.5,190.167 208.5,189.5C 209.167,189.5 209.5,189.167 209.5,188.5C 210.167,188.5 210.5,188.167 210.5,187.5C 215.139,183.043 220.472,179.543 226.5,177C 247.32,170.266 265.82,174.099 282,188.5C 293.502,204.326 297.502,221.993 294,241.5C 290.65,261.846 279.15,275.013 259.5,281C 230.995,286.832 210.829,276.665 199,250.5C 192.676,229.077 195.509,209.077 207.5,190.5 Z"/></g>
<g><path style="opacity:1" fill="#f7f8f7" d="M 243.5,174.5 C 276.992,176.768 293.658,194.768 293.5,228.5C 293.502,260.825 277.502,278.492 245.5,281.5C 213.69,278.351 197.357,260.684 196.5,228.5C 197.406,197.281 213.072,179.281 243.5,174.5 Z"/></g>
<g><path style="opacity:0.737" fill="#ed3a5f" d="M 304.5,174.5 C 310.488,174.664 311.821,177.164 308.5,182C 302.403,182.147 301.07,179.647 304.5,174.5 Z"/></g>
<g><path style="opacity:0.851" fill="#ed3a5f" d="M 169.5,175.5 C 175.158,174.679 176.825,176.846 174.5,182C 168.741,183.139 167.074,180.972 169.5,175.5 Z"/></g>
<g><path style="opacity:0.721" fill="#ed3a5f" d="M 311.5,186.5 C 317.235,185.821 318.902,188.155 316.5,193.5C 312.934,195.359 310.6,194.359 309.5,190.5C 310.18,189.14 310.847,187.807 311.5,186.5 Z"/></g>
<g><path style="opacity:0.851" fill="#ed3a5f" d="M 169.5,189.5 C 175.158,188.679 176.825,190.846 174.5,196C 168.741,197.139 167.074,194.972 169.5,189.5 Z"/></g>
<g><path style="opacity:0.721" fill="#ed3a5f" d="M 316.5,199.5 C 322.235,198.821 323.902,201.155 321.5,206.5C 317.934,208.359 315.6,207.359 314.5,203.5C 315.18,202.14 315.847,200.807 316.5,199.5 Z"/></g>
<g><path style="opacity:0.851" fill="#ed3a5f" d="M 169.5,203.5 C 175.158,202.679 176.825,204.846 174.5,210C 168.741,211.139 167.074,208.972 169.5,203.5 Z"/></g>
<g><path style="opacity:0.735" fill="#ed3a5f" d="M 319.5,213.5 C 325.704,213.314 327.037,215.814 323.5,221C 317.812,220.79 316.479,218.29 319.5,213.5 Z"/></g>
<g><path style="opacity:0.851" fill="#ed3a5f" d="M 169.5,217.5 C 175.158,216.679 176.825,218.846 174.5,224C 168.741,225.139 167.074,222.972 169.5,217.5 Z"/></g>
<g><path style="opacity:0.833" fill="#ed3a5f" d="M 320.5,227.5 C 325.675,226.507 327.509,228.507 326,233.5C 324,236.167 322,236.167 320,233.5C 319.322,231.402 319.489,229.402 320.5,227.5 Z"/></g>
<g><path style="opacity:0.85" fill="#ed3a5f" d="M 169.5,231.5 C 175.158,230.679 176.825,232.846 174.5,238C 168.741,239.139 167.074,236.972 169.5,231.5 Z"/></g>
<g><path style="opacity:0.798" fill="#ed3a5f" d="M 319.5,241.5 C 325.068,241.015 327.068,243.348 325.5,248.5C 319.323,249.984 317.323,247.65 319.5,241.5 Z"/></g>
<g><path style="opacity:0.917" fill="#ed3a5f" d="M 169.5,245.5 C 175.158,244.679 176.825,246.846 174.5,252C 168.741,253.139 167.074,250.972 169.5,245.5 Z"/></g>
<g><path style="opacity:0.709" fill="#ed3a5f" d="M 316.5,254.5 C 321.984,254.481 323.65,256.981 321.5,262C 314.745,262.756 313.078,260.256 316.5,254.5 Z"/></g>
<g><path style="opacity:0.917" fill="#ed3a5f" d="M 169.5,259.5 C 175.158,258.679 176.825,260.846 174.5,266C 168.741,267.139 167.074,264.972 169.5,259.5 Z"/></g>
<g><path style="opacity:0.71" fill="#ed3a5f" d="M 310.5,267.5 C 316.704,267.314 318.037,269.814 314.5,275C 308.403,275.147 307.07,272.647 310.5,267.5 Z"/></g>
<g><path style="opacity:0.766" fill="#ed3a5f" d="M 202.5,272.5 C 203.93,272.421 205.264,272.754 206.5,273.5C 208.89,279.608 207.056,281.608 201,279.5C 200.185,276.802 200.685,274.468 202.5,272.5 Z"/></g>
<g><path style="opacity:0.917" fill="#ed3a5f" d="M 169.5,273.5 C 175.158,272.679 176.825,274.846 174.5,280C 168.741,281.139 167.074,278.972 169.5,273.5 Z"/></g>
<g><path style="opacity:0.751" fill="#ed3a5f" d="M 301.5,278.5 C 307.476,278.157 309.142,280.49 306.5,285.5C 304.833,286.833 303.167,286.833 301.5,285.5C 300.286,283.141 300.286,280.808 301.5,278.5 Z"/></g>
<g><path style="opacity:0.721" fill="#ed3a5f" d="M 211.5,282.5 C 216.501,281.671 218.668,283.671 218,288.5C 211.684,291.356 209.518,289.356 211.5,282.5 Z"/></g>
<g><path style="opacity:0.917" fill="#ed3a5f" d="M 169.5,287.5 C 175.158,286.679 176.825,288.846 174.5,294C 168.741,295.139 167.074,292.972 169.5,287.5 Z"/></g>
<g><path style="opacity:0.765" fill="#ed3a5f" d="M 290.5,287.5 C 295.914,286.565 297.914,288.565 296.5,293.5C 290.129,295.796 288.129,293.796 290.5,287.5 Z"/></g>
<g><path style="opacity:0.722" fill="#ed3a5f" d="M 224.5,289.5 C 228.06,288.891 230.06,290.391 230.5,294C 228.927,297.452 226.427,298.286 223,296.5C 222.167,293.829 222.667,291.496 224.5,289.5 Z"/></g>
<g><path style="opacity:0.709" fill="#ed3a5f" d="M 277.5,293.5 C 284.536,292.603 286.203,295.103 282.5,301C 276.779,301.365 275.113,298.865 277.5,293.5 Z"/></g>
<g><path style="opacity:0.709" fill="#ed3a5f" d="M 237.5,294.5 C 243.488,294.664 244.821,297.164 241.5,302C 235.202,302.495 233.868,299.995 237.5,294.5 Z"/></g>
<g><path style="opacity:0.709" fill="#ed3a5f" d="M 264.5,296.5 C 270.62,296.259 272.287,298.759 269.5,304C 263.593,304.746 261.927,302.246 264.5,296.5 Z"/></g>
<g><path style="opacity:0.833" fill="#ed3a5f" d="M 250.5,297.5 C 256.317,297.03 257.984,299.196 255.5,304C 249.741,305.139 248.074,302.972 250.5,297.5 Z"/></g>
<g><path style="opacity:0.917" fill="#ed3a5f" d="M 169.5,301.5 C 175.158,300.679 176.825,302.846 174.5,308C 168.741,309.139 167.074,306.972 169.5,301.5 Z"/></g>
<g><path style="opacity:0.917" fill="#ed3a5f" d="M 169.5,315.5 C 175.158,314.679 176.825,316.846 174.5,322C 168.741,323.139 167.074,320.972 169.5,315.5 Z"/></g>
<g><path style="opacity:0.85" fill="#ed3a5f" d="M 169.5,329.5 C 175.158,328.679 176.825,330.846 174.5,336C 168.741,337.139 167.074,334.972 169.5,329.5 Z"/></g>
<g><path style="opacity:0.851" fill="#ed3a5f" d="M 169.5,343.5 C 175.158,342.679 176.825,344.846 174.5,350C 168.741,351.139 167.074,348.972 169.5,343.5 Z"/></g>
<g><path style="opacity:0.85" fill="#ed3a5f" d="M 169.5,357.5 C 175.158,356.679 176.825,358.846 174.5,364C 168.741,365.139 167.074,362.972 169.5,357.5 Z"/></g>
<g><path style="opacity:0.85" fill="#ed3a5f" d="M 169.5,371.5 C 175.158,370.679 176.825,372.846 174.5,378C 168.741,379.139 167.074,376.972 169.5,371.5 Z"/></g>
<g><path style="opacity:0.85" fill="#ed3a5f" d="M 169.5,385.5 C 175.158,384.679 176.825,386.846 174.5,392C 168.741,393.139 167.074,390.972 169.5,385.5 Z"/></g>
</svg>
