<?xml version="1.0" encoding="UTF-8"?>
<!DOCTYPE svg PUBLIC "-//W3C//DTD SVG 1.1//EN" "http://www.w3.org/Graphics/SVG/1.1/DTD/svg11.dtd">
<svg xmlns="http://www.w3.org/2000/svg" version="1.1" width="500px" height="500px" style="shape-rendering:geometricPrecision; text-rendering:geometricPrecision; image-rendering:optimizeQuality; fill-rule:evenodd; clip-rule:evenodd" xmlns:xlink="http://www.w3.org/1999/xlink">
<g><path style="opacity:1" fill="#f7f7f7" d="M -0.5,-0.5 C 166.167,-0.5 332.833,-0.5 499.5,-0.5C 499.5,166.167 499.5,332.833 499.5,499.5C 332.833,499.5 166.167,499.5 -0.5,499.5C -0.5,332.833 -0.5,166.167 -0.5,-0.5 Z M 114.5,167.5 C 143.162,164.67 165.495,175.004 181.5,198.5C 182.325,199.386 183.325,199.719 184.5,199.5C 184.5,189.5 184.5,179.5 184.5,169.5C 199.833,169.5 215.167,169.5 230.5,169.5C 230.5,260.833 230.5,352.167 230.5,443.5C 215.167,443.5 199.833,443.5 184.5,443.5C 184.5,403.167 184.5,362.833 184.5,322.5C 183.325,322.281 182.325,322.614 181.5,323.5C 167.054,347.559 145.721,358.725 117.5,357C 75.1133,351.285 49.28,327.452 40,285.5C 33.985,254.238 39.985,225.572 58,199.5C 72.8317,181.67 91.6651,171.003 114.5,167.5 Z M 269.5,169.5 C 285.167,169.5 300.833,169.5 316.5,169.5C 316.333,206.835 316.5,244.168 317,281.5C 320.375,305.862 334.375,318.528 359,319.5C 388.25,317.581 403.25,301.915 404,272.5C 404.5,238.168 404.667,203.835 404.5,169.5C 419.833,169.5 435.167,169.5 450.5,169.5C 450.5,231.5 450.5,293.5 450.5,355.5C 435.167,355.5 419.833,355.5 404.5,355.5C 404.5,343.833 404.5,332.167 404.5,320.5C 403.325,320.281 402.325,320.614 401.5,321.5C 390.584,342.477 373.251,354.31 349.5,357C 311.594,360.315 286.427,344.148 274,308.5C 272.744,303.552 271.744,298.552 271,293.5C 269.585,252.185 269.085,210.851 269.5,169.5 Z M 429.5,177.5 C 430.833,177.5 432.167,177.5 433.5,177.5C 434.005,181.6 434.005,185.6 433.5,189.5C 432.5,189.5 431.5,189.5 430.5,189.5C 430.5,188.5 430.5,187.5 430.5,186.5C 428.396,186.799 426.396,186.466 424.5,185.5C 426.193,182.816 427.86,180.149 429.5,177.5 Z M 204.5,180.5 C 212.1,180.213 213.767,183.046 209.5,189C 210.448,189.483 211.448,189.649 212.5,189.5C 212.5,190.5 212.5,191.5 212.5,192.5C 209.5,192.5 206.5,192.5 203.5,192.5C 203.351,191.448 203.517,190.448 204,189.5C 206.295,187.92 207.628,185.92 208,183.5C 206.89,185.037 205.39,185.703 203.5,185.5C 203.629,183.784 203.962,182.117 204.5,180.5 Z M 292.5,187.5 C 292.5,186.5 292.5,185.5 292.5,184.5C 289.795,184.62 289.128,183.62 290.5,181.5C 292.833,180.167 295.167,180.167 297.5,181.5C 297.378,184.447 297.544,187.447 298,190.5C 296.192,192.396 294.025,192.896 291.5,192C 289.963,190.89 289.297,189.39 289.5,187.5C 290.5,187.5 291.5,187.5 292.5,187.5 Z M 178.5,211.5 C 180.167,211.5 181.833,211.5 183.5,211.5C 183.5,215.5 183.5,219.5 183.5,223.5C 182.167,223.5 180.833,223.5 179.5,223.5C 179.665,220.482 179.498,217.482 179,214.5C 177.272,213.648 177.105,212.648 178.5,211.5 Z"/></g>
<g><path style="opacity:0.937" fill="#a5a6a5" d="M 113.5,166.5 C 139.149,163.767 160.649,171.767 178,190.5C 179.667,193.167 181.333,195.833 183,198.5C 183.5,188.506 183.666,178.506 183.5,168.5C 199.5,168.5 215.5,168.5 231.5,168.5C 231.5,260.5 231.5,352.5 231.5,444.5C 215.5,444.5 199.5,444.5 183.5,444.5C 183.667,404.165 183.5,363.832 183,323.5C 169.906,346.722 149.906,358.389 123,358.5C 81.0455,355.877 53.7121,334.543 41,294.5C 33.2023,264.189 36.5356,235.189 51,207.5C 65.6391,184.356 86.4724,170.689 113.5,166.5 Z M 114.5,167.5 C 91.6651,171.003 72.8317,181.67 58,199.5C 39.985,225.572 33.985,254.238 40,285.5C 49.28,327.452 75.1133,351.285 117.5,357C 145.721,358.725 167.054,347.559 181.5,323.5C 182.325,322.614 183.325,322.281 184.5,322.5C 184.5,362.833 184.5,403.167 184.5,443.5C 199.833,443.5 215.167,443.5 230.5,443.5C 230.5,352.167 230.5,260.833 230.5,169.5C 215.167,169.5 199.833,169.5 184.5,169.5C 184.5,179.5 184.5,189.5 184.5,199.5C 183.325,199.719 182.325,199.386 181.5,198.5C 165.495,175.004 143.162,164.67 114.5,167.5 Z M 204.5,180.5 C 203.962,182.117 203.629,183.784 203.5,185.5C 205.39,185.703 206.89,185.037 208,183.5C 207.628,185.92 206.295,187.92 204,189.5C 203.517,190.448 203.351,191.448 203.5,192.5C 206.5,192.5 209.5,192.5 212.5,192.5C 212.5,191.5 212.5,190.5 212.5,189.5C 211.448,189.649 210.448,189.483 209.5,189C 213.767,183.046 212.1,180.213 204.5,180.5 Z M 178.5,211.5 C 177.105,212.648 177.272,213.648 179,214.5C 179.498,217.482 179.665,220.482 179.5,223.5C 180.833,223.5 182.167,223.5 183.5,223.5C 183.5,219.5 183.5,215.5 183.5,211.5C 181.833,211.5 180.167,211.5 178.5,211.5 Z"/></g>
<g><path style="opacity:0.955" fill="#a5a6a5" d="M 268.5,168.5 C 284.833,168.5 301.167,168.5 317.5,168.5C 317.333,205.835 317.5,243.168 318,280.5C 321.103,304.553 334.77,317.22 359,318.5C 387.722,316.108 402.389,300.441 403,271.5C 403.5,237.168 403.667,202.835 403.5,168.5C 419.5,168.5 435.5,168.5 451.5,168.5C 451.5,231.167 451.5,293.833 451.5,356.5C 435.5,356.5 419.5,356.5 403.5,356.5C 403.667,344.829 403.5,333.162 403,321.5C 392.148,342.989 374.648,355.155 350.5,358C 314.606,362.316 289.44,348.149 275,315.5C 272.57,308.684 270.903,301.684 270,294.5C 268.583,252.518 268.083,210.518 268.5,168.5 Z M 269.5,169.5 C 269.085,210.851 269.585,252.185 271,293.5C 271.744,298.552 272.744,303.552 274,308.5C 286.427,344.148 311.594,360.315 349.5,357C 373.251,354.31 390.584,342.477 401.5,321.5C 402.325,320.614 403.325,320.281 404.5,320.5C 404.5,332.167 404.5,343.833 404.5,355.5C 419.833,355.5 435.167,355.5 450.5,355.5C 450.5,293.5 450.5,231.5 450.5,169.5C 435.167,169.5 419.833,169.5 404.5,169.5C 404.667,203.835 404.5,238.168 404,272.5C 403.25,301.915 388.25,317.581 359,319.5C 334.375,318.528 320.375,305.862 317,281.5C 316.5,244.168 316.333,206.835 316.5,169.5C 300.833,169.5 285.167,169.5 269.5,169.5 Z M 429.5,177.5 C 427.86,180.149 426.193,182.816 424.5,185.5C 426.396,186.466 428.396,186.799 430.5,186.5C 430.5,187.5 430.5,188.5 430.5,189.5C 431.5,189.5 432.5,189.5 433.5,189.5C 434.005,185.6 434.005,181.6 433.5,177.5C 432.167,177.5 430.833,177.5 429.5,177.5 Z M 292.5,187.5 C 291.5,187.5 290.5,187.5 289.5,187.5C 289.297,189.39 289.963,190.89 291.5,192C 294.025,192.896 296.192,192.396 298,190.5C 297.544,187.447 297.378,184.447 297.5,181.5C 295.167,180.167 292.833,180.167 290.5,181.5C 289.128,183.62 289.795,184.62 292.5,184.5C 292.5,185.5 292.5,186.5 292.5,187.5 Z"/></g>
<g><path style="opacity:0.873" fill="#ed3a5f" d="M 424.5,173.5 C 438.098,170.599 443.598,175.932 441,189.5C 440.215,191.286 439.049,192.786 437.5,194C 426.131,198.32 419.798,194.486 418.5,182.5C 419.286,178.567 421.286,175.567 424.5,173.5 Z M 429.5,177.5 C 427.86,180.149 426.193,182.816 424.5,185.5C 426.396,186.466 428.396,186.799 430.5,186.5C 430.5,187.5 430.5,188.5 430.5,189.5C 431.5,189.5 432.5,189.5 433.5,189.5C 434.005,185.6 434.005,181.6 433.5,177.5C 432.167,177.5 430.833,177.5 429.5,177.5 Z"/></g>
<g><path style="opacity:0.882" fill="#ed3a5f" d="M 289.5,174.5 C 302.512,172.178 307.679,177.512 305,190.5C 304.215,192.286 303.049,193.786 301.5,195C 288.074,199.238 282.241,194.404 284,180.5C 285.36,177.977 287.193,175.977 289.5,174.5 Z M 292.5,187.5 C 291.5,187.5 290.5,187.5 289.5,187.5C 289.297,189.39 289.963,190.89 291.5,192C 294.025,192.896 296.192,192.396 298,190.5C 297.544,187.447 297.378,184.447 297.5,181.5C 295.167,180.167 292.833,180.167 290.5,181.5C 289.128,183.62 289.795,184.62 292.5,184.5C 292.5,185.5 292.5,186.5 292.5,187.5 Z"/></g>
<g><path style="opacity:0.89" fill="#ed3a5f" d="M 202.5,175.5 C 214.99,173.823 220.157,179.156 218,191.5C 217.215,193.286 216.049,194.786 214.5,196C 201.074,200.238 195.241,195.404 197,181.5C 198.36,178.977 200.193,176.977 202.5,175.5 Z M 204.5,180.5 C 203.962,182.117 203.629,183.784 203.5,185.5C 205.39,185.703 206.89,185.037 208,183.5C 207.628,185.92 206.295,187.92 204,189.5C 203.517,190.448 203.351,191.448 203.5,192.5C 206.5,192.5 209.5,192.5 212.5,192.5C 212.5,191.5 212.5,190.5 212.5,189.5C 211.448,189.649 210.448,189.483 209.5,189C 213.767,183.046 212.1,180.213 204.5,180.5 Z"/></g>
<g><path style="opacity:1" fill="#ed3a5f" d="M 292.5,187.5 C 294.028,187.517 294.528,188.184 294,189.5C 293.283,188.956 292.783,188.289 292.5,187.5 Z"/></g>
<g><path style="opacity:0.769" fill="#ed3a5f" d="M 119.5,189.5 C 124.914,188.565 126.914,190.565 125.5,195.5C 119.129,197.796 117.129,195.796 119.5,189.5 Z"/></g>
<g><path style="opacity:0.726" fill="#ed3a5f" d="M 133.5,189.5 C 138.672,188.565 140.839,190.565 140,195.5C 137.952,197.787 135.785,197.954 133.5,196C 132.232,193.837 132.232,191.67 133.5,189.5 Z"/></g>
<g><path style="opacity:0.737" fill="#ed3a5f" d="M 106.5,191.5 C 112.488,191.664 113.821,194.164 110.5,199C 104.403,199.147 103.07,196.647 106.5,191.5 Z"/></g>
<g><path style="opacity:0.74" fill="#ed3a5f" d="M 147.5,192.5 C 153.729,192.027 155.395,194.36 152.5,199.5C 146.805,200.446 145.138,198.112 147.5,192.5 Z"/></g>
<g><path style="opacity:0.713" fill="#ed3a5f" d="M 93.5,197.5 C 99.3133,197.062 100.98,199.562 98.5,205C 92.2058,205.578 90.5391,203.078 93.5,197.5 Z"/></g>
<g><path style="opacity:0.726" fill="#ed3a5f" d="M 160.5,198.5 C 166.704,198.314 168.037,200.814 164.5,206C 158.392,206.078 157.059,203.578 160.5,198.5 Z"/></g>
<g><path style="opacity:0.834" fill="#ed3a5f" d="M 290.5,201.5 C 296.317,201.03 297.984,203.196 295.5,208C 289.741,209.139 288.074,206.972 290.5,201.5 Z"/></g>
<g><path style="opacity:0.852" fill="#ed3a5f" d="M 203.5,202.5 C 209.158,201.679 210.825,203.846 208.5,209C 202.741,210.139 201.074,207.972 203.5,202.5 Z"/></g>
<g><path style="opacity:0.899" fill="#ed3a5f" d="M 174.5,226.5 C 174.5,225.833 174.167,225.5 173.5,225.5C 173.5,224.833 173.167,224.5 172.5,224.5C 172.5,223.833 172.167,223.5 171.5,223.5C 168.196,208.636 173.863,203.136 188.5,207C 192.776,211.892 193.61,217.392 191,223.5C 189.786,225.049 188.286,226.215 186.5,227C 182.446,227.694 178.446,227.527 174.5,226.5 Z M 178.5,211.5 C 177.105,212.648 177.272,213.648 179,214.5C 179.498,217.482 179.665,220.482 179.5,223.5C 180.833,223.5 182.167,223.5 183.5,223.5C 183.5,219.5 183.5,215.5 183.5,211.5C 181.833,211.5 180.167,211.5 178.5,211.5 Z"/></g>
<g><path style="opacity:0.713" fill="#ed3a5f" d="M 83.5,206.5 C 88.7641,206.417 90.4307,208.75 88.5,213.5C 81.3692,215.27 79.7025,212.936 83.5,206.5 Z"/></g>
<g><path style="opacity:0.853" fill="#ed3a5f" d="M 426.5,206.5 C 432.158,205.679 433.825,207.846 431.5,213C 425.741,214.139 424.074,211.972 426.5,206.5 Z"/></g>
<g><path style="opacity:0.886" fill="#a5a6a5" d="M 171.5,223.5 C 172.167,223.5 172.5,223.833 172.5,224.5C 173.167,224.5 173.5,224.833 173.5,225.5C 174.167,225.5 174.5,225.833 174.5,226.5C 184.588,243.708 187.088,262.041 182,281.5C 175.979,301.188 162.813,312.688 142.5,316C 121.849,318.901 105.349,312.068 93,295.5C 84.211,276.266 83.211,256.6 90,236.5C 101.463,214.518 119.63,205.351 144.5,209C 154.983,211.239 163.983,216.072 171.5,223.5 Z"/></g>
<g><path style="opacity:1" fill="#f7f8f7" d="M 126.5,209.5 C 158.83,207.671 177.663,222.671 183,254.5C 185.999,277.547 178.166,295.714 159.5,309C 140.011,318.656 121.344,317.322 103.5,305C 93.6351,296.437 88.1351,285.604 87,272.5C 84.435,254.76 88.435,238.76 99,224.5C 106.734,216.719 115.9,211.719 126.5,209.5 Z"/></g>
<g><path style="opacity:0.815" fill="#ed3a5f" d="M 290.5,215.5 C 293.864,214.789 296.197,215.956 297.5,219C 295.74,222.994 293.24,223.827 290,221.5C 289.322,219.402 289.489,217.402 290.5,215.5 Z"/></g>
<g><path style="opacity:0.832" fill="#ed3a5f" d="M 203.5,216.5 C 208.675,215.507 210.509,217.507 209,222.5C 207,225.167 205,225.167 203,222.5C 202.322,220.402 202.489,218.402 203.5,216.5 Z"/></g>
<g><path style="opacity:0.74" fill="#ed3a5f" d="M 74.5,217.5 C 80.4877,217.664 81.821,220.164 78.5,225C 72.4034,225.147 71.0701,222.647 74.5,217.5 Z"/></g>
<g><path style="opacity:0.835" fill="#ed3a5f" d="M 426.5,220.5 C 431.675,219.507 433.509,221.507 432,226.5C 430,229.167 428,229.167 426,226.5C 425.322,224.402 425.489,222.402 426.5,220.5 Z"/></g>
<g><path style="opacity:0.7" fill="#ed3a5f" d="M 67.5,229.5 C 72.7083,229.369 74.3749,231.702 72.5,236.5C 65.3692,238.27 63.7025,235.936 67.5,229.5 Z"/></g>
<g><path style="opacity:0.799" fill="#ed3a5f" d="M 290.5,229.5 C 296.068,229.015 298.068,231.348 296.5,236.5C 290.323,237.984 288.323,235.65 290.5,229.5 Z"/></g>
<g><path style="opacity:0.834" fill="#ed3a5f" d="M 203.5,230.5 C 208.675,229.507 210.509,231.507 209,236.5C 207,239.167 205,239.167 203,236.5C 202.322,234.402 202.489,232.402 203.5,230.5 Z"/></g>
<g><path style="opacity:0.768" fill="#ed3a5f" d="M 426.5,234.5 C 432.235,233.821 433.902,236.155 431.5,241.5C 429.833,242.833 428.167,242.833 426.5,241.5C 425.286,239.141 425.286,236.808 426.5,234.5 Z"/></g>
<g><path style="opacity:0.712" fill="#ed3a5f" d="M 63.5,242.5 C 68.2664,243.158 69.5997,245.658 67.5,250C 61.9057,251.913 59.739,250.08 61,244.5C 61.9947,243.934 62.828,243.267 63.5,242.5 Z"/></g>
<g><path style="opacity:0.766" fill="#ed3a5f" d="M 290.5,243.5 C 296.476,243.157 298.142,245.49 295.5,250.5C 289.805,251.446 288.138,249.112 290.5,243.5 Z"/></g>
<g><path style="opacity:0.797" fill="#ed3a5f" d="M 203.5,244.5 C 209.704,244.314 211.037,246.814 207.5,252C 202.632,251.711 201.299,249.211 203.5,244.5 Z"/></g>
<g><path style="opacity:0.767" fill="#ed3a5f" d="M 426.5,248.5 C 432.235,247.821 433.902,250.155 431.5,255.5C 429.833,256.833 428.167,256.833 426.5,255.5C 425.286,253.141 425.286,250.808 426.5,248.5 Z"/></g>
<g><path style="opacity:0.712" fill="#ed3a5f" d="M 59.5,256.5 C 64.9836,256.481 66.6503,258.981 64.5,264C 57.745,264.756 56.0783,262.256 59.5,256.5 Z"/></g>
<g><path style="opacity:0.767" fill="#ed3a5f" d="M 290.5,257.5 C 296.476,257.157 298.142,259.49 295.5,264.5C 289.805,265.446 288.138,263.112 290.5,257.5 Z"/></g>
<g><path style="opacity:0.767" fill="#ed3a5f" d="M 203.5,258.5 C 209.235,257.821 210.902,260.155 208.5,265.5C 206.833,266.833 205.167,266.833 203.5,265.5C 202.286,263.141 202.286,260.808 203.5,258.5 Z"/></g>
<g><path style="opacity:0.766" fill="#ed3a5f" d="M 426.5,262.5 C 432.235,261.821 433.902,264.155 431.5,269.5C 429.833,270.833 428.167,270.833 426.5,269.5C 425.286,267.141 425.286,264.808 426.5,262.5 Z"/></g>
<g><path style="opacity:0.769" fill="#ed3a5f" d="M 59.5,270.5 C 60.9305,270.421 62.2638,270.754 63.5,271.5C 65.8896,277.608 64.0563,279.608 58,277.5C 57.185,274.802 57.685,272.468 59.5,270.5 Z"/></g>
<g><path style="opacity:0.765" fill="#ed3a5f" d="M 290.5,271.5 C 296.235,270.821 297.902,273.155 295.5,278.5C 293.833,279.833 292.167,279.833 290.5,278.5C 289.286,276.141 289.286,273.808 290.5,271.5 Z"/></g>
<g><path style="opacity:0.763" fill="#ed3a5f" d="M 203.5,272.5 C 209.235,271.821 210.902,274.155 208.5,279.5C 206.833,280.833 205.167,280.833 203.5,279.5C 202.286,277.141 202.286,274.808 203.5,272.5 Z"/></g>
<g><path style="opacity:0.768" fill="#ed3a5f" d="M 426.5,276.5 C 432.235,275.821 433.902,278.155 431.5,283.5C 429.833,284.833 428.167,284.833 426.5,283.5C 425.286,281.141 425.286,278.808 426.5,276.5 Z"/></g>
<g><path style="opacity:0.725" fill="#ed3a5f" d="M 60.5,284.5 C 65.9421,284.886 67.2755,287.386 64.5,292C 60.7983,293.393 58.7983,292.226 58.5,288.5C 58.8029,286.886 59.4695,285.552 60.5,284.5 Z"/></g>
<g><path style="opacity:0.737" fill="#ed3a5f" d="M 291.5,285.5 C 297.729,285.027 299.395,287.36 296.5,292.5C 290.805,293.446 289.138,291.112 291.5,285.5 Z"/></g>
<g><path style="opacity:0.767" fill="#ed3a5f" d="M 203.5,286.5 C 209.235,285.821 210.902,288.155 208.5,293.5C 206.833,294.833 205.167,294.833 203.5,293.5C 202.286,291.141 202.286,288.808 203.5,286.5 Z"/></g>
<g><path style="opacity:0.768" fill="#ed3a5f" d="M 426.5,290.5 C 432.235,289.821 433.902,292.155 431.5,297.5C 429.833,298.833 428.167,298.833 426.5,297.5C 425.286,295.141 425.286,292.808 426.5,290.5 Z"/></g>
<g><path style="opacity:0.77" fill="#ed3a5f" d="M 65.5,297.5 C 66.9305,297.421 68.2638,297.754 69.5,298.5C 71.8896,304.608 70.0563,306.608 64,304.5C 63.185,301.802 63.685,299.468 65.5,297.5 Z"/></g>
<g><path style="opacity:0.737" fill="#ed3a5f" d="M 296.5,298.5 C 301.262,299.092 302.596,301.592 300.5,306C 293.17,306.486 291.837,303.986 296.5,298.5 Z"/></g>
<g><path style="opacity:0.75" fill="#ed3a5f" d="M 407.5,298.5 C 412.881,298.452 414.547,300.952 412.5,306C 406.593,306.746 404.927,304.246 407.5,298.5 Z"/></g>
<g><path style="opacity:0.765" fill="#ed3a5f" d="M 203.5,300.5 C 209.235,299.821 210.902,302.155 208.5,307.5C 206.833,308.833 205.167,308.833 203.5,307.5C 202.286,305.141 202.286,302.808 203.5,300.5 Z"/></g>
<g><path style="opacity:0.837" fill="#ed3a5f" d="M 180.5,302.5 C 185.675,301.507 187.509,303.507 186,308.5C 184,311.167 182,311.167 180,308.5C 179.322,306.402 179.489,304.402 180.5,302.5 Z"/></g>
<g><path style="opacity:0.739" fill="#ed3a5f" d="M 426.5,304.5 C 432.313,304.062 433.98,306.562 431.5,312C 425.593,312.746 423.927,310.246 426.5,304.5 Z"/></g>
<g><path style="opacity:0.74" fill="#ed3a5f" d="M 72.5,309.5 C 78.4877,309.664 79.821,312.164 76.5,317C 70.4034,317.147 69.0701,314.647 72.5,309.5 Z"/></g>
<g><path style="opacity:0.737" fill="#ed3a5f" d="M 398.5,309.5 C 402.145,308.68 404.478,310.013 405.5,313.5C 404.165,317.004 401.832,318.004 398.5,316.5C 397.286,314.141 397.286,311.808 398.5,309.5 Z"/></g>
<g><path style="opacity:0.723" fill="#ed3a5f" d="M 301.5,311.5 C 307.235,310.821 308.902,313.155 306.5,318.5C 302.934,320.359 300.6,319.359 299.5,315.5C 300.18,314.14 300.847,312.807 301.5,311.5 Z"/></g>
<g><path style="opacity:0.74" fill="#ed3a5f" d="M 171.5,312.5 C 177.488,312.664 178.821,315.164 175.5,320C 169.403,320.147 168.07,317.647 171.5,312.5 Z"/></g>
<g><path style="opacity:0.767" fill="#ed3a5f" d="M 203.5,314.5 C 209.235,313.821 210.902,316.155 208.5,321.5C 206.833,322.833 205.167,322.833 203.5,321.5C 202.286,319.141 202.286,316.808 203.5,314.5 Z"/></g>
<g><path style="opacity:0.738" fill="#ed3a5f" d="M 387.5,318.5 C 393.729,318.027 395.395,320.36 392.5,325.5C 386.805,326.446 385.138,324.112 387.5,318.5 Z"/></g>
<g><path style="opacity:0.737" fill="#ed3a5f" d="M 426.5,318.5 C 432.313,318.062 433.98,320.562 431.5,326C 425.593,326.746 423.927,324.246 426.5,318.5 Z"/></g>
<g><path style="opacity:0.713" fill="#ed3a5f" d="M 82.5,319.5 C 88.4877,319.664 89.821,322.164 86.5,327C 80.2016,327.495 78.8682,324.995 82.5,319.5 Z"/></g>
<g><path style="opacity:0.712" fill="#ed3a5f" d="M 160.5,322.5 C 165.672,321.565 167.839,323.565 167,328.5C 160.684,331.356 158.518,329.356 160.5,322.5 Z"/></g>
<g><path style="opacity:0.85" fill="#ed3a5f" d="M 310.5,322.5 C 316.158,321.679 317.825,323.846 315.5,329C 309.741,330.139 308.074,327.972 310.5,322.5 Z"/></g>
<g><path style="opacity:0.722" fill="#ed3a5f" d="M 377.5,325.5 C 382.19,325.94 383.524,328.274 381.5,332.5C 375.976,334.914 373.809,333.248 375,327.5C 375.995,326.934 376.828,326.267 377.5,325.5 Z"/></g>
<g><path style="opacity:0.739" fill="#ed3a5f" d="M 93.5,327.5 C 99.7286,327.027 101.395,329.36 98.5,334.5C 92.8045,335.446 91.1378,333.112 93.5,327.5 Z"/></g>
<g><path style="opacity:0.74" fill="#ed3a5f" d="M 148.5,328.5 C 154.235,327.821 155.902,330.155 153.5,335.5C 147.172,336.505 145.506,334.172 148.5,328.5 Z"/></g>
<g><path style="opacity:0.765" fill="#ed3a5f" d="M 203.5,328.5 C 209.235,327.821 210.902,330.155 208.5,335.5C 206.833,336.833 205.167,336.833 203.5,335.5C 202.286,333.141 202.286,330.808 203.5,328.5 Z"/></g>
<g><path style="opacity:0.71" fill="#ed3a5f" d="M 322.5,329.5 C 328.235,328.821 329.902,331.155 327.5,336.5C 323.624,338.446 321.291,337.28 320.5,333C 320.978,331.697 321.645,330.531 322.5,329.5 Z"/></g>
<g><path style="opacity:0.713" fill="#ed3a5f" d="M 107.5,331.5 C 113.488,331.664 114.821,334.164 111.5,339C 105.202,339.495 103.868,336.995 107.5,331.5 Z"/></g>
<g><path style="opacity:0.713" fill="#ed3a5f" d="M 135.5,331.5 C 141.488,331.664 142.821,334.164 139.5,339C 133.202,339.495 131.868,336.995 135.5,331.5 Z"/></g>
<g><path style="opacity:0.709" fill="#ed3a5f" d="M 363.5,332.5 C 369.62,332.259 371.287,334.759 368.5,340C 362.593,340.746 360.927,338.246 363.5,332.5 Z"/></g>
<g><path style="opacity:0.737" fill="#ed3a5f" d="M 426.5,332.5 C 432.313,332.062 433.98,334.562 431.5,340C 425.593,340.746 423.927,338.246 426.5,332.5 Z"/></g>
<g><path style="opacity:0.77" fill="#ed3a5f" d="M 120.5,333.5 C 125.914,332.565 127.914,334.565 126.5,339.5C 120.129,341.796 118.129,339.796 120.5,333.5 Z"/></g>
<g><path style="opacity:0.736" fill="#ed3a5f" d="M 335.5,333.5 C 341.729,333.027 343.395,335.36 340.5,340.5C 334.805,341.446 333.138,339.112 335.5,333.5 Z"/></g>
<g><path style="opacity:0.765" fill="#ed3a5f" d="M 349.5,334.5 C 354.914,333.565 356.914,335.565 355.5,340.5C 349.129,342.796 347.129,340.796 349.5,334.5 Z"/></g>
<g><path style="opacity:0.767" fill="#ed3a5f" d="M 203.5,342.5 C 209.235,341.821 210.902,344.155 208.5,349.5C 206.833,350.833 205.167,350.833 203.5,349.5C 202.286,347.141 202.286,344.808 203.5,342.5 Z"/></g>
<g><path style="opacity:0.765" fill="#ed3a5f" d="M 203.5,356.5 C 209.235,355.821 210.902,358.155 208.5,363.5C 206.833,364.833 205.167,364.833 203.5,363.5C 202.286,361.141 202.286,358.808 203.5,356.5 Z"/></g>
<g><path style="opacity:0.767" fill="#ed3a5f" d="M 203.5,370.5 C 209.235,369.821 210.902,372.155 208.5,377.5C 206.833,378.833 205.167,378.833 203.5,377.5C 202.286,375.141 202.286,372.808 203.5,370.5 Z"/></g>
<g><path style="opacity:0.737" fill="#ed3a5f" d="M 203.5,384.5 C 209.313,384.062 210.98,386.562 208.5,392C 202.593,392.746 200.927,390.246 203.5,384.5 Z"/></g>
<g><path style="opacity:0.736" fill="#ed3a5f" d="M 203.5,398.5 C 209.313,398.062 210.98,400.562 208.5,406C 202.593,406.746 200.927,404.246 203.5,398.5 Z"/></g>
<g><path style="opacity:0.737" fill="#ed3a5f" d="M 203.5,412.5 C 209.313,412.062 210.98,414.562 208.5,420C 202.593,420.746 200.927,418.246 203.5,412.5 Z"/></g>
<g><path style="opacity:0.736" fill="#ed3a5f" d="M 203.5,426.5 C 209.313,426.062 210.98,428.562 208.5,434C 202.593,434.746 200.927,432.246 203.5,426.5 Z"/></g>
</svg>
