<?xml version="1.0" encoding="UTF-8"?>
<!DOCTYPE svg PUBLIC "-//W3C//DTD SVG 1.1//EN" "http://www.w3.org/Graphics/SVG/1.1/DTD/svg11.dtd">
<svg xmlns="http://www.w3.org/2000/svg" version="1.1" width="500px" height="500px" style="shape-rendering:geometricPrecision; text-rendering:geometricPrecision; image-rendering:optimizeQuality; fill-rule:evenodd; clip-rule:evenodd" xmlns:xlink="http://www.w3.org/1999/xlink">
<g><path style="opacity:1" fill="#f7f7f7" d="M -0.5,-0.5 C 166.167,-0.5 332.833,-0.5 499.5,-0.5C 499.5,166.167 499.5,332.833 499.5,499.5C 332.833,499.5 166.167,499.5 -0.5,499.5C -0.5,332.833 -0.5,166.167 -0.5,-0.5 Z M 311.5,164.5 C 313.144,164.286 314.644,164.62 316,165.5C 316.667,181.833 316.667,198.167 316,214.5C 306.911,215.319 297.744,215.819 288.5,216C 269.641,218.194 257.475,228.361 252,246.5C 250.533,282.126 250.033,317.793 250.5,353.5C 234.833,353.5 219.167,353.5 203.5,353.5C 203.5,291.5 203.5,229.5 203.5,167.5C 219.167,167.5 234.833,167.5 250.5,167.5C 250.5,178.167 250.5,188.833 250.5,199.5C 251.552,199.649 252.552,199.483 253.5,199C 267.515,178.495 286.848,166.995 311.5,164.5 Z M 223.5,182.5 C 225.167,182.5 226.833,182.5 228.5,182.5C 228.5,186.5 228.5,190.5 228.5,194.5C 227.167,194.5 225.833,194.5 224.5,194.5C 224.665,191.482 224.498,188.482 224,185.5C 222.272,184.648 222.105,183.648 223.5,182.5 Z M 247.5,210.5 C 255.1,210.213 256.767,213.046 252.5,219C 253.448,219.483 254.448,219.649 255.5,219.5C 255.5,220.5 255.5,221.5 255.5,222.5C 252.5,222.5 249.5,222.5 246.5,222.5C 246.351,221.448 246.517,220.448 247,219.5C 249.295,217.92 250.628,215.92 251,213.5C 249.89,215.037 248.39,215.703 246.5,215.5C 246.629,213.784 246.962,212.117 247.5,210.5 Z"/></g>
<g><path style="opacity:0.963" fill="#a5a6a5" d="M 310.5,163.5 C 312.792,163.244 314.959,163.577 317,164.5C 317.667,181.5 317.667,198.5 317,215.5C 307.911,216.319 298.744,216.819 289.5,217C 270.641,219.194 258.475,229.361 253,247.5C 251.533,283.126 251.033,318.793 251.5,354.5C 235.167,354.5 218.833,354.5 202.5,354.5C 202.5,291.833 202.5,229.167 202.5,166.5C 218.833,166.5 235.167,166.5 251.5,166.5C 251.333,177.172 251.5,187.839 252,198.5C 266.163,177.823 285.663,166.156 310.5,163.5 Z M 311.5,164.5 C 286.848,166.995 267.515,178.495 253.5,199C 252.552,199.483 251.552,199.649 250.5,199.5C 250.5,188.833 250.5,178.167 250.5,167.5C 234.833,167.5 219.167,167.5 203.5,167.5C 203.5,229.5 203.5,291.5 203.5,353.5C 219.167,353.5 234.833,353.5 250.5,353.5C 250.033,317.793 250.533,282.126 252,246.5C 257.475,228.361 269.641,218.194 288.5,216C 297.744,215.819 306.911,215.319 316,214.5C 316.667,198.167 316.667,181.833 316,165.5C 314.644,164.62 313.144,164.286 311.5,164.5 Z M 223.5,182.5 C 222.105,183.648 222.272,184.648 224,185.5C 224.498,188.482 224.665,191.482 224.5,194.5C 225.833,194.5 227.167,194.5 228.5,194.5C 228.5,190.5 228.5,186.5 228.5,182.5C 226.833,182.5 225.167,182.5 223.5,182.5 Z M 247.5,210.5 C 246.962,212.117 246.629,213.784 246.5,215.5C 248.39,215.703 249.89,215.037 251,213.5C 250.628,215.92 249.295,217.92 247,219.5C 246.517,220.448 246.351,221.448 246.5,222.5C 249.5,222.5 252.5,222.5 255.5,222.5C 255.5,221.5 255.5,220.5 255.5,219.5C 254.448,219.649 253.448,219.483 252.5,219C 256.767,213.046 255.1,210.213 247.5,210.5 Z"/></g>
<g><path style="opacity:0.899" fill="#ed3a5f" d="M 221.5,176.5 C 233.99,174.823 239.157,180.156 237,192.5C 236.215,194.286 235.049,195.786 233.5,197C 220.074,201.238 214.241,196.404 216,182.5C 217.36,179.977 219.193,177.977 221.5,176.5 Z M 223.5,182.5 C 222.105,183.648 222.272,184.648 224,185.5C 224.498,188.482 224.665,191.482 224.5,194.5C 225.833,194.5 227.167,194.5 228.5,194.5C 228.5,190.5 228.5,186.5 228.5,182.5C 226.833,182.5 225.167,182.5 223.5,182.5 Z"/></g>
<g><path style="opacity:0.842" fill="#ed3a5f" d="M 297.5,185.5 C 303.158,184.679 304.825,186.846 302.5,192C 296.741,193.139 295.074,190.972 297.5,185.5 Z"/></g>
<g><path style="opacity:0.714" fill="#ed3a5f" d="M 285.5,188.5 C 290.266,189.158 291.6,191.658 289.5,196C 284.338,197.424 282.171,195.59 283,190.5C 283.995,189.934 284.828,189.267 285.5,188.5 Z"/></g>
<g><path style="opacity:0.715" fill="#ed3a5f" d="M 273.5,195.5 C 278.266,196.158 279.6,198.658 277.5,203C 272.338,204.424 270.171,202.59 271,197.5C 271.995,196.934 272.828,196.267 273.5,195.5 Z"/></g>
<g><path style="opacity:0.884" fill="#ed3a5f" d="M 245.5,205.5 C 248.85,205.335 252.183,205.502 255.5,206C 257.286,206.785 258.786,207.951 260,209.5C 260.69,205.81 262.857,204.643 266.5,206C 268.825,211.154 267.158,213.321 261.5,212.5C 262.677,224.489 257.344,229.322 245.5,227C 241.047,224.929 239.047,221.429 239.5,216.5C 239.175,211.478 241.175,207.812 245.5,205.5 Z M 247.5,210.5 C 246.962,212.117 246.629,213.784 246.5,215.5C 248.39,215.703 249.89,215.037 251,213.5C 250.628,215.92 249.295,217.92 247,219.5C 246.517,220.448 246.351,221.448 246.5,222.5C 249.5,222.5 252.5,222.5 255.5,222.5C 255.5,221.5 255.5,220.5 255.5,219.5C 254.448,219.649 253.448,219.483 252.5,219C 256.767,213.046 255.1,210.213 247.5,210.5 Z"/></g>
<g><path style="opacity:0.853" fill="#ed3a5f" d="M 223.5,211.5 C 229.158,210.679 230.825,212.846 228.5,218C 222.741,219.139 221.074,216.972 223.5,211.5 Z"/></g>
<g><path style="opacity:0.835" fill="#ed3a5f" d="M 223.5,225.5 C 228.675,224.507 230.509,226.507 229,231.5C 227,234.167 225,234.167 223,231.5C 222.322,229.402 222.489,227.402 223.5,225.5 Z"/></g>
<g><path style="opacity:0.768" fill="#ed3a5f" d="M 223.5,239.5 C 229.235,238.821 230.902,241.155 228.5,246.5C 226.833,247.833 225.167,247.833 223.5,246.5C 222.286,244.141 222.286,241.808 223.5,239.5 Z"/></g>
<g><path style="opacity:0.767" fill="#ed3a5f" d="M 223.5,253.5 C 229.235,252.821 230.902,255.155 228.5,260.5C 226.833,261.833 225.167,261.833 223.5,260.5C 222.286,258.141 222.286,255.808 223.5,253.5 Z"/></g>
<g><path style="opacity:0.766" fill="#ed3a5f" d="M 223.5,267.5 C 229.235,266.821 230.902,269.155 228.5,274.5C 226.833,275.833 225.167,275.833 223.5,274.5C 222.286,272.141 222.286,269.808 223.5,267.5 Z"/></g>
<g><path style="opacity:0.768" fill="#ed3a5f" d="M 223.5,281.5 C 229.235,280.821 230.902,283.155 228.5,288.5C 226.833,289.833 225.167,289.833 223.5,288.5C 222.286,286.141 222.286,283.808 223.5,281.5 Z"/></g>
<g><path style="opacity:0.768" fill="#ed3a5f" d="M 223.5,295.5 C 229.235,294.821 230.902,297.155 228.5,302.5C 226.833,303.833 225.167,303.833 223.5,302.5C 222.286,300.141 222.286,297.808 223.5,295.5 Z"/></g>
<g><path style="opacity:0.739" fill="#ed3a5f" d="M 223.5,309.5 C 229.313,309.062 230.98,311.562 228.5,317C 222.593,317.746 220.927,315.246 223.5,309.5 Z"/></g>
<g><path style="opacity:0.737" fill="#ed3a5f" d="M 223.5,323.5 C 229.313,323.062 230.98,325.562 228.5,331C 222.593,331.746 220.927,329.246 223.5,323.5 Z"/></g>
<g><path style="opacity:0.737" fill="#ed3a5f" d="M 223.5,337.5 C 229.313,337.062 230.98,339.562 228.5,345C 222.593,345.746 220.927,343.246 223.5,337.5 Z"/></g>
</svg>
