<?xml version="1.0" encoding="UTF-8"?>
<!DOCTYPE svg PUBLIC "-//W3C//DTD SVG 1.1//EN" "http://www.w3.org/Graphics/SVG/1.1/DTD/svg11.dtd">
<svg xmlns="http://www.w3.org/2000/svg" version="1.1" width="500px" height="500px" style="shape-rendering:geometricPrecision; text-rendering:geometricPrecision; image-rendering:optimizeQuality; fill-rule:evenodd; clip-rule:evenodd" xmlns:xlink="http://www.w3.org/1999/xlink">
<g><path style="opacity:1" fill="#f7f7f7" d="M -0.5,-0.5 C 166.167,-0.5 332.833,-0.5 499.5,-0.5C 499.5,166.167 499.5,332.833 499.5,499.5C 332.833,499.5 166.167,499.5 -0.5,499.5C -0.5,332.833 -0.5,166.167 -0.5,-0.5 Z M 301.5,195.5 C 296.744,199.613 295.577,204.613 298,210.5C 300.629,215.564 304.796,217.564 310.5,216.5C 306.205,223.209 303.372,230.542 302,238.5C 301.5,275.832 301.333,313.165 301.5,350.5C 285.833,350.5 270.167,350.5 254.5,350.5C 254.5,267.833 254.5,185.167 254.5,102.5C 270.167,102.5 285.833,102.5 301.5,102.5C 301.5,133.5 301.5,164.5 301.5,195.5 Z M 275.5,124.5 C 275.5,123.5 275.5,122.5 275.5,121.5C 272.795,121.62 272.128,120.62 273.5,118.5C 275.833,117.167 278.167,117.167 280.5,118.5C 280.378,121.447 280.544,124.447 281,127.5C 279.192,129.396 277.025,129.896 274.5,129C 272.963,127.89 272.297,126.39 272.5,124.5C 273.5,124.5 274.5,124.5 275.5,124.5 Z M 319.5,207.5 C 319.632,204.43 319.299,201.43 318.5,198.5C 317.684,196.856 316.35,195.69 314.5,195C 311.518,194.502 308.518,194.335 305.5,194.5C 315.78,176.843 331.113,166.343 351.5,163C 398.018,158.161 425.518,178.661 434,224.5C 435.442,266.477 435.942,308.477 435.5,350.5C 419.833,350.5 404.167,350.5 388.5,350.5C 388.667,312.499 388.5,274.499 388,236.5C 384.944,216.444 373.444,204.61 353.5,201C 341.398,199.521 330.065,201.688 319.5,207.5 Z M 123.5,162.5 C 148.909,159.435 171.909,165.268 192.5,180C 205.603,192.038 213.603,206.871 216.5,224.5C 202.163,224.667 187.829,224.5 173.5,224C 167.735,203.276 154.068,193.609 132.5,195C 114.415,197.002 107.581,206.836 112,224.5C 117.557,231.373 124.724,235.873 133.5,238C 151.748,242.116 169.748,247.116 187.5,253C 215.37,266.251 224.87,287.751 216,317.5C 206.342,336.596 190.842,347.762 169.5,351C 143.76,355.243 119.427,351.243 96.5,339C 79.5395,327.266 69.5395,311.099 66.5,290.5C 81.5,290.5 96.5,290.5 111.5,290.5C 113.88,306.714 123.213,316.214 139.5,319C 148.342,320.126 157.008,319.459 165.5,317C 175.407,310.149 178.241,300.983 174,289.5C 171.833,286 169,283.167 165.5,281C 160.322,278.607 154.988,276.607 149.5,275C 132.28,271.112 115.28,266.445 98.5,261C 72.5419,249.153 63.0419,229.32 70,201.5C 75.7429,185.423 86.5763,174.257 102.5,168C 109.509,165.666 116.509,163.833 123.5,162.5 Z M 307.5,198.5 C 308.833,198.5 310.167,198.5 311.5,198.5C 312.005,202.6 312.005,206.6 311.5,210.5C 310.5,210.5 309.5,210.5 308.5,210.5C 308.5,209.5 308.5,208.5 308.5,207.5C 306.396,207.799 304.396,207.466 302.5,206.5C 304.193,203.816 305.86,201.149 307.5,198.5 Z M 185.5,200.5 C 187.167,200.5 188.833,200.5 190.5,200.5C 190.5,204.5 190.5,208.5 190.5,212.5C 189.167,212.5 187.833,212.5 186.5,212.5C 186.665,209.482 186.498,206.482 186,203.5C 184.272,202.648 184.105,201.648 185.5,200.5 Z M 140.5,250.5 C 148.1,250.213 149.767,253.046 145.5,259C 146.448,259.483 147.448,259.649 148.5,259.5C 148.5,260.5 148.5,261.5 148.5,262.5C 145.5,262.5 142.5,262.5 139.5,262.5C 139.351,261.448 139.517,260.448 140,259.5C 142.295,257.92 143.628,255.92 144,253.5C 142.89,255.037 141.39,255.703 139.5,255.5C 139.629,253.784 139.962,252.117 140.5,250.5 Z"/></g>
<g><path style="opacity:0.993" fill="#a6a5a5" d="M 302.5,195.5 C 302.167,196.833 301.833,196.833 301.5,195.5C 301.5,164.5 301.5,133.5 301.5,102.5C 285.833,102.5 270.167,102.5 254.5,102.5C 254.5,185.167 254.5,267.833 254.5,350.5C 270.167,350.5 285.833,350.5 301.5,350.5C 301.333,313.165 301.5,275.832 302,238.5C 303.372,230.542 306.205,223.209 310.5,216.5C 311.167,216.167 311.833,215.833 312.5,215.5C 307.686,222.761 304.52,230.761 303,239.5C 302.5,276.832 302.333,314.165 302.5,351.5C 286.167,351.5 269.833,351.5 253.5,351.5C 253.5,268.167 253.5,184.833 253.5,101.5C 269.833,101.5 286.167,101.5 302.5,101.5C 302.5,132.833 302.5,164.167 302.5,195.5 Z M 275.5,124.5 C 274.5,124.5 273.5,124.5 272.5,124.5C 272.297,126.39 272.963,127.89 274.5,129C 277.025,129.896 279.192,129.396 281,127.5C 280.544,124.447 280.378,121.447 280.5,118.5C 278.167,117.167 275.833,117.167 273.5,118.5C 272.128,120.62 272.795,121.62 275.5,121.5C 275.5,122.5 275.5,123.5 275.5,124.5 Z"/></g>
<g><path style="opacity:0.882" fill="#ed3a5f" d="M 272.5,111.5 C 285.512,109.178 290.679,114.512 288,127.5C 287.215,129.286 286.049,130.786 284.5,132C 271.074,136.238 265.241,131.404 267,117.5C 268.36,114.977 270.193,112.977 272.5,111.5 Z M 275.5,124.5 C 274.5,124.5 273.5,124.5 272.5,124.5C 272.297,126.39 272.963,127.89 274.5,129C 277.025,129.896 279.192,129.396 281,127.5C 280.544,124.447 280.378,121.447 280.5,118.5C 278.167,117.167 275.833,117.167 273.5,118.5C 272.128,120.62 272.795,121.62 275.5,121.5C 275.5,122.5 275.5,123.5 275.5,124.5 Z"/></g>
<g><path style="opacity:1" fill="#ed3a5f" d="M 275.5,124.5 C 277.028,124.517 277.528,125.184 277,126.5C 276.283,125.956 275.783,125.289 275.5,124.5 Z"/></g>
<g><path style="opacity:0.852" fill="#ed3a5f" d="M 276.5,139.5 C 282.158,138.679 283.825,140.846 281.5,146C 275.741,147.139 274.074,144.972 276.5,139.5 Z"/></g>
<g><path style="opacity:0.832" fill="#ed3a5f" d="M 276.5,153.5 C 281.675,152.507 283.509,154.507 282,159.5C 280,162.167 278,162.167 276,159.5C 275.322,157.402 275.489,155.402 276.5,153.5 Z"/></g>
<g><path style="opacity:0.933" fill="#a6a5a5" d="M 319.5,209.5 C 319.5,208.833 319.5,208.167 319.5,207.5C 330.065,201.688 341.398,199.521 353.5,201C 373.444,204.61 384.944,216.444 388,236.5C 388.5,274.499 388.667,312.499 388.5,350.5C 404.167,350.5 419.833,350.5 435.5,350.5C 435.942,308.477 435.442,266.477 434,224.5C 425.518,178.661 398.018,158.161 351.5,163C 331.113,166.343 315.78,176.843 305.5,194.5C 304.833,194.833 304.167,195.167 303.5,195.5C 313.41,176.521 329.077,165.355 350.5,162C 385.177,156.095 411.011,168.261 428,198.5C 431.423,206.523 433.756,214.857 435,223.5C 436.443,266.144 436.943,308.811 436.5,351.5C 420.167,351.5 403.833,351.5 387.5,351.5C 387.667,313.499 387.5,275.499 387,237.5C 381.698,211.751 365.865,199.917 339.5,202C 332.15,202.837 325.483,205.337 319.5,209.5 Z"/></g>
<g><path style="opacity:0.893" fill="#a5a6a5" d="M 122.5,161.5 C 140.664,159.899 158.331,162.066 175.5,168C 199.864,179.548 213.864,198.715 217.5,225.5C 202.496,225.667 187.496,225.5 172.5,225C 164.159,199.662 147.159,190.995 121.5,199C 112.504,204.988 109.67,213.154 113,223.5C 118.557,230.373 125.724,234.873 134.5,237C 152.748,241.116 170.748,246.116 188.5,252C 216.811,265.895 226.311,288.062 217,318.5C 207.342,337.596 191.842,348.762 170.5,352C 144.092,356.409 119.092,352.409 95.5,340C 77.958,327.764 67.958,310.931 65.5,289.5C 81.1667,289.5 96.8333,289.5 112.5,289.5C 114.88,305.714 124.213,315.214 140.5,318C 148.679,319.102 156.679,318.435 164.5,316C 174.75,309.026 177.25,299.859 172,288.5C 165.548,281.856 157.715,277.689 148.5,276C 131.28,272.112 114.28,267.445 97.5,262C 71.1055,249.532 61.6055,229.032 69,200.5C 74.7429,184.423 85.5763,173.257 101.5,167C 108.509,164.666 115.509,162.833 122.5,161.5 Z M 123.5,162.5 C 116.509,163.833 109.509,165.666 102.5,168C 86.5763,174.257 75.7429,185.423 70,201.5C 63.0419,229.32 72.5419,249.153 98.5,261C 115.28,266.445 132.28,271.112 149.5,275C 154.988,276.607 160.322,278.607 165.5,281C 169,283.167 171.833,286 174,289.5C 178.241,300.983 175.407,310.149 165.5,317C 157.008,319.459 148.342,320.126 139.5,319C 123.213,316.214 113.88,306.714 111.5,290.5C 96.5,290.5 81.5,290.5 66.5,290.5C 69.5395,311.099 79.5395,327.266 96.5,339C 119.427,351.243 143.76,355.243 169.5,351C 190.842,347.762 206.342,336.596 216,317.5C 224.87,287.751 215.37,266.251 187.5,253C 169.748,247.116 151.748,242.116 133.5,238C 124.724,235.873 117.557,231.373 112,224.5C 107.581,206.836 114.415,197.002 132.5,195C 154.068,193.609 167.735,203.276 173.5,224C 187.829,224.5 202.163,224.667 216.5,224.5C 213.603,206.871 205.603,192.038 192.5,180C 171.909,165.268 148.909,159.435 123.5,162.5 Z M 185.5,200.5 C 184.105,201.648 184.272,202.648 186,203.5C 186.498,206.482 186.665,209.482 186.5,212.5C 187.833,212.5 189.167,212.5 190.5,212.5C 190.5,208.5 190.5,204.5 190.5,200.5C 188.833,200.5 187.167,200.5 185.5,200.5 Z M 140.5,250.5 C 139.962,252.117 139.629,253.784 139.5,255.5C 141.39,255.703 142.89,255.037 144,253.5C 143.628,255.92 142.295,257.92 140,259.5C 139.517,260.448 139.351,261.448 139.5,262.5C 142.5,262.5 145.5,262.5 148.5,262.5C 148.5,261.5 148.5,260.5 148.5,259.5C 147.448,259.649 146.448,259.483 145.5,259C 149.767,253.046 148.1,250.213 140.5,250.5 Z"/></g>
<g><path style="opacity:0.797" fill="#ed3a5f" d="M 276.5,167.5 C 282.704,167.314 284.037,169.814 280.5,175C 275.632,174.711 274.299,172.211 276.5,167.5 Z"/></g>
<g><path style="opacity:0.763" fill="#ed3a5f" d="M 120.5,175.5 C 125.914,174.565 127.914,176.565 126.5,181.5C 120.129,183.796 118.129,181.796 120.5,175.5 Z"/></g>
<g><path style="opacity:0.734" fill="#ed3a5f" d="M 134.5,175.5 C 140.966,174.799 142.633,177.132 139.5,182.5C 133.77,183.41 132.103,181.077 134.5,175.5 Z"/></g>
<g><path style="opacity:0.707" fill="#ed3a5f" d="M 148.5,177.5 C 154.62,177.259 156.287,179.759 153.5,185C 147.593,185.746 145.927,183.246 148.5,177.5 Z"/></g>
<g><path style="opacity:0.719" fill="#ed3a5f" d="M 107.5,178.5 C 112.881,178.452 114.547,180.952 112.5,186C 106.206,186.578 104.539,184.078 107.5,178.5 Z"/></g>
<g><path style="opacity:0.721" fill="#ed3a5f" d="M 162.5,181.5 C 168.468,181.605 169.802,184.105 166.5,189C 160.403,189.147 159.07,186.647 162.5,181.5 Z"/></g>
<g><path style="opacity:0.767" fill="#ed3a5f" d="M 276.5,181.5 C 282.235,180.821 283.902,183.155 281.5,188.5C 279.833,189.833 278.167,189.833 276.5,188.5C 275.286,186.141 275.286,183.808 276.5,181.5 Z"/></g>
<g><path style="opacity:0.763" fill="#ed3a5f" d="M 359.5,182.5 C 365.113,181.079 367.28,183.079 366,188.5C 359.854,190.636 357.687,188.636 359.5,182.5 Z"/></g>
<g><path style="opacity:0.719" fill="#ed3a5f" d="M 375.5,182.5 C 380.266,183.158 381.6,185.658 379.5,190C 374.338,191.424 372.171,189.59 373,184.5C 373.995,183.934 374.828,183.267 375.5,182.5 Z"/></g>
<g><path style="opacity:0.706" fill="#ed3a5f" d="M 346.5,183.5 C 351.984,183.481 353.65,185.981 351.5,191C 344.745,191.756 343.078,189.256 346.5,183.5 Z"/></g>
<g><path style="opacity:0.733" fill="#ed3a5f" d="M 175.5,186.5 C 181.488,186.664 182.821,189.164 179.5,194C 173.403,194.147 172.07,191.647 175.5,186.5 Z"/></g>
<g><path style="opacity:0.762" fill="#ed3a5f" d="M 389.5,186.5 C 393.396,187.78 394.396,190.28 392.5,194C 387.296,195.292 385.296,193.459 386.5,188.5C 387.602,187.824 388.602,187.158 389.5,186.5 Z"/></g>
<g><path style="opacity:0.734" fill="#ed3a5f" d="M 96.5,187.5 C 100.145,186.68 102.478,188.013 103.5,191.5C 102.165,195.004 99.8316,196.004 96.5,194.5C 95.2857,192.141 95.2857,189.808 96.5,187.5 Z"/></g>
<g><path style="opacity:0.778" fill="#ed3a5f" d="M 332.5,187.5 C 334.604,187.201 336.604,187.534 338.5,188.5C 339.704,193.459 337.704,195.292 332.5,194C 331.232,191.837 331.232,189.67 332.5,187.5 Z"/></g>
<g><path style="opacity:0.795" fill="#ed3a5f" d="M 318.5,198.5 C 317.527,193.994 319.194,191.828 323.5,192C 327.201,198.355 325.534,200.522 318.5,198.5 Z"/></g>
<g><path style="opacity:0.899" fill="#ed3a5f" d="M 183.5,194.5 C 195.99,192.823 201.157,198.156 199,210.5C 198.215,212.286 197.049,213.786 195.5,215C 182.074,219.238 176.241,214.404 178,200.5C 179.36,197.977 181.193,195.977 183.5,194.5 Z M 185.5,200.5 C 184.105,201.648 184.272,202.648 186,203.5C 186.498,206.482 186.665,209.482 186.5,212.5C 187.833,212.5 189.167,212.5 190.5,212.5C 190.5,208.5 190.5,204.5 190.5,200.5C 188.833,200.5 187.167,200.5 185.5,200.5 Z"/></g>
<g><path style="opacity:0.9" fill="#ed3a60" d="M 305.5,194.5 C 308.518,194.335 311.518,194.502 314.5,195C 316.35,195.69 317.684,196.856 318.5,198.5C 319.299,201.43 319.632,204.43 319.5,207.5C 319.5,208.167 319.5,208.833 319.5,209.5C 317.807,212.19 315.473,214.19 312.5,215.5C 311.833,215.833 311.167,216.167 310.5,216.5C 304.796,217.564 300.629,215.564 298,210.5C 295.577,204.613 296.744,199.613 301.5,195.5C 301.833,196.833 302.167,196.833 302.5,195.5C 302.833,195.5 303.167,195.5 303.5,195.5C 304.167,195.167 304.833,194.833 305.5,194.5 Z M 307.5,198.5 C 305.86,201.149 304.193,203.816 302.5,206.5C 304.396,207.466 306.396,207.799 308.5,207.5C 308.5,208.5 308.5,209.5 308.5,210.5C 309.5,210.5 310.5,210.5 311.5,210.5C 312.005,206.6 312.005,202.6 311.5,198.5C 310.167,198.5 308.833,198.5 307.5,198.5 Z"/></g>
<g><path style="opacity:0.719" fill="#ed3a5f" d="M 399.5,194.5 C 405.501,194.741 406.834,197.241 403.5,202C 397.202,202.495 395.868,199.995 399.5,194.5 Z"/></g>
<g><path style="opacity:0.765" fill="#ed3a5f" d="M 276.5,195.5 C 282.235,194.821 283.902,197.155 281.5,202.5C 279.833,203.833 278.167,203.833 276.5,202.5C 275.286,200.141 275.286,197.808 276.5,195.5 Z"/></g>
<g><path style="opacity:0.749" fill="#ed3a5f" d="M 92.5,199.5 C 97.3284,200.641 98.3284,203.141 95.5,207C 90.3333,208.5 88.5,206.667 90,201.5C 90.9947,200.934 91.828,200.267 92.5,199.5 Z"/></g>
<g><path style="opacity:0.747" fill="#ed3a5f" d="M 408.5,205.5 C 409.93,205.421 411.264,205.754 412.5,206.5C 414.914,212.024 413.248,214.191 407.5,213C 405.315,210.322 405.649,207.822 408.5,205.5 Z"/></g>
<g><path style="opacity:0.768" fill="#ed3a5f" d="M 276.5,209.5 C 282.235,208.821 283.902,211.155 281.5,216.5C 279.833,217.833 278.167,217.833 276.5,216.5C 275.286,214.141 275.286,211.808 276.5,209.5 Z"/></g>
<g><path style="opacity:0.758" fill="#ed3a5f" d="M 90.5,213.5 C 91.9305,213.421 93.2638,213.754 94.5,214.5C 96.8896,220.608 95.0563,222.608 89,220.5C 88.185,217.802 88.685,215.468 90.5,213.5 Z"/></g>
<g><path style="opacity:0.733" fill="#ed3a5f" d="M 413.5,218.5 C 419.488,218.664 420.821,221.164 417.5,226C 411.403,226.147 410.07,223.647 413.5,218.5 Z"/></g>
<g><path style="opacity:0.765" fill="#ed3a5f" d="M 276.5,223.5 C 282.235,222.821 283.902,225.155 281.5,230.5C 279.833,231.833 278.167,231.833 276.5,230.5C 275.286,228.141 275.286,225.808 276.5,223.5 Z"/></g>
<g><path style="opacity:0.735" fill="#ed3a5f" d="M 95.5,226.5 C 101.729,226.027 103.395,228.36 100.5,233.5C 94.8045,234.446 93.1378,232.112 95.5,226.5 Z"/></g>
<g><path style="opacity:0.763" fill="#ed3a5f" d="M 414.5,232.5 C 420.235,231.821 421.902,234.155 419.5,239.5C 417.833,240.833 416.167,240.833 414.5,239.5C 413.286,237.141 413.286,234.808 414.5,232.5 Z"/></g>
<g><path style="opacity:0.735" fill="#ed3a5f" d="M 105.5,236.5 C 111.704,236.314 113.037,238.814 109.5,244C 103.812,243.79 102.479,241.29 105.5,236.5 Z"/></g>
<g><path style="opacity:0.767" fill="#ed3a5f" d="M 276.5,237.5 C 282.235,236.821 283.902,239.155 281.5,244.5C 279.833,245.833 278.167,245.833 276.5,244.5C 275.286,242.141 275.286,239.808 276.5,237.5 Z"/></g>
<g><path style="opacity:0.72" fill="#ed3a5f" d="M 116.5,244.5 C 122.951,244.092 124.618,246.592 121.5,252C 115.785,252.401 114.119,249.901 116.5,244.5 Z"/></g>
<g><path style="opacity:0.89" fill="#ed3a5f" d="M 138.5,245.5 C 150.99,243.823 156.157,249.156 154,261.5C 153.215,263.286 152.049,264.786 150.5,266C 137.074,270.238 131.241,265.404 133,251.5C 134.36,248.977 136.193,246.977 138.5,245.5 Z M 140.5,250.5 C 139.962,252.117 139.629,253.784 139.5,255.5C 141.39,255.703 142.89,255.037 144,253.5C 143.628,255.92 142.295,257.92 140,259.5C 139.517,260.448 139.351,261.448 139.5,262.5C 142.5,262.5 145.5,262.5 148.5,262.5C 148.5,261.5 148.5,260.5 148.5,259.5C 147.448,259.649 146.448,259.483 145.5,259C 149.767,253.046 148.1,250.213 140.5,250.5 Z"/></g>
<g><path style="opacity:0.761" fill="#ed3a5f" d="M 414.5,246.5 C 420.235,245.821 421.902,248.155 419.5,253.5C 417.833,254.833 416.167,254.833 414.5,253.5C 413.286,251.141 413.286,248.808 414.5,246.5 Z"/></g>
<g><path style="opacity:0.765" fill="#ed3a5f" d="M 276.5,251.5 C 282.235,250.821 283.902,253.155 281.5,258.5C 279.833,259.833 278.167,259.833 276.5,258.5C 275.286,256.141 275.286,253.808 276.5,251.5 Z"/></g>
<g><path style="opacity:0.763" fill="#ed3a5f" d="M 414.5,260.5 C 420.235,259.821 421.902,262.155 419.5,267.5C 417.833,268.833 416.167,268.833 414.5,267.5C 413.286,265.141 413.286,262.808 414.5,260.5 Z"/></g>
<g><path style="opacity:0.734" fill="#ed3a5f" d="M 169.5,264.5 C 175.02,265.044 176.354,267.544 173.5,272C 167.202,272.495 165.868,269.995 169.5,264.5 Z"/></g>
<g><path style="opacity:0.767" fill="#ed3a5f" d="M 276.5,265.5 C 282.235,264.821 283.902,267.155 281.5,272.5C 279.833,273.833 278.167,273.833 276.5,272.5C 275.286,270.141 275.286,267.808 276.5,265.5 Z"/></g>
<g><path style="opacity:0.733" fill="#ed3a5f" d="M 180.5,272.5 C 184.145,271.68 186.478,273.013 187.5,276.5C 186.165,280.004 183.832,281.004 180.5,279.5C 179.286,277.141 179.286,274.808 180.5,272.5 Z"/></g>
<g><path style="opacity:0.761" fill="#ed3a5f" d="M 414.5,274.5 C 420.235,273.821 421.902,276.155 419.5,281.5C 417.833,282.833 416.167,282.833 414.5,281.5C 413.286,279.141 413.286,276.808 414.5,274.5 Z"/></g>
<g><path style="opacity:0.767" fill="#ed3a5f" d="M 276.5,279.5 C 282.235,278.821 283.902,281.155 281.5,286.5C 279.833,287.833 278.167,287.833 276.5,286.5C 275.286,284.141 275.286,281.808 276.5,279.5 Z"/></g>
<g><path style="opacity:0.733" fill="#ed3a5f" d="M 191.5,281.5 C 197.488,281.664 198.821,284.164 195.5,289C 189.403,289.147 188.07,286.647 191.5,281.5 Z"/></g>
<g><path style="opacity:0.795" fill="#ed3a5f" d="M 414.5,288.5 C 420.704,288.314 422.037,290.814 418.5,296C 413.632,295.711 412.299,293.211 414.5,288.5 Z"/></g>
<g><path style="opacity:0.721" fill="#ed3a5f" d="M 198.5,293.5 C 203.709,293.369 205.375,295.703 203.5,300.5C 196.789,301.788 195.122,299.454 198.5,293.5 Z"/></g>
<g><path style="opacity:0.736" fill="#ed3a5f" d="M 276.5,293.5 C 282.313,293.062 283.98,295.562 281.5,301C 275.593,301.746 273.927,299.246 276.5,293.5 Z"/></g>
<g><path style="opacity:0.733" fill="#ed3a5f" d="M 92.5,300.5 C 98.4877,300.664 99.821,303.164 96.5,308C 90.4034,308.147 89.0701,305.647 92.5,300.5 Z"/></g>
<g><path style="opacity:0.829" fill="#ed3a5f" d="M 414.5,302.5 C 419.675,301.507 421.509,303.507 420,308.5C 418,311.167 416,311.167 414,308.5C 413.322,306.402 413.489,304.402 414.5,302.5 Z"/></g>
<g><path style="opacity:0.849" fill="#ed3a5f" d="M 198.5,307.5 C 204.158,306.679 205.825,308.846 203.5,314C 197.741,315.139 196.074,312.972 198.5,307.5 Z"/></g>
<g><path style="opacity:0.738" fill="#ed3a5f" d="M 276.5,307.5 C 282.313,307.062 283.98,309.562 281.5,315C 275.593,315.746 273.927,313.246 276.5,307.5 Z"/></g>
<g><path style="opacity:0.707" fill="#ed3a5f" d="M 100.5,311.5 C 107.145,310.977 108.811,313.477 105.5,319C 99.7883,319.433 98.1216,316.933 100.5,311.5 Z"/></g>
<g><path style="opacity:0.846" fill="#ed3a5f" d="M 414.5,316.5 C 420.158,315.679 421.825,317.846 419.5,323C 413.741,324.139 412.074,321.972 414.5,316.5 Z"/></g>
<g><path style="opacity:0.733" fill="#ed3a5f" d="M 190.5,318.5 C 196.313,318.062 197.98,320.562 195.5,326C 189.593,326.746 187.927,324.246 190.5,318.5 Z"/></g>
<g><path style="opacity:0.765" fill="#ed3a5f" d="M 112.5,319.5 C 118.235,318.821 119.902,321.155 117.5,326.5C 115.833,327.833 114.167,327.833 112.5,326.5C 111.286,324.141 111.286,321.808 112.5,319.5 Z"/></g>
<g><path style="opacity:0.736" fill="#ed3a5f" d="M 276.5,321.5 C 282.313,321.062 283.98,323.562 281.5,329C 275.593,329.746 273.927,327.246 276.5,321.5 Z"/></g>
<g><path style="opacity:0.735" fill="#ed3a5f" d="M 125.5,325.5 C 131.488,325.664 132.821,328.164 129.5,333C 123.403,333.147 122.07,330.647 125.5,325.5 Z"/></g>
<g><path style="opacity:0.734" fill="#ed3a5f" d="M 179.5,326.5 C 185.488,326.664 186.821,329.164 183.5,334C 177.403,334.147 176.07,331.647 179.5,326.5 Z"/></g>
<g><path style="opacity:0.719" fill="#ed3a5f" d="M 138.5,330.5 C 143.708,330.369 145.375,332.702 143.5,337.5C 136.789,338.788 135.123,336.455 138.5,330.5 Z"/></g>
<g><path style="opacity:0.706" fill="#ed3a5f" d="M 166.5,330.5 C 172.488,330.664 173.821,333.164 170.5,338C 164.202,338.495 162.868,335.995 166.5,330.5 Z"/></g>
<g><path style="opacity:0.848" fill="#ed3a5f" d="M 414.5,330.5 C 420.158,329.679 421.825,331.846 419.5,337C 413.741,338.139 412.074,335.972 414.5,330.5 Z"/></g>
<g><path style="opacity:0.735" fill="#ed3a5f" d="M 151.5,332.5 C 157.113,331.079 159.28,333.079 158,338.5C 151.423,341.088 149.256,339.088 151.5,332.5 Z"/></g>
</svg>
