<?xml version="1.0" encoding="UTF-8"?>
<!DOCTYPE svg PUBLIC "-//W3C//DTD SVG 1.1//EN" "http://www.w3.org/Graphics/SVG/1.1/DTD/svg11.dtd">
<svg xmlns="http://www.w3.org/2000/svg" version="1.1" width="500px" height="500px" style="shape-rendering:geometricPrecision; text-rendering:geometricPrecision; image-rendering:optimizeQuality; fill-rule:evenodd; clip-rule:evenodd" xmlns:xlink="http://www.w3.org/1999/xlink">
<g><path style="opacity:1" fill="#f7f7f7" d="M -0.5,-0.5 C 166.167,-0.5 332.833,-0.5 499.5,-0.5C 499.5,166.167 499.5,332.833 499.5,499.5C 332.833,499.5 166.167,499.5 -0.5,499.5C -0.5,332.833 -0.5,166.167 -0.5,-0.5 Z M 226.5,121.5 C 242.167,121.5 257.833,121.5 273.5,121.5C 273.5,136.833 273.5,152.167 273.5,167.5C 287.167,167.5 300.833,167.5 314.5,167.5C 314.5,180.5 314.5,193.5 314.5,206.5C 300.833,206.5 287.167,206.5 273.5,206.5C 273.333,237.168 273.5,267.835 274,298.5C 275.094,305.862 279.261,310.362 286.5,312C 296.121,313.286 305.788,313.786 315.5,313.5C 315.5,326.833 315.5,340.167 315.5,353.5C 305.161,353.666 294.828,353.5 284.5,353C 250.331,351.828 231.165,334.328 227,300.5C 226.5,269.168 226.333,237.835 226.5,206.5C 217.833,206.5 209.167,206.5 200.5,206.5C 200.5,193.5 200.5,180.5 200.5,167.5C 209.167,167.5 217.833,167.5 226.5,167.5C 226.5,152.167 226.5,136.833 226.5,121.5 Z M 247.5,139.5 C 249.167,139.5 250.833,139.5 252.5,139.5C 252.5,143.5 252.5,147.5 252.5,151.5C 251.167,151.5 249.833,151.5 248.5,151.5C 248.665,148.482 248.498,145.482 248,142.5C 246.272,141.648 246.105,140.648 247.5,139.5 Z M 213.5,180.5 C 221.1,180.213 222.767,183.046 218.5,189C 219.448,189.483 220.448,189.649 221.5,189.5C 221.5,190.5 221.5,191.5 221.5,192.5C 218.5,192.5 215.5,192.5 212.5,192.5C 212.351,191.448 212.517,190.448 213,189.5C 215.295,187.92 216.628,185.92 217,183.5C 215.89,185.037 214.39,185.703 212.5,185.5C 212.629,183.784 212.962,182.117 213.5,180.5 Z"/></g>
<g><path style="opacity:0.975" fill="#a5a6a5" d="M 225.5,120.5 C 241.833,120.5 258.167,120.5 274.5,120.5C 274.5,135.833 274.5,151.167 274.5,166.5C 288.167,166.5 301.833,166.5 315.5,166.5C 315.5,180.167 315.5,193.833 315.5,207.5C 301.833,207.5 288.167,207.5 274.5,207.5C 274.333,237.502 274.5,267.502 275,297.5C 276.094,304.862 280.261,309.362 287.5,311C 297.121,312.286 306.788,312.786 316.5,312.5C 316.5,326.5 316.5,340.5 316.5,354.5C 305.495,354.667 294.495,354.5 283.5,354C 249.331,352.828 230.165,335.328 226,301.5C 225.5,270.168 225.333,238.835 225.5,207.5C 216.833,207.5 208.167,207.5 199.5,207.5C 199.5,193.833 199.5,180.167 199.5,166.5C 208.167,166.5 216.833,166.5 225.5,166.5C 225.5,151.167 225.5,135.833 225.5,120.5 Z M 226.5,121.5 C 226.5,136.833 226.5,152.167 226.5,167.5C 217.833,167.5 209.167,167.5 200.5,167.5C 200.5,180.5 200.5,193.5 200.5,206.5C 209.167,206.5 217.833,206.5 226.5,206.5C 226.333,237.835 226.5,269.168 227,300.5C 231.165,334.328 250.331,351.828 284.5,353C 294.828,353.5 305.161,353.666 315.5,353.5C 315.5,340.167 315.5,326.833 315.5,313.5C 305.788,313.786 296.121,313.286 286.5,312C 279.261,310.362 275.094,305.862 274,298.5C 273.5,267.835 273.333,237.168 273.5,206.5C 287.167,206.5 300.833,206.5 314.5,206.5C 314.5,193.5 314.5,180.5 314.5,167.5C 300.833,167.5 287.167,167.5 273.5,167.5C 273.5,152.167 273.5,136.833 273.5,121.5C 257.833,121.5 242.167,121.5 226.5,121.5 Z M 247.5,139.5 C 246.105,140.648 246.272,141.648 248,142.5C 248.498,145.482 248.665,148.482 248.5,151.5C 249.833,151.5 251.167,151.5 252.5,151.5C 252.5,147.5 252.5,143.5 252.5,139.5C 250.833,139.5 249.167,139.5 247.5,139.5 Z M 213.5,180.5 C 212.962,182.117 212.629,183.784 212.5,185.5C 214.39,185.703 215.89,185.037 217,183.5C 216.628,185.92 215.295,187.92 213,189.5C 212.517,190.448 212.351,191.448 212.5,192.5C 215.5,192.5 218.5,192.5 221.5,192.5C 221.5,191.5 221.5,190.5 221.5,189.5C 220.448,189.649 219.448,189.483 218.5,189C 222.767,183.046 221.1,180.213 213.5,180.5 Z"/></g>
<g><path style="opacity:0.899" fill="#ed3a5f" d="M 245.5,133.5 C 257.99,131.823 263.157,137.156 261,149.5C 260.215,151.286 259.049,152.786 257.5,154C 244.074,158.238 238.241,153.404 240,139.5C 241.36,136.977 243.193,134.977 245.5,133.5 Z M 247.5,139.5 C 246.105,140.648 246.272,141.648 248,142.5C 248.498,145.482 248.665,148.482 248.5,151.5C 249.833,151.5 251.167,151.5 252.5,151.5C 252.5,147.5 252.5,143.5 252.5,139.5C 250.833,139.5 249.167,139.5 247.5,139.5 Z"/></g>
<g><path style="opacity:0.768" fill="#ed3a5f" d="M 247.5,160.5 C 252.914,159.565 254.914,161.565 253.5,166.5C 247.129,168.796 245.129,166.796 247.5,160.5 Z"/></g>
<g><path style="opacity:0.769" fill="#ed3a5f" d="M 247.5,174.5 C 252.914,173.565 254.914,175.565 253.5,180.5C 247.129,182.796 245.129,180.796 247.5,174.5 Z"/></g>
<g><path style="opacity:0.89" fill="#ed3a5f" d="M 211.5,175.5 C 223.99,173.823 229.157,179.156 227,191.5C 226.215,193.286 225.049,194.786 223.5,196C 210.074,200.238 204.241,195.404 206,181.5C 207.36,178.977 209.193,176.977 211.5,175.5 Z M 213.5,180.5 C 212.962,182.117 212.629,183.784 212.5,185.5C 214.39,185.703 215.89,185.037 217,183.5C 216.628,185.92 215.295,187.92 213,189.5C 212.517,190.448 212.351,191.448 212.5,192.5C 215.5,192.5 218.5,192.5 221.5,192.5C 221.5,191.5 221.5,190.5 221.5,189.5C 220.448,189.649 219.448,189.483 218.5,189C 222.767,183.046 221.1,180.213 213.5,180.5 Z"/></g>
<g><path style="opacity:0.836" fill="#ed3a5f" d="M 232.5,183.5 C 238.317,183.03 239.984,185.196 237.5,190C 231.741,191.139 230.074,188.972 232.5,183.5 Z"/></g>
<g><path style="opacity:0.769" fill="#ed3a5f" d="M 260.5,183.5 C 265.914,182.565 267.914,184.565 266.5,189.5C 260.129,191.796 258.129,189.796 260.5,183.5 Z"/></g>
<g><path style="opacity:0.772" fill="#ed3a5f" d="M 274.5,183.5 C 279.914,182.565 281.914,184.565 280.5,189.5C 274.129,191.796 272.129,189.796 274.5,183.5 Z"/></g>
<g><path style="opacity:0.74" fill="#ed3a5f" d="M 288.5,183.5 C 294.113,182.079 296.28,184.079 295,189.5C 288.423,192.088 286.256,190.088 288.5,183.5 Z"/></g>
<g><path style="opacity:0.742" fill="#ed3a5f" d="M 302.5,183.5 C 308.113,182.079 310.28,184.079 309,189.5C 302.423,192.088 300.256,190.088 302.5,183.5 Z"/></g>
<g><path style="opacity:0.767" fill="#ed3a5f" d="M 247.5,188.5 C 252.914,187.565 254.914,189.565 253.5,194.5C 247.129,196.796 245.129,194.796 247.5,188.5 Z"/></g>
<g><path style="opacity:0.753" fill="#ed3a5f" d="M 249.5,201.5 C 253.718,202.275 255.052,204.609 253.5,208.5C 247.976,210.914 245.809,209.248 247,203.5C 247.995,202.934 248.828,202.267 249.5,201.5 Z"/></g>
<g><path style="opacity:0.753" fill="#ed3a5f" d="M 249.5,215.5 C 254.328,216.641 255.328,219.141 252.5,223C 247.333,224.5 245.5,222.667 247,217.5C 247.995,216.934 248.828,216.267 249.5,215.5 Z"/></g>
<g><path style="opacity:0.75" fill="#ed3a5f" d="M 249.5,229.5 C 254.328,230.641 255.328,233.141 252.5,237C 247.333,238.5 245.5,236.667 247,231.5C 247.995,230.934 248.828,230.267 249.5,229.5 Z"/></g>
<g><path style="opacity:0.754" fill="#ed3a5f" d="M 249.5,243.5 C 254.328,244.641 255.328,247.141 252.5,251C 247.333,252.5 245.5,250.667 247,245.5C 247.995,244.934 248.828,244.267 249.5,243.5 Z"/></g>
<g><path style="opacity:0.738" fill="#ed3a5f" d="M 248.5,257.5 C 254.02,258.044 255.354,260.544 252.5,265C 246.202,265.495 244.868,262.995 248.5,257.5 Z"/></g>
<g><path style="opacity:0.739" fill="#ed3a5f" d="M 248.5,271.5 C 254.02,272.044 255.354,274.544 252.5,279C 246.202,279.495 244.868,276.995 248.5,271.5 Z"/></g>
<g><path style="opacity:0.736" fill="#ed3a5f" d="M 248.5,285.5 C 254.02,286.044 255.354,288.544 252.5,293C 246.202,293.495 244.868,290.995 248.5,285.5 Z"/></g>
<g><path style="opacity:0.753" fill="#ed3a5f" d="M 248.5,299.5 C 253.756,300.194 255.09,302.694 252.5,307C 248.798,308.393 246.798,307.226 246.5,303.5C 246.803,301.886 247.47,300.552 248.5,299.5 Z"/></g>
<g><path style="opacity:0.724" fill="#ed3a5f" d="M 253.5,312.5 C 258.266,313.158 259.6,315.658 257.5,320C 252.338,321.424 250.171,319.59 251,314.5C 251.995,313.934 252.828,313.267 253.5,312.5 Z"/></g>
<g><path style="opacity:0.711" fill="#ed3a5f" d="M 262.5,322.5 C 267.764,322.417 269.431,324.75 267.5,329.5C 260.369,331.27 258.703,328.936 262.5,322.5 Z"/></g>
<g><path style="opacity:0.711" fill="#ed3a5f" d="M 274.5,328.5 C 280.62,328.259 282.287,330.759 279.5,336C 273.593,336.746 271.927,334.246 274.5,328.5 Z"/></g>
<g><path style="opacity:0.753" fill="#ed3a5f" d="M 289.5,330.5 C 294.262,331.092 295.596,333.592 293.5,338C 289.872,339.316 287.539,338.149 286.5,334.5C 287.172,332.84 288.172,331.507 289.5,330.5 Z"/></g>
<g><path style="opacity:0.853" fill="#ed3a5f" d="M 302.5,331.5 C 308.158,330.679 309.825,332.846 307.5,338C 301.741,339.139 300.074,336.972 302.5,331.5 Z"/></g>
</svg>
