<?xml version="1.0" encoding="UTF-8"?>
<!DOCTYPE svg PUBLIC "-//W3C//DTD SVG 1.1//EN" "http://www.w3.org/Graphics/SVG/1.1/DTD/svg11.dtd">
<svg xmlns="http://www.w3.org/2000/svg" version="1.1" width="500px" height="500px" style="shape-rendering:geometricPrecision; text-rendering:geometricPrecision; image-rendering:optimizeQuality; fill-rule:evenodd; clip-rule:evenodd" xmlns:xlink="http://www.w3.org/1999/xlink">
<g><path style="opacity:0.986" fill="#a6a6a6" d="M 193.5,-0.5 C 195.833,-0.5 198.167,-0.5 200.5,-0.5C 199.737,0.26791 198.737,0.76791 197.5,1C 131.501,1.5 65.5008,1.66666 -0.5,1.5C -0.5,1.16667 -0.5,0.833333 -0.5,0.5C 64.3355,0.832464 129.002,0.499131 193.5,-0.5 Z"/></g>
<g><path style="opacity:1" fill="#f7f7f7" d="M 200.5,-0.5 C 212.5,-0.5 224.5,-0.5 236.5,-0.5C 236.918,0.221579 237.584,0.721579 238.5,1C 259.167,1.66667 279.833,1.66667 300.5,1C 301.416,0.721579 302.082,0.221579 302.5,-0.5C 354.5,-0.5 406.5,-0.5 458.5,-0.5C 458.611,0.117425 458.944,0.617425 459.5,1C 472.829,1.4999 486.163,1.66656 499.5,1.5C 499.5,167.5 499.5,333.5 499.5,499.5C 332.833,499.5 166.167,499.5 -0.5,499.5C -0.5,333.5 -0.5,167.5 -0.5,1.5C 65.5008,1.66666 131.501,1.5 197.5,1C 198.737,0.76791 199.737,0.26791 200.5,-0.5 Z M 318.5,195.5 C 315.087,196.946 313.087,199.613 312.5,203.5C 312.877,213.212 317.877,217.546 327.5,216.5C 323.205,223.209 320.372,230.542 319,238.5C 318.5,275.832 318.333,313.165 318.5,350.5C 302.833,350.5 287.167,350.5 271.5,350.5C 271.5,267.833 271.5,185.167 271.5,102.5C 287.167,102.5 302.833,102.5 318.5,102.5C 318.5,133.5 318.5,164.5 318.5,195.5 Z M 292.5,121.5 C 292.5,120.5 292.5,119.5 292.5,118.5C 289.795,118.62 289.128,117.62 290.5,115.5C 292.833,114.167 295.167,114.167 297.5,115.5C 297.378,118.447 297.544,121.447 298,124.5C 296.192,126.396 294.025,126.896 291.5,126C 289.963,124.89 289.297,123.39 289.5,121.5C 290.5,121.5 291.5,121.5 292.5,121.5 Z M 149.5,118.5 C 165.167,118.5 180.833,118.5 196.5,118.5C 196.5,133.833 196.5,149.167 196.5,164.5C 210.167,164.5 223.833,164.5 237.5,164.5C 237.5,177.5 237.5,190.5 237.5,203.5C 223.833,203.5 210.167,203.5 196.5,203.5C 196.333,234.168 196.5,264.835 197,295.5C 198.094,302.862 202.261,307.362 209.5,309C 219.121,310.286 228.788,310.786 238.5,310.5C 238.5,323.833 238.5,337.167 238.5,350.5C 228.161,350.666 217.828,350.5 207.5,350C 173.331,348.828 154.165,331.328 150,297.5C 149.5,266.168 149.333,234.835 149.5,203.5C 140.833,203.5 132.167,203.5 123.5,203.5C 123.5,190.5 123.5,177.5 123.5,164.5C 132.167,164.5 140.833,164.5 149.5,164.5C 149.5,149.167 149.5,133.833 149.5,118.5 Z M 170.5,136.5 C 172.167,136.5 173.833,136.5 175.5,136.5C 175.5,140.5 175.5,144.5 175.5,148.5C 174.167,148.5 172.833,148.5 171.5,148.5C 171.665,145.482 171.498,142.482 171,139.5C 169.272,138.648 169.105,137.648 170.5,136.5 Z M 335.5,208.5 C 337.023,198.15 332.69,193.484 322.5,194.5C 332.78,176.843 348.113,166.343 368.5,163C 415.018,158.161 442.518,178.661 451,224.5C 452.442,266.477 452.942,308.477 452.5,350.5C 436.833,350.5 421.167,350.5 405.5,350.5C 405.667,312.499 405.5,274.499 405,236.5C 402.69,218.526 392.857,207.026 375.5,202C 361.201,198.696 347.868,200.862 335.5,208.5 Z M 136.5,177.5 C 144.1,177.213 145.767,180.046 141.5,186C 142.448,186.483 143.448,186.649 144.5,186.5C 144.5,187.5 144.5,188.5 144.5,189.5C 141.5,189.5 138.5,189.5 135.5,189.5C 135.351,188.448 135.517,187.448 136,186.5C 138.295,184.92 139.628,182.92 140,180.5C 138.89,182.037 137.39,182.703 135.5,182.5C 135.629,180.784 135.962,179.117 136.5,177.5 Z M 323.5,198.5 C 324.833,198.5 326.167,198.5 327.5,198.5C 328.005,202.6 328.005,206.6 327.5,210.5C 326.5,210.5 325.5,210.5 324.5,210.5C 324.5,209.5 324.5,208.5 324.5,207.5C 322.396,207.799 320.396,207.466 318.5,206.5C 320.193,203.816 321.86,201.149 323.5,198.5 Z"/></g>
<g><path style="opacity:0.939" fill="#a7a7a7" d="M 236.5,-0.5 C 239.5,-0.5 242.5,-0.5 245.5,-0.5C 263.167,0.833333 280.833,0.833333 298.5,-0.5C 299.833,-0.5 301.167,-0.5 302.5,-0.5C 302.082,0.221579 301.416,0.721579 300.5,1C 279.833,1.66667 259.167,1.66667 238.5,1C 237.584,0.721579 236.918,0.221579 236.5,-0.5 Z"/></g>
<g><path style="opacity:0.975" fill="#a7a7a7" d="M 458.5,-0.5 C 459.833,-0.5 461.167,-0.5 462.5,-0.5C 474.655,0.495218 486.989,0.828551 499.5,0.5C 499.5,0.833333 499.5,1.16667 499.5,1.5C 486.163,1.66656 472.829,1.4999 459.5,1C 458.944,0.617425 458.611,0.117425 458.5,-0.5 Z"/></g>
<g><path style="opacity:0.993" fill="#a6a5a5" d="M 319.5,195.5 C 319.167,195.5 318.833,195.5 318.5,195.5C 318.5,164.5 318.5,133.5 318.5,102.5C 302.833,102.5 287.167,102.5 271.5,102.5C 271.5,185.167 271.5,267.833 271.5,350.5C 287.167,350.5 302.833,350.5 318.5,350.5C 318.333,313.165 318.5,275.832 319,238.5C 320.372,230.542 323.205,223.209 327.5,216.5C 328.167,216.167 328.833,215.833 329.5,215.5C 324.686,222.761 321.52,230.761 320,239.5C 319.5,276.832 319.333,314.165 319.5,351.5C 303.167,351.5 286.833,351.5 270.5,351.5C 270.5,268.167 270.5,184.833 270.5,101.5C 286.833,101.5 303.167,101.5 319.5,101.5C 319.5,132.833 319.5,164.167 319.5,195.5 Z M 292.5,121.5 C 291.5,121.5 290.5,121.5 289.5,121.5C 289.297,123.39 289.963,124.89 291.5,126C 294.025,126.896 296.192,126.396 298,124.5C 297.544,121.447 297.378,118.447 297.5,115.5C 295.167,114.167 292.833,114.167 290.5,115.5C 289.128,117.62 289.795,118.62 292.5,118.5C 292.5,119.5 292.5,120.5 292.5,121.5 Z"/></g>
<g><path style="opacity:0.882" fill="#ed3a5f" d="M 289.5,108.5 C 302.512,106.178 307.679,111.512 305,124.5C 304.215,126.286 303.049,127.786 301.5,129C 288.074,133.238 282.241,128.404 284,114.5C 285.36,111.977 287.193,109.977 289.5,108.5 Z M 292.5,121.5 C 291.5,121.5 290.5,121.5 289.5,121.5C 289.297,123.39 289.963,124.89 291.5,126C 294.025,126.896 296.192,126.396 298,124.5C 297.544,121.447 297.378,118.447 297.5,115.5C 295.167,114.167 292.833,114.167 290.5,115.5C 289.128,117.62 289.795,118.62 292.5,118.5C 292.5,119.5 292.5,120.5 292.5,121.5 Z"/></g>
<g><path style="opacity:0.975" fill="#a5a6a5" d="M 148.5,117.5 C 164.833,117.5 181.167,117.5 197.5,117.5C 197.5,132.833 197.5,148.167 197.5,163.5C 211.167,163.5 224.833,163.5 238.5,163.5C 238.5,177.167 238.5,190.833 238.5,204.5C 224.833,204.5 211.167,204.5 197.5,204.5C 197.333,234.502 197.5,264.502 198,294.5C 199.094,301.862 203.261,306.362 210.5,308C 220.121,309.286 229.788,309.786 239.5,309.5C 239.5,323.5 239.5,337.5 239.5,351.5C 228.495,351.667 217.495,351.5 206.5,351C 172.331,349.828 153.165,332.328 149,298.5C 148.5,267.168 148.333,235.835 148.5,204.5C 139.833,204.5 131.167,204.5 122.5,204.5C 122.5,190.833 122.5,177.167 122.5,163.5C 131.167,163.5 139.833,163.5 148.5,163.5C 148.5,148.167 148.5,132.833 148.5,117.5 Z M 149.5,118.5 C 149.5,133.833 149.5,149.167 149.5,164.5C 140.833,164.5 132.167,164.5 123.5,164.5C 123.5,177.5 123.5,190.5 123.5,203.5C 132.167,203.5 140.833,203.5 149.5,203.5C 149.333,234.835 149.5,266.168 150,297.5C 154.165,331.328 173.331,348.828 207.5,350C 217.828,350.5 228.161,350.666 238.5,350.5C 238.5,337.167 238.5,323.833 238.5,310.5C 228.788,310.786 219.121,310.286 209.5,309C 202.261,307.362 198.094,302.862 197,295.5C 196.5,264.835 196.333,234.168 196.5,203.5C 210.167,203.5 223.833,203.5 237.5,203.5C 237.5,190.5 237.5,177.5 237.5,164.5C 223.833,164.5 210.167,164.5 196.5,164.5C 196.5,149.167 196.5,133.833 196.5,118.5C 180.833,118.5 165.167,118.5 149.5,118.5 Z M 170.5,136.5 C 169.105,137.648 169.272,138.648 171,139.5C 171.498,142.482 171.665,145.482 171.5,148.5C 172.833,148.5 174.167,148.5 175.5,148.5C 175.5,144.5 175.5,140.5 175.5,136.5C 173.833,136.5 172.167,136.5 170.5,136.5 Z M 136.5,177.5 C 135.962,179.117 135.629,180.784 135.5,182.5C 137.39,182.703 138.89,182.037 140,180.5C 139.628,182.92 138.295,184.92 136,186.5C 135.517,187.448 135.351,188.448 135.5,189.5C 138.5,189.5 141.5,189.5 144.5,189.5C 144.5,188.5 144.5,187.5 144.5,186.5C 143.448,186.649 142.448,186.483 141.5,186C 145.767,180.046 144.1,177.213 136.5,177.5 Z"/></g>
<g><path style="opacity:1" fill="#ed3a5f" d="M 292.5,121.5 C 294.028,121.517 294.528,122.184 294,123.5C 293.283,122.956 292.783,122.289 292.5,121.5 Z"/></g>
<g><path style="opacity:0.899" fill="#ed3a5f" d="M 168.5,130.5 C 180.99,128.823 186.157,134.156 184,146.5C 183.215,148.286 182.049,149.786 180.5,151C 167.074,155.238 161.241,150.404 163,136.5C 164.36,133.977 166.193,131.977 168.5,130.5 Z M 170.5,136.5 C 169.105,137.648 169.272,138.648 171,139.5C 171.498,142.482 171.665,145.482 171.5,148.5C 172.833,148.5 174.167,148.5 175.5,148.5C 175.5,144.5 175.5,140.5 175.5,136.5C 173.833,136.5 172.167,136.5 170.5,136.5 Z"/></g>
<g><path style="opacity:0.852" fill="#ed3a5f" d="M 292.5,134.5 C 298.158,133.679 299.825,135.846 297.5,141C 291.741,142.139 290.074,139.972 292.5,134.5 Z"/></g>
<g><path style="opacity:0.832" fill="#ed3a5f" d="M 292.5,148.5 C 297.675,147.507 299.509,149.507 298,154.5C 296,157.167 294,157.167 292,154.5C 291.322,152.402 291.489,150.402 292.5,148.5 Z"/></g>
<g><path style="opacity:0.768" fill="#ed3a5f" d="M 170.5,157.5 C 175.914,156.565 177.914,158.565 176.5,163.5C 170.129,165.796 168.129,163.796 170.5,157.5 Z"/></g>
<g><path style="opacity:0.933" fill="#a6a5a5" d="M 333.5,211.5 C 334.167,210.5 334.833,209.5 335.5,208.5C 347.868,200.862 361.201,198.696 375.5,202C 392.857,207.026 402.69,218.526 405,236.5C 405.5,274.499 405.667,312.499 405.5,350.5C 421.167,350.5 436.833,350.5 452.5,350.5C 452.942,308.477 452.442,266.477 451,224.5C 442.518,178.661 415.018,158.161 368.5,163C 348.113,166.343 332.78,176.843 322.5,194.5C 321.833,194.833 321.167,195.167 320.5,195.5C 330.41,176.521 346.077,165.355 367.5,162C 402.177,156.095 428.011,168.261 445,198.5C 448.423,206.523 450.756,214.857 452,223.5C 453.443,266.144 453.943,308.811 453.5,351.5C 437.167,351.5 420.833,351.5 404.5,351.5C 404.667,313.499 404.5,275.499 404,237.5C 398.698,211.751 382.865,199.917 356.5,202C 347.84,203.004 340.174,206.17 333.5,211.5 Z"/></g>
<g><path style="opacity:0.799" fill="#ed3a5f" d="M 292.5,162.5 C 298.704,162.314 300.037,164.814 296.5,170C 291.632,169.711 290.299,167.211 292.5,162.5 Z"/></g>
<g><path style="opacity:0.769" fill="#ed3a5f" d="M 170.5,171.5 C 175.914,170.565 177.914,172.565 176.5,177.5C 170.129,179.796 168.129,177.796 170.5,171.5 Z"/></g>
<g><path style="opacity:0.89" fill="#ed3a5f" d="M 134.5,172.5 C 146.99,170.823 152.157,176.156 150,188.5C 149.215,190.286 148.049,191.786 146.5,193C 133.074,197.238 127.241,192.404 129,178.5C 130.36,175.977 132.193,173.977 134.5,172.5 Z M 136.5,177.5 C 135.962,179.117 135.629,180.784 135.5,182.5C 137.39,182.703 138.89,182.037 140,180.5C 139.628,182.92 138.295,184.92 136,186.5C 135.517,187.448 135.351,188.448 135.5,189.5C 138.5,189.5 141.5,189.5 144.5,189.5C 144.5,188.5 144.5,187.5 144.5,186.5C 143.448,186.649 142.448,186.483 141.5,186C 145.767,180.046 144.1,177.213 136.5,177.5 Z"/></g>
<g><path style="opacity:0.799" fill="#ed3a5f" d="M 292.5,176.5 C 298.704,176.314 300.037,178.814 296.5,184C 291.632,183.711 290.299,181.211 292.5,176.5 Z"/></g>
<g><path style="opacity:0.836" fill="#ed3a5f" d="M 155.5,180.5 C 161.317,180.03 162.984,182.196 160.5,187C 154.741,188.139 153.074,185.972 155.5,180.5 Z"/></g>
<g><path style="opacity:0.769" fill="#ed3a5f" d="M 183.5,180.5 C 188.914,179.565 190.914,181.565 189.5,186.5C 183.129,188.796 181.129,186.796 183.5,180.5 Z"/></g>
<g><path style="opacity:0.772" fill="#ed3a5f" d="M 197.5,180.5 C 202.914,179.565 204.914,181.565 203.5,186.5C 197.129,188.796 195.129,186.796 197.5,180.5 Z"/></g>
<g><path style="opacity:0.74" fill="#ed3a5f" d="M 211.5,180.5 C 217.113,179.079 219.28,181.079 218,186.5C 211.423,189.088 209.256,187.088 211.5,180.5 Z"/></g>
<g><path style="opacity:0.742" fill="#ed3a5f" d="M 225.5,180.5 C 231.113,179.079 233.28,181.079 232,186.5C 225.423,189.088 223.256,187.088 225.5,180.5 Z"/></g>
<g><path style="opacity:0.764" fill="#ed3a5f" d="M 377.5,180.5 C 382.914,179.565 384.914,181.565 383.5,186.5C 377.129,188.796 375.129,186.796 377.5,180.5 Z"/></g>
<g><path style="opacity:0.72" fill="#ed3a5f" d="M 392.5,180.5 C 397.942,180.886 399.275,183.386 396.5,188C 392.798,189.393 390.798,188.226 390.5,184.5C 390.803,182.886 391.47,181.552 392.5,180.5 Z"/></g>
<g><path style="opacity:0.735" fill="#ed3a5f" d="M 363.5,182.5 C 369.966,181.799 371.633,184.132 368.5,189.5C 362.77,190.41 361.103,188.077 363.5,182.5 Z"/></g>
<g><path style="opacity:0.767" fill="#ed3a5f" d="M 170.5,185.5 C 175.914,184.565 177.914,186.565 176.5,191.5C 170.129,193.796 168.129,191.796 170.5,185.5 Z"/></g>
<g><path style="opacity:0.721" fill="#ed3a5f" d="M 404.5,185.5 C 409.672,184.565 411.839,186.565 411,191.5C 408.952,193.787 406.785,193.954 404.5,192C 403.232,189.837 403.232,187.67 404.5,185.5 Z"/></g>
<g><path style="opacity:0.765" fill="#ed3a5f" d="M 350.5,186.5 C 355.675,185.507 357.509,187.507 356,192.5C 352.632,194.935 350.132,194.101 348.5,190C 348.978,188.697 349.645,187.531 350.5,186.5 Z"/></g>
<g><path style="opacity:0.767" fill="#ed3a5f" d="M 292.5,190.5 C 298.235,189.821 299.902,192.155 297.5,197.5C 295.833,198.833 294.167,198.833 292.5,197.5C 291.286,195.141 291.286,192.808 292.5,190.5 Z"/></g>
<g><path style="opacity:0.734" fill="#ed3a5f" d="M 337.5,191.5 C 343.313,191.062 344.98,193.562 342.5,199C 336.593,199.746 334.927,197.246 337.5,191.5 Z"/></g>
<g><path style="opacity:0.764" fill="#ed3a5f" d="M 417.5,193.5 C 422.342,194.665 423.342,197.165 420.5,201C 415.333,202.5 413.5,200.667 415,195.5C 415.995,194.934 416.828,194.267 417.5,193.5 Z"/></g>
<g><path style="opacity:0.896" fill="#ed3a60" d="M 322.5,194.5 C 332.69,193.484 337.023,198.15 335.5,208.5C 334.833,209.5 334.167,210.5 333.5,211.5C 332.5,213.167 331.167,214.5 329.5,215.5C 328.833,215.833 328.167,216.167 327.5,216.5C 317.877,217.546 312.877,213.212 312.5,203.5C 313.087,199.613 315.087,196.946 318.5,195.5C 318.833,195.5 319.167,195.5 319.5,195.5C 319.833,195.5 320.167,195.5 320.5,195.5C 321.167,195.167 321.833,194.833 322.5,194.5 Z M 323.5,198.5 C 321.86,201.149 320.193,203.816 318.5,206.5C 320.396,207.466 322.396,207.799 324.5,207.5C 324.5,208.5 324.5,209.5 324.5,210.5C 325.5,210.5 326.5,210.5 327.5,210.5C 328.005,206.6 328.005,202.6 327.5,198.5C 326.167,198.5 324.833,198.5 323.5,198.5 Z"/></g>
<g><path style="opacity:0.753" fill="#ed3a5f" d="M 172.5,198.5 C 176.718,199.275 178.052,201.609 176.5,205.5C 170.976,207.914 168.809,206.248 170,200.5C 170.995,199.934 171.828,199.267 172.5,198.5 Z"/></g>
<g><path style="opacity:0.767" fill="#ed3a5f" d="M 292.5,204.5 C 298.235,203.821 299.902,206.155 297.5,211.5C 295.833,212.833 294.167,212.833 292.5,211.5C 291.286,209.141 291.286,206.808 292.5,204.5 Z"/></g>
<g><path style="opacity:0.719" fill="#ed3a5f" d="M 424.5,205.5 C 429.19,205.94 430.524,208.274 428.5,212.5C 422.976,214.914 420.809,213.248 422,207.5C 422.995,206.934 423.828,206.267 424.5,205.5 Z"/></g>
<g><path style="opacity:0.753" fill="#ed3a5f" d="M 172.5,212.5 C 177.328,213.641 178.328,216.141 175.5,220C 170.333,221.5 168.5,219.667 170,214.5C 170.995,213.934 171.828,213.267 172.5,212.5 Z"/></g>
<g><path style="opacity:0.765" fill="#ed3a5f" d="M 292.5,218.5 C 298.235,217.821 299.902,220.155 297.5,225.5C 295.833,226.833 294.167,226.833 292.5,225.5C 291.286,223.141 291.286,220.808 292.5,218.5 Z"/></g>
<g><path style="opacity:0.721" fill="#ed3a5f" d="M 426.5,219.5 C 431.672,218.565 433.839,220.565 433,225.5C 430.952,227.787 428.785,227.954 426.5,226C 425.232,223.837 425.232,221.67 426.5,219.5 Z"/></g>
<g><path style="opacity:0.75" fill="#ed3a5f" d="M 172.5,226.5 C 177.328,227.641 178.328,230.141 175.5,234C 170.333,235.5 168.5,233.667 170,228.5C 170.995,227.934 171.828,227.267 172.5,226.5 Z"/></g>
<g><path style="opacity:0.767" fill="#ed3a5f" d="M 292.5,232.5 C 298.235,231.821 299.902,234.155 297.5,239.5C 295.833,240.833 294.167,240.833 292.5,239.5C 291.286,237.141 291.286,234.808 292.5,232.5 Z"/></g>
<g><path style="opacity:0.735" fill="#ed3a5f" d="M 427.5,233.5 C 433.966,232.799 435.633,235.132 432.5,240.5C 426.77,241.41 425.103,239.077 427.5,233.5 Z"/></g>
<g><path style="opacity:0.754" fill="#ed3a5f" d="M 172.5,240.5 C 177.328,241.641 178.328,244.141 175.5,248C 170.333,249.5 168.5,247.667 170,242.5C 170.995,241.934 171.828,241.267 172.5,240.5 Z"/></g>
<g><path style="opacity:0.765" fill="#ed3a5f" d="M 292.5,246.5 C 298.235,245.821 299.902,248.155 297.5,253.5C 295.833,254.833 294.167,254.833 292.5,253.5C 291.286,251.141 291.286,248.808 292.5,246.5 Z"/></g>
<g><path style="opacity:0.708" fill="#ed3a5f" d="M 427.5,247.5 C 433.113,246.079 435.28,248.079 434,253.5C 431.952,255.787 429.785,255.954 427.5,254C 426.232,251.837 426.232,249.67 427.5,247.5 Z"/></g>
<g><path style="opacity:0.738" fill="#ed3a5f" d="M 171.5,254.5 C 177.02,255.044 178.354,257.544 175.5,262C 169.202,262.495 167.868,259.995 171.5,254.5 Z"/></g>
<g><path style="opacity:0.768" fill="#ed3a5f" d="M 292.5,260.5 C 298.235,259.821 299.902,262.155 297.5,267.5C 295.833,268.833 294.167,268.833 292.5,267.5C 291.286,265.141 291.286,262.808 292.5,260.5 Z"/></g>
<g><path style="opacity:0.749" fill="#ed3a5f" d="M 428.5,261.5 C 433.675,260.507 435.509,262.507 434,267.5C 430.414,270.3 427.914,269.467 426.5,265C 426.978,263.697 427.645,262.531 428.5,261.5 Z"/></g>
<g><path style="opacity:0.739" fill="#ed3a5f" d="M 171.5,268.5 C 177.02,269.044 178.354,271.544 175.5,276C 169.202,276.495 167.868,273.995 171.5,268.5 Z"/></g>
<g><path style="opacity:0.766" fill="#ed3a5f" d="M 292.5,274.5 C 298.235,273.821 299.902,276.155 297.5,281.5C 295.833,282.833 294.167,282.833 292.5,281.5C 291.286,279.141 291.286,276.808 292.5,274.5 Z"/></g>
<g><path style="opacity:0.83" fill="#ed3a5f" d="M 428.5,275.5 C 433.675,274.507 435.509,276.507 434,281.5C 432,284.167 430,284.167 428,281.5C 427.322,279.402 427.489,277.402 428.5,275.5 Z"/></g>
<g><path style="opacity:0.736" fill="#ed3a5f" d="M 171.5,282.5 C 177.02,283.044 178.354,285.544 175.5,290C 169.202,290.495 167.868,287.995 171.5,282.5 Z"/></g>
<g><path style="opacity:0.738" fill="#ed3a5f" d="M 292.5,288.5 C 298.313,288.062 299.98,290.562 297.5,296C 291.593,296.746 289.927,294.246 292.5,288.5 Z"/></g>
<g><path style="opacity:0.749" fill="#ed3a5f" d="M 428.5,289.5 C 433.914,288.565 435.914,290.565 434.5,295.5C 428.432,298.096 426.432,296.096 428.5,289.5 Z"/></g>
<g><path style="opacity:0.753" fill="#ed3a5f" d="M 171.5,296.5 C 176.756,297.194 178.09,299.694 175.5,304C 171.798,305.393 169.798,304.226 169.5,300.5C 169.803,298.886 170.47,297.552 171.5,296.5 Z"/></g>
<g><path style="opacity:0.736" fill="#ed3a5f" d="M 292.5,302.5 C 298.313,302.062 299.98,304.562 297.5,310C 291.593,310.746 289.927,308.246 292.5,302.5 Z"/></g>
<g><path style="opacity:0.735" fill="#ed3a5f" d="M 428.5,303.5 C 434.113,302.079 436.28,304.079 435,309.5C 428.423,312.088 426.256,310.088 428.5,303.5 Z"/></g>
<g><path style="opacity:0.724" fill="#ed3a5f" d="M 176.5,309.5 C 181.266,310.158 182.6,312.658 180.5,317C 175.338,318.424 173.171,316.59 174,311.5C 174.995,310.934 175.828,310.267 176.5,309.5 Z"/></g>
<g><path style="opacity:0.738" fill="#ed3a5f" d="M 292.5,316.5 C 298.313,316.062 299.98,318.562 297.5,324C 291.593,324.746 289.927,322.246 292.5,316.5 Z"/></g>
<g><path style="opacity:0.764" fill="#ed3a5f" d="M 428.5,317.5 C 434.113,316.079 436.28,318.079 435,323.5C 428.854,325.636 426.687,323.636 428.5,317.5 Z"/></g>
<g><path style="opacity:0.711" fill="#ed3a5f" d="M 185.5,319.5 C 190.764,319.417 192.431,321.75 190.5,326.5C 183.369,328.27 181.703,325.936 185.5,319.5 Z"/></g>
<g><path style="opacity:0.711" fill="#ed3a5f" d="M 197.5,325.5 C 203.62,325.259 205.287,327.759 202.5,333C 196.593,333.746 194.927,331.246 197.5,325.5 Z"/></g>
<g><path style="opacity:0.753" fill="#ed3a5f" d="M 212.5,327.5 C 217.262,328.092 218.596,330.592 216.5,335C 212.872,336.316 210.539,335.149 209.5,331.5C 210.172,329.84 211.172,328.507 212.5,327.5 Z"/></g>
<g><path style="opacity:0.853" fill="#ed3a5f" d="M 225.5,328.5 C 231.158,327.679 232.825,329.846 230.5,335C 224.741,336.139 223.074,333.972 225.5,328.5 Z"/></g>
<g><path style="opacity:0.736" fill="#ed3a5f" d="M 292.5,330.5 C 298.313,330.062 299.98,332.562 297.5,338C 291.593,338.746 289.927,336.246 292.5,330.5 Z"/></g>
<g><path style="opacity:0.848" fill="#ed3a5f" d="M 429.5,331.5 C 435.158,330.679 436.825,332.846 434.5,338C 428.741,339.139 427.074,336.972 429.5,331.5 Z"/></g>
</svg>
