<?xml version="1.0" encoding="UTF-8"?>
<!DOCTYPE svg PUBLIC "-//W3C//DTD SVG 1.1//EN" "http://www.w3.org/Graphics/SVG/1.1/DTD/svg11.dtd">
<svg xmlns="http://www.w3.org/2000/svg" version="1.1" width="500px" height="500px" style="shape-rendering:geometricPrecision; text-rendering:geometricPrecision; image-rendering:optimizeQuality; fill-rule:evenodd; clip-rule:evenodd" xmlns:xlink="http://www.w3.org/1999/xlink">
<g><path style="opacity:0.918" fill="#a6a6a6" d="M 163.5,-0.5 C 168.5,-0.5 173.5,-0.5 178.5,-0.5C 183.5,0.833333 188.5,0.833333 193.5,-0.5C 195.833,-0.5 198.167,-0.5 200.5,-0.5C 199.5,0.166667 198.5,0.833333 197.5,1.5C 131.5,1.5 65.5,1.5 -0.5,1.5C -0.5,1.16667 -0.5,0.833333 -0.5,0.5C 54.3359,0.832303 109.003,0.49897 163.5,-0.5 Z"/></g>
<g><path style="opacity:1" fill="#f7f7f7" d="M 204.5,-0.5 C 213.5,-0.5 222.5,-0.5 231.5,-0.5C 233.515,0.923808 235.848,1.59047 238.5,1.5C 259.169,1.66662 279.836,1.49996 300.5,1C 301.416,0.721579 302.082,0.221579 302.5,-0.5C 354.5,-0.5 406.5,-0.5 458.5,-0.5C 458.611,0.117425 458.944,0.617425 459.5,1C 472.829,1.4999 486.163,1.66656 499.5,1.5C 499.5,167.5 499.5,333.5 499.5,499.5C 332.833,499.5 166.167,499.5 -0.5,499.5C -0.5,333.5 -0.5,167.5 -0.5,1.5C 65.5,1.5 131.5,1.5 197.5,1.5C 200.152,1.59047 202.485,0.923808 204.5,-0.5 Z M 158.5,154.5 C 174.167,154.5 189.833,154.5 205.5,154.5C 205.333,191.835 205.5,229.168 206,266.5C 209.375,290.862 223.375,303.528 248,304.5C 277.25,302.581 292.25,286.915 293,257.5C 293.5,223.168 293.667,188.835 293.5,154.5C 308.833,154.5 324.167,154.5 339.5,154.5C 339.5,216.5 339.5,278.5 339.5,340.5C 324.167,340.5 308.833,340.5 293.5,340.5C 293.5,328.833 293.5,317.167 293.5,305.5C 292.325,305.281 291.325,305.614 290.5,306.5C 279.584,327.477 262.251,339.31 238.5,342C 200.594,345.315 175.427,329.148 163,293.5C 161.744,288.552 160.744,283.552 160,278.5C 158.585,237.185 158.085,195.851 158.5,154.5 Z M 315.5,164.5 C 323.1,164.213 324.767,167.046 320.5,173C 321.448,173.483 322.448,173.649 323.5,173.5C 323.5,174.5 323.5,175.5 323.5,176.5C 320.5,176.5 317.5,176.5 314.5,176.5C 314.351,175.448 314.517,174.448 315,173.5C 317.295,171.92 318.628,169.92 319,167.5C 317.89,169.037 316.39,169.703 314.5,169.5C 314.629,167.784 314.962,166.117 315.5,164.5 Z M 176.5,172.5 C 178.167,172.5 179.833,172.5 181.5,172.5C 181.5,176.5 181.5,180.5 181.5,184.5C 180.167,184.5 178.833,184.5 177.5,184.5C 177.665,181.482 177.498,178.482 177,175.5C 175.272,174.648 175.105,173.648 176.5,172.5 Z"/></g>
<g><path style="opacity:0.939" fill="#a7a7a7" d="M 236.5,-0.5 C 239.5,-0.5 242.5,-0.5 245.5,-0.5C 263.167,0.833333 280.833,0.833333 298.5,-0.5C 299.833,-0.5 301.167,-0.5 302.5,-0.5C 302.082,0.221579 301.416,0.721579 300.5,1C 279.836,1.49996 259.169,1.66662 238.5,1.5C 237.833,0.833333 237.167,0.166667 236.5,-0.5 Z"/></g>
<g><path style="opacity:0.975" fill="#a7a7a7" d="M 458.5,-0.5 C 459.833,-0.5 461.167,-0.5 462.5,-0.5C 474.655,0.495218 486.989,0.828551 499.5,0.5C 499.5,0.833333 499.5,1.16667 499.5,1.5C 486.163,1.66656 472.829,1.4999 459.5,1C 458.944,0.617425 458.611,0.117425 458.5,-0.5 Z"/></g>
<g><path style="opacity:1" fill="#cccccc" d="M 200.5,-0.5 C 201.833,-0.5 203.167,-0.5 204.5,-0.5C 202.485,0.923808 200.152,1.59047 197.5,1.5C 198.5,0.833333 199.5,0.166667 200.5,-0.5 Z"/></g>
<g><path style="opacity:1" fill="#d5d5d5" d="M 231.5,-0.5 C 233.167,-0.5 234.833,-0.5 236.5,-0.5C 237.167,0.166667 237.833,0.833333 238.5,1.5C 235.848,1.59047 233.515,0.923808 231.5,-0.5 Z"/></g>
<g><path style="opacity:0.955" fill="#a5a6a5" d="M 157.5,153.5 C 173.833,153.5 190.167,153.5 206.5,153.5C 206.333,190.835 206.5,228.168 207,265.5C 210.103,289.553 223.77,302.22 248,303.5C 276.722,301.108 291.389,285.441 292,256.5C 292.5,222.168 292.667,187.835 292.5,153.5C 308.5,153.5 324.5,153.5 340.5,153.5C 340.5,216.167 340.5,278.833 340.5,341.5C 324.5,341.5 308.5,341.5 292.5,341.5C 292.667,329.829 292.5,318.162 292,306.5C 281.148,327.989 263.648,340.155 239.5,343C 203.606,347.316 178.44,333.149 164,300.5C 161.57,293.684 159.903,286.684 159,279.5C 157.583,237.518 157.083,195.518 157.5,153.5 Z M 158.5,154.5 C 158.085,195.851 158.585,237.185 160,278.5C 160.744,283.552 161.744,288.552 163,293.5C 175.427,329.148 200.594,345.315 238.5,342C 262.251,339.31 279.584,327.477 290.5,306.5C 291.325,305.614 292.325,305.281 293.5,305.5C 293.5,317.167 293.5,328.833 293.5,340.5C 308.833,340.5 324.167,340.5 339.5,340.5C 339.5,278.5 339.5,216.5 339.5,154.5C 324.167,154.5 308.833,154.5 293.5,154.5C 293.667,188.835 293.5,223.168 293,257.5C 292.25,286.915 277.25,302.581 248,304.5C 223.375,303.528 209.375,290.862 206,266.5C 205.5,229.168 205.333,191.835 205.5,154.5C 189.833,154.5 174.167,154.5 158.5,154.5 Z M 315.5,164.5 C 314.962,166.117 314.629,167.784 314.5,169.5C 316.39,169.703 317.89,169.037 319,167.5C 318.628,169.92 317.295,171.92 315,173.5C 314.517,174.448 314.351,175.448 314.5,176.5C 317.5,176.5 320.5,176.5 323.5,176.5C 323.5,175.5 323.5,174.5 323.5,173.5C 322.448,173.649 321.448,173.483 320.5,173C 324.767,167.046 323.1,164.213 315.5,164.5 Z M 176.5,172.5 C 175.105,173.648 175.272,174.648 177,175.5C 177.498,178.482 177.665,181.482 177.5,184.5C 178.833,184.5 180.167,184.5 181.5,184.5C 181.5,180.5 181.5,176.5 181.5,172.5C 179.833,172.5 178.167,172.5 176.5,172.5 Z"/></g>
<g><path style="opacity:0.89" fill="#ed3a5f" d="M 313.5,159.5 C 325.99,157.823 331.157,163.156 329,175.5C 328.215,177.286 327.049,178.786 325.5,180C 312.074,184.238 306.241,179.404 308,165.5C 309.36,162.977 311.193,160.977 313.5,159.5 Z M 315.5,164.5 C 314.962,166.117 314.629,167.784 314.5,169.5C 316.39,169.703 317.89,169.037 319,167.5C 318.628,169.92 317.295,171.92 315,173.5C 314.517,174.448 314.351,175.448 314.5,176.5C 317.5,176.5 320.5,176.5 323.5,176.5C 323.5,175.5 323.5,174.5 323.5,173.5C 322.448,173.649 321.448,173.483 320.5,173C 324.767,167.046 323.1,164.213 315.5,164.5 Z"/></g>
<g><path style="opacity:0.899" fill="#ed3a5f" d="M 174.5,166.5 C 186.99,164.823 192.157,170.156 190,182.5C 189.215,184.286 188.049,185.786 186.5,187C 173.074,191.238 167.241,186.404 169,172.5C 170.36,169.977 172.193,167.977 174.5,166.5 Z M 176.5,172.5 C 175.105,173.648 175.272,174.648 177,175.5C 177.498,178.482 177.665,181.482 177.5,184.5C 178.833,184.5 180.167,184.5 181.5,184.5C 181.5,180.5 181.5,176.5 181.5,172.5C 179.833,172.5 178.167,172.5 176.5,172.5 Z"/></g>
<g><path style="opacity:0.853" fill="#ed3a5f" d="M 316.5,185.5 C 322.158,184.679 323.825,186.846 321.5,192C 315.741,193.139 314.074,190.972 316.5,185.5 Z"/></g>
<g><path style="opacity:0.851" fill="#ed3a5f" d="M 176.5,192.5 C 182.158,191.679 183.825,193.846 181.5,199C 175.741,200.139 174.074,197.972 176.5,192.5 Z"/></g>
<g><path style="opacity:0.835" fill="#ed3a5f" d="M 316.5,199.5 C 321.675,198.507 323.509,200.507 322,205.5C 320,208.167 318,208.167 316,205.5C 315.322,203.402 315.489,201.402 316.5,199.5 Z"/></g>
<g><path style="opacity:0.831" fill="#ed3a5f" d="M 178.5,205.5 C 182.396,206.78 183.396,209.28 181.5,213C 176.333,214.5 174.5,212.667 176,207.5C 176.995,206.934 177.828,206.267 178.5,205.5 Z"/></g>
<g><path style="opacity:0.798" fill="#ed3a5f" d="M 316.5,213.5 C 322.704,213.314 324.037,215.814 320.5,221C 315.632,220.711 314.299,218.211 316.5,213.5 Z"/></g>
<g><path style="opacity:0.831" fill="#ed3a5f" d="M 178.5,219.5 C 182.396,220.78 183.396,223.28 181.5,227C 176.333,228.5 174.5,226.667 176,221.5C 176.995,220.934 177.828,220.267 178.5,219.5 Z"/></g>
<g><path style="opacity:0.766" fill="#ed3a5f" d="M 316.5,227.5 C 322.235,226.821 323.902,229.155 321.5,234.5C 319.833,235.833 318.167,235.833 316.5,234.5C 315.286,232.141 315.286,229.808 316.5,227.5 Z"/></g>
<g><path style="opacity:0.782" fill="#ed3a5f" d="M 177.5,233.5 C 178.93,233.421 180.264,233.754 181.5,234.5C 183.89,240.608 182.056,242.608 176,240.5C 175.167,237.829 175.667,235.496 177.5,233.5 Z"/></g>
<g><path style="opacity:0.768" fill="#ed3a5f" d="M 316.5,241.5 C 322.235,240.821 323.902,243.155 321.5,248.5C 319.833,249.833 318.167,249.833 316.5,248.5C 315.286,246.141 315.286,243.808 316.5,241.5 Z"/></g>
<g><path style="opacity:0.761" fill="#ed3a5f" d="M 177.5,247.5 C 178.93,247.421 180.264,247.754 181.5,248.5C 183.89,254.608 182.056,256.608 176,254.5C 175.185,251.802 175.685,249.468 177.5,247.5 Z"/></g>
<g><path style="opacity:0.769" fill="#ed3a5f" d="M 316.5,255.5 C 322.235,254.821 323.902,257.155 321.5,262.5C 319.833,263.833 318.167,263.833 316.5,262.5C 315.286,260.141 315.286,257.808 316.5,255.5 Z"/></g>
<g><path style="opacity:0.72" fill="#ed3a5f" d="M 178.5,261.5 C 184.501,261.741 185.834,264.241 182.5,269C 176.202,269.495 174.868,266.995 178.5,261.5 Z"/></g>
<g><path style="opacity:0.766" fill="#ed3a5f" d="M 316.5,269.5 C 322.235,268.821 323.902,271.155 321.5,276.5C 319.833,277.833 318.167,277.833 316.5,276.5C 315.286,274.141 315.286,271.808 316.5,269.5 Z"/></g>
<g><path style="opacity:0.734" fill="#ed3a5f" d="M 181.5,275.5 C 187.488,275.664 188.821,278.164 185.5,283C 179.403,283.147 178.07,280.647 181.5,275.5 Z"/></g>
<g><path style="opacity:0.766" fill="#ed3a5f" d="M 316.5,283.5 C 322.235,282.821 323.902,285.155 321.5,290.5C 319.833,291.833 318.167,291.833 316.5,290.5C 315.286,288.141 315.286,285.808 316.5,283.5 Z"/></g>
<g><path style="opacity:0.735" fill="#ed3a5f" d="M 290.5,286.5 C 296.313,286.062 297.98,288.562 295.5,294C 289.593,294.746 287.927,292.246 290.5,286.5 Z"/></g>
<g><path style="opacity:0.735" fill="#ed3a5f" d="M 186.5,288.5 C 192.704,288.314 194.037,290.814 190.5,296C 184.812,295.79 183.479,293.29 186.5,288.5 Z"/></g>
<g><path style="opacity:0.722" fill="#ed3a5f" d="M 282.5,297.5 C 288.488,297.664 289.821,300.164 286.5,305C 280.412,305.084 279.079,302.584 282.5,297.5 Z"/></g>
<g><path style="opacity:0.739" fill="#ed3a5f" d="M 316.5,297.5 C 322.313,297.062 323.98,299.562 321.5,305C 315.593,305.746 313.927,303.246 316.5,297.5 Z"/></g>
<g><path style="opacity:0.735" fill="#ed3a5f" d="M 195.5,299.5 C 200.262,300.092 201.596,302.592 199.5,307C 192.17,307.486 190.837,304.986 195.5,299.5 Z"/></g>
<g><path style="opacity:0.708" fill="#ed3a5f" d="M 270.5,306.5 C 277.004,306.138 278.671,308.638 275.5,314C 269.785,314.401 268.119,311.901 270.5,306.5 Z"/></g>
<g><path style="opacity:0.72" fill="#ed3a5f" d="M 205.5,308.5 C 211.501,308.741 212.834,311.241 209.5,316C 203.202,316.495 201.868,313.995 205.5,308.5 Z"/></g>
<g><path style="opacity:0.738" fill="#ed3a5f" d="M 316.5,311.5 C 322.313,311.062 323.98,313.562 321.5,319C 315.593,319.746 313.927,317.246 316.5,311.5 Z"/></g>
<g><path style="opacity:0.734" fill="#ed3a5f" d="M 259.5,313.5 C 265.488,313.664 266.821,316.164 263.5,321C 257.403,321.147 256.07,318.647 259.5,313.5 Z"/></g>
<g><path style="opacity:0.708" fill="#ed3a5f" d="M 217.5,314.5 C 223.62,314.259 225.287,316.759 222.5,322C 216.593,322.746 214.927,320.246 217.5,314.5 Z"/></g>
<g><path style="opacity:0.763" fill="#ed3a5f" d="M 246.5,316.5 C 251.266,317.158 252.6,319.658 250.5,324C 246.872,325.316 244.539,324.149 243.5,320.5C 244.172,318.84 245.172,317.507 246.5,316.5 Z"/></g>
<g><path style="opacity:0.781" fill="#ed3a5f" d="M 231.5,317.5 C 237.158,316.679 238.825,318.846 236.5,324C 230.013,325.158 228.347,322.991 231.5,317.5 Z"/></g>
</svg>
