<?xml version="1.0" encoding="UTF-8"?>
<!DOCTYPE svg PUBLIC "-//W3C//DTD SVG 1.1//EN" "http://www.w3.org/Graphics/SVG/1.1/DTD/svg11.dtd">
<svg xmlns="http://www.w3.org/2000/svg" version="1.1" width="500px" height="500px" style="shape-rendering:geometricPrecision; text-rendering:geometricPrecision; image-rendering:optimizeQuality; fill-rule:evenodd; clip-rule:evenodd" xmlns:xlink="http://www.w3.org/1999/xlink">
<g><path style="opacity:0.918" fill="#a6a6a6" d="M 163.5,-0.5 C 168.5,-0.5 173.5,-0.5 178.5,-0.5C 183.5,0.833333 188.5,0.833333 193.5,-0.5C 195.833,-0.5 198.167,-0.5 200.5,-0.5C 199.5,0.166667 198.5,0.833333 197.5,1.5C 131.5,1.5 65.5,1.5 -0.5,1.5C -0.5,1.16667 -0.5,0.833333 -0.5,0.5C 54.3359,0.832303 109.003,0.49897 163.5,-0.5 Z"/></g>
<g><path style="opacity:1" fill="#f7f7f7" d="M 204.5,-0.5 C 213.5,-0.5 222.5,-0.5 231.5,-0.5C 233.515,0.923808 235.848,1.59047 238.5,1.5C 259.169,1.66662 279.836,1.49996 300.5,1C 301.416,0.721579 302.082,0.221579 302.5,-0.5C 354.5,-0.5 406.5,-0.5 458.5,-0.5C 458.611,0.117425 458.944,0.617425 459.5,1C 472.829,1.4999 486.163,1.66656 499.5,1.5C 499.5,167.5 499.5,333.5 499.5,499.5C 332.833,499.5 166.167,499.5 -0.5,499.5C -0.5,333.5 -0.5,167.5 -0.5,1.5C 65.5,1.5 131.5,1.5 197.5,1.5C 200.152,1.59047 202.485,0.923808 204.5,-0.5 Z M 345.5,154.5 C 379.391,150.515 407.891,160.848 431,185.5C 447.027,207.28 452.861,231.613 448.5,258.5C 402.833,258.5 357.167,258.5 311.5,258.5C 312.368,291.204 329.034,307.371 361.5,307C 380.657,305.66 392.657,295.827 397.5,277.5C 414.17,277.333 430.837,277.5 447.5,278C 436.271,317.214 410.271,339.214 369.5,344C 336.236,347.473 308.403,336.973 286,312.5C 272.25,293.863 265.417,272.863 265.5,249.5C 265.425,220.199 275.758,195.365 296.5,175C 311.028,163.733 327.361,156.899 345.5,154.5 Z M 51.5,156.5 C 67.1667,156.5 82.8333,156.5 98.5,156.5C 98.3333,193.835 98.5,231.168 99,268.5C 102.375,292.862 116.375,305.528 141,306.5C 170.25,304.581 185.25,288.915 186,259.5C 186.5,225.168 186.667,190.835 186.5,156.5C 201.833,156.5 217.167,156.5 232.5,156.5C 232.5,218.5 232.5,280.5 232.5,342.5C 217.167,342.5 201.833,342.5 186.5,342.5C 186.5,330.833 186.5,319.167 186.5,307.5C 185.325,307.281 184.325,307.614 183.5,308.5C 172.584,329.477 155.251,341.31 131.5,344C 93.5939,347.315 68.4272,331.148 56,295.5C 54.7437,290.552 53.7437,285.552 53,280.5C 51.585,239.185 51.085,197.851 51.5,156.5 Z M 208.5,166.5 C 216.1,166.213 217.767,169.046 213.5,175C 214.448,175.483 215.448,175.649 216.5,175.5C 216.5,176.5 216.5,177.5 216.5,178.5C 213.5,178.5 210.5,178.5 207.5,178.5C 207.351,177.448 207.517,176.448 208,175.5C 210.295,173.92 211.628,171.92 212,169.5C 210.89,171.037 209.39,171.703 207.5,171.5C 207.629,169.784 207.962,168.117 208.5,166.5 Z M 69.5,174.5 C 71.1667,174.5 72.8333,174.5 74.5,174.5C 74.5,178.5 74.5,182.5 74.5,186.5C 73.1667,186.5 71.8333,186.5 70.5,186.5C 70.6646,183.482 70.498,180.482 70,177.5C 68.2716,176.648 68.105,175.648 69.5,174.5 Z M 422.5,216.5 C 423.833,216.5 425.167,216.5 426.5,216.5C 427.005,220.6 427.005,224.6 426.5,228.5C 425.5,228.5 424.5,228.5 423.5,228.5C 423.5,227.5 423.5,226.5 423.5,225.5C 421.396,225.799 419.396,225.466 417.5,224.5C 419.193,221.816 420.86,219.149 422.5,216.5 Z M 280.5,247.5 C 280.5,246.5 280.5,245.5 280.5,244.5C 277.795,244.62 277.128,243.62 278.5,241.5C 280.833,240.167 283.167,240.167 285.5,241.5C 285.378,244.447 285.544,247.447 286,250.5C 284.192,252.396 282.025,252.896 279.5,252C 277.963,250.89 277.297,249.39 277.5,247.5C 278.5,247.5 279.5,247.5 280.5,247.5 Z"/></g>
<g><path style="opacity:0.939" fill="#a7a7a7" d="M 236.5,-0.5 C 239.5,-0.5 242.5,-0.5 245.5,-0.5C 263.167,0.833333 280.833,0.833333 298.5,-0.5C 299.833,-0.5 301.167,-0.5 302.5,-0.5C 302.082,0.221579 301.416,0.721579 300.5,1C 279.836,1.49996 259.169,1.66662 238.5,1.5C 237.833,0.833333 237.167,0.166667 236.5,-0.5 Z"/></g>
<g><path style="opacity:0.975" fill="#a7a7a7" d="M 458.5,-0.5 C 459.833,-0.5 461.167,-0.5 462.5,-0.5C 474.655,0.495218 486.989,0.828551 499.5,0.5C 499.5,0.833333 499.5,1.16667 499.5,1.5C 486.163,1.66656 472.829,1.4999 459.5,1C 458.944,0.617425 458.611,0.117425 458.5,-0.5 Z"/></g>
<g><path style="opacity:1" fill="#cccccc" d="M 200.5,-0.5 C 201.833,-0.5 203.167,-0.5 204.5,-0.5C 202.485,0.923808 200.152,1.59047 197.5,1.5C 198.5,0.833333 199.5,0.166667 200.5,-0.5 Z"/></g>
<g><path style="opacity:1" fill="#d5d5d5" d="M 231.5,-0.5 C 233.167,-0.5 234.833,-0.5 236.5,-0.5C 237.167,0.166667 237.833,0.833333 238.5,1.5C 235.848,1.59047 233.515,0.923808 231.5,-0.5 Z"/></g>
<g><path style="opacity:0.905" fill="#a5a6a5" d="M 344.5,153.5 C 379.109,149.092 408.276,159.426 432,184.5C 448.353,206.92 454.187,231.92 449.5,259.5C 403.833,259.5 358.167,259.5 312.5,259.5C 313.551,288.382 328.385,304.048 357,306.5C 370.791,306.27 382.124,300.937 391,290.5C 393.917,286.249 395.75,281.582 396.5,276.5C 413.833,276.5 431.167,276.5 448.5,276.5C 440.874,312.293 419.207,334.46 383.5,343C 355.574,348.964 329.24,344.964 304.5,331C 277.206,310.91 263.873,283.743 264.5,249.5C 264.215,219.83 274.548,194.663 295.5,174C 310.028,162.733 326.361,155.899 344.5,153.5 Z M 345.5,154.5 C 327.361,156.899 311.028,163.733 296.5,175C 275.758,195.365 265.425,220.199 265.5,249.5C 265.417,272.863 272.25,293.863 286,312.5C 308.403,336.973 336.236,347.473 369.5,344C 410.271,339.214 436.271,317.214 447.5,278C 430.837,277.5 414.17,277.333 397.5,277.5C 392.657,295.827 380.657,305.66 361.5,307C 329.034,307.371 312.368,291.204 311.5,258.5C 357.167,258.5 402.833,258.5 448.5,258.5C 452.861,231.613 447.027,207.28 431,185.5C 407.891,160.848 379.391,150.515 345.5,154.5 Z M 422.5,216.5 C 420.86,219.149 419.193,221.816 417.5,224.5C 419.396,225.466 421.396,225.799 423.5,225.5C 423.5,226.5 423.5,227.5 423.5,228.5C 424.5,228.5 425.5,228.5 426.5,228.5C 427.005,224.6 427.005,220.6 426.5,216.5C 425.167,216.5 423.833,216.5 422.5,216.5 Z M 280.5,247.5 C 279.5,247.5 278.5,247.5 277.5,247.5C 277.297,249.39 277.963,250.89 279.5,252C 282.025,252.896 284.192,252.396 286,250.5C 285.544,247.447 285.378,244.447 285.5,241.5C 283.167,240.167 280.833,240.167 278.5,241.5C 277.128,243.62 277.795,244.62 280.5,244.5C 280.5,245.5 280.5,246.5 280.5,247.5 Z"/></g>
<g><path style="opacity:0.955" fill="#a5a6a5" d="M 50.5,155.5 C 66.8333,155.5 83.1667,155.5 99.5,155.5C 99.3333,192.835 99.5,230.168 100,267.5C 103.103,291.553 116.77,304.22 141,305.5C 169.722,303.108 184.389,287.441 185,258.5C 185.5,224.168 185.667,189.835 185.5,155.5C 201.5,155.5 217.5,155.5 233.5,155.5C 233.5,218.167 233.5,280.833 233.5,343.5C 217.5,343.5 201.5,343.5 185.5,343.5C 185.667,331.829 185.5,320.162 185,308.5C 174.148,329.989 156.648,342.155 132.5,345C 96.6065,349.316 71.4398,335.149 57,302.5C 54.5701,295.684 52.9034,288.684 52,281.5C 50.5835,239.518 50.0835,197.518 50.5,155.5 Z M 51.5,156.5 C 51.085,197.851 51.585,239.185 53,280.5C 53.7437,285.552 54.7437,290.552 56,295.5C 68.4272,331.148 93.5939,347.315 131.5,344C 155.251,341.31 172.584,329.477 183.5,308.5C 184.325,307.614 185.325,307.281 186.5,307.5C 186.5,319.167 186.5,330.833 186.5,342.5C 201.833,342.5 217.167,342.5 232.5,342.5C 232.5,280.5 232.5,218.5 232.5,156.5C 217.167,156.5 201.833,156.5 186.5,156.5C 186.667,190.835 186.5,225.168 186,259.5C 185.25,288.915 170.25,304.581 141,306.5C 116.375,305.528 102.375,292.862 99,268.5C 98.5,231.168 98.3333,193.835 98.5,156.5C 82.8333,156.5 67.1667,156.5 51.5,156.5 Z M 208.5,166.5 C 207.962,168.117 207.629,169.784 207.5,171.5C 209.39,171.703 210.89,171.037 212,169.5C 211.628,171.92 210.295,173.92 208,175.5C 207.517,176.448 207.351,177.448 207.5,178.5C 210.5,178.5 213.5,178.5 216.5,178.5C 216.5,177.5 216.5,176.5 216.5,175.5C 215.448,175.649 214.448,175.483 213.5,175C 217.767,169.046 216.1,166.213 208.5,166.5 Z M 69.5,174.5 C 68.105,175.648 68.2716,176.648 70,177.5C 70.498,180.482 70.6646,183.482 70.5,186.5C 71.8333,186.5 73.1667,186.5 74.5,186.5C 74.5,182.5 74.5,178.5 74.5,174.5C 72.8333,174.5 71.1667,174.5 69.5,174.5 Z"/></g>
<g><path style="opacity:0.89" fill="#ed3a5f" d="M 206.5,161.5 C 218.99,159.823 224.157,165.156 222,177.5C 221.215,179.286 220.049,180.786 218.5,182C 205.074,186.238 199.241,181.404 201,167.5C 202.36,164.977 204.193,162.977 206.5,161.5 Z M 208.5,166.5 C 207.962,168.117 207.629,169.784 207.5,171.5C 209.39,171.703 210.89,171.037 212,169.5C 211.628,171.92 210.295,173.92 208,175.5C 207.517,176.448 207.351,177.448 207.5,178.5C 210.5,178.5 213.5,178.5 216.5,178.5C 216.5,177.5 216.5,176.5 216.5,175.5C 215.448,175.649 214.448,175.483 213.5,175C 217.767,169.046 216.1,166.213 208.5,166.5 Z"/></g>
<g><path style="opacity:0.899" fill="#ed3a5f" d="M 67.5,168.5 C 79.9901,166.823 85.1568,172.156 83,184.5C 82.2155,186.286 81.0488,187.786 79.5,189C 66.0744,193.238 60.2411,188.404 62,174.5C 63.3597,171.977 65.193,169.977 67.5,168.5 Z M 69.5,174.5 C 68.105,175.648 68.2716,176.648 70,177.5C 70.498,180.482 70.6646,183.482 70.5,186.5C 71.8333,186.5 73.1667,186.5 74.5,186.5C 74.5,182.5 74.5,178.5 74.5,174.5C 72.8333,174.5 71.1667,174.5 69.5,174.5 Z"/></g>
<g><path style="opacity:0.834" fill="#ed3a5f" d="M 353.5,172.5 C 359.158,171.679 360.825,173.846 358.5,179C 352.508,179.811 350.841,177.644 353.5,172.5 Z"/></g>
<g><path style="opacity:0.766" fill="#ed3a5f" d="M 367.5,172.5 C 373.704,172.314 375.037,174.814 371.5,180C 368.238,180.695 366.238,179.362 365.5,176C 366.305,174.887 366.972,173.721 367.5,172.5 Z"/></g>
<g><path style="opacity:0.752" fill="#ed3a5f" d="M 340.5,173.5 C 345.999,174 347.332,176.5 344.5,181C 338.202,181.495 336.868,178.995 340.5,173.5 Z"/></g>
<g><path style="opacity:0.71" fill="#ed3a5f" d="M 381.5,174.5 C 386.75,174.236 388.416,176.569 386.5,181.5C 379.789,182.788 378.122,180.454 381.5,174.5 Z"/></g>
<g><path style="opacity:0.71" fill="#ed3a5f" d="M 325.5,177.5 C 331.113,176.079 333.28,178.079 332,183.5C 329.952,185.787 327.785,185.954 325.5,184C 324.232,181.837 324.232,179.67 325.5,177.5 Z"/></g>
<g><path style="opacity:0.697" fill="#ed3a5f" d="M 394.5,179.5 C 400.235,178.821 401.902,181.155 399.5,186.5C 392.789,187.788 391.122,185.454 394.5,179.5 Z"/></g>
<g><path style="opacity:0.709" fill="#ed3a5f" d="M 313.5,181.5 C 319.488,181.664 320.821,184.164 317.5,189C 311.202,189.495 309.868,186.995 313.5,181.5 Z"/></g>
<g><path style="opacity:0.853" fill="#ed3a5f" d="M 209.5,187.5 C 215.158,186.679 216.825,188.846 214.5,194C 208.741,195.139 207.074,192.972 209.5,187.5 Z"/></g>
<g><path style="opacity:0.723" fill="#ed3a5f" d="M 299.5,187.5 C 304.672,186.565 306.839,188.565 306,193.5C 303.952,195.787 301.785,195.954 299.5,194C 298.232,191.837 298.232,189.67 299.5,187.5 Z"/></g>
<g><path style="opacity:0.71" fill="#ed3a5f" d="M 405.5,187.5 C 411.113,186.079 413.28,188.079 412,193.5C 409.952,195.787 407.785,195.954 405.5,194C 404.232,191.837 404.232,189.67 405.5,187.5 Z"/></g>
<g><path style="opacity:0.92" fill="#a5a6a5" d="M 355.5,190.5 C 386.958,190.624 402.624,206.291 402.5,237.5C 372.167,237.5 341.833,237.5 311.5,237.5C 313.204,209.469 327.87,193.802 355.5,190.5 Z"/></g>
<g><path style="opacity:1" fill="#f7f8f7" d="M 356.5,191.5 C 385.952,192.285 400.952,207.285 401.5,236.5C 371.826,236.833 342.159,236.5 312.5,235.5C 315.6,209.067 330.267,194.4 356.5,191.5 Z"/></g>
<g><path style="opacity:0.851" fill="#ed3a5f" d="M 69.5,194.5 C 75.1581,193.679 76.8248,195.846 74.5,201C 68.741,202.139 67.0744,199.972 69.5,194.5 Z"/></g>
<g><path style="opacity:0.765" fill="#ed3a5f" d="M 415.5,197.5 C 421.235,196.821 422.902,199.155 420.5,204.5C 418.833,205.833 417.167,205.833 415.5,204.5C 414.286,202.141 414.286,199.808 415.5,197.5 Z"/></g>
<g><path style="opacity:0.723" fill="#ed3a5f" d="M 292.5,198.5 C 298.488,198.664 299.821,201.164 296.5,206C 290.413,206.205 289.079,203.705 292.5,198.5 Z"/></g>
<g><path style="opacity:0.835" fill="#ed3a5f" d="M 209.5,201.5 C 214.675,200.507 216.509,202.507 215,207.5C 213,210.167 211,210.167 209,207.5C 208.322,205.402 208.489,203.402 209.5,201.5 Z"/></g>
<g><path style="opacity:0.831" fill="#ed3a5f" d="M 71.5,207.5 C 75.3958,208.78 76.3958,211.28 74.5,215C 69.3333,216.5 67.5,214.667 69,209.5C 69.9947,208.934 70.828,208.267 71.5,207.5 Z"/></g>
<g><path style="opacity:0.737" fill="#ed3a5f" d="M 286.5,211.5 C 292.488,211.664 293.821,214.164 290.5,219C 284.403,219.147 283.07,216.647 286.5,211.5 Z"/></g>
<g><path style="opacity:0.873" fill="#ed3a5f" d="M 417.5,212.5 C 431.098,209.599 436.598,214.932 434,228.5C 433.215,230.286 432.049,231.786 430.5,233C 419.131,237.32 412.798,233.486 411.5,221.5C 412.286,217.567 414.286,214.567 417.5,212.5 Z M 422.5,216.5 C 420.86,219.149 419.193,221.816 417.5,224.5C 419.396,225.466 421.396,225.799 423.5,225.5C 423.5,226.5 423.5,227.5 423.5,228.5C 424.5,228.5 425.5,228.5 426.5,228.5C 427.005,224.6 427.005,220.6 426.5,216.5C 425.167,216.5 423.833,216.5 422.5,216.5 Z"/></g>
<g><path style="opacity:0.798" fill="#ed3a5f" d="M 209.5,215.5 C 215.704,215.314 217.037,217.814 213.5,223C 208.632,222.711 207.299,220.211 209.5,215.5 Z"/></g>
<g><path style="opacity:0.831" fill="#ed3a5f" d="M 71.5,221.5 C 75.3958,222.78 76.3958,225.28 74.5,229C 69.3333,230.5 67.5,228.667 69,223.5C 69.9947,222.934 70.828,222.267 71.5,221.5 Z"/></g>
<g><path style="opacity:0.766" fill="#ed3a5f" d="M 209.5,229.5 C 215.235,228.821 216.902,231.155 214.5,236.5C 212.833,237.833 211.167,237.833 209.5,236.5C 208.286,234.141 208.286,231.808 209.5,229.5 Z"/></g>
<g><path style="opacity:0.882" fill="#ed3a5f" d="M 277.5,234.5 C 290.512,232.178 295.679,237.512 293,250.5C 292.215,252.286 291.049,253.786 289.5,255C 276.074,259.238 270.241,254.404 272,240.5C 273.36,237.977 275.193,235.977 277.5,234.5 Z M 280.5,247.5 C 279.5,247.5 278.5,247.5 277.5,247.5C 277.297,249.39 277.963,250.89 279.5,252C 282.025,252.896 284.192,252.396 286,250.5C 285.544,247.447 285.378,244.447 285.5,241.5C 283.167,240.167 280.833,240.167 278.5,241.5C 277.128,243.62 277.795,244.62 280.5,244.5C 280.5,245.5 280.5,246.5 280.5,247.5 Z"/></g>
<g><path style="opacity:0.782" fill="#ed3a5f" d="M 70.5,235.5 C 71.9305,235.421 73.2638,235.754 74.5,236.5C 76.8896,242.608 75.0563,244.608 69,242.5C 68.1668,239.829 68.6668,237.496 70.5,235.5 Z"/></g>
<g><path style="opacity:0.768" fill="#ed3a5f" d="M 209.5,243.5 C 215.235,242.821 216.902,245.155 214.5,250.5C 212.833,251.833 211.167,251.833 209.5,250.5C 208.286,248.141 208.286,245.808 209.5,243.5 Z"/></g>
<g><path style="opacity:0.853" fill="#ed3a5f" d="M 298.5,244.5 C 304.158,243.679 305.825,245.846 303.5,251C 297.741,252.139 296.074,249.972 298.5,244.5 Z"/></g>
<g><path style="opacity:0.836" fill="#ed3a5f" d="M 312.5,244.5 C 318.317,244.03 319.984,246.196 317.5,251C 311.741,252.139 310.074,249.972 312.5,244.5 Z"/></g>
<g><path style="opacity:0.769" fill="#ed3a5f" d="M 326.5,244.5 C 331.914,243.565 333.914,245.565 332.5,250.5C 326.129,252.796 324.129,250.796 326.5,244.5 Z"/></g>
<g><path style="opacity:0.77" fill="#ed3a5f" d="M 340.5,244.5 C 345.914,243.565 347.914,245.565 346.5,250.5C 340.129,252.796 338.129,250.796 340.5,244.5 Z"/></g>
<g><path style="opacity:0.769" fill="#ed3a5f" d="M 354.5,244.5 C 359.914,243.565 361.914,245.565 360.5,250.5C 354.129,252.796 352.129,250.796 354.5,244.5 Z"/></g>
<g><path style="opacity:0.768" fill="#ed3a5f" d="M 368.5,244.5 C 373.914,243.565 375.914,245.565 374.5,250.5C 368.129,252.796 366.129,250.796 368.5,244.5 Z"/></g>
<g><path style="opacity:0.768" fill="#ed3a5f" d="M 382.5,244.5 C 387.914,243.565 389.914,245.565 388.5,250.5C 382.129,252.796 380.129,250.796 382.5,244.5 Z"/></g>
<g><path style="opacity:0.752" fill="#ed3a5f" d="M 396.5,244.5 C 401.672,243.565 403.839,245.565 403,250.5C 396.423,253.088 394.256,251.088 396.5,244.5 Z"/></g>
<g><path style="opacity:0.736" fill="#ed3a5f" d="M 410.5,244.5 C 416.113,243.079 418.28,245.079 417,250.5C 410.423,253.088 408.256,251.088 410.5,244.5 Z"/></g>
<g><path style="opacity:0.738" fill="#ed3a5f" d="M 424.5,244.5 C 430.113,243.079 432.28,245.079 431,250.5C 424.423,253.088 422.256,251.088 424.5,244.5 Z"/></g>
<g><path style="opacity:1" fill="#ed3a5f" d="M 280.5,247.5 C 282.028,247.517 282.528,248.184 282,249.5C 281.283,248.956 280.783,248.289 280.5,247.5 Z"/></g>
<g><path style="opacity:0.761" fill="#ed3a5f" d="M 70.5,249.5 C 71.9305,249.421 73.2638,249.754 74.5,250.5C 76.8896,256.608 75.0563,258.608 69,256.5C 68.185,253.802 68.685,251.468 70.5,249.5 Z"/></g>
<g><path style="opacity:0.769" fill="#ed3a5f" d="M 209.5,257.5 C 215.235,256.821 216.902,259.155 214.5,264.5C 212.833,265.833 211.167,265.833 209.5,264.5C 208.286,262.141 208.286,259.808 209.5,257.5 Z"/></g>
<g><path style="opacity:0.72" fill="#ed3a5f" d="M 71.5,263.5 C 77.5006,263.741 78.8339,266.241 75.5,271C 69.2016,271.495 67.8682,268.995 71.5,263.5 Z"/></g>
<g><path style="opacity:0.721" fill="#ed3a5f" d="M 285.5,266.5 C 291.488,266.664 292.821,269.164 289.5,274C 283.412,274.084 282.079,271.584 285.5,266.5 Z"/></g>
<g><path style="opacity:0.766" fill="#ed3a5f" d="M 209.5,271.5 C 215.235,270.821 216.902,273.155 214.5,278.5C 212.833,279.833 211.167,279.833 209.5,278.5C 208.286,276.141 208.286,273.808 209.5,271.5 Z"/></g>
<g><path style="opacity:0.734" fill="#ed3a5f" d="M 74.5,277.5 C 80.4877,277.664 81.821,280.164 78.5,285C 72.4034,285.147 71.0701,282.647 74.5,277.5 Z"/></g>
<g><path style="opacity:0.765" fill="#ed3a5f" d="M 290.5,279.5 C 296.235,278.821 297.902,281.155 295.5,286.5C 293.833,287.833 292.167,287.833 290.5,286.5C 289.286,284.141 289.286,281.808 290.5,279.5 Z"/></g>
<g><path style="opacity:0.766" fill="#ed3a5f" d="M 209.5,285.5 C 215.235,284.821 216.902,287.155 214.5,292.5C 212.833,293.833 211.167,293.833 209.5,292.5C 208.286,290.141 208.286,287.808 209.5,285.5 Z"/></g>
<g><path style="opacity:0.735" fill="#ed3a5f" d="M 183.5,288.5 C 189.313,288.062 190.98,290.562 188.5,296C 182.593,296.746 180.927,294.246 183.5,288.5 Z"/></g>
<g><path style="opacity:0.735" fill="#ed3a5f" d="M 79.5,290.5 C 85.704,290.314 87.0374,292.814 83.5,298C 77.8121,297.79 76.4788,295.29 79.5,290.5 Z"/></g>
<g><path style="opacity:0.71" fill="#ed3a5f" d="M 297.5,291.5 C 303.113,290.079 305.28,292.079 304,297.5C 301.952,299.787 299.785,299.954 297.5,298C 296.232,295.837 296.232,293.67 297.5,291.5 Z"/></g>
<g><path style="opacity:0.737" fill="#ed3a5f" d="M 408.5,297.5 C 414.488,297.664 415.821,300.164 412.5,305C 406.403,305.147 405.07,302.647 408.5,297.5 Z"/></g>
<g><path style="opacity:0.722" fill="#ed3a5f" d="M 175.5,299.5 C 181.488,299.664 182.821,302.164 179.5,307C 173.412,307.084 172.079,304.584 175.5,299.5 Z"/></g>
<g><path style="opacity:0.739" fill="#ed3a5f" d="M 209.5,299.5 C 215.313,299.062 216.98,301.562 214.5,307C 208.593,307.746 206.927,305.246 209.5,299.5 Z"/></g>
<g><path style="opacity:0.735" fill="#ed3a5f" d="M 88.5,301.5 C 93.2624,302.092 94.5957,304.592 92.5,309C 85.17,309.486 83.8367,306.986 88.5,301.5 Z"/></g>
<g><path style="opacity:0.737" fill="#ed3a5f" d="M 307.5,301.5 C 313.113,300.079 315.28,302.079 314,307.5C 307.423,310.088 305.256,308.088 307.5,301.5 Z"/></g>
<g><path style="opacity:0.708" fill="#ed3a5f" d="M 163.5,308.5 C 170.004,308.138 171.671,310.638 168.5,316C 162.785,316.401 161.119,313.901 163.5,308.5 Z"/></g>
<g><path style="opacity:0.767" fill="#ed3a5f" d="M 320.5,308.5 C 325.262,309.092 326.596,311.592 324.5,316C 321.153,317.206 318.82,316.206 317.5,313C 318.222,311.249 319.222,309.749 320.5,308.5 Z"/></g>
<g><path style="opacity:0.767" fill="#ed3a5f" d="M 398.5,308.5 C 403.914,307.565 405.914,309.565 404.5,314.5C 398.129,316.796 396.129,314.796 398.5,308.5 Z"/></g>
<g><path style="opacity:0.72" fill="#ed3a5f" d="M 98.5,310.5 C 104.501,310.741 105.834,313.241 102.5,318C 96.2016,318.495 94.8682,315.995 98.5,310.5 Z"/></g>
<g><path style="opacity:0.738" fill="#ed3a5f" d="M 209.5,313.5 C 215.313,313.062 216.98,315.562 214.5,321C 208.593,321.746 206.927,319.246 209.5,313.5 Z"/></g>
<g><path style="opacity:0.71" fill="#ed3a5f" d="M 332.5,314.5 C 337.984,314.481 339.65,316.981 337.5,322C 330.745,322.756 329.078,320.256 332.5,314.5 Z"/></g>
<g><path style="opacity:0.734" fill="#ed3a5f" d="M 152.5,315.5 C 158.488,315.664 159.821,318.164 156.5,323C 150.403,323.147 149.07,320.647 152.5,315.5 Z"/></g>
<g><path style="opacity:0.723" fill="#ed3a5f" d="M 387.5,315.5 C 393.235,314.821 394.902,317.155 392.5,322.5C 388.934,324.359 386.6,323.359 385.5,319.5C 386.18,318.14 386.847,316.807 387.5,315.5 Z"/></g>
<g><path style="opacity:0.708" fill="#ed3a5f" d="M 110.5,316.5 C 116.62,316.259 118.287,318.759 115.5,324C 109.593,324.746 107.927,322.246 110.5,316.5 Z"/></g>
<g><path style="opacity:0.737" fill="#ed3a5f" d="M 347.5,317.5 C 351.708,318.253 353.041,320.586 351.5,324.5C 345.976,326.914 343.809,325.248 345,319.5C 345.995,318.934 346.828,318.267 347.5,317.5 Z"/></g>
<g><path style="opacity:0.763" fill="#ed3a5f" d="M 139.5,318.5 C 144.266,319.158 145.6,321.658 143.5,326C 139.872,327.316 137.539,326.149 136.5,322.5C 137.172,320.84 138.172,319.507 139.5,318.5 Z"/></g>
<g><path style="opacity:0.752" fill="#ed3a5f" d="M 373.5,318.5 C 378.914,317.565 380.914,319.565 379.5,324.5C 373.432,327.096 371.432,325.096 373.5,318.5 Z"/></g>
<g><path style="opacity:0.781" fill="#ed3a5f" d="M 124.5,319.5 C 130.158,318.679 131.825,320.846 129.5,326C 123.013,327.158 121.347,324.991 124.5,319.5 Z"/></g>
<g><path style="opacity:0.765" fill="#ed3a5f" d="M 359.5,319.5 C 364.914,318.565 366.914,320.565 365.5,325.5C 359.129,327.796 357.129,325.796 359.5,319.5 Z"/></g>
</svg>
