<?xml version="1.0" encoding="UTF-8"?>
<!DOCTYPE svg PUBLIC "-//W3C//DTD SVG 1.1//EN" "http://www.w3.org/Graphics/SVG/1.1/DTD/svg11.dtd">
<svg xmlns="http://www.w3.org/2000/svg" version="1.1" width="500px" height="500px" style="shape-rendering:geometricPrecision; text-rendering:geometricPrecision; image-rendering:optimizeQuality; fill-rule:evenodd; clip-rule:evenodd" xmlns:xlink="http://www.w3.org/1999/xlink">
<g><path style="opacity:0.918" fill="#a6a6a6" d="M 163.5,-0.5 C 168.5,-0.5 173.5,-0.5 178.5,-0.5C 183.5,0.833333 188.5,0.833333 193.5,-0.5C 195.833,-0.5 198.167,-0.5 200.5,-0.5C 199.5,0.166667 198.5,0.833333 197.5,1.5C 131.5,1.5 65.5,1.5 -0.5,1.5C -0.5,1.16667 -0.5,0.833333 -0.5,0.5C 54.3359,0.832303 109.003,0.49897 163.5,-0.5 Z"/></g>
<g><path style="opacity:1" fill="#f7f7f7" d="M 204.5,-0.5 C 213.5,-0.5 222.5,-0.5 231.5,-0.5C 233.515,0.923808 235.848,1.59047 238.5,1.5C 259.169,1.66662 279.836,1.49996 300.5,1C 301.416,0.721579 302.082,0.221579 302.5,-0.5C 354.5,-0.5 406.5,-0.5 458.5,-0.5C 458.611,0.117425 458.944,0.617425 459.5,1C 472.829,1.4999 486.163,1.66656 499.5,1.5C 499.5,167.5 499.5,333.5 499.5,499.5C 332.833,499.5 166.167,499.5 -0.5,499.5C -0.5,333.5 -0.5,167.5 -0.5,1.5C 65.5,1.5 131.5,1.5 197.5,1.5C 200.152,1.59047 202.485,0.923808 204.5,-0.5 Z M 153.5,156.5 C 170.18,156.167 186.847,156.501 203.5,157.5C 219.413,202.655 234.747,247.988 249.5,293.5C 250.5,293.5 251.5,293.5 252.5,293.5C 267.359,248.091 282.525,202.758 298,157.5C 314.423,156.508 330.923,156.175 347.5,156.5C 325.237,218.285 302.571,279.952 279.5,341.5C 260.269,342.825 241.102,342.825 222,341.5C 199.153,279.812 176.32,218.146 153.5,156.5 Z M 180.5,167.5 C 182.167,167.5 183.833,167.5 185.5,167.5C 185.5,171.5 185.5,175.5 185.5,179.5C 184.167,179.5 182.833,179.5 181.5,179.5C 181.665,176.482 181.498,173.482 181,170.5C 179.272,169.648 179.105,168.648 180.5,167.5 Z M 246.5,317.5 C 254.1,317.213 255.767,320.046 251.5,326C 252.448,326.483 253.448,326.649 254.5,326.5C 254.5,327.5 254.5,328.5 254.5,329.5C 251.5,329.5 248.5,329.5 245.5,329.5C 245.351,328.448 245.517,327.448 246,326.5C 248.295,324.92 249.628,322.92 250,320.5C 248.89,322.037 247.39,322.703 245.5,322.5C 245.629,320.784 245.962,319.117 246.5,317.5 Z"/></g>
<g><path style="opacity:0.939" fill="#a7a7a7" d="M 236.5,-0.5 C 239.5,-0.5 242.5,-0.5 245.5,-0.5C 263.167,0.833333 280.833,0.833333 298.5,-0.5C 299.833,-0.5 301.167,-0.5 302.5,-0.5C 302.082,0.221579 301.416,0.721579 300.5,1C 279.836,1.49996 259.169,1.66662 238.5,1.5C 237.833,0.833333 237.167,0.166667 236.5,-0.5 Z"/></g>
<g><path style="opacity:0.975" fill="#a7a7a7" d="M 458.5,-0.5 C 459.833,-0.5 461.167,-0.5 462.5,-0.5C 474.655,0.495218 486.989,0.828551 499.5,0.5C 499.5,0.833333 499.5,1.16667 499.5,1.5C 486.163,1.66656 472.829,1.4999 459.5,1C 458.944,0.617425 458.611,0.117425 458.5,-0.5 Z"/></g>
<g><path style="opacity:1" fill="#cccccc" d="M 200.5,-0.5 C 201.833,-0.5 203.167,-0.5 204.5,-0.5C 202.485,0.923808 200.152,1.59047 197.5,1.5C 198.5,0.833333 199.5,0.166667 200.5,-0.5 Z"/></g>
<g><path style="opacity:1" fill="#d5d5d5" d="M 231.5,-0.5 C 233.167,-0.5 234.833,-0.5 236.5,-0.5C 237.167,0.166667 237.833,0.833333 238.5,1.5C 235.848,1.59047 233.515,0.923808 231.5,-0.5 Z"/></g>
<g><path style="opacity:0.908" fill="#a5a6a5" d="M 152.5,155.5 C 169.846,155.167 187.179,155.5 204.5,156.5C 220.279,201.728 235.779,247.061 251,292.5C 266.333,247.167 281.667,201.833 297,156.5C 314.436,155.176 331.936,155.176 349.5,156.5C 326.5,218.5 303.5,280.5 280.5,342.5C 260.602,343.825 240.768,343.825 221,342.5C 197.58,280.337 174.746,218.003 152.5,155.5 Z M 153.5,156.5 C 176.32,218.146 199.153,279.812 222,341.5C 241.102,342.825 260.269,342.825 279.5,341.5C 302.571,279.952 325.237,218.285 347.5,156.5C 330.923,156.175 314.423,156.508 298,157.5C 282.525,202.758 267.359,248.091 252.5,293.5C 251.5,293.5 250.5,293.5 249.5,293.5C 234.747,247.988 219.413,202.655 203.5,157.5C 186.847,156.501 170.18,156.167 153.5,156.5 Z M 180.5,167.5 C 179.105,168.648 179.272,169.648 181,170.5C 181.498,173.482 181.665,176.482 181.5,179.5C 182.833,179.5 184.167,179.5 185.5,179.5C 185.5,175.5 185.5,171.5 185.5,167.5C 183.833,167.5 182.167,167.5 180.5,167.5 Z M 246.5,317.5 C 245.962,319.117 245.629,320.784 245.5,322.5C 247.39,322.703 248.89,322.037 250,320.5C 249.628,322.92 248.295,324.92 246,326.5C 245.517,327.448 245.351,328.448 245.5,329.5C 248.5,329.5 251.5,329.5 254.5,329.5C 254.5,328.5 254.5,327.5 254.5,326.5C 253.448,326.649 252.448,326.483 251.5,326C 255.767,320.046 254.1,317.213 246.5,317.5 Z"/></g>
<g><path style="opacity:0.899" fill="#ed3a5f" d="M 178.5,161.5 C 190.99,159.823 196.157,165.156 194,177.5C 193.215,179.286 192.049,180.786 190.5,182C 177.074,186.238 171.241,181.404 173,167.5C 174.36,164.977 176.193,162.977 178.5,161.5 Z M 180.5,167.5 C 179.105,168.648 179.272,169.648 181,170.5C 181.498,173.482 181.665,176.482 181.5,179.5C 182.833,179.5 184.167,179.5 185.5,179.5C 185.5,175.5 185.5,171.5 185.5,167.5C 183.833,167.5 182.167,167.5 180.5,167.5 Z"/></g>
<g><path style="opacity:0.839" fill="#ed3a5f" d="M 313.5,170.5 C 319.158,169.679 320.825,171.846 318.5,177C 312.741,178.139 311.074,175.972 313.5,170.5 Z"/></g>
<g><path style="opacity:0.739" fill="#ed3a5f" d="M 308.5,183.5 C 314.729,183.027 316.395,185.36 313.5,190.5C 307.77,191.41 306.103,189.077 308.5,183.5 Z"/></g>
<g><path style="opacity:0.84" fill="#ed3a5f" d="M 186.5,187.5 C 192.317,187.03 193.984,189.196 191.5,194C 185.741,195.139 184.074,192.972 186.5,187.5 Z"/></g>
<g><path style="opacity:0.7" fill="#ed3a5f" d="M 303.5,196.5 C 308.672,195.565 310.839,197.565 310,202.5C 303.684,205.356 301.518,203.356 303.5,196.5 Z"/></g>
<g><path style="opacity:0.744" fill="#ed3a5f" d="M 191.5,200.5 C 197.966,199.799 199.633,202.132 196.5,207.5C 190.77,208.41 189.103,206.077 191.5,200.5 Z"/></g>
<g><path style="opacity:0.698" fill="#ed3a5f" d="M 299.5,209.5 C 305.704,209.314 307.037,211.814 303.5,217C 297.403,217.147 296.07,214.647 299.5,209.5 Z"/></g>
<g><path style="opacity:0.716" fill="#ed3a5f" d="M 196.5,213.5 C 202.113,212.079 204.28,214.079 203,219.5C 200.952,221.787 198.785,221.954 196.5,220C 195.232,217.837 195.232,215.67 196.5,213.5 Z"/></g>
<g><path style="opacity:0.711" fill="#ed3a5f" d="M 294.5,222.5 C 300.235,221.821 301.902,224.155 299.5,229.5C 295.934,231.359 293.6,230.359 292.5,226.5C 293.18,225.14 293.847,223.807 294.5,222.5 Z"/></g>
<g><path style="opacity:0.743" fill="#ed3a5f" d="M 202.5,226.5 C 208.704,226.314 210.037,228.814 206.5,234C 200.812,233.79 199.479,231.29 202.5,226.5 Z"/></g>
<g><path style="opacity:0.727" fill="#ed3a5f" d="M 289.5,235.5 C 295.313,235.062 296.98,237.562 294.5,243C 288.593,243.746 286.927,241.246 289.5,235.5 Z"/></g>
<g><path style="opacity:0.745" fill="#ed3a5f" d="M 207.5,239.5 C 211.145,238.68 213.478,240.013 214.5,243.5C 213.165,247.004 210.832,248.004 207.5,246.5C 206.286,244.141 206.286,241.808 207.5,239.5 Z"/></g>
<g><path style="opacity:0.711" fill="#ed3a5f" d="M 285.5,248.5 C 290.942,248.886 292.275,251.386 289.5,256C 285.798,257.393 283.798,256.226 283.5,252.5C 283.803,250.886 284.47,249.552 285.5,248.5 Z"/></g>
<g><path style="opacity:0.716" fill="#ed3a5f" d="M 212.5,252.5 C 219.004,252.138 220.671,254.638 217.5,260C 211.785,260.401 210.119,257.901 212.5,252.5 Z"/></g>
<g><path style="opacity:0.698" fill="#ed3a5f" d="M 280.5,261.5 C 286.488,261.664 287.821,264.164 284.5,269C 278.202,269.495 276.868,266.995 280.5,261.5 Z"/></g>
<g><path style="opacity:0.716" fill="#ed3a5f" d="M 218.5,265.5 C 224.704,265.314 226.037,267.814 222.5,273C 216.403,273.147 215.07,270.647 218.5,265.5 Z"/></g>
<g><path style="opacity:0.7" fill="#ed3a5f" d="M 276.5,274.5 C 281.262,275.092 282.596,277.592 280.5,282C 275.338,283.424 273.171,281.59 274,276.5C 274.995,275.934 275.828,275.267 276.5,274.5 Z"/></g>
<g><path style="opacity:0.703" fill="#ed3a5f" d="M 223.5,278.5 C 229.235,277.821 230.902,280.155 228.5,285.5C 221.789,286.788 220.122,284.454 223.5,278.5 Z"/></g>
<g><path style="opacity:0.737" fill="#ed3a5f" d="M 271.5,287.5 C 276.266,288.158 277.6,290.658 275.5,295C 268.17,295.486 266.837,292.986 271.5,287.5 Z"/></g>
<g><path style="opacity:0.715" fill="#ed3a5f" d="M 228.5,291.5 C 234.62,291.259 236.287,293.759 233.5,299C 227.593,299.746 225.927,297.246 228.5,291.5 Z"/></g>
<g><path style="opacity:0.839" fill="#ed3a5f" d="M 265.5,301.5 C 271.158,300.679 272.825,302.846 270.5,308C 264.741,309.139 263.074,306.972 265.5,301.5 Z"/></g>
<g><path style="opacity:0.89" fill="#ed3a5f" d="M 244.5,312.5 C 256.99,310.823 262.157,316.156 260,328.5C 259.215,330.286 258.049,331.786 256.5,333C 243.074,337.238 237.241,332.404 239,318.5C 240.36,315.977 242.193,313.977 244.5,312.5 Z M 246.5,317.5 C 245.962,319.117 245.629,320.784 245.5,322.5C 247.39,322.703 248.89,322.037 250,320.5C 249.628,322.92 248.295,324.92 246,326.5C 245.517,327.448 245.351,328.448 245.5,329.5C 248.5,329.5 251.5,329.5 254.5,329.5C 254.5,328.5 254.5,327.5 254.5,326.5C 253.448,326.649 252.448,326.483 251.5,326C 255.767,320.046 254.1,317.213 246.5,317.5 Z"/></g>
</svg>
