<?xml version="1.0" encoding="UTF-8"?>
<!DOCTYPE svg PUBLIC "-//W3C//DTD SVG 1.1//EN" "http://www.w3.org/Graphics/SVG/1.1/DTD/svg11.dtd">
<svg xmlns="http://www.w3.org/2000/svg" version="1.1" width="500px" height="500px" style="shape-rendering:geometricPrecision; text-rendering:geometricPrecision; image-rendering:optimizeQuality; fill-rule:evenodd; clip-rule:evenodd" xmlns:xlink="http://www.w3.org/1999/xlink">
<g><path style="opacity:0.918" fill="#a6a6a6" d="M 163.5,-0.5 C 168.5,-0.5 173.5,-0.5 178.5,-0.5C 183.5,0.833333 188.5,0.833333 193.5,-0.5C 195.833,-0.5 198.167,-0.5 200.5,-0.5C 199.5,0.166667 198.5,0.833333 197.5,1.5C 131.5,1.5 65.5,1.5 -0.5,1.5C -0.5,1.16667 -0.5,0.833333 -0.5,0.5C 54.3359,0.832303 109.003,0.49897 163.5,-0.5 Z"/></g>
<g><path style="opacity:1" fill="#f7f7f7" d="M 204.5,-0.5 C 213.5,-0.5 222.5,-0.5 231.5,-0.5C 233.515,0.923808 235.848,1.59047 238.5,1.5C 259.169,1.66662 279.836,1.49996 300.5,1C 301.416,0.721579 302.082,0.221579 302.5,-0.5C 354.5,-0.5 406.5,-0.5 458.5,-0.5C 458.611,0.117425 458.944,0.617425 459.5,1C 472.829,1.4999 486.163,1.66656 499.5,1.5C 499.5,167.5 499.5,333.5 499.5,499.5C 332.833,499.5 166.167,499.5 -0.5,499.5C -0.5,333.5 -0.5,167.5 -0.5,1.5C 65.5,1.5 131.5,1.5 197.5,1.5C 200.152,1.59047 202.485,0.923808 204.5,-0.5 Z M 108.5,156.5 C 124.167,156.5 139.833,156.5 155.5,156.5C 164.526,202.963 174.193,249.296 184.5,295.5C 185.325,296.386 186.325,296.719 187.5,296.5C 200.196,250.052 213.363,203.718 227,157.5C 235.258,156.84 243.591,156.507 252,156.5C 260.409,156.507 268.742,156.84 277,157.5C 290.478,203.431 303.644,249.431 316.5,295.5C 317.833,295.5 319.167,295.5 320.5,295.5C 330.007,249.138 339.674,202.804 349.5,156.5C 363.833,156.5 378.167,156.5 392.5,156.5C 376.169,218.494 359.836,280.494 343.5,342.5C 326.154,342.833 308.821,342.5 291.5,341.5C 278.09,297.606 265.09,253.606 252.5,209.5C 251.5,209.5 250.5,209.5 249.5,209.5C 236.644,253.571 223.477,297.571 210,341.5C 192.577,342.492 175.077,342.825 157.5,342.5C 141.48,280.421 125.147,218.421 108.5,156.5 Z M 132.5,167.5 C 134.167,167.5 135.833,167.5 137.5,167.5C 137.5,171.5 137.5,175.5 137.5,179.5C 136.167,179.5 134.833,179.5 133.5,179.5C 133.665,176.482 133.498,173.482 133,170.5C 131.272,169.648 131.105,168.648 132.5,167.5 Z M 248.5,174.5 C 248.5,173.5 248.5,172.5 248.5,171.5C 245.795,171.62 245.128,170.62 246.5,168.5C 248.833,167.167 251.167,167.167 253.5,168.5C 253.378,171.447 253.544,174.447 254,177.5C 252.192,179.396 250.025,179.896 247.5,179C 245.963,177.89 245.297,176.39 245.5,174.5C 246.5,174.5 247.5,174.5 248.5,174.5 Z M 316.5,318.5 C 317.833,318.5 319.167,318.5 320.5,318.5C 321.005,322.6 321.005,326.6 320.5,330.5C 319.5,330.5 318.5,330.5 317.5,330.5C 317.5,329.5 317.5,328.5 317.5,327.5C 315.396,327.799 313.396,327.466 311.5,326.5C 313.193,323.816 314.86,321.149 316.5,318.5 Z M 179.5,319.5 C 187.1,319.213 188.767,322.046 184.5,328C 185.448,328.483 186.448,328.649 187.5,328.5C 187.5,329.5 187.5,330.5 187.5,331.5C 184.5,331.5 181.5,331.5 178.5,331.5C 178.351,330.448 178.517,329.448 179,328.5C 181.295,326.92 182.628,324.92 183,322.5C 181.89,324.037 180.39,324.703 178.5,324.5C 178.629,322.784 178.962,321.117 179.5,319.5 Z"/></g>
<g><path style="opacity:0.939" fill="#a7a7a7" d="M 236.5,-0.5 C 239.5,-0.5 242.5,-0.5 245.5,-0.5C 263.167,0.833333 280.833,0.833333 298.5,-0.5C 299.833,-0.5 301.167,-0.5 302.5,-0.5C 302.082,0.221579 301.416,0.721579 300.5,1C 279.836,1.49996 259.169,1.66662 238.5,1.5C 237.833,0.833333 237.167,0.166667 236.5,-0.5 Z"/></g>
<g><path style="opacity:0.975" fill="#a7a7a7" d="M 458.5,-0.5 C 459.833,-0.5 461.167,-0.5 462.5,-0.5C 474.655,0.495218 486.989,0.828551 499.5,0.5C 499.5,0.833333 499.5,1.16667 499.5,1.5C 486.163,1.66656 472.829,1.4999 459.5,1C 458.944,0.617425 458.611,0.117425 458.5,-0.5 Z"/></g>
<g><path style="opacity:1" fill="#cccccc" d="M 200.5,-0.5 C 201.833,-0.5 203.167,-0.5 204.5,-0.5C 202.485,0.923808 200.152,1.59047 197.5,1.5C 198.5,0.833333 199.5,0.166667 200.5,-0.5 Z"/></g>
<g><path style="opacity:1" fill="#d5d5d5" d="M 231.5,-0.5 C 233.167,-0.5 234.833,-0.5 236.5,-0.5C 237.167,0.166667 237.833,0.833333 238.5,1.5C 235.848,1.59047 233.515,0.923808 231.5,-0.5 Z"/></g>
<g><path style="opacity:0.925" fill="#a5a6a5" d="M 107.5,155.5 C 123.833,155.5 140.167,155.5 156.5,155.5C 165.503,202.349 175.336,249.016 186,295.5C 199.178,249.122 212.511,202.788 226,156.5C 234.591,155.84 243.258,155.507 252,155.5C 260.742,155.507 269.409,155.84 278,156.5C 291.195,202.618 304.695,248.618 318.5,294.5C 328.975,248.268 338.975,201.934 348.5,155.5C 363.848,155.167 379.181,155.501 394.5,156.5C 377.422,218.733 360.755,281.066 344.5,343.5C 326.488,343.833 308.488,343.5 290.5,342.5C 277.234,298.535 264.067,254.535 251,210.5C 237.667,254.5 224.333,298.5 211,342.5C 192.91,343.492 174.743,343.826 156.5,343.5C 140.167,280.833 123.833,218.167 107.5,155.5 Z M 108.5,156.5 C 125.147,218.421 141.48,280.421 157.5,342.5C 175.077,342.825 192.577,342.492 210,341.5C 223.477,297.571 236.644,253.571 249.5,209.5C 250.5,209.5 251.5,209.5 252.5,209.5C 265.09,253.606 278.09,297.606 291.5,341.5C 308.821,342.5 326.154,342.833 343.5,342.5C 359.836,280.494 376.169,218.494 392.5,156.5C 378.167,156.5 363.833,156.5 349.5,156.5C 339.674,202.804 330.007,249.138 320.5,295.5C 319.167,295.5 317.833,295.5 316.5,295.5C 303.644,249.431 290.478,203.431 277,157.5C 268.742,156.84 260.409,156.507 252,156.5C 243.591,156.507 235.258,156.84 227,157.5C 213.363,203.718 200.196,250.052 187.5,296.5C 186.325,296.719 185.325,296.386 184.5,295.5C 174.193,249.296 164.526,202.963 155.5,156.5C 139.833,156.5 124.167,156.5 108.5,156.5 Z M 132.5,167.5 C 131.105,168.648 131.272,169.648 133,170.5C 133.498,173.482 133.665,176.482 133.5,179.5C 134.833,179.5 136.167,179.5 137.5,179.5C 137.5,175.5 137.5,171.5 137.5,167.5C 135.833,167.5 134.167,167.5 132.5,167.5 Z M 248.5,174.5 C 247.5,174.5 246.5,174.5 245.5,174.5C 245.297,176.39 245.963,177.89 247.5,179C 250.025,179.896 252.192,179.396 254,177.5C 253.544,174.447 253.378,171.447 253.5,168.5C 251.167,167.167 248.833,167.167 246.5,168.5C 245.128,170.62 245.795,171.62 248.5,171.5C 248.5,172.5 248.5,173.5 248.5,174.5 Z M 316.5,318.5 C 314.86,321.149 313.193,323.816 311.5,326.5C 313.396,327.466 315.396,327.799 317.5,327.5C 317.5,328.5 317.5,329.5 317.5,330.5C 318.5,330.5 319.5,330.5 320.5,330.5C 321.005,326.6 321.005,322.6 320.5,318.5C 319.167,318.5 317.833,318.5 316.5,318.5 Z M 179.5,319.5 C 178.962,321.117 178.629,322.784 178.5,324.5C 180.39,324.703 181.89,324.037 183,322.5C 182.628,324.92 181.295,326.92 179,328.5C 178.517,329.448 178.351,330.448 178.5,331.5C 181.5,331.5 184.5,331.5 187.5,331.5C 187.5,330.5 187.5,329.5 187.5,328.5C 186.448,328.649 185.448,328.483 184.5,328C 188.767,322.046 187.1,319.213 179.5,319.5 Z"/></g>
<g><path style="opacity:0.899" fill="#ed3a5f" d="M 130.5,161.5 C 142.99,159.823 148.157,165.156 146,177.5C 145.215,179.286 144.049,180.786 142.5,182C 129.074,186.238 123.241,181.404 125,167.5C 126.36,164.977 128.193,162.977 130.5,161.5 Z M 132.5,167.5 C 131.105,168.648 131.272,169.648 133,170.5C 133.498,173.482 133.665,176.482 133.5,179.5C 134.833,179.5 136.167,179.5 137.5,179.5C 137.5,175.5 137.5,171.5 137.5,167.5C 135.833,167.5 134.167,167.5 132.5,167.5 Z"/></g>
<g><path style="opacity:0.882" fill="#ed3a5f" d="M 245.5,161.5 C 258.512,159.178 263.679,164.512 261,177.5C 260.215,179.286 259.049,180.786 257.5,182C 244.074,186.238 238.241,181.404 240,167.5C 241.36,164.977 243.193,162.977 245.5,161.5 Z M 248.5,174.5 C 247.5,174.5 246.5,174.5 245.5,174.5C 245.297,176.39 245.963,177.89 247.5,179C 250.025,179.896 252.192,179.396 254,177.5C 253.544,174.447 253.378,171.447 253.5,168.5C 251.167,167.167 248.833,167.167 246.5,168.5C 245.128,170.62 245.795,171.62 248.5,171.5C 248.5,172.5 248.5,173.5 248.5,174.5 Z"/></g>
<g><path style="opacity:0.828" fill="#ed3a5f" d="M 365.5,169.5 C 371.158,168.679 372.825,170.846 370.5,176C 364.508,176.811 362.841,174.644 365.5,169.5 Z"/></g>
<g><path style="opacity:1" fill="#ed3a5f" d="M 248.5,174.5 C 250.028,174.517 250.528,175.184 250,176.5C 249.283,175.956 248.783,175.289 248.5,174.5 Z"/></g>
<g><path style="opacity:0.735" fill="#ed3a5f" d="M 362.5,182.5 C 368.488,182.664 369.821,185.164 366.5,190C 360.403,190.147 359.07,187.647 362.5,182.5 Z"/></g>
<g><path style="opacity:0.836" fill="#ed3a5f" d="M 261.5,184.5 C 267.317,184.03 268.984,186.196 266.5,191C 260.741,192.139 259.074,189.972 261.5,184.5 Z"/></g>
<g><path style="opacity:0.852" fill="#ed3a5f" d="M 237.5,186.5 C 243.158,185.679 244.825,187.846 242.5,193C 236.741,194.139 235.074,191.972 237.5,186.5 Z"/></g>
<g><path style="opacity:0.845" fill="#ed3a5f" d="M 136.5,188.5 C 142.158,187.679 143.825,189.846 141.5,195C 135.741,196.139 134.074,193.972 136.5,188.5 Z"/></g>
<g><path style="opacity:0.762" fill="#ed3a5f" d="M 357.5,196.5 C 363.113,195.079 365.28,197.079 364,202.5C 357.854,204.636 355.687,202.636 357.5,196.5 Z"/></g>
<g><path style="opacity:0.713" fill="#ed3a5f" d="M 266.5,197.5 C 272.704,197.314 274.037,199.814 270.5,205C 264.403,205.147 263.07,202.647 266.5,197.5 Z"/></g>
<g><path style="opacity:0.712" fill="#ed3a5f" d="M 233.5,199.5 C 239.313,199.062 240.98,201.562 238.5,207C 232.206,207.578 230.539,205.078 233.5,199.5 Z"/></g>
<g><path style="opacity:0.73" fill="#ed3a5f" d="M 140.5,201.5 C 146.488,201.664 147.821,204.164 144.5,209C 138.403,209.147 137.07,206.647 140.5,201.5 Z"/></g>
<g><path style="opacity:0.721" fill="#ed3a5f" d="M 354.5,209.5 C 360.62,209.259 362.287,211.759 359.5,217C 353.98,217.37 352.313,214.87 354.5,209.5 Z"/></g>
<g><path style="opacity:0.725" fill="#ed3a5f" d="M 271.5,210.5 C 276.942,210.886 278.275,213.386 275.5,218C 271.798,219.393 269.798,218.226 269.5,214.5C 269.803,212.886 270.47,211.552 271.5,210.5 Z"/></g>
<g><path style="opacity:0.752" fill="#ed3a5f" d="M 230.5,212.5 C 235.266,213.158 236.6,215.658 234.5,220C 227.17,220.486 225.837,217.986 230.5,212.5 Z"/></g>
<g><path style="opacity:0.76" fill="#ed3a5f" d="M 143.5,215.5 C 149.235,214.821 150.902,217.155 148.5,222.5C 146.833,223.833 145.167,223.833 143.5,222.5C 142.286,220.141 142.286,217.808 143.5,215.5 Z"/></g>
<g><path style="opacity:0.738" fill="#ed3a5f" d="M 276.5,223.5 C 281.266,224.158 282.6,226.658 280.5,231C 273.186,231.537 271.853,229.037 276.5,223.5 Z"/></g>
<g><path style="opacity:0.747" fill="#ed3a5f" d="M 350.5,223.5 C 356.113,222.079 358.28,224.079 357,229.5C 350.828,231.631 348.661,229.631 350.5,223.5 Z"/></g>
<g><path style="opacity:0.711" fill="#ed3a5f" d="M 225.5,226.5 C 231.704,226.314 233.037,228.814 229.5,234C 223.403,234.147 222.07,231.647 225.5,226.5 Z"/></g>
<g><path style="opacity:0.731" fill="#ed3a5f" d="M 148.5,228.5 C 153.19,228.94 154.524,231.274 152.5,235.5C 147.396,237.429 145.229,235.763 146,230.5C 146.995,229.934 147.828,229.267 148.5,228.5 Z"/></g>
<g><path style="opacity:0.736" fill="#ed3a5f" d="M 347.5,236.5 C 353.313,236.062 354.98,238.562 352.5,244C 346.593,244.746 344.927,242.246 347.5,236.5 Z"/></g>
<g><path style="opacity:0.739" fill="#ed3a5f" d="M 279.5,237.5 C 285.729,237.027 287.395,239.36 284.5,244.5C 278.805,245.446 277.138,243.112 279.5,237.5 Z"/></g>
<g><path style="opacity:0.698" fill="#ed3a5f" d="M 221.5,239.5 C 226.984,239.481 228.65,241.981 226.5,247C 219.683,247.861 218.016,245.361 221.5,239.5 Z"/></g>
<g><path style="opacity:0.732" fill="#ed3a5f" d="M 150.5,242.5 C 156.313,242.062 157.98,244.562 155.5,250C 149.593,250.746 147.927,248.246 150.5,242.5 Z"/></g>
<g><path style="opacity:0.713" fill="#ed3a5f" d="M 284.5,250.5 C 289.75,250.236 291.416,252.569 289.5,257.5C 282.789,258.788 281.122,256.454 284.5,250.5 Z"/></g>
<g><path style="opacity:0.747" fill="#ed3a5f" d="M 343.5,250.5 C 348.672,249.565 350.839,251.565 350,256.5C 343.423,259.088 341.256,257.088 343.5,250.5 Z"/></g>
<g><path style="opacity:0.699" fill="#ed3a5f" d="M 216.5,253.5 C 223.145,252.977 224.811,255.477 221.5,261C 215.785,261.401 214.119,258.901 216.5,253.5 Z"/></g>
<g><path style="opacity:0.704" fill="#ed3a5f" d="M 153.5,256.5 C 159.113,255.079 161.28,257.079 160,262.5C 157.952,264.787 155.785,264.954 153.5,263C 152.232,260.837 152.232,258.67 153.5,256.5 Z"/></g>
<g><path style="opacity:0.711" fill="#ed3a5f" d="M 289.5,263.5 C 294.764,263.417 296.431,265.75 294.5,270.5C 287.369,272.27 285.703,269.936 289.5,263.5 Z"/></g>
<g><path style="opacity:0.695" fill="#ed3a5f" d="M 340.5,263.5 C 345.881,263.452 347.547,265.952 345.5,271C 338.745,271.756 337.078,269.256 340.5,263.5 Z"/></g>
<g><path style="opacity:0.711" fill="#ed3a5f" d="M 213.5,266.5 C 219.488,266.664 220.821,269.164 217.5,274C 211.202,274.495 209.868,271.995 213.5,266.5 Z"/></g>
<g><path style="opacity:0.76" fill="#ed3a5f" d="M 158.5,269.5 C 159.93,269.421 161.264,269.754 162.5,270.5C 164.89,276.608 163.056,278.608 157,276.5C 156.185,273.802 156.685,271.468 158.5,269.5 Z"/></g>
<g><path style="opacity:0.738" fill="#ed3a5f" d="M 293.5,277.5 C 299.704,277.314 301.037,279.814 297.5,285C 291.812,284.79 290.479,282.29 293.5,277.5 Z"/></g>
<g><path style="opacity:0.761" fill="#ed3a5f" d="M 336.5,277.5 C 341.914,276.565 343.914,278.565 342.5,283.5C 336.129,285.796 334.129,283.796 336.5,277.5 Z"/></g>
<g><path style="opacity:0.738" fill="#ed3a5f" d="M 208.5,280.5 C 214.966,279.799 216.633,282.132 213.5,287.5C 207.77,288.41 206.103,286.077 208.5,280.5 Z"/></g>
<g><path style="opacity:0.703" fill="#ed3a5f" d="M 160.5,283.5 C 167.145,282.977 168.811,285.477 165.5,291C 159.788,291.433 158.122,288.933 160.5,283.5 Z"/></g>
<g><path style="opacity:0.74" fill="#ed3a5f" d="M 298.5,290.5 C 304.488,290.664 305.821,293.164 302.5,298C 296.403,298.147 295.07,295.647 298.5,290.5 Z"/></g>
<g><path style="opacity:0.735" fill="#ed3a5f" d="M 333.5,290.5 C 339.488,290.664 340.821,293.164 337.5,298C 331.403,298.147 330.07,295.647 333.5,290.5 Z"/></g>
<g><path style="opacity:0.71" fill="#ed3a5f" d="M 204.5,293.5 C 210.62,293.259 212.287,295.759 209.5,301C 203.593,301.746 201.927,299.246 204.5,293.5 Z"/></g>
<g><path style="opacity:0.774" fill="#ed3a5f" d="M 165.5,296.5 C 166.93,296.421 168.264,296.754 169.5,297.5C 171.89,303.608 170.056,305.608 164,303.5C 163.167,300.829 163.667,298.496 165.5,296.5 Z"/></g>
<g><path style="opacity:0.755" fill="#ed3a5f" d="M 303.5,303.5 C 304.93,303.421 306.264,303.754 307.5,304.5C 309.914,310.024 308.248,312.191 302.5,311C 300.315,308.322 300.649,305.822 303.5,303.5 Z"/></g>
<g><path style="opacity:0.846" fill="#ed3a5f" d="M 329.5,304.5 C 335.158,303.679 336.825,305.846 334.5,311C 328.741,312.139 327.074,309.972 329.5,304.5 Z"/></g>
<g><path style="opacity:0.851" fill="#ed3a5f" d="M 200.5,307.5 C 206.158,306.679 207.825,308.846 205.5,314C 199.741,315.139 198.074,312.972 200.5,307.5 Z"/></g>
<g><path style="opacity:0.89" fill="#ed3a5f" d="M 177.5,314.5 C 189.99,312.823 195.157,318.156 193,330.5C 192.215,332.286 191.049,333.786 189.5,335C 176.074,339.238 170.241,334.404 172,320.5C 173.36,317.977 175.193,315.977 177.5,314.5 Z M 179.5,319.5 C 178.962,321.117 178.629,322.784 178.5,324.5C 180.39,324.703 181.89,324.037 183,322.5C 182.628,324.92 181.295,326.92 179,328.5C 178.517,329.448 178.351,330.448 178.5,331.5C 181.5,331.5 184.5,331.5 187.5,331.5C 187.5,330.5 187.5,329.5 187.5,328.5C 186.448,328.649 185.448,328.483 184.5,328C 188.767,322.046 187.1,319.213 179.5,319.5 Z"/></g>
<g><path style="opacity:0.873" fill="#ed3a5f" d="M 311.5,314.5 C 325.098,311.599 330.598,316.932 328,330.5C 327.215,332.286 326.049,333.786 324.5,335C 313.131,339.32 306.798,335.486 305.5,323.5C 306.286,319.567 308.286,316.567 311.5,314.5 Z M 316.5,318.5 C 314.86,321.149 313.193,323.816 311.5,326.5C 313.396,327.466 315.396,327.799 317.5,327.5C 317.5,328.5 317.5,329.5 317.5,330.5C 318.5,330.5 319.5,330.5 320.5,330.5C 321.005,326.6 321.005,322.6 320.5,318.5C 319.167,318.5 317.833,318.5 316.5,318.5 Z"/></g>
</svg>
