<?xml version="1.0" encoding="UTF-8"?>
<!DOCTYPE svg PUBLIC "-//W3C//DTD SVG 1.1//EN" "http://www.w3.org/Graphics/SVG/1.1/DTD/svg11.dtd">
<svg xmlns="http://www.w3.org/2000/svg" version="1.1" width="500px" height="500px" style="shape-rendering:geometricPrecision; text-rendering:geometricPrecision; image-rendering:optimizeQuality; fill-rule:evenodd; clip-rule:evenodd" xmlns:xlink="http://www.w3.org/1999/xlink">
<g><path style="opacity:0.918" fill="#a6a6a6" d="M 163.5,-0.5 C 168.5,-0.5 173.5,-0.5 178.5,-0.5C 183.5,0.833333 188.5,0.833333 193.5,-0.5C 195.833,-0.5 198.167,-0.5 200.5,-0.5C 199.5,0.166667 198.5,0.833333 197.5,1.5C 131.5,1.5 65.5,1.5 -0.5,1.5C -0.5,1.16667 -0.5,0.833333 -0.5,0.5C 54.3359,0.832303 109.003,0.49897 163.5,-0.5 Z"/></g>
<g><path style="opacity:1" fill="#f7f7f7" d="M 204.5,-0.5 C 213.5,-0.5 222.5,-0.5 231.5,-0.5C 233.515,0.923808 235.848,1.59047 238.5,1.5C 259.169,1.66662 279.836,1.49996 300.5,1C 301.416,0.721579 302.082,0.221579 302.5,-0.5C 354.5,-0.5 406.5,-0.5 458.5,-0.5C 458.611,0.117425 458.944,0.617425 459.5,1C 472.829,1.4999 486.163,1.66656 499.5,1.5C 499.5,167.5 499.5,333.5 499.5,499.5C 332.833,499.5 166.167,499.5 -0.5,499.5C -0.5,333.5 -0.5,167.5 -0.5,1.5C 65.5,1.5 131.5,1.5 197.5,1.5C 200.152,1.59047 202.485,0.923808 204.5,-0.5 Z M 164.5,156.5 C 181.503,156.333 198.503,156.5 215.5,157C 229.221,176.285 243.054,195.452 257,214.5C 257.772,214.355 258.439,214.022 259,213.5C 270.374,194.583 281.874,175.75 293.5,157C 310.177,156.167 326.843,156.334 343.5,157.5C 322.787,188.427 302.454,219.594 282.5,251C 303.43,281.6 324.763,311.933 346.5,342C 329.167,342.667 311.833,342.667 294.5,342C 281.029,321.882 266.862,302.382 252,283.5C 239.449,302.244 227.616,321.578 216.5,341.5C 199.5,342.833 182.5,342.833 165.5,341.5C 185.932,309.742 205.932,277.742 225.5,245.5C 205.407,215.641 185.074,185.975 164.5,156.5 Z M 305.5,168.5 C 313.1,168.213 314.767,171.046 310.5,177C 311.448,177.483 312.448,177.649 313.5,177.5C 313.5,178.5 313.5,179.5 313.5,180.5C 310.5,180.5 307.5,180.5 304.5,180.5C 304.351,179.448 304.517,178.448 305,177.5C 307.295,175.92 308.628,173.92 309,171.5C 307.89,173.037 306.39,173.703 304.5,173.5C 304.629,171.784 304.962,170.117 305.5,168.5 Z M 196.5,169.5 C 198.167,169.5 199.833,169.5 201.5,169.5C 201.5,173.5 201.5,177.5 201.5,181.5C 200.167,181.5 198.833,181.5 197.5,181.5C 197.665,178.482 197.498,175.482 197,172.5C 195.272,171.648 195.105,170.648 196.5,169.5 Z"/></g>
<g><path style="opacity:0.616" fill="#a8a8a8" d="M 236.5,-0.5 C 239.5,-0.5 242.5,-0.5 245.5,-0.5C 254.833,0.833333 264.167,0.833333 273.5,-0.5C 283.167,-0.5 292.833,-0.5 302.5,-0.5C 302.082,0.221579 301.416,0.721579 300.5,1C 279.836,1.49996 259.169,1.66662 238.5,1.5C 237.833,0.833333 237.167,0.166667 236.5,-0.5 Z"/></g>
<g><path style="opacity:0.975" fill="#a7a7a7" d="M 458.5,-0.5 C 459.833,-0.5 461.167,-0.5 462.5,-0.5C 474.655,0.495218 486.989,0.828551 499.5,0.5C 499.5,0.833333 499.5,1.16667 499.5,1.5C 486.163,1.66656 472.829,1.4999 459.5,1C 458.944,0.617425 458.611,0.117425 458.5,-0.5 Z"/></g>
<g><path style="opacity:1" fill="#cccccc" d="M 200.5,-0.5 C 201.833,-0.5 203.167,-0.5 204.5,-0.5C 202.485,0.923808 200.152,1.59047 197.5,1.5C 198.5,0.833333 199.5,0.166667 200.5,-0.5 Z"/></g>
<g><path style="opacity:1" fill="#d5d5d5" d="M 231.5,-0.5 C 233.167,-0.5 234.833,-0.5 236.5,-0.5C 237.167,0.166667 237.833,0.833333 238.5,1.5C 235.848,1.59047 233.515,0.923808 231.5,-0.5 Z"/></g>
<g><path style="opacity:0.864" fill="#a5a6a5" d="M 162.5,155.5 C 180.503,155.333 198.503,155.5 216.5,156C 230.369,174.904 243.869,194.07 257,213.5C 268.833,194.333 280.667,175.167 292.5,156C 310.176,155.167 327.843,155.334 345.5,156.5C 325.03,188.135 304.363,219.635 283.5,251C 305.361,281.361 327.028,311.861 348.5,342.5C 330.176,343.666 311.842,343.833 293.5,343C 280.035,323.236 266.202,303.736 252,284.5C 240.248,303.668 228.748,323.001 217.5,342.5C 199.5,343.833 181.5,343.833 163.5,342.5C 183.583,309.998 203.917,277.665 224.5,245.5C 205.913,218.658 187.079,191.991 168,165.5C 165.888,162.273 164.055,158.94 162.5,155.5 Z M 164.5,156.5 C 185.074,185.975 205.407,215.641 225.5,245.5C 205.932,277.742 185.932,309.742 165.5,341.5C 182.5,342.833 199.5,342.833 216.5,341.5C 227.616,321.578 239.449,302.244 252,283.5C 266.862,302.382 281.029,321.882 294.5,342C 311.833,342.667 329.167,342.667 346.5,342C 324.763,311.933 303.43,281.6 282.5,251C 302.454,219.594 322.787,188.427 343.5,157.5C 326.843,156.334 310.177,156.167 293.5,157C 281.874,175.75 270.374,194.583 259,213.5C 258.439,214.022 257.772,214.355 257,214.5C 243.054,195.452 229.221,176.285 215.5,157C 198.503,156.5 181.503,156.333 164.5,156.5 Z M 305.5,168.5 C 304.962,170.117 304.629,171.784 304.5,173.5C 306.39,173.703 307.89,173.037 309,171.5C 308.628,173.92 307.295,175.92 305,177.5C 304.517,178.448 304.351,179.448 304.5,180.5C 307.5,180.5 310.5,180.5 313.5,180.5C 313.5,179.5 313.5,178.5 313.5,177.5C 312.448,177.649 311.448,177.483 310.5,177C 314.767,171.046 313.1,168.213 305.5,168.5 Z M 196.5,169.5 C 195.105,170.648 195.272,171.648 197,172.5C 197.498,175.482 197.665,178.482 197.5,181.5C 198.833,181.5 200.167,181.5 201.5,181.5C 201.5,177.5 201.5,173.5 201.5,169.5C 199.833,169.5 198.167,169.5 196.5,169.5 Z"/></g>
<g><path style="opacity:0.899" fill="#ed3a5f" d="M 194.5,163.5 C 206.99,161.823 212.157,167.156 210,179.5C 209.215,181.286 208.049,182.786 206.5,184C 193.074,188.238 187.241,183.404 189,169.5C 190.36,166.977 192.193,164.977 194.5,163.5 Z M 196.5,169.5 C 195.105,170.648 195.272,171.648 197,172.5C 197.498,175.482 197.665,178.482 197.5,181.5C 198.833,181.5 200.167,181.5 201.5,181.5C 201.5,177.5 201.5,173.5 201.5,169.5C 199.833,169.5 198.167,169.5 196.5,169.5 Z"/></g>
<g><path style="opacity:0.89" fill="#ed3a5f" d="M 303.5,163.5 C 315.99,161.823 321.157,167.156 319,179.5C 318.215,181.286 317.049,182.786 315.5,184C 302.074,188.238 296.241,183.404 298,169.5C 299.36,166.977 301.193,164.977 303.5,163.5 Z M 305.5,168.5 C 304.962,170.117 304.629,171.784 304.5,173.5C 306.39,173.703 307.89,173.037 309,171.5C 308.628,173.92 307.295,175.92 305,177.5C 304.517,178.448 304.351,179.448 304.5,180.5C 307.5,180.5 310.5,180.5 313.5,180.5C 313.5,179.5 313.5,178.5 313.5,177.5C 312.448,177.649 311.448,177.483 310.5,177C 314.767,171.046 313.1,168.213 305.5,168.5 Z"/></g>
<g><path style="opacity:0.837" fill="#ed3a5f" d="M 294.5,187.5 C 300.158,186.679 301.825,188.846 299.5,194C 293.508,194.811 291.841,192.644 294.5,187.5 Z"/></g>
<g><path style="opacity:0.837" fill="#ed3a5f" d="M 209.5,189.5 C 215.317,189.03 216.984,191.196 214.5,196C 208.741,197.139 207.074,194.972 209.5,189.5 Z"/></g>
<g><path style="opacity:0.7" fill="#ed3a5f" d="M 286.5,198.5 C 292.235,197.821 293.902,200.155 291.5,205.5C 284.789,206.788 283.122,204.454 286.5,198.5 Z"/></g>
<g><path style="opacity:0.71" fill="#ed3a5f" d="M 217.5,200.5 C 224.004,200.138 225.671,202.638 222.5,208C 216.785,208.401 215.119,205.901 217.5,200.5 Z"/></g>
<g><path style="opacity:0.726" fill="#ed3a5f" d="M 279.5,209.5 C 284.266,210.158 285.6,212.658 283.5,217C 278.338,218.424 276.171,216.59 277,211.5C 277.995,210.934 278.828,210.267 279.5,209.5 Z"/></g>
<g><path style="opacity:0.71" fill="#ed3a5f" d="M 226.5,211.5 C 231.881,211.452 233.547,213.952 231.5,219C 224.798,219.802 223.132,217.302 226.5,211.5 Z"/></g>
<g><path style="opacity:0.712" fill="#ed3a5f" d="M 269.5,221.5 C 276.004,221.138 277.671,223.638 274.5,229C 268.785,229.401 267.119,226.901 269.5,221.5 Z"/></g>
<g><path style="opacity:0.739" fill="#ed3a5f" d="M 235.5,222.5 C 241.02,223.044 242.354,225.544 239.5,230C 233.202,230.495 231.868,227.995 235.5,222.5 Z"/></g>
<g><path style="opacity:0.712" fill="#ed3a5f" d="M 262.5,232.5 C 266.06,231.891 268.06,233.391 268.5,237C 266.927,240.452 264.427,241.286 261,239.5C 260.185,236.802 260.685,234.468 262.5,232.5 Z"/></g>
<g><path style="opacity:0.726" fill="#ed3a5f" d="M 242.5,234.5 C 248.113,233.079 250.28,235.079 249,240.5C 246.952,242.787 244.785,242.954 242.5,241C 241.395,238.88 241.395,236.713 242.5,234.5 Z"/></g>
<g><path style="opacity:0.777" fill="#ed3a5f" d="M 253.5,244.5 C 258.675,243.507 260.509,245.507 259,250.5C 255.219,254.772 252.052,254.438 249.5,249.5C 250.16,247.185 251.493,245.519 253.5,244.5 Z"/></g>
<g><path style="opacity:0.712" fill="#ed3a5f" d="M 245.5,255.5 C 250.75,255.236 252.416,257.569 250.5,262.5C 243.789,263.788 242.122,261.454 245.5,255.5 Z"/></g>
<g><path style="opacity:0.711" fill="#ed3a5f" d="M 260.5,256.5 C 266.488,256.664 267.821,259.164 264.5,264C 258.202,264.495 256.868,261.995 260.5,256.5 Z"/></g>
<g><path style="opacity:0.712" fill="#ed3a5f" d="M 238.5,266.5 C 243.266,267.158 244.6,269.658 242.5,274C 236.906,275.913 234.739,274.08 236,268.5C 236.995,267.934 237.828,267.267 238.5,266.5 Z"/></g>
<g><path style="opacity:0.751" fill="#ed3a5f" d="M 270.5,267.5 C 274.396,268.78 275.396,271.28 273.5,275C 268.098,276.421 266.098,274.588 267.5,269.5C 268.602,268.824 269.602,268.158 270.5,267.5 Z"/></g>
<g><path style="opacity:0.712" fill="#ed3a5f" d="M 228.5,278.5 C 235.004,278.138 236.671,280.638 233.5,286C 227.785,286.401 226.119,283.901 228.5,278.5 Z"/></g>
<g><path style="opacity:0.737" fill="#ed3a5f" d="M 276.5,279.5 C 280.145,278.68 282.478,280.013 283.5,283.5C 282.165,287.004 279.832,288.004 276.5,286.5C 275.286,284.141 275.286,281.808 276.5,279.5 Z"/></g>
<g><path style="opacity:0.74" fill="#ed3a5f" d="M 221.5,289.5 C 226.999,290 228.332,292.5 225.5,297C 221.798,298.393 219.798,297.226 219.5,293.5C 219.803,291.886 220.47,290.552 221.5,289.5 Z"/></g>
<g><path style="opacity:0.74" fill="#ed3a5f" d="M 285.5,290.5 C 291.488,290.664 292.821,293.164 289.5,298C 283.403,298.147 282.07,295.647 285.5,290.5 Z"/></g>
<g><path style="opacity:0.74" fill="#ed3a5f" d="M 212.5,301.5 C 218.704,301.314 220.037,303.814 216.5,309C 210.812,308.79 209.479,306.29 212.5,301.5 Z"/></g>
<g><path style="opacity:0.754" fill="#ed3a5f" d="M 294.5,301.5 C 299.262,302.092 300.596,304.592 298.5,309C 294.872,310.316 292.539,309.149 291.5,305.5C 292.172,303.84 293.172,302.507 294.5,301.5 Z"/></g>
<g><path style="opacity:0.725" fill="#ed3a5f" d="M 204.5,312.5 C 209.709,312.369 211.375,314.703 209.5,319.5C 202.789,320.788 201.122,318.454 204.5,312.5 Z"/></g>
<g><path style="opacity:0.74" fill="#ed3a5f" d="M 301.5,313.5 C 307.966,312.799 309.633,315.132 306.5,320.5C 300.77,321.41 299.103,319.077 301.5,313.5 Z"/></g>
<g><path style="opacity:0.711" fill="#ed3a5f" d="M 197.5,323.5 C 202.266,324.158 203.6,326.658 201.5,331C 195.906,332.913 193.739,331.08 195,325.5C 195.995,324.934 196.828,324.267 197.5,323.5 Z"/></g>
<g><path style="opacity:0.711" fill="#ed3a5f" d="M 310.5,324.5 C 316.704,324.314 318.037,326.814 314.5,332C 308.403,332.147 307.07,329.647 310.5,324.5 Z"/></g>
</svg>
