<?xml version="1.0" encoding="UTF-8"?>
<!DOCTYPE svg PUBLIC "-//W3C//DTD SVG 1.1//EN" "http://www.w3.org/Graphics/SVG/1.1/DTD/svg11.dtd">
<svg xmlns="http://www.w3.org/2000/svg" version="1.1" width="500px" height="500px" style="shape-rendering:geometricPrecision; text-rendering:geometricPrecision; image-rendering:optimizeQuality; fill-rule:evenodd; clip-rule:evenodd" xmlns:xlink="http://www.w3.org/1999/xlink">
<g><path style="opacity:0.918" fill="#a6a6a6" d="M 163.5,-0.5 C 168.5,-0.5 173.5,-0.5 178.5,-0.5C 183.5,0.833333 188.5,0.833333 193.5,-0.5C 195.833,-0.5 198.167,-0.5 200.5,-0.5C 199.5,0.166667 198.5,0.833333 197.5,1.5C 131.5,1.5 65.5,1.5 -0.5,1.5C -0.5,1.16667 -0.5,0.833333 -0.5,0.5C 54.3359,0.832303 109.003,0.49897 163.5,-0.5 Z"/></g>
<g><path style="opacity:1" fill="#f7f7f7" d="M 204.5,-0.5 C 213.5,-0.5 222.5,-0.5 231.5,-0.5C 233.515,0.923808 235.848,1.59047 238.5,1.5C 259.169,1.66662 279.836,1.49996 300.5,1C 301.416,0.721579 302.082,0.221579 302.5,-0.5C 354.5,-0.5 406.5,-0.5 458.5,-0.5C 458.611,0.117425 458.944,0.617425 459.5,1C 472.829,1.4999 486.163,1.66656 499.5,1.5C 499.5,167.5 499.5,333.5 499.5,499.5C 332.833,499.5 166.167,499.5 -0.5,499.5C -0.5,333.5 -0.5,167.5 -0.5,1.5C 65.5,1.5 131.5,1.5 197.5,1.5C 200.152,1.59047 202.485,0.923808 204.5,-0.5 Z M 149.5,112.5 C 166.902,111.169 184.402,111.169 202,112.5C 218.371,153.405 234.871,194.238 251.5,235C 252.448,235.483 253.448,235.649 254.5,235.5C 269.5,194.167 284.5,152.833 299.5,111.5C 316.837,111.333 334.17,111.5 351.5,112C 313.538,202.761 275.704,293.594 238,384.5C 220.898,385.824 203.731,385.824 186.5,384.5C 200.274,354.618 213.774,324.618 227,294.5C 227.667,292.833 227.667,291.167 227,289.5C 201.434,230.275 175.601,171.275 149.5,112.5 Z M 312.5,124.5 C 320.1,124.213 321.767,127.046 317.5,133C 318.448,133.483 319.448,133.649 320.5,133.5C 320.5,134.5 320.5,135.5 320.5,136.5C 317.5,136.5 314.5,136.5 311.5,136.5C 311.351,135.448 311.517,134.448 312,133.5C 314.295,131.92 315.628,129.92 316,127.5C 314.89,129.037 313.39,129.703 311.5,129.5C 311.629,127.784 311.962,126.117 312.5,124.5 Z M 180.5,125.5 C 182.167,125.5 183.833,125.5 185.5,125.5C 185.5,129.5 185.5,133.5 185.5,137.5C 184.167,137.5 182.833,137.5 181.5,137.5C 181.665,134.482 181.498,131.482 181,128.5C 179.272,127.648 179.105,126.648 180.5,125.5 Z"/></g>
<g><path style="opacity:0.616" fill="#a8a8a8" d="M 236.5,-0.5 C 239.5,-0.5 242.5,-0.5 245.5,-0.5C 254.833,0.833333 264.167,0.833333 273.5,-0.5C 283.167,-0.5 292.833,-0.5 302.5,-0.5C 302.082,0.221579 301.416,0.721579 300.5,1C 279.836,1.49996 259.169,1.66662 238.5,1.5C 237.833,0.833333 237.167,0.166667 236.5,-0.5 Z"/></g>
<g><path style="opacity:0.975" fill="#a7a7a7" d="M 458.5,-0.5 C 459.833,-0.5 461.167,-0.5 462.5,-0.5C 474.655,0.495218 486.989,0.828551 499.5,0.5C 499.5,0.833333 499.5,1.16667 499.5,1.5C 486.163,1.66656 472.829,1.4999 459.5,1C 458.944,0.617425 458.611,0.117425 458.5,-0.5 Z"/></g>
<g><path style="opacity:1" fill="#cccccc" d="M 200.5,-0.5 C 201.833,-0.5 203.167,-0.5 204.5,-0.5C 202.485,0.923808 200.152,1.59047 197.5,1.5C 198.5,0.833333 199.5,0.166667 200.5,-0.5 Z"/></g>
<g><path style="opacity:1" fill="#d5d5d5" d="M 231.5,-0.5 C 233.167,-0.5 234.833,-0.5 236.5,-0.5C 237.167,0.166667 237.833,0.833333 238.5,1.5C 235.848,1.59047 233.515,0.923808 231.5,-0.5 Z"/></g>
<g><path style="opacity:0.894" fill="#a5a6a5" d="M 148.5,110.5 C 166.743,110.174 184.91,110.508 203,111.5C 219.408,152.644 236.075,193.644 253,234.5C 268.472,193.247 283.639,151.913 298.5,110.5C 316.5,110.5 334.5,110.5 352.5,110.5C 315.164,202.333 277.331,293.999 239,385.5C 220.907,386.659 202.74,386.825 184.5,386C 198.766,354.8 212.766,323.467 226.5,292C 200.199,231.587 174.199,171.087 148.5,110.5 Z M 149.5,112.5 C 175.601,171.275 201.434,230.275 227,289.5C 227.667,291.167 227.667,292.833 227,294.5C 213.774,324.618 200.274,354.618 186.5,384.5C 203.731,385.824 220.898,385.824 238,384.5C 275.704,293.594 313.538,202.761 351.5,112C 334.17,111.5 316.837,111.333 299.5,111.5C 284.5,152.833 269.5,194.167 254.5,235.5C 253.448,235.649 252.448,235.483 251.5,235C 234.871,194.238 218.371,153.405 202,112.5C 184.402,111.169 166.902,111.169 149.5,112.5 Z M 312.5,124.5 C 311.962,126.117 311.629,127.784 311.5,129.5C 313.39,129.703 314.89,129.037 316,127.5C 315.628,129.92 314.295,131.92 312,133.5C 311.517,134.448 311.351,135.448 311.5,136.5C 314.5,136.5 317.5,136.5 320.5,136.5C 320.5,135.5 320.5,134.5 320.5,133.5C 319.448,133.649 318.448,133.483 317.5,133C 321.767,127.046 320.1,124.213 312.5,124.5 Z M 180.5,125.5 C 179.105,126.648 179.272,127.648 181,128.5C 181.498,131.482 181.665,134.482 181.5,137.5C 182.833,137.5 184.167,137.5 185.5,137.5C 185.5,133.5 185.5,129.5 185.5,125.5C 183.833,125.5 182.167,125.5 180.5,125.5 Z"/></g>
<g><path style="opacity:0.899" fill="#ed3a5f" d="M 178.5,119.5 C 190.99,117.823 196.157,123.156 194,135.5C 193.215,137.286 192.049,138.786 190.5,140C 177.074,144.238 171.241,139.404 173,125.5C 174.36,122.977 176.193,120.977 178.5,119.5 Z M 180.5,125.5 C 179.105,126.648 179.272,127.648 181,128.5C 181.498,131.482 181.665,134.482 181.5,137.5C 182.833,137.5 184.167,137.5 185.5,137.5C 185.5,133.5 185.5,129.5 185.5,125.5C 183.833,125.5 182.167,125.5 180.5,125.5 Z"/></g>
<g><path style="opacity:0.89" fill="#ed3a5f" d="M 310.5,119.5 C 322.99,117.823 328.157,123.156 326,135.5C 325.215,137.286 324.049,138.786 322.5,140C 309.074,144.238 303.241,139.404 305,125.5C 306.36,122.977 308.193,120.977 310.5,119.5 Z M 312.5,124.5 C 311.962,126.117 311.629,127.784 311.5,129.5C 313.39,129.703 314.89,129.037 316,127.5C 315.628,129.92 314.295,131.92 312,133.5C 311.517,134.448 311.351,135.448 311.5,136.5C 314.5,136.5 317.5,136.5 320.5,136.5C 320.5,135.5 320.5,134.5 320.5,133.5C 319.448,133.649 318.448,133.483 317.5,133C 321.767,127.046 320.1,124.213 312.5,124.5 Z"/></g>
<g><path style="opacity:0.84" fill="#ed3a5f" d="M 190.5,148.5 C 196.317,148.03 197.984,150.196 195.5,155C 189.741,156.139 188.074,153.972 190.5,148.5 Z"/></g>
<g><path style="opacity:0.836" fill="#ed3a5f" d="M 308.5,148.5 C 314.158,147.679 315.825,149.846 313.5,155C 307.508,155.811 305.841,153.644 308.5,148.5 Z"/></g>
<g><path style="opacity:0.716" fill="#ed3a5f" d="M 197.5,160.5 C 202.266,161.158 203.6,163.658 201.5,168C 195.906,169.913 193.739,168.08 195,162.5C 195.995,161.934 196.828,161.267 197.5,160.5 Z"/></g>
<g><path style="opacity:0.712" fill="#ed3a5f" d="M 304.5,160.5 C 309.266,161.158 310.6,163.658 308.5,168C 302.906,169.913 300.739,168.08 302,162.5C 302.995,161.934 303.828,161.267 304.5,160.5 Z"/></g>
<g><path style="opacity:0.822" fill="#ed3a5f" d="M 203.5,173.5 C 207.839,174.976 208.839,177.476 206.5,181C 201.333,182.5 199.5,180.667 201,175.5C 201.995,174.934 202.828,174.267 203.5,173.5 Z"/></g>
<g><path style="opacity:0.752" fill="#ed3a5f" d="M 298.5,173.5 C 303.262,174.092 304.596,176.592 302.5,181C 298.872,182.316 296.539,181.149 295.5,177.5C 296.172,175.84 297.172,174.507 298.5,173.5 Z"/></g>
<g><path style="opacity:0.716" fill="#ed3a5f" d="M 208.5,186.5 C 213.266,187.158 214.6,189.658 212.5,194C 206.906,195.913 204.739,194.08 206,188.5C 206.995,187.934 207.828,187.267 208.5,186.5 Z"/></g>
<g><path style="opacity:0.711" fill="#ed3a5f" d="M 292.5,186.5 C 298.488,186.664 299.821,189.164 296.5,194C 290.202,194.495 288.868,191.995 292.5,186.5 Z"/></g>
<g><path style="opacity:0.759" fill="#ed3a5f" d="M 213.5,199.5 C 214.93,199.421 216.264,199.754 217.5,200.5C 219.914,206.024 218.248,208.191 212.5,207C 210.315,204.322 210.649,201.822 213.5,199.5 Z"/></g>
<g><path style="opacity:0.711" fill="#ed3a5f" d="M 286.5,199.5 C 291.881,199.452 293.547,201.952 291.5,207C 284.798,207.802 283.132,205.302 286.5,199.5 Z"/></g>
<g><path style="opacity:0.691" fill="#ed3a5f" d="M 218.5,212.5 C 223.984,212.481 225.65,214.981 223.5,220C 216.369,221.211 214.702,218.711 218.5,212.5 Z"/></g>
<g><path style="opacity:0.711" fill="#ed3a5f" d="M 281.5,212.5 C 287.488,212.664 288.821,215.164 285.5,220C 282.099,221.135 280.099,219.968 279.5,216.5C 279.803,214.886 280.47,213.552 281.5,212.5 Z"/></g>
<g><path style="opacity:0.744" fill="#ed3a5f" d="M 224.5,225.5 C 225.93,225.421 227.264,225.754 228.5,226.5C 230.89,232.608 229.056,234.608 223,232.5C 221.074,229.675 221.574,227.341 224.5,225.5 Z"/></g>
<g><path style="opacity:0.711" fill="#ed3a5f" d="M 275.5,225.5 C 281.704,225.314 283.037,227.814 279.5,233C 273.403,233.147 272.07,230.647 275.5,225.5 Z"/></g>
<g><path style="opacity:0.705" fill="#ed3a5f" d="M 229.5,238.5 C 234.708,238.369 236.375,240.702 234.5,245.5C 227.369,247.27 225.703,244.936 229.5,238.5 Z"/></g>
<g><path style="opacity:0.738" fill="#ed3a5f" d="M 269.5,238.5 C 275.729,238.027 277.395,240.36 274.5,245.5C 268.805,246.446 267.138,244.112 269.5,238.5 Z"/></g>
<g><path style="opacity:0.744" fill="#ed3a5f" d="M 235.5,251.5 C 236.93,251.421 238.264,251.754 239.5,252.5C 241.89,258.608 240.056,260.608 234,258.5C 232.074,255.675 232.574,253.341 235.5,251.5 Z"/></g>
<g><path style="opacity:0.711" fill="#ed3a5f" d="M 263.5,251.5 C 270.536,250.603 272.203,253.103 268.5,259C 262.779,259.365 261.113,256.865 263.5,251.5 Z"/></g>
<g><path style="opacity:0.753" fill="#ed3a5f" d="M 258.5,264.5 C 262.145,263.68 264.478,265.013 265.5,268.5C 263.752,272.589 261.252,273.255 258,270.5C 257.322,268.402 257.489,266.402 258.5,264.5 Z"/></g>
<g><path style="opacity:0.74" fill="#ed3a5f" d="M 252.5,277.5 C 258.113,276.079 260.28,278.079 259,283.5C 252.423,286.088 250.256,284.088 252.5,277.5 Z"/></g>
<g><path style="opacity:0.784" fill="#ed3a5f" d="M 248.5,289.5 C 249.93,289.421 251.264,289.754 252.5,290.5C 254.89,296.608 253.056,298.608 247,296.5C 246.167,293.829 246.667,291.496 248.5,289.5 Z"/></g>
<g><path style="opacity:0.698" fill="#ed3a5f" d="M 242.5,302.5 C 247.708,302.369 249.375,304.702 247.5,309.5C 240.369,311.27 238.703,308.936 242.5,302.5 Z"/></g>
<g><path style="opacity:0.741" fill="#ed3a5f" d="M 237.5,315.5 C 238.93,315.421 240.264,315.754 241.5,316.5C 243.89,322.608 242.056,324.608 236,322.5C 234.074,319.675 234.574,317.341 237.5,315.5 Z"/></g>
<g><path style="opacity:0.726" fill="#ed3a5f" d="M 231.5,328.5 C 237.488,328.664 238.821,331.164 235.5,336C 232.402,337.067 230.402,336.067 229.5,333C 229.519,331.167 230.185,329.667 231.5,328.5 Z"/></g>
<g><path style="opacity:0.711" fill="#ed3a5f" d="M 225.5,341.5 C 231.235,340.821 232.902,343.155 230.5,348.5C 223.842,349.836 222.175,347.503 225.5,341.5 Z"/></g>
<g><path style="opacity:0.712" fill="#ed3a5f" d="M 219.5,354.5 C 226.004,354.138 227.671,356.638 224.5,362C 218.785,362.401 217.119,359.901 219.5,354.5 Z"/></g>
</svg>
