<?xml version="1.0" encoding="UTF-8"?>
<!DOCTYPE svg PUBLIC "-//W3C//DTD SVG 1.1//EN" "http://www.w3.org/Graphics/SVG/1.1/DTD/svg11.dtd">
<svg xmlns="http://www.w3.org/2000/svg" version="1.1" width="500px" height="500px" style="shape-rendering:geometricPrecision; text-rendering:geometricPrecision; image-rendering:optimizeQuality; fill-rule:evenodd; clip-rule:evenodd" xmlns:xlink="http://www.w3.org/1999/xlink">
<g><path style="opacity:0.918" fill="#a6a6a6" d="M 163.5,-0.5 C 168.5,-0.5 173.5,-0.5 178.5,-0.5C 183.5,0.833333 188.5,0.833333 193.5,-0.5C 195.833,-0.5 198.167,-0.5 200.5,-0.5C 199.5,0.166667 198.5,0.833333 197.5,1.5C 131.5,1.5 65.5,1.5 -0.5,1.5C -0.5,1.16667 -0.5,0.833333 -0.5,0.5C 54.3359,0.832303 109.003,0.49897 163.5,-0.5 Z"/></g>
<g><path style="opacity:1" fill="#f7f7f7" d="M 204.5,-0.5 C 213.5,-0.5 222.5,-0.5 231.5,-0.5C 233.515,0.923808 235.848,1.59047 238.5,1.5C 259.169,1.66662 279.836,1.49996 300.5,1C 301.416,0.721579 302.082,0.221579 302.5,-0.5C 354.5,-0.5 406.5,-0.5 458.5,-0.5C 458.611,0.117425 458.944,0.617425 459.5,1C 472.829,1.4999 486.163,1.66656 499.5,1.5C 499.5,167.5 499.5,333.5 499.5,499.5C 332.833,499.5 166.167,499.5 -0.5,499.5C -0.5,333.5 -0.5,167.5 -0.5,1.5C 65.5,1.5 131.5,1.5 197.5,1.5C 200.152,1.59047 202.485,0.923808 204.5,-0.5 Z M 178.5,124.5 C 224.5,124.5 270.5,124.5 316.5,124.5C 316.667,136.838 316.5,149.171 316,161.5C 287.333,196.833 258.667,232.167 230,267.5C 229.51,268.793 229.343,270.127 229.5,271.5C 259.5,271.5 289.5,271.5 319.5,271.5C 319.5,284.5 319.5,297.5 319.5,310.5C 271.833,310.5 224.167,310.5 176.5,310.5C 176.038,297.401 176.538,284.401 178,271.5C 205.667,236.5 233.333,201.5 261,166.5C 261.483,165.552 261.649,164.552 261.5,163.5C 233.833,163.5 206.167,163.5 178.5,163.5C 178.5,150.5 178.5,137.5 178.5,124.5 Z M 195.5,139.5 C 197.167,139.5 198.833,139.5 200.5,139.5C 200.5,143.5 200.5,147.5 200.5,151.5C 199.167,151.5 197.833,151.5 196.5,151.5C 196.665,148.482 196.498,145.482 196,142.5C 194.272,141.648 194.105,140.648 195.5,139.5 Z M 286.5,156.5 C 294.1,156.213 295.767,159.046 291.5,165C 292.448,165.483 293.448,165.649 294.5,165.5C 294.5,166.5 294.5,167.5 294.5,168.5C 291.5,168.5 288.5,168.5 285.5,168.5C 285.351,167.448 285.517,166.448 286,165.5C 288.295,163.92 289.628,161.92 290,159.5C 288.89,161.037 287.39,161.703 285.5,161.5C 285.629,159.784 285.962,158.117 286.5,156.5 Z M 190.5,292.5 C 190.5,291.5 190.5,290.5 190.5,289.5C 187.795,289.62 187.128,288.62 188.5,286.5C 190.833,285.167 193.167,285.167 195.5,286.5C 195.378,289.447 195.544,292.447 196,295.5C 194.192,297.396 192.025,297.896 189.5,297C 187.963,295.89 187.297,294.39 187.5,292.5C 188.5,292.5 189.5,292.5 190.5,292.5 Z"/></g>
<g><path style="opacity:0.616" fill="#a8a8a8" d="M 236.5,-0.5 C 239.5,-0.5 242.5,-0.5 245.5,-0.5C 254.833,0.833333 264.167,0.833333 273.5,-0.5C 283.167,-0.5 292.833,-0.5 302.5,-0.5C 302.082,0.221579 301.416,0.721579 300.5,1C 279.836,1.49996 259.169,1.66662 238.5,1.5C 237.833,0.833333 237.167,0.166667 236.5,-0.5 Z"/></g>
<g><path style="opacity:0.975" fill="#a7a7a7" d="M 458.5,-0.5 C 459.833,-0.5 461.167,-0.5 462.5,-0.5C 474.655,0.495218 486.989,0.828551 499.5,0.5C 499.5,0.833333 499.5,1.16667 499.5,1.5C 486.163,1.66656 472.829,1.4999 459.5,1C 458.944,0.617425 458.611,0.117425 458.5,-0.5 Z"/></g>
<g><path style="opacity:1" fill="#cccccc" d="M 200.5,-0.5 C 201.833,-0.5 203.167,-0.5 204.5,-0.5C 202.485,0.923808 200.152,1.59047 197.5,1.5C 198.5,0.833333 199.5,0.166667 200.5,-0.5 Z"/></g>
<g><path style="opacity:1" fill="#d5d5d5" d="M 231.5,-0.5 C 233.167,-0.5 234.833,-0.5 236.5,-0.5C 237.167,0.166667 237.833,0.833333 238.5,1.5C 235.848,1.59047 233.515,0.923808 231.5,-0.5 Z"/></g>
<g><path style="opacity:0.928" fill="#a5a6a5" d="M 177.5,123.5 C 224.167,123.5 270.833,123.5 317.5,123.5C 317.667,136.504 317.5,149.504 317,162.5C 287.977,198.022 259.144,233.689 230.5,269.5C 260.493,270.5 290.493,270.833 320.5,270.5C 320.5,284.167 320.5,297.833 320.5,311.5C 272.167,311.5 223.833,311.5 175.5,311.5C 175.036,297.735 175.536,284.068 177,270.5C 204.833,235.333 232.667,200.167 260.5,165C 232.835,164.5 205.169,164.333 177.5,164.5C 177.5,150.833 177.5,137.167 177.5,123.5 Z M 178.5,124.5 C 178.5,137.5 178.5,150.5 178.5,163.5C 206.167,163.5 233.833,163.5 261.5,163.5C 261.649,164.552 261.483,165.552 261,166.5C 233.333,201.5 205.667,236.5 178,271.5C 176.538,284.401 176.038,297.401 176.5,310.5C 224.167,310.5 271.833,310.5 319.5,310.5C 319.5,297.5 319.5,284.5 319.5,271.5C 289.5,271.5 259.5,271.5 229.5,271.5C 229.343,270.127 229.51,268.793 230,267.5C 258.667,232.167 287.333,196.833 316,161.5C 316.5,149.171 316.667,136.838 316.5,124.5C 270.5,124.5 224.5,124.5 178.5,124.5 Z M 195.5,139.5 C 194.105,140.648 194.272,141.648 196,142.5C 196.498,145.482 196.665,148.482 196.5,151.5C 197.833,151.5 199.167,151.5 200.5,151.5C 200.5,147.5 200.5,143.5 200.5,139.5C 198.833,139.5 197.167,139.5 195.5,139.5 Z M 286.5,156.5 C 285.962,158.117 285.629,159.784 285.5,161.5C 287.39,161.703 288.89,161.037 290,159.5C 289.628,161.92 288.295,163.92 286,165.5C 285.517,166.448 285.351,167.448 285.5,168.5C 288.5,168.5 291.5,168.5 294.5,168.5C 294.5,167.5 294.5,166.5 294.5,165.5C 293.448,165.649 292.448,165.483 291.5,165C 295.767,159.046 294.1,156.213 286.5,156.5 Z M 190.5,292.5 C 189.5,292.5 188.5,292.5 187.5,292.5C 187.297,294.39 187.963,295.89 189.5,297C 192.025,297.896 194.192,297.396 196,295.5C 195.544,292.447 195.378,289.447 195.5,286.5C 193.167,285.167 190.833,285.167 188.5,286.5C 187.128,288.62 187.795,289.62 190.5,289.5C 190.5,290.5 190.5,291.5 190.5,292.5 Z"/></g>
<g><path style="opacity:0.899" fill="#ed3a5f" d="M 193.5,133.5 C 205.99,131.823 211.157,137.156 209,149.5C 208.215,151.286 207.049,152.786 205.5,154C 192.074,158.238 186.241,153.404 188,139.5C 189.36,136.977 191.193,134.977 193.5,133.5 Z M 195.5,139.5 C 194.105,140.648 194.272,141.648 196,142.5C 196.498,145.482 196.665,148.482 196.5,151.5C 197.833,151.5 199.167,151.5 200.5,151.5C 200.5,147.5 200.5,143.5 200.5,139.5C 198.833,139.5 197.167,139.5 195.5,139.5 Z"/></g>
<g><path style="opacity:0.834" fill="#ed3a5f" d="M 212.5,142.5 C 218.317,142.03 219.984,144.196 217.5,149C 211.741,150.139 210.074,147.972 212.5,142.5 Z"/></g>
<g><path style="opacity:0.802" fill="#ed3a5f" d="M 226.5,142.5 C 231.006,141.527 233.172,143.194 233,147.5C 226.645,151.201 224.478,149.534 226.5,142.5 Z"/></g>
<g><path style="opacity:0.771" fill="#ed3a5f" d="M 240.5,142.5 C 245.914,141.565 247.914,143.565 246.5,148.5C 240.129,150.796 238.129,148.796 240.5,142.5 Z"/></g>
<g><path style="opacity:0.769" fill="#ed3a5f" d="M 254.5,142.5 C 259.914,141.565 261.914,143.565 260.5,148.5C 254.129,150.796 252.129,148.796 254.5,142.5 Z"/></g>
<g><path style="opacity:0.771" fill="#ed3a5f" d="M 268.5,142.5 C 273.914,141.565 275.914,143.565 274.5,148.5C 268.129,150.796 266.129,148.796 268.5,142.5 Z"/></g>
<g><path style="opacity:0.74" fill="#ed3a5f" d="M 282.5,142.5 C 288.113,141.079 290.28,143.079 289,148.5C 282.423,151.088 280.256,149.088 282.5,142.5 Z"/></g>
<g><path style="opacity:0.89" fill="#ed3a5f" d="M 284.5,151.5 C 296.99,149.823 302.157,155.156 300,167.5C 299.215,169.286 298.049,170.786 296.5,172C 283.074,176.238 277.241,171.404 279,157.5C 280.36,154.977 282.193,152.977 284.5,151.5 Z M 286.5,156.5 C 285.962,158.117 285.629,159.784 285.5,161.5C 287.39,161.703 288.89,161.037 290,159.5C 289.628,161.92 288.295,163.92 286,165.5C 285.517,166.448 285.351,167.448 285.5,168.5C 288.5,168.5 291.5,168.5 294.5,168.5C 294.5,167.5 294.5,166.5 294.5,165.5C 293.448,165.649 292.448,165.483 291.5,165C 295.767,159.046 294.1,156.213 286.5,156.5 Z"/></g>
<g><path style="opacity:0.822" fill="#ed3a5f" d="M 278.5,174.5 C 283.675,173.507 285.509,175.507 284,180.5C 280.76,182.827 278.26,181.994 276.5,178C 277.305,176.887 277.972,175.721 278.5,174.5 Z"/></g>
<g><path style="opacity:0.771" fill="#ed3a5f" d="M 269.5,185.5 C 274.914,184.565 276.914,186.565 275.5,191.5C 269.129,193.796 267.129,191.796 269.5,185.5 Z"/></g>
<g><path style="opacity:0.743" fill="#ed3a5f" d="M 260.5,196.5 C 266.113,195.079 268.28,197.079 267,202.5C 260.423,205.088 258.256,203.088 260.5,196.5 Z"/></g>
<g><path style="opacity:0.742" fill="#ed3a5f" d="M 251.5,207.5 C 257.113,206.079 259.28,208.079 258,213.5C 251.423,216.088 249.256,214.088 251.5,207.5 Z"/></g>
<g><path style="opacity:0.755" fill="#ed3a5f" d="M 245.5,217.5 C 249.396,218.78 250.396,221.28 248.5,225C 243.098,226.421 241.098,224.588 242.5,219.5C 243.602,218.824 244.602,218.158 245.5,217.5 Z"/></g>
<g><path style="opacity:0.821" fill="#ed3a5f" d="M 236.5,228.5 C 240.396,229.78 241.396,232.28 239.5,236C 236.153,237.206 233.82,236.206 232.5,233C 233.357,230.981 234.691,229.481 236.5,228.5 Z"/></g>
<g><path style="opacity:0.755" fill="#ed3a5f" d="M 227.5,239.5 C 231.718,240.275 233.052,242.609 231.5,246.5C 225.976,248.914 223.809,247.248 225,241.5C 225.995,240.934 226.828,240.267 227.5,239.5 Z"/></g>
<g><path style="opacity:0.728" fill="#ed3a5f" d="M 218.5,250.5 C 223.19,250.94 224.524,253.274 222.5,257.5C 216.976,259.914 214.809,258.248 216,252.5C 216.995,251.934 217.828,251.267 218.5,250.5 Z"/></g>
<g><path style="opacity:0.715" fill="#ed3a5f" d="M 209.5,261.5 C 214.266,262.158 215.6,264.658 213.5,269C 207.906,270.913 205.739,269.08 207,263.5C 207.995,262.934 208.828,262.267 209.5,261.5 Z"/></g>
<g><path style="opacity:0.882" fill="#ed3a5f" d="M 187.5,279.5 C 200.512,277.178 205.679,282.512 203,295.5C 202.215,297.286 201.049,298.786 199.5,300C 186.074,304.238 180.241,299.404 182,285.5C 183.36,282.977 185.193,280.977 187.5,279.5 Z M 190.5,292.5 C 189.5,292.5 188.5,292.5 187.5,292.5C 187.297,294.39 187.963,295.89 189.5,297C 192.025,297.896 194.192,297.396 196,295.5C 195.544,292.447 195.378,289.447 195.5,286.5C 193.167,285.167 190.833,285.167 188.5,286.5C 187.128,288.62 187.795,289.62 190.5,289.5C 190.5,290.5 190.5,291.5 190.5,292.5 Z"/></g>
<g><path style="opacity:0.851" fill="#ed3a5f" d="M 208.5,289.5 C 214.158,288.679 215.825,290.846 213.5,296C 207.741,297.139 206.074,294.972 208.5,289.5 Z"/></g>
<g><path style="opacity:0.851" fill="#ed3a5f" d="M 222.5,289.5 C 228.158,288.679 229.825,290.846 227.5,296C 221.741,297.139 220.074,294.972 222.5,289.5 Z"/></g>
<g><path style="opacity:0.851" fill="#ed3a5f" d="M 236.5,289.5 C 242.158,288.679 243.825,290.846 241.5,296C 235.741,297.139 234.074,294.972 236.5,289.5 Z"/></g>
<g><path style="opacity:0.851" fill="#ed3a5f" d="M 250.5,289.5 C 256.158,288.679 257.825,290.846 255.5,296C 249.741,297.139 248.074,294.972 250.5,289.5 Z"/></g>
<g><path style="opacity:0.851" fill="#ed3a5f" d="M 264.5,289.5 C 270.158,288.679 271.825,290.846 269.5,296C 263.741,297.139 262.074,294.972 264.5,289.5 Z"/></g>
<g><path style="opacity:0.851" fill="#ed3a5f" d="M 278.5,289.5 C 284.158,288.679 285.825,290.846 283.5,296C 277.741,297.139 276.074,294.972 278.5,289.5 Z"/></g>
<g><path style="opacity:0.851" fill="#ed3a5f" d="M 292.5,289.5 C 298.158,288.679 299.825,290.846 297.5,296C 291.741,297.139 290.074,294.972 292.5,289.5 Z"/></g>
<g><path style="opacity:0.85" fill="#ed3a5f" d="M 306.5,289.5 C 312.158,288.679 313.825,290.846 311.5,296C 305.741,297.139 304.074,294.972 306.5,289.5 Z"/></g>
<g><path style="opacity:1" fill="#ed3a5f" d="M 190.5,292.5 C 192.028,292.517 192.528,293.184 192,294.5C 191.283,293.956 190.783,293.289 190.5,292.5 Z"/></g>
</svg>
